  0
SECTION
  2
HEADER
  9
$ACADVER
  1
AC1009
  9
$DWGCODEPAGE
  3
ansi_1252
  9
$INSBASE
 10
0.0
 20
0.0
 30
0.0
  9
$EXTMIN
 10
-0.0000000000000037
 20
-0.3125689600791741
 30
0.0
  9
$EXTMAX
 10
10.2613106961328
 20
12.91818157234874
 30
0.0
  9
$LIMMIN
 10
0.0
 20
0.0
  9
$LIMMAX
 10
12.0
 20
9.0
  9
$ORTHOMODE
 70
     0
  9
$REGENMODE
 70
     1
  9
$FILLMODE
 70
     1
  9
$QTEXTMODE
 70
     0
  9
$MIRRTEXT
 70
     1
  9
$DRAGMODE
 70
     2
  9
$LTSCALE
 40
1.0
  9
$OSMODE
 70
    37
  9
$ATTMODE
 70
     1
  9
$TEXTSIZE
 40
0.2
  9
$TRACEWID
 40
0.05
  9
$TEXTSTYLE
  7
STANDARD
  9
$CLAYER
  8
DEFAULT
  9
$CELTYPE
  6
BYLAYER
  9
$CECOLOR
 62
   256
  9
$DIMSCALE
 40
1.0
  9
$DIMASZ
 40
0.18
  9
$DIMEXO
 40
0.0625
  9
$DIMDLI
 40
0.38
  9
$DIMRND
 40
0.0
  9
$DIMDLE
 40
0.0
  9
$DIMEXE
 40
0.18
  9
$DIMTP
 40
0.0
  9
$DIMTM
 40
0.0
  9
$DIMTXT
 40
0.18
  9
$DIMCEN
 40
0.09
  9
$DIMTSZ
 40
0.0
  9
$DIMTOL
 70
     0
  9
$DIMLIM
 70
     0
  9
$DIMTIH
 70
     1
  9
$DIMTOH
 70
     1
  9
$DIMSE1
 70
     0
  9
$DIMSE2
 70
     0
  9
$DIMTAD
 70
     0
  9
$DIMZIN
 70
     0
  9
$DIMBLK
  1

  9
$DIMASO
 70
     1
  9
$DIMSHO
 70
     1
  9
$DIMPOST
  1

  9
$DIMAPOST
  1

  9
$DIMALT
 70
     0
  9
$DIMALTD
 70
     2
  9
$DIMALTF
 40
25.4
  9
$DIMLFAC
 40
1.0
  9
$DIMTOFL
 70
     0
  9
$DIMTVP
 40
0.0
  9
$DIMTIX
 70
     0
  9
$DIMSOXD
 70
     0
  9
$DIMSAH
 70
     0
  9
$DIMBLK1
  1

  9
$DIMBLK2
  1

  9
$DIMSTYLE
  2
STANDARD
  9
$DIMCLRD
 70
     0
  9
$DIMCLRE
 70
     0
  9
$DIMCLRT
 70
     0
  9
$DIMTFAC
 40
1.0
  9
$DIMGAP
 40
0.09
  9
$LUNITS
 70
     2
  9
$LUPREC
 70
     2
  9
$SKETCHINC
 40
0.1
  9
$FILLETRAD
 40
0.5
  9
$AUNITS
 70
     0
  9
$AUPREC
 70
     0
  9
$MENU
  1
.
  9
$ELEVATION
 40
0.0
  9
$PELEVATION
 40
0.0
  9
$THICKNESS
 40
0.0
  9
$LIMCHECK
 70
     0
  9
$CHAMFERA
 40
0.0
  9
$CHAMFERB
 40
0.0
  9
$SKPOLY
 70
     0
  9
$TDCREATE
 40
2458441.611623982
  9
$TDUPDATE
 40
2458441.611662928
  9
$TDINDWG
 40
0.0000000116
  9
$TDUSRTIMER
 40
0.0000000116
  9
$USRTIMER
 70
     1
  9
$ANGBASE
 50
0.0
  9
$ANGDIR
 70
     0
  9
$PDMODE
 70
     0
  9
$PDSIZE
 40
0.0
  9
$PLINEWID
 40
0.0
  9
$COORDS
 70
     1
  9
$SPLFRAME
 70
     0
  9
$SPLINETYPE
 70
     6
  9
$SPLINESEGS
 70
     8
  9
$ATTDIA
 70
     0
  9
$ATTREQ
 70
     1
  9
$HANDLING
 70
     1
  9
$HANDSEED
  5
52D
  9
$SURFTAB1
 70
     6
  9
$SURFTAB2
 70
     6
  9
$SURFTYPE
 70
     6
  9
$SURFU
 70
     6
  9
$SURFV
 70
     6
  9
$UCSNAME
  2

  9
$UCSORG
 10
0.0
 20
0.0
 30
0.0
  9
$UCSXDIR
 10
1.0
 20
0.0
 30
0.0
  9
$UCSYDIR
 10
0.0
 20
1.0
 30
0.0
  9
$PUCSNAME
  2

  9
$PUCSORG
 10
0.0
 20
0.0
 30
0.0
  9
$PUCSXDIR
 10
1.0
 20
0.0
 30
0.0
  9
$PUCSYDIR
 10
0.0
 20
1.0
 30
0.0
  9
$USERI1
 70
     0
  9
$USERI2
 70
     0
  9
$USERI3
 70
     0
  9
$USERI4
 70
     0
  9
$USERI5
 70
     0
  9
$USERR1
 40
0.0
  9
$USERR2
 40
0.0
  9
$USERR3
 40
0.0
  9
$USERR4
 40
0.0
  9
$USERR5
 40
0.0
  9
$WORLDVIEW
 70
     1
  9
$SHADEDGE
 70
     3
  9
$SHADEDIF
 70
    70
  9
$TILEMODE
 70
     1
  9
$MAXACTVP
 70
    64
  9
$PLIMCHECK
 70
     0
  9
$PEXTMIN
 10
1.000000000000000E+20
 20
1.000000000000000E+20
 30
1.000000000000000E+20
  9
$PEXTMAX
 10
-1.000000000000000E+20
 20
-1.000000000000000E+20
 30
-1.000000000000000E+20
  9
$PLIMMIN
 10
0.0
 20
0.0
  9
$PLIMMAX
 10
12.0
 20
9.0
  9
$UNITMODE
 70
     0
  9
$VISRETAIN
 70
     1
  9
$PLINEGEN
 70
     0
  9
$PSLTSCALE
 70
     1
  0
ENDSEC
  0
SECTION
  2
TABLES
  0
TABLE
  2
VPORT
 70
     1
  0
VPORT
  2
*ACTIVE
 70
     0
 10
0.0
 20
0.0
 11
1.0
 21
1.0
 12
5.130655348066398
 22
6.302806306134783
 13
0.0
 23
0.0
 14
0.5
 24
0.5
 15
0.5
 25
0.5
 16
0.0
 26
0.0
 36
1.0
 17
0.0
 27
0.0
 37
0.0
 40
13.49536554307647
 41
0.7755652765867544
 42
50.0
 43
0.0
 44
0.0
 50
0.0
 51
0.0
 71
     0
 72
   100
 73
     1
 74
     3
 75
     0
 76
     0
 77
     0
 78
     0
  0
ENDTAB
  0
TABLE
  2
LTYPE
 70
     1
  0
LTYPE
  2
CONTINUOUS
 70
     0
  3
Solid line
 72
    65
 73
     0
 40
0.0
  0
ENDTAB
  0
TABLE
  2
LAYER
 70
     2
  0
LAYER
  2
0
 70
     0
 62
     7
  6
CONTINUOUS
  0
LAYER
  2
DEFAULT
 70
     0
 62
     7
  6
CONTINUOUS
  0
ENDTAB
  0
TABLE
  2
STYLE
 70
     1
  0
STYLE
  2
STANDARD
 70
     0
 40
0.0
 41
1.0
 50
0.0
 71
     0
 42
0.2
  3
txt
  4

  0
ENDTAB
  0
TABLE
  2
VIEW
 70
     0
  0
ENDTAB
  0
TABLE
  2
UCS
 70
     0
  0
ENDTAB
  0
TABLE
  2
APPID
 70
     1
  0
APPID
  2
ACAD
 70
     0
  0
ENDTAB
  0
TABLE
  2
DIMSTYLE
 70
     1
  0
DIMSTYLE
  2
STANDARD
 70
     0
  3

  4

  5

  6

  7

 40
1.0
 41
0.18
 42
0.0625
 43
0.38
 44
0.18
 45
0.0
 46
0.0
 47
0.0
 48
0.0
140
0.18
141
0.09
142
0.0
143
25.4
144
1.0
145
0.0
146
1.0
147
0.09
 71
     0
 72
     0
 73
     1
 74
     1
 75
     0
 76
     0
 77
     0
 78
     0
170
     0
171
     2
172
     0
173
     0
174
     0
175
     0
176
     0
177
     0
178
     0
  0
ENDTAB
  0
ENDSEC
  0
SECTION
  2
BLOCKS
  0
BLOCK
  8
0
  2
$MODEL_SPACE
 70
     0
 10
0.0
 20
0.0
 30
0.0
  3
$MODEL_SPACE
  1

  0
ENDBLK
  5
21
  8
0
  0
BLOCK
 67
     1
  8
0
  2
$PAPER_SPACE
 70
     0
 10
0.0
 20
0.0
 30
0.0
  3
$PAPER_SPACE
  1

  0
ENDBLK
  5
1D
 67
     1
  8
0
  0
ENDSEC
  0
SECTION
  2
ENTITIES
  0
POLYLINE
  5
6F
  8
DEFAULT
 66
     1
 10
0.0
 20
0.0
 30
0.0
 70
     1
  0
VERTEX
  5
70
  8
DEFAULT
 10
9.391598597394447
 20
12.05188063908596
 30
0.0
 42
0.9999999999999999
  0
VERTEX
  5
71
  8
DEFAULT
 10
9.391598597394449
 20
12.40621134774737
 30
0.0
  0
VERTEX
  5
72
  8
DEFAULT
 10
9.037267888733028
 20
12.40621134774737
 30
0.0
 42
0.9999999999999999
  0
VERTEX
  5
73
  8
DEFAULT
 10
9.037267888733028
 20
12.05188063908596
 30
0.0
  0
SEQEND
  5
74
  8
DEFAULT
  0
POLYLINE
  5
75
  8
DEFAULT
 66
     1
 10
0.0
 20
0.0
 30
0.0
 70
     1
  0
VERTEX
  5
76
  8
DEFAULT
 10
8.430925488901151
 20
12.05188063908596
 30
0.0
 42
0.9999999999999999
  0
VERTEX
  5
77
  8
DEFAULT
 10
8.430925488901153
 20
12.40621134774737
 30
0.0
  0
VERTEX
  5
78
  8
DEFAULT
 10
8.076594780239732
 20
12.40621134774737
 30
0.0
 42
0.9999999999999999
  0
VERTEX
  5
79
  8
DEFAULT
 10
8.076594780239734
 20
12.05188063908596
 30
0.0
  0
SEQEND
  5
7A
  8
DEFAULT
  0
POLYLINE
  5
7B
  8
DEFAULT
 66
     1
 10
0.0
 20
0.0
 30
0.0
 70
     1
  0
VERTEX
  5
7C
  8
DEFAULT
 10
7.470252380407855
 20
12.05188063908596
 30
0.0
 42
0.9999999999999948
  0
VERTEX
  5
7D
  8
DEFAULT
 10
7.470252380407855
 20
12.40621134774737
 30
0.0
  0
VERTEX
  5
7E
  8
DEFAULT
 10
7.115921671746436
 20
12.40621134774737
 30
0.0
 42
0.9999999999999999
  0
VERTEX
  5
7F
  8
DEFAULT
 10
7.115921671746436
 20
12.05188063908596
 30
0.0
  0
SEQEND
  5
80
  8
DEFAULT
  0
POLYLINE
  5
81
  8
DEFAULT
 66
     1
 10
0.0
 20
0.0
 30
0.0
 70
     1
  0
VERTEX
  5
82
  8
DEFAULT
 10
6.509579271914559
 20
12.05188063908596
 30
0.0
 42
0.9999999999999948
  0
VERTEX
  5
83
  8
DEFAULT
 10
6.509579271914559
 20
12.40621134774737
 30
0.0
  0
VERTEX
  5
84
  8
DEFAULT
 10
6.15524856325314
 20
12.40621134774737
 30
0.0
 42
0.9999999999999999
  0
VERTEX
  5
85
  8
DEFAULT
 10
6.15524856325314
 20
12.05188063908596
 30
0.0
  0
SEQEND
  5
86
  8
DEFAULT
  0
POLYLINE
  5
87
  8
DEFAULT
 66
     1
 10
0.0
 20
0.0
 30
0.0
 70
     1
  0
VERTEX
  5
88
  8
DEFAULT
 10
5.548906163421261
 20
12.05188063908596
 30
0.0
 42
0.9999999999999948
  0
VERTEX
  5
89
  8
DEFAULT
 10
5.548906163421261
 20
12.40621134774737
 30
0.0
  0
VERTEX
  5
8A
  8
DEFAULT
 10
5.194575454759844
 20
12.40621134774737
 30
0.0
 42
0.9999999999999999
  0
VERTEX
  5
8B
  8
DEFAULT
 10
5.194575454759844
 20
12.05188063908596
 30
0.0
  0
SEQEND
  5
8C
  8
DEFAULT
  0
POLYLINE
  5
8D
  8
DEFAULT
 66
     1
 10
0.0
 20
0.0
 30
0.0
 70
     1
  0
VERTEX
  5
8E
  8
DEFAULT
 10
4.588233054927965
 20
12.05188063908596
 30
0.0
 42
0.9999999999999948
  0
VERTEX
  5
8F
  8
DEFAULT
 10
4.588233054927965
 20
12.40621134774737
 30
0.0
  0
VERTEX
  5
90
  8
DEFAULT
 10
4.233902346266548
 20
12.40621134774737
 30
0.0
 42
0.9999999999999999
  0
VERTEX
  5
91
  8
DEFAULT
 10
4.233902346266547
 20
12.05188063908596
 30
0.0
  0
SEQEND
  5
92
  8
DEFAULT
  0
POLYLINE
  5
93
  8
DEFAULT
 66
     1
 10
0.0
 20
0.0
 30
0.0
 70
     1
  0
VERTEX
  5
94
  8
DEFAULT
 10
3.627559946434669
 20
12.05188063908596
 30
0.0
 42
0.999999999999991
  0
VERTEX
  5
95
  8
DEFAULT
 10
3.627559946434669
 20
12.40621134774737
 30
0.0
  0
VERTEX
  5
96
  8
DEFAULT
 10
3.273229237773252
 20
12.40621134774737
 30
0.0
 42
0.9999999999999948
  0
VERTEX
  5
97
  8
DEFAULT
 10
3.273229237773252
 20
12.05188063908596
 30
0.0
  0
SEQEND
  5
98
  8
DEFAULT
  0
POLYLINE
  5
99
  8
DEFAULT
 66
     1
 10
0.0
 20
0.0
 30
0.0
 70
     1
  0
VERTEX
  5
9A
  8
DEFAULT
 10
2.666886837941373
 20
12.05188063908596
 30
0.0
 42
0.999999999999991
  0
VERTEX
  5
9B
  8
DEFAULT
 10
2.666886837941373
 20
12.40621134774737
 30
0.0
  0
VERTEX
  5
9C
  8
DEFAULT
 10
2.312556129279956
 20
12.40621134774737
 30
0.0
 42
0.9999999999999948
  0
VERTEX
  5
9D
  8
DEFAULT
 10
2.312556129279956
 20
12.05188063908596
 30
0.0
  0
SEQEND
  5
9E
  8
DEFAULT
  0
POLYLINE
  5
9F
  8
DEFAULT
 66
     1
 10
0.0
 20
0.0
 30
0.0
 70
     1
  0
VERTEX
  5
A0
  8
DEFAULT
 10
1.706213729448077
 20
12.05188063908596
 30
0.0
 42
0.9999999999999948
  0
VERTEX
  5
A1
  8
DEFAULT
 10
1.706213729448077
 20
12.40621134774737
 30
0.0
  0
VERTEX
  5
A2
  8
DEFAULT
 10
1.35188302078666
 20
12.40621134774737
 30
0.0
 42
0.9999999999999948
  0
VERTEX
  5
A3
  8
DEFAULT
 10
1.35188302078666
 20
12.05188063908596
 30
0.0
  0
SEQEND
  5
A4
  8
DEFAULT
  0
CIRCLE
  5
A5
  8
DEFAULT
 10
9.98468411876935
 20
12.33996613211995
 30
0.0
 40
0.0625
  0
CIRCLE
  5
A6
  8
DEFAULT
 10
9.98468411876935
 20
12.33996613211995
 30
0.0
 40
0.15
  0
CIRCLE
  5
A7
  8
DEFAULT
 10
0.4693559104353593
 20
12.37511423690776
 30
0.0
 40
0.15
  0
CIRCLE
  5
A8
  8
DEFAULT
 10
0.4693559104353593
 20
11.24571864573159
 30
0.0
 40
0.15
  0
CIRCLE
  5
A9
  8
DEFAULT
 10
0.4693559104353593
 20
11.24571864573159
 30
0.0
 40
0.0625
  0
CIRCLE
  5
AA
  8
DEFAULT
 10
1.529048375117368
 20
12.58719646004806
 30
0.0
 40
0.0625
  0
CIRCLE
  5
AB
  8
DEFAULT
 10
2.489721483610664
 20
12.58719646004806
 30
0.0
 40
0.0625
  0
CIRCLE
  5
AC
  8
DEFAULT
 10
3.45039459210396
 20
12.58719646004806
 30
0.0
 40
0.0625
  0
CIRCLE
  5
AD
  8
DEFAULT
 10
4.411067700597256
 20
12.58719646004806
 30
0.0
 40
0.0625
  0
CIRCLE
  5
AE
  8
DEFAULT
 10
5.371740809090552
 20
12.58719646004806
 30
0.0
 40
0.0625
  0
CIRCLE
  5
AF
  8
DEFAULT
 10
6.332413917583848
 20
12.58719646004806
 30
0.0
 40
0.0625
  0
CIRCLE
  5
B0
  8
DEFAULT
 10
7.29308702607714
 20
12.58719646004806
 30
0.0
 40
0.0625
  0
CIRCLE
  5
B1
  8
DEFAULT
 10
8.25376013457044
 20
12.58719646004806
 30
0.0
 40
0.0625
  0
CIRCLE
  5
B2
  8
DEFAULT
 10
9.214433243063736
 20
12.58719646004806
 30
0.0
 40
0.0625
  0
CIRCLE
  5
B3
  8
DEFAULT
 10
0.4693559104353593
 20
12.37511423690776
 30
0.0
 40
0.0625
  0
CIRCLE
  5
B4
  8
DEFAULT
 10
1.528966792104413
 20
11.03363640040534
 30
0.0
 40
0.0625
  0
CIRCLE
  5
B5
  8
DEFAULT
 10
2.489639900597709
 20
11.03363640040534
 30
0.0
 40
0.0625
  0
CIRCLE
  5
B6
  8
DEFAULT
 10
3.450313009091005
 20
11.03363640040534
 30
0.0
 40
0.0625
  0
CIRCLE
  5
B7
  8
DEFAULT
 10
4.410986117584301
 20
11.03363640040534
 30
0.0
 40
0.0625
  0
CIRCLE
  5
B8
  8
DEFAULT
 10
5.371659226077597
 20
11.03363640040534
 30
0.0
 40
0.0625
  0
CIRCLE
  5
B9
  8
DEFAULT
 10
6.332332334570891
 20
11.03363640040534
 30
0.0
 40
0.0625
  0
CIRCLE
  5
BA
  8
DEFAULT
 10
7.293005443064187
 20
11.03363640040534
 30
0.0
 40
0.0625
  0
CIRCLE
  5
BB
  8
DEFAULT
 10
8.253678551557483
 20
11.03363640040534
 30
0.0
 40
0.0625
  0
CIRCLE
  5
BC
  8
DEFAULT
 10
9.214351660050779
 20
11.03363640040534
 30
0.0
 40
0.0625
  0
CIRCLE
  5
BD
  8
DEFAULT
 10
0.4693559104353593
 20
11.79832896681427
 30
0.0
 40
0.14
  0
POLYLINE
  5
BE
  8
DEFAULT
 66
     1
 10
0.0
 20
0.0
 30
0.0
 70
     1
  0
VERTEX
  5
BF
  8
DEFAULT
 10
9.584769797310395
 20
11.63622988273737
 30
0.0
  0
VERTEX
  5
C0
  8
DEFAULT
 10
9.5847697973104
 20
11.10265131029061
 30
0.0
 42
-0.4142135623731034
  0
VERTEX
  5
C1
  8
DEFAULT
 10
9.3347697973104
 20
10.85265131029061
 30
0.0
  0
VERTEX
  5
C2
  8
DEFAULT
 10
0.2499999999999982
 20
10.85265131029061
 30
0.0
 42
-0.414213562373091
  0
VERTEX
  5
C3
  8
DEFAULT
 10
0.0
 20
11.10265131029061
 30
0.0
  0
VERTEX
  5
C4
  8
DEFAULT
 10
-0.0000000000000019
 20
12.51818157234874
 30
0.0
 42
-0.4142135623730939
  0
VERTEX
  5
C5
  8
DEFAULT
 10
0.2499999999999982
 20
12.76818157234874
 30
0.0
  0
VERTEX
  5
C6
  8
DEFAULT
 10
10.0113106961328
 20
12.76818157234874
 30
0.0
 42
-0.4142135623730888
  0
VERTEX
  5
C7
  8
DEFAULT
 10
10.2613106961328
 20
12.51818157234874
 30
0.0
  0
VERTEX
  5
C8
  8
DEFAULT
 10
10.2613106961328
 20
12.13622988273737
 30
0.0
 42
-0.4142135623730998
  0
VERTEX
  5
C9
  8
DEFAULT
 10
10.0113106961328
 20
11.88622988273737
 30
0.0
  0
VERTEX
  5
CA
  8
DEFAULT
 10
9.834769797310395
 20
11.88622988273737
 30
0.0
 42
0.4142135623730969
  0
SEQEND
  5
CB
  8
DEFAULT
  0
POLYLINE
  5
CC
  8
DEFAULT
 66
     1
 10
0.0
 20
0.0
 30
0.0
 70
     1
  0
VERTEX
  5
CD
  8
DEFAULT
 10
1.379048375117368
 20
12.40621134774737
 30
0.0
 42
1.000000000000006
  0
VERTEX
  5
CE
  8
DEFAULT
 10
1.679048375117368
 20
12.40621134774737
 30
0.0
  0
VERTEX
  5
CF
  8
DEFAULT
 10
1.679048375117368
 20
12.76818157234874
 30
0.0
 42
1.000000000000006
  0
VERTEX
  5
D0
  8
DEFAULT
 10
1.379048375117368
 20
12.76818157234874
 30
0.0
  0
SEQEND
  5
D1
  8
DEFAULT
  0
POLYLINE
  5
D2
  8
DEFAULT
 66
     1
 10
0.0
 20
0.0
 30
0.0
 70
     1
  0
VERTEX
  5
D3
  8
DEFAULT
 10
2.339639900597708
 20
12.40621134774737
 30
0.0
 42
1.000000000000006
  0
VERTEX
  5
D4
  8
DEFAULT
 10
2.639639900597709
 20
12.40621134774737
 30
0.0
  0
VERTEX
  5
D5
  8
DEFAULT
 10
2.639639900597709
 20
12.76818157234874
 30
0.0
 42
1.000000000000006
  0
VERTEX
  5
D6
  8
DEFAULT
 10
2.339639900597708
 20
12.76818157234874
 30
0.0
  0
SEQEND
  5
D7
  8
DEFAULT
  0
POLYLINE
  5
D8
  8
DEFAULT
 66
     1
 10
0.0
 20
0.0
 30
0.0
 70
     1
  0
VERTEX
  5
D9
  8
DEFAULT
 10
3.300231426078049
 20
12.40621134774737
 30
0.0
 42
1.000000000000006
  0
VERTEX
  5
DA
  8
DEFAULT
 10
3.60023142607805
 20
12.40621134774737
 30
0.0
  0
VERTEX
  5
DB
  8
DEFAULT
 10
3.60023142607805
 20
12.76818157234874
 30
0.0
 42
1.000000000000006
  0
VERTEX
  5
DC
  8
DEFAULT
 10
3.300231426078049
 20
12.76818157234874
 30
0.0
  0
SEQEND
  5
DD
  8
DEFAULT
  0
POLYLINE
  5
DE
  8
DEFAULT
 66
     1
 10
0.0
 20
0.0
 30
0.0
 70
     1
  0
VERTEX
  5
DF
  8
DEFAULT
 10
4.26082295155839
 20
12.40621134774737
 30
0.0
 42
1.000000000000006
  0
VERTEX
  5
E0
  8
DEFAULT
 10
4.560822951558391
 20
12.40621134774737
 30
0.0
  0
VERTEX
  5
E1
  8
DEFAULT
 10
4.560822951558391
 20
12.76818157234874
 30
0.0
 42
1.000000000000006
  0
VERTEX
  5
E2
  8
DEFAULT
 10
4.26082295155839
 20
12.76818157234874
 30
0.0
  0
SEQEND
  5
E3
  8
DEFAULT
  0
POLYLINE
  5
E4
  8
DEFAULT
 66
     1
 10
0.0
 20
0.0
 30
0.0
 70
     1
  0
VERTEX
  5
E5
  8
DEFAULT
 10
5.221414477038731
 20
12.40621134774737
 30
0.0
 42
1.000000000000006
  0
VERTEX
  5
E6
  8
DEFAULT
 10
5.521414477038732
 20
12.40621134774737
 30
0.0
  0
VERTEX
  5
E7
  8
DEFAULT
 10
5.521414477038732
 20
12.76818157234874
 30
0.0
 42
1.000000000000006
  0
VERTEX
  5
E8
  8
DEFAULT
 10
5.221414477038731
 20
12.76818157234874
 30
0.0
  0
SEQEND
  5
E9
  8
DEFAULT
  0
POLYLINE
  5
EA
  8
DEFAULT
 66
     1
 10
0.0
 20
0.0
 30
0.0
 70
     1
  0
VERTEX
  5
EB
  8
DEFAULT
 10
6.182006002519071
 20
12.40621134774737
 30
0.0
 42
1.000000000000006
  0
VERTEX
  5
EC
  8
DEFAULT
 10
6.482006002519071
 20
12.40621134774737
 30
0.0
  0
VERTEX
  5
ED
  8
DEFAULT
 10
6.482006002519075
 20
12.76818157234874
 30
0.0
 42
1.000000000000006
  0
VERTEX
  5
EE
  8
DEFAULT
 10
6.182006002519071
 20
12.76818157234874
 30
0.0
  0
SEQEND
  5
EF
  8
DEFAULT
  0
POLYLINE
  5
F0
  8
DEFAULT
 66
     1
 10
0.0
 20
0.0
 30
0.0
 70
     1
  0
VERTEX
  5
F1
  8
DEFAULT
 10
7.142597527999413
 20
12.40621134774737
 30
0.0
 42
1.000000000000006
  0
VERTEX
  5
F2
  8
DEFAULT
 10
7.442597527999414
 20
12.40621134774737
 30
0.0
  0
VERTEX
  5
F3
  8
DEFAULT
 10
7.442597527999416
 20
12.76818157234874
 30
0.0
 42
0.9999999999999968
  0
VERTEX
  5
F4
  8
DEFAULT
 10
7.142597527999413
 20
12.76818157234874
 30
0.0
  0
SEQEND
  5
F5
  8
DEFAULT
  0
POLYLINE
  5
F6
  8
DEFAULT
 66
     1
 10
0.0
 20
0.0
 30
0.0
 70
     1
  0
VERTEX
  5
F7
  8
DEFAULT
 10
8.103189053479756
 20
12.40621134774737
 30
0.0
 42
0.9999999999999999
  0
VERTEX
  5
F8
  8
DEFAULT
 10
8.403189053479757
 20
12.40621134774737
 30
0.0
  0
VERTEX
  5
F9
  8
DEFAULT
 10
8.403189053479753
 20
12.76818157234874
 30
0.0
 42
0.9999999999999999
  0
VERTEX
  5
FA
  8
DEFAULT
 10
8.103189053479756
 20
12.76818157234874
 30
0.0
  0
SEQEND
  5
FB
  8
DEFAULT
  0
POLYLINE
  5
FC
  8
DEFAULT
 66
     1
 10
0.0
 20
0.0
 30
0.0
 70
     1
  0
VERTEX
  5
FD
  8
DEFAULT
 10
9.063780578960095
 20
12.40621134774737
 30
0.0
 42
0.9999999999999999
  0
VERTEX
  5
FE
  8
DEFAULT
 10
9.363780578960096
 20
12.40621134774737
 30
0.0
  0
VERTEX
  5
FF
  8
DEFAULT
 10
9.363780578960093
 20
12.76818157234874
 30
0.0
 42
0.9999999999999999
  0
VERTEX
  5
100
  8
DEFAULT
 10
9.063780578960095
 20
12.76818157234874
 30
0.0
  0
SEQEND
  5
101
  8
DEFAULT
  0
POLYLINE
  5
102
  8
DEFAULT
 66
     1
 10
0.0
 20
0.0
 30
0.0
 70
     1
  0
VERTEX
  5
103
  8
DEFAULT
 10
9.063698995947139
 20
10.69008235021144
 30
0.0
 42
0.9999999999999881
  0
VERTEX
  5
104
  8
DEFAULT
 10
9.36369899594714
 20
10.69008235021144
 30
0.0
  0
VERTEX
  5
105
  8
DEFAULT
 10
9.363698995947136
 20
11.05205257481281
 30
0.0
 42
0.9999999999999999
  0
VERTEX
  5
106
  8
DEFAULT
 10
9.063698995947139
 20
11.05205257481281
 30
0.0
  0
SEQEND
  5
107
  8
DEFAULT
  0
POLYLINE
  5
108
  8
DEFAULT
 66
     1
 10
0.0
 20
0.0
 30
0.0
 70
     1
  0
VERTEX
  5
109
  8
DEFAULT
 10
8.1031074704668
 20
10.69008235021144
 30
0.0
 42
0.9999999999999881
  0
VERTEX
  5
10A
  8
DEFAULT
 10
8.4031074704668
 20
10.69008235021144
 30
0.0
  0
VERTEX
  5
10B
  8
DEFAULT
 10
8.403107470466797
 20
11.05205257481281
 30
0.0
 42
0.9999999999999999
  0
VERTEX
  5
10C
  8
DEFAULT
 10
8.1031074704668
 20
11.05205257481281
 30
0.0
  0
SEQEND
  5
10D
  8
DEFAULT
  0
POLYLINE
  5
10E
  8
DEFAULT
 66
     1
 10
0.0
 20
0.0
 30
0.0
 70
     1
  0
VERTEX
  5
10F
  8
DEFAULT
 10
7.14251594498646
 20
10.69008235021144
 30
0.0
 42
1.000000000000006
  0
VERTEX
  5
110
  8
DEFAULT
 10
7.442515944986461
 20
10.69008235021144
 30
0.0
  0
VERTEX
  5
111
  8
DEFAULT
 10
7.442515944986461
 20
11.05205257481281
 30
0.0
 42
0.9999999999999999
  0
VERTEX
  5
112
  8
DEFAULT
 10
7.14251594498646
 20
11.05205257481281
 30
0.0
  0
SEQEND
  5
113
  8
DEFAULT
  0
POLYLINE
  5
114
  8
DEFAULT
 66
     1
 10
0.0
 20
0.0
 30
0.0
 70
     1
  0
VERTEX
  5
115
  8
DEFAULT
 10
6.181924419506114
 20
10.69008235021144
 30
0.0
 42
1.000000000000006
  0
VERTEX
  5
116
  8
DEFAULT
 10
6.481924419506115
 20
10.69008235021144
 30
0.0
  0
VERTEX
  5
117
  8
DEFAULT
 10
6.48192441950612
 20
11.05205257481281
 30
0.0
 42
1.000000000000003
  0
VERTEX
  5
118
  8
DEFAULT
 10
6.181924419506114
 20
11.05205257481281
 30
0.0
  0
SEQEND
  5
119
  8
DEFAULT
  0
POLYLINE
  5
11A
  8
DEFAULT
 66
     1
 10
0.0
 20
0.0
 30
0.0
 70
     1
  0
VERTEX
  5
11B
  8
DEFAULT
 10
5.221332894025776
 20
10.69008235021144
 30
0.0
 42
1.000000000000006
  0
VERTEX
  5
11C
  8
DEFAULT
 10
5.521332894025777
 20
10.69008235021144
 30
0.0
  0
VERTEX
  5
11D
  8
DEFAULT
 10
5.521332894025777
 20
11.05205257481281
 30
0.0
 42
1.000000000000006
  0
VERTEX
  5
11E
  8
DEFAULT
 10
5.221332894025776
 20
11.05205257481281
 30
0.0
  0
SEQEND
  5
11F
  8
DEFAULT
  0
POLYLINE
  5
120
  8
DEFAULT
 66
     1
 10
0.0
 20
0.0
 30
0.0
 70
     1
  0
VERTEX
  5
121
  8
DEFAULT
 10
4.260741368545435
 20
10.69008235021144
 30
0.0
 42
1.000000000000006
  0
VERTEX
  5
122
  8
DEFAULT
 10
4.560741368545436
 20
10.69008235021144
 30
0.0
  0
VERTEX
  5
123
  8
DEFAULT
 10
4.560741368545436
 20
11.05205257481281
 30
0.0
 42
1.000000000000006
  0
VERTEX
  5
124
  8
DEFAULT
 10
4.260741368545435
 20
11.05205257481281
 30
0.0
  0
SEQEND
  5
125
  8
DEFAULT
  0
POLYLINE
  5
126
  8
DEFAULT
 66
     1
 10
0.0
 20
0.0
 30
0.0
 70
     1
  0
VERTEX
  5
127
  8
DEFAULT
 10
3.300149843065094
 20
10.69008235021144
 30
0.0
 42
1.000000000000006
  0
VERTEX
  5
128
  8
DEFAULT
 10
3.600149843065095
 20
10.69008235021144
 30
0.0
  0
VERTEX
  5
129
  8
DEFAULT
 10
3.600149843065095
 20
11.05205257481281
 30
0.0
 42
0.9999999999999999
  0
VERTEX
  5
12A
  8
DEFAULT
 10
3.300149843065094
 20
11.05205257481281
 30
0.0
  0
SEQEND
  5
12B
  8
DEFAULT
  0
POLYLINE
  5
12C
  8
DEFAULT
 66
     1
 10
0.0
 20
0.0
 30
0.0
 70
     1
  0
VERTEX
  5
12D
  8
DEFAULT
 10
2.339558317584753
 20
10.69008235021144
 30
0.0
 42
1.000000000000006
  0
VERTEX
  5
12E
  8
DEFAULT
 10
2.639558317584754
 20
10.69008235021144
 30
0.0
  0
VERTEX
  5
12F
  8
DEFAULT
 10
2.639558317584754
 20
11.05205257481281
 30
0.0
 42
0.9999999999999999
  0
VERTEX
  5
130
  8
DEFAULT
 10
2.339558317584753
 20
11.05205257481281
 30
0.0
  0
SEQEND
  5
131
  8
DEFAULT
  0
POLYLINE
  5
132
  8
DEFAULT
 66
     1
 10
0.0
 20
0.0
 30
0.0
 70
     1
  0
VERTEX
  5
133
  8
DEFAULT
 10
1.378966792104413
 20
10.69008235021144
 30
0.0
 42
1.000000000000006
  0
VERTEX
  5
134
  8
DEFAULT
 10
1.678966792104413
 20
10.69008235021144
 30
0.0
  0
VERTEX
  5
135
  8
DEFAULT
 10
1.678966792104413
 20
11.05205257481281
 30
0.0
 42
1.0
  0
VERTEX
  5
136
  8
DEFAULT
 10
1.378966792104413
 20
11.05205257481281
 30
0.0
  0
SEQEND
  5
137
  8
DEFAULT
  0
POLYLINE
  5
138
  8
DEFAULT
 66
     1
 10
0.0
 20
0.0
 30
0.0
 70
     1
  0
VERTEX
  5
139
  8
DEFAULT
 10
9.391598597394447
 20
9.881350377027834
 30
0.0
 42
0.9999999999999999
  0
VERTEX
  5
13A
  8
DEFAULT
 10
9.391598597394449
 20
10.23568108568925
 30
0.0
  0
VERTEX
  5
13B
  8
DEFAULT
 10
9.037267888733028
 20
10.23568108568925
 30
0.0
 42
0.9999999999999999
  0
VERTEX
  5
13C
  8
DEFAULT
 10
9.037267888733028
 20
9.881350377027834
 30
0.0
  0
SEQEND
  5
13D
  8
DEFAULT
  0
POLYLINE
  5
13E
  8
DEFAULT
 66
     1
 10
0.0
 20
0.0
 30
0.0
 70
     1
  0
VERTEX
  5
13F
  8
DEFAULT
 10
8.430925488901151
 20
9.881350377027834
 30
0.0
 42
0.9999999999999999
  0
VERTEX
  5
140
  8
DEFAULT
 10
8.430925488901153
 20
10.23568108568925
 30
0.0
  0
VERTEX
  5
141
  8
DEFAULT
 10
8.076594780239732
 20
10.23568108568925
 30
0.0
 42
0.9999999999999999
  0
VERTEX
  5
142
  8
DEFAULT
 10
8.076594780239734
 20
9.881350377027834
 30
0.0
  0
SEQEND
  5
143
  8
DEFAULT
  0
POLYLINE
  5
144
  8
DEFAULT
 66
     1
 10
0.0
 20
0.0
 30
0.0
 70
     1
  0
VERTEX
  5
145
  8
DEFAULT
 10
7.470252380407855
 20
9.881350377027834
 30
0.0
 42
0.9999999999999948
  0
VERTEX
  5
146
  8
DEFAULT
 10
7.470252380407855
 20
10.23568108568925
 30
0.0
  0
VERTEX
  5
147
  8
DEFAULT
 10
7.115921671746436
 20
10.23568108568925
 30
0.0
 42
0.9999999999999999
  0
VERTEX
  5
148
  8
DEFAULT
 10
7.115921671746436
 20
9.881350377027834
 30
0.0
  0
SEQEND
  5
149
  8
DEFAULT
  0
POLYLINE
  5
14A
  8
DEFAULT
 66
     1
 10
0.0
 20
0.0
 30
0.0
 70
     1
  0
VERTEX
  5
14B
  8
DEFAULT
 10
6.509579271914559
 20
9.881350377027834
 30
0.0
 42
0.9999999999999948
  0
VERTEX
  5
14C
  8
DEFAULT
 10
6.509579271914559
 20
10.23568108568925
 30
0.0
  0
VERTEX
  5
14D
  8
DEFAULT
 10
6.15524856325314
 20
10.23568108568925
 30
0.0
 42
0.9999999999999999
  0
VERTEX
  5
14E
  8
DEFAULT
 10
6.15524856325314
 20
9.881350377027834
 30
0.0
  0
SEQEND
  5
14F
  8
DEFAULT
  0
POLYLINE
  5
150
  8
DEFAULT
 66
     1
 10
0.0
 20
0.0
 30
0.0
 70
     1
  0
VERTEX
  5
151
  8
DEFAULT
 10
5.548906163421261
 20
9.881350377027834
 30
0.0
 42
0.9999999999999948
  0
VERTEX
  5
152
  8
DEFAULT
 10
5.548906163421261
 20
10.23568108568925
 30
0.0
  0
VERTEX
  5
153
  8
DEFAULT
 10
5.194575454759844
 20
10.23568108568925
 30
0.0
 42
0.9999999999999999
  0
VERTEX
  5
154
  8
DEFAULT
 10
5.194575454759844
 20
9.881350377027834
 30
0.0
  0
SEQEND
  5
155
  8
DEFAULT
  0
POLYLINE
  5
156
  8
DEFAULT
 66
     1
 10
0.0
 20
0.0
 30
0.0
 70
     1
  0
VERTEX
  5
157
  8
DEFAULT
 10
4.588233054927965
 20
9.881350377027834
 30
0.0
 42
0.9999999999999948
  0
VERTEX
  5
158
  8
DEFAULT
 10
4.588233054927965
 20
10.23568108568925
 30
0.0
  0
VERTEX
  5
159
  8
DEFAULT
 10
4.233902346266548
 20
10.23568108568925
 30
0.0
 42
0.9999999999999999
  0
VERTEX
  5
15A
  8
DEFAULT
 10
4.233902346266547
 20
9.881350377027834
 30
0.0
  0
SEQEND
  5
15B
  8
DEFAULT
  0
POLYLINE
  5
15C
  8
DEFAULT
 66
     1
 10
0.0
 20
0.0
 30
0.0
 70
     1
  0
VERTEX
  5
15D
  8
DEFAULT
 10
3.627559946434669
 20
9.881350377027834
 30
0.0
 42
0.999999999999991
  0
VERTEX
  5
15E
  8
DEFAULT
 10
3.627559946434669
 20
10.23568108568925
 30
0.0
  0
VERTEX
  5
15F
  8
DEFAULT
 10
3.273229237773252
 20
10.23568108568925
 30
0.0
 42
0.9999999999999948
  0
VERTEX
  5
160
  8
DEFAULT
 10
3.273229237773252
 20
9.881350377027834
 30
0.0
  0
SEQEND
  5
161
  8
DEFAULT
  0
POLYLINE
  5
162
  8
DEFAULT
 66
     1
 10
0.0
 20
0.0
 30
0.0
 70
     1
  0
VERTEX
  5
163
  8
DEFAULT
 10
2.666886837941373
 20
9.881350377027834
 30
0.0
 42
0.999999999999991
  0
VERTEX
  5
164
  8
DEFAULT
 10
2.666886837941373
 20
10.23568108568925
 30
0.0
  0
VERTEX
  5
165
  8
DEFAULT
 10
2.312556129279956
 20
10.23568108568925
 30
0.0
 42
0.9999999999999948
  0
VERTEX
  5
166
  8
DEFAULT
 10
2.312556129279956
 20
9.881350377027834
 30
0.0
  0
SEQEND
  5
167
  8
DEFAULT
  0
POLYLINE
  5
168
  8
DEFAULT
 66
     1
 10
0.0
 20
0.0
 30
0.0
 70
     1
  0
VERTEX
  5
169
  8
DEFAULT
 10
1.706213729448077
 20
9.881350377027834
 30
0.0
 42
0.9999999999999948
  0
VERTEX
  5
16A
  8
DEFAULT
 10
1.706213729448077
 20
10.23568108568925
 30
0.0
  0
VERTEX
  5
16B
  8
DEFAULT
 10
1.35188302078666
 20
10.23568108568925
 30
0.0
 42
0.9999999999999948
  0
VERTEX
  5
16C
  8
DEFAULT
 10
1.35188302078666
 20
9.881350377027834
 30
0.0
  0
SEQEND
  5
16D
  8
DEFAULT
  0
CIRCLE
  5
16E
  8
DEFAULT
 10
9.98468411876935
 20
10.16943587006183
 30
0.0
 40
0.0625
  0
CIRCLE
  5
16F
  8
DEFAULT
 10
9.98468411876935
 20
10.16943587006183
 30
0.0
 40
0.15
  0
CIRCLE
  5
170
  8
DEFAULT
 10
0.4693559104353593
 20
10.20458397484964
 30
0.0
 40
0.15
  0
CIRCLE
  5
171
  8
DEFAULT
 10
0.4693559104353593
 20
9.075188383673467
 30
0.0
 40
0.15
  0
CIRCLE
  5
172
  8
DEFAULT
 10
0.4693559104353593
 20
9.075188383673467
 30
0.0
 40
0.0625
  0
CIRCLE
  5
173
  8
DEFAULT
 10
1.529048375117368
 20
10.41666619798993
 30
0.0
 40
0.0625
  0
CIRCLE
  5
174
  8
DEFAULT
 10
2.489721483610664
 20
10.41666619798993
 30
0.0
 40
0.0625
  0
CIRCLE
  5
175
  8
DEFAULT
 10
3.45039459210396
 20
10.41666619798993
 30
0.0
 40
0.0625
  0
CIRCLE
  5
176
  8
DEFAULT
 10
4.411067700597256
 20
10.41666619798993
 30
0.0
 40
0.0625
  0
CIRCLE
  5
177
  8
DEFAULT
 10
5.371740809090552
 20
10.41666619798993
 30
0.0
 40
0.0625
  0
CIRCLE
  5
178
  8
DEFAULT
 10
6.332413917583848
 20
10.41666619798993
 30
0.0
 40
0.0625
  0
CIRCLE
  5
179
  8
DEFAULT
 10
7.29308702607714
 20
10.41666619798993
 30
0.0
 40
0.0625
  0
CIRCLE
  5
17A
  8
DEFAULT
 10
8.25376013457044
 20
10.41666619798993
 30
0.0
 40
0.0625
  0
CIRCLE
  5
17B
  8
DEFAULT
 10
9.214433243063736
 20
10.41666619798993
 30
0.0
 40
0.0625
  0
CIRCLE
  5
17C
  8
DEFAULT
 10
0.4693559104353593
 20
10.20458397484964
 30
0.0
 40
0.0625
  0
CIRCLE
  5
17D
  8
DEFAULT
 10
1.528966792104413
 20
8.863106138347213
 30
0.0
 40
0.0625
  0
CIRCLE
  5
17E
  8
DEFAULT
 10
2.489639900597709
 20
8.863106138347213
 30
0.0
 40
0.0625
  0
CIRCLE
  5
17F
  8
DEFAULT
 10
3.450313009091005
 20
8.863106138347213
 30
0.0
 40
0.0625
  0
CIRCLE
  5
180
  8
DEFAULT
 10
4.410986117584301
 20
8.863106138347213
 30
0.0
 40
0.0625
  0
CIRCLE
  5
181
  8
DEFAULT
 10
5.371659226077597
 20
8.863106138347213
 30
0.0
 40
0.0625
  0
CIRCLE
  5
182
  8
DEFAULT
 10
6.332332334570891
 20
8.863106138347213
 30
0.0
 40
0.0625
  0
CIRCLE
  5
183
  8
DEFAULT
 10
7.293005443064187
 20
8.863106138347213
 30
0.0
 40
0.0625
  0
CIRCLE
  5
184
  8
DEFAULT
 10
8.253678551557483
 20
8.863106138347213
 30
0.0
 40
0.0625
  0
CIRCLE
  5
185
  8
DEFAULT
 10
9.214351660050779
 20
8.863106138347213
 30
0.0
 40
0.0625
  0
CIRCLE
  5
186
  8
DEFAULT
 10
0.4693559104353593
 20
9.627798704756145
 30
0.0
 40
0.14
  0
POLYLINE
  5
187
  8
DEFAULT
 66
     1
 10
0.0
 20
0.0
 30
0.0
 70
     1
  0
VERTEX
  5
188
  8
DEFAULT
 10
9.584769797310395
 20
9.465699620679246
 30
0.0
  0
VERTEX
  5
189
  8
DEFAULT
 10
9.5847697973104
 20
8.932121048232489
 30
0.0
 42
-0.4142135623731034
  0
VERTEX
  5
18A
  8
DEFAULT
 10
9.3347697973104
 20
8.682121048232489
 30
0.0
  0
VERTEX
  5
18B
  8
DEFAULT
 10
0.2499999999999982
 20
8.682121048232492
 30
0.0
 42
-0.414213562373091
  0
VERTEX
  5
18C
  8
DEFAULT
 10
0.0
 20
8.932121048232492
 30
0.0
  0
VERTEX
  5
18D
  8
DEFAULT
 10
-0.0000000000000019
 20
10.34765131029062
 30
0.0
 42
-0.4142135623730939
  0
VERTEX
  5
18E
  8
DEFAULT
 10
0.2499999999999982
 20
10.59765131029062
 30
0.0
  0
VERTEX
  5
18F
  8
DEFAULT
 10
10.0113106961328
 20
10.59765131029062
 30
0.0
 42
-0.4142135623730888
  0
VERTEX
  5
190
  8
DEFAULT
 10
10.2613106961328
 20
10.34765131029062
 30
0.0
  0
VERTEX
  5
191
  8
DEFAULT
 10
10.2613106961328
 20
9.965699620679246
 30
0.0
 42
-0.4142135623730998
  0
VERTEX
  5
192
  8
DEFAULT
 10
10.0113106961328
 20
9.715699620679246
 30
0.0
  0
VERTEX
  5
193
  8
DEFAULT
 10
9.834769797310395
 20
9.715699620679246
 30
0.0
 42
0.4142135623730969
  0
SEQEND
  5
194
  8
DEFAULT
  0
POLYLINE
  5
195
  8
DEFAULT
 66
     1
 10
0.0
 20
0.0
 30
0.0
 70
     1
  0
VERTEX
  5
196
  8
DEFAULT
 10
1.379048375117368
 20
10.23568108568925
 30
0.0
 42
1.000000000000006
  0
VERTEX
  5
197
  8
DEFAULT
 10
1.679048375117368
 20
10.23568108568925
 30
0.0
  0
VERTEX
  5
198
  8
DEFAULT
 10
1.679048375117368
 20
10.59765131029062
 30
0.0
 42
1.000000000000006
  0
VERTEX
  5
199
  8
DEFAULT
 10
1.379048375117368
 20
10.59765131029062
 30
0.0
  0
SEQEND
  5
19A
  8
DEFAULT
  0
POLYLINE
  5
19B
  8
DEFAULT
 66
     1
 10
0.0
 20
0.0
 30
0.0
 70
     1
  0
VERTEX
  5
19C
  8
DEFAULT
 10
2.339639900597708
 20
10.23568108568925
 30
0.0
 42
1.000000000000006
  0
VERTEX
  5
19D
  8
DEFAULT
 10
2.639639900597709
 20
10.23568108568925
 30
0.0
  0
VERTEX
  5
19E
  8
DEFAULT
 10
2.639639900597709
 20
10.59765131029062
 30
0.0
 42
1.000000000000006
  0
VERTEX
  5
19F
  8
DEFAULT
 10
2.339639900597708
 20
10.59765131029062
 30
0.0
  0
SEQEND
  5
1A0
  8
DEFAULT
  0
POLYLINE
  5
1A1
  8
DEFAULT
 66
     1
 10
0.0
 20
0.0
 30
0.0
 70
     1
  0
VERTEX
  5
1A2
  8
DEFAULT
 10
3.300231426078049
 20
10.23568108568925
 30
0.0
 42
1.000000000000006
  0
VERTEX
  5
1A3
  8
DEFAULT
 10
3.60023142607805
 20
10.23568108568925
 30
0.0
  0
VERTEX
  5
1A4
  8
DEFAULT
 10
3.60023142607805
 20
10.59765131029062
 30
0.0
 42
1.000000000000006
  0
VERTEX
  5
1A5
  8
DEFAULT
 10
3.300231426078049
 20
10.59765131029062
 30
0.0
  0
SEQEND
  5
1A6
  8
DEFAULT
  0
POLYLINE
  5
1A7
  8
DEFAULT
 66
     1
 10
0.0
 20
0.0
 30
0.0
 70
     1
  0
VERTEX
  5
1A8
  8
DEFAULT
 10
4.26082295155839
 20
10.23568108568925
 30
0.0
 42
1.000000000000006
  0
VERTEX
  5
1A9
  8
DEFAULT
 10
4.560822951558391
 20
10.23568108568925
 30
0.0
  0
VERTEX
  5
1AA
  8
DEFAULT
 10
4.560822951558391
 20
10.59765131029062
 30
0.0
 42
1.000000000000006
  0
VERTEX
  5
1AB
  8
DEFAULT
 10
4.26082295155839
 20
10.59765131029062
 30
0.0
  0
SEQEND
  5
1AC
  8
DEFAULT
  0
POLYLINE
  5
1AD
  8
DEFAULT
 66
     1
 10
0.0
 20
0.0
 30
0.0
 70
     1
  0
VERTEX
  5
1AE
  8
DEFAULT
 10
5.221414477038731
 20
10.23568108568925
 30
0.0
 42
1.000000000000006
  0
VERTEX
  5
1AF
  8
DEFAULT
 10
5.521414477038732
 20
10.23568108568925
 30
0.0
  0
VERTEX
  5
1B0
  8
DEFAULT
 10
5.521414477038732
 20
10.59765131029062
 30
0.0
 42
1.000000000000006
  0
VERTEX
  5
1B1
  8
DEFAULT
 10
5.221414477038731
 20
10.59765131029062
 30
0.0
  0
SEQEND
  5
1B2
  8
DEFAULT
  0
POLYLINE
  5
1B3
  8
DEFAULT
 66
     1
 10
0.0
 20
0.0
 30
0.0
 70
     1
  0
VERTEX
  5
1B4
  8
DEFAULT
 10
6.182006002519071
 20
10.23568108568925
 30
0.0
 42
1.000000000000006
  0
VERTEX
  5
1B5
  8
DEFAULT
 10
6.482006002519071
 20
10.23568108568925
 30
0.0
  0
VERTEX
  5
1B6
  8
DEFAULT
 10
6.482006002519075
 20
10.59765131029062
 30
0.0
 42
1.000000000000006
  0
VERTEX
  5
1B7
  8
DEFAULT
 10
6.182006002519071
 20
10.59765131029061
 30
0.0
  0
SEQEND
  5
1B8
  8
DEFAULT
  0
POLYLINE
  5
1B9
  8
DEFAULT
 66
     1
 10
0.0
 20
0.0
 30
0.0
 70
     1
  0
VERTEX
  5
1BA
  8
DEFAULT
 10
7.142597527999413
 20
10.23568108568925
 30
0.0
 42
1.000000000000006
  0
VERTEX
  5
1BB
  8
DEFAULT
 10
7.442597527999414
 20
10.23568108568925
 30
0.0
  0
VERTEX
  5
1BC
  8
DEFAULT
 10
7.442597527999416
 20
10.59765131029062
 30
0.0
 42
0.9999999999999968
  0
VERTEX
  5
1BD
  8
DEFAULT
 10
7.142597527999413
 20
10.59765131029061
 30
0.0
  0
SEQEND
  5
1BE
  8
DEFAULT
  0
POLYLINE
  5
1BF
  8
DEFAULT
 66
     1
 10
0.0
 20
0.0
 30
0.0
 70
     1
  0
VERTEX
  5
1C0
  8
DEFAULT
 10
8.103189053479756
 20
10.23568108568925
 30
0.0
 42
0.9999999999999999
  0
VERTEX
  5
1C1
  8
DEFAULT
 10
8.403189053479757
 20
10.23568108568925
 30
0.0
  0
VERTEX
  5
1C2
  8
DEFAULT
 10
8.403189053479753
 20
10.59765131029062
 30
0.0
 42
0.9999999999999999
  0
VERTEX
  5
1C3
  8
DEFAULT
 10
8.103189053479756
 20
10.59765131029062
 30
0.0
  0
SEQEND
  5
1C4
  8
DEFAULT
  0
POLYLINE
  5
1C5
  8
DEFAULT
 66
     1
 10
0.0
 20
0.0
 30
0.0
 70
     1
  0
VERTEX
  5
1C6
  8
DEFAULT
 10
9.063780578960095
 20
10.23568108568925
 30
0.0
 42
0.9999999999999999
  0
VERTEX
  5
1C7
  8
DEFAULT
 10
9.363780578960096
 20
10.23568108568925
 30
0.0
  0
VERTEX
  5
1C8
  8
DEFAULT
 10
9.363780578960093
 20
10.59765131029062
 30
0.0
 42
0.9999999999999999
  0
VERTEX
  5
1C9
  8
DEFAULT
 10
9.063780578960095
 20
10.59765131029062
 30
0.0
  0
SEQEND
  5
1CA
  8
DEFAULT
  0
POLYLINE
  5
1CB
  8
DEFAULT
 66
     1
 10
0.0
 20
0.0
 30
0.0
 70
     1
  0
VERTEX
  5
1CC
  8
DEFAULT
 10
9.063698995947139
 20
8.51955208815332
 30
0.0
 42
0.9999999999999881
  0
VERTEX
  5
1CD
  8
DEFAULT
 10
9.36369899594714
 20
8.519552088153318
 30
0.0
  0
VERTEX
  5
1CE
  8
DEFAULT
 10
9.363698995947136
 20
8.881522312754683
 30
0.0
 42
0.9999999999999999
  0
VERTEX
  5
1CF
  8
DEFAULT
 10
9.063698995947139
 20
8.881522312754683
 30
0.0
  0
SEQEND
  5
1D0
  8
DEFAULT
  0
POLYLINE
  5
1D1
  8
DEFAULT
 66
     1
 10
0.0
 20
0.0
 30
0.0
 70
     1
  0
VERTEX
  5
1D2
  8
DEFAULT
 10
8.1031074704668
 20
8.51955208815332
 30
0.0
 42
0.9999999999999881
  0
VERTEX
  5
1D3
  8
DEFAULT
 10
8.4031074704668
 20
8.519552088153318
 30
0.0
  0
VERTEX
  5
1D4
  8
DEFAULT
 10
8.403107470466797
 20
8.881522312754683
 30
0.0
 42
0.9999999999999999
  0
VERTEX
  5
1D5
  8
DEFAULT
 10
8.1031074704668
 20
8.881522312754683
 30
0.0
  0
SEQEND
  5
1D6
  8
DEFAULT
  0
POLYLINE
  5
1D7
  8
DEFAULT
 66
     1
 10
0.0
 20
0.0
 30
0.0
 70
     1
  0
VERTEX
  5
1D8
  8
DEFAULT
 10
7.14251594498646
 20
8.519552088153318
 30
0.0
 42
1.000000000000006
  0
VERTEX
  5
1D9
  8
DEFAULT
 10
7.442515944986461
 20
8.519552088153318
 30
0.0
  0
VERTEX
  5
1DA
  8
DEFAULT
 10
7.442515944986461
 20
8.881522312754683
 30
0.0
 42
0.9999999999999999
  0
VERTEX
  5
1DB
  8
DEFAULT
 10
7.14251594498646
 20
8.881522312754685
 30
0.0
  0
SEQEND
  5
1DC
  8
DEFAULT
  0
POLYLINE
  5
1DD
  8
DEFAULT
 66
     1
 10
0.0
 20
0.0
 30
0.0
 70
     1
  0
VERTEX
  5
1DE
  8
DEFAULT
 10
6.181924419506114
 20
8.519552088153318
 30
0.0
 42
1.000000000000006
  0
VERTEX
  5
1DF
  8
DEFAULT
 10
6.481924419506115
 20
8.519552088153318
 30
0.0
  0
VERTEX
  5
1E0
  8
DEFAULT
 10
6.48192441950612
 20
8.881522312754683
 30
0.0
 42
1.000000000000003
  0
VERTEX
  5
1E1
  8
DEFAULT
 10
6.181924419506114
 20
8.881522312754685
 30
0.0
  0
SEQEND
  5
1E2
  8
DEFAULT
  0
POLYLINE
  5
1E3
  8
DEFAULT
 66
     1
 10
0.0
 20
0.0
 30
0.0
 70
     1
  0
VERTEX
  5
1E4
  8
DEFAULT
 10
5.221332894025776
 20
8.519552088153318
 30
0.0
 42
1.000000000000006
  0
VERTEX
  5
1E5
  8
DEFAULT
 10
5.521332894025777
 20
8.519552088153318
 30
0.0
  0
VERTEX
  5
1E6
  8
DEFAULT
 10
5.521332894025777
 20
8.881522312754683
 30
0.0
 42
1.000000000000006
  0
VERTEX
  5
1E7
  8
DEFAULT
 10
5.221332894025776
 20
8.881522312754683
 30
0.0
  0
SEQEND
  5
1E8
  8
DEFAULT
  0
POLYLINE
  5
1E9
  8
DEFAULT
 66
     1
 10
0.0
 20
0.0
 30
0.0
 70
     1
  0
VERTEX
  5
1EA
  8
DEFAULT
 10
4.260741368545435
 20
8.519552088153318
 30
0.0
 42
1.000000000000006
  0
VERTEX
  5
1EB
  8
DEFAULT
 10
4.560741368545436
 20
8.519552088153318
 30
0.0
  0
VERTEX
  5
1EC
  8
DEFAULT
 10
4.560741368545436
 20
8.881522312754683
 30
0.0
 42
1.000000000000006
  0
VERTEX
  5
1ED
  8
DEFAULT
 10
4.260741368545435
 20
8.881522312754683
 30
0.0
  0
SEQEND
  5
1EE
  8
DEFAULT
  0
POLYLINE
  5
1EF
  8
DEFAULT
 66
     1
 10
0.0
 20
0.0
 30
0.0
 70
     1
  0
VERTEX
  5
1F0
  8
DEFAULT
 10
3.300149843065094
 20
8.519552088153318
 30
0.0
 42
1.000000000000006
  0
VERTEX
  5
1F1
  8
DEFAULT
 10
3.600149843065095
 20
8.519552088153318
 30
0.0
  0
VERTEX
  5
1F2
  8
DEFAULT
 10
3.600149843065095
 20
8.881522312754683
 30
0.0
 42
1.000000000000006
  0
VERTEX
  5
1F3
  8
DEFAULT
 10
3.300149843065094
 20
8.881522312754683
 30
0.0
  0
SEQEND
  5
1F4
  8
DEFAULT
  0
POLYLINE
  5
1F5
  8
DEFAULT
 66
     1
 10
0.0
 20
0.0
 30
0.0
 70
     1
  0
VERTEX
  5
1F6
  8
DEFAULT
 10
2.339558317584753
 20
8.519552088153318
 30
0.0
 42
1.000000000000006
  0
VERTEX
  5
1F7
  8
DEFAULT
 10
2.639558317584754
 20
8.519552088153318
 30
0.0
  0
VERTEX
  5
1F8
  8
DEFAULT
 10
2.639558317584754
 20
8.881522312754683
 30
0.0
 42
1.000000000000006
  0
VERTEX
  5
1F9
  8
DEFAULT
 10
2.339558317584753
 20
8.881522312754683
 30
0.0
  0
SEQEND
  5
1FA
  8
DEFAULT
  0
POLYLINE
  5
1FB
  8
DEFAULT
 66
     1
 10
0.0
 20
0.0
 30
0.0
 70
     1
  0
VERTEX
  5
1FC
  8
DEFAULT
 10
1.378966792104413
 20
8.519552088153318
 30
0.0
 42
1.000000000000006
  0
VERTEX
  5
1FD
  8
DEFAULT
 10
1.678966792104413
 20
8.519552088153318
 30
0.0
  0
VERTEX
  5
1FE
  8
DEFAULT
 10
1.678966792104413
 20
8.881522312754683
 30
0.0
 42
1.000000000000006
  0
VERTEX
  5
1FF
  8
DEFAULT
 10
1.378966792104413
 20
8.881522312754683
 30
0.0
  0
SEQEND
  5
200
  8
DEFAULT
  0
POLYLINE
  5
201
  8
DEFAULT
 66
     1
 10
0.0
 20
0.0
 30
0.0
 70
     1
  0
VERTEX
  5
202
  8
DEFAULT
 10
9.391598597394447
 20
7.710820114969711
 30
0.0
 42
0.9999999999999999
  0
VERTEX
  5
203
  8
DEFAULT
 10
9.391598597394449
 20
8.065150823631129
 30
0.0
  0
VERTEX
  5
204
  8
DEFAULT
 10
9.037267888733028
 20
8.065150823631129
 30
0.0
 42
1.000000000000005
  0
VERTEX
  5
205
  8
DEFAULT
 10
9.037267888733028
 20
7.710820114969711
 30
0.0
  0
SEQEND
  5
206
  8
DEFAULT
  0
POLYLINE
  5
207
  8
DEFAULT
 66
     1
 10
0.0
 20
0.0
 30
0.0
 70
     1
  0
VERTEX
  5
208
  8
DEFAULT
 10
8.430925488901151
 20
7.710820114969711
 30
0.0
 42
0.9999999999999999
  0
VERTEX
  5
209
  8
DEFAULT
 10
8.430925488901153
 20
8.065150823631129
 30
0.0
  0
VERTEX
  5
20A
  8
DEFAULT
 10
8.076594780239732
 20
8.065150823631129
 30
0.0
 42
0.9999999999999999
  0
VERTEX
  5
20B
  8
DEFAULT
 10
8.076594780239734
 20
7.710820114969711
 30
0.0
  0
SEQEND
  5
20C
  8
DEFAULT
  0
POLYLINE
  5
20D
  8
DEFAULT
 66
     1
 10
0.0
 20
0.0
 30
0.0
 70
     1
  0
VERTEX
  5
20E
  8
DEFAULT
 10
7.470252380407855
 20
7.710820114969711
 30
0.0
 42
0.9999999999999999
  0
VERTEX
  5
20F
  8
DEFAULT
 10
7.470252380407855
 20
8.065150823631129
 30
0.0
  0
VERTEX
  5
210
  8
DEFAULT
 10
7.115921671746436
 20
8.065150823631129
 30
0.0
 42
0.9999999999999999
  0
VERTEX
  5
211
  8
DEFAULT
 10
7.115921671746436
 20
7.710820114969711
 30
0.0
  0
SEQEND
  5
212
  8
DEFAULT
  0
POLYLINE
  5
213
  8
DEFAULT
 66
     1
 10
0.0
 20
0.0
 30
0.0
 70
     1
  0
VERTEX
  5
214
  8
DEFAULT
 10
6.509579271914559
 20
7.710820114969711
 30
0.0
 42
0.9999999999999999
  0
VERTEX
  5
215
  8
DEFAULT
 10
6.509579271914559
 20
8.065150823631129
 30
0.0
  0
VERTEX
  5
216
  8
DEFAULT
 10
6.15524856325314
 20
8.065150823631129
 30
0.0
 42
0.9999999999999999
  0
VERTEX
  5
217
  8
DEFAULT
 10
6.15524856325314
 20
7.710820114969711
 30
0.0
  0
SEQEND
  5
218
  8
DEFAULT
  0
POLYLINE
  5
219
  8
DEFAULT
 66
     1
 10
0.0
 20
0.0
 30
0.0
 70
     1
  0
VERTEX
  5
21A
  8
DEFAULT
 10
5.548906163421261
 20
7.710820114969711
 30
0.0
 42
0.9999999999999999
  0
VERTEX
  5
21B
  8
DEFAULT
 10
5.548906163421261
 20
8.065150823631129
 30
0.0
  0
VERTEX
  5
21C
  8
DEFAULT
 10
5.194575454759844
 20
8.065150823631129
 30
0.0
 42
0.9999999999999999
  0
VERTEX
  5
21D
  8
DEFAULT
 10
5.194575454759844
 20
7.710820114969711
 30
0.0
  0
SEQEND
  5
21E
  8
DEFAULT
  0
POLYLINE
  5
21F
  8
DEFAULT
 66
     1
 10
0.0
 20
0.0
 30
0.0
 70
     1
  0
VERTEX
  5
220
  8
DEFAULT
 10
4.588233054927965
 20
7.710820114969711
 30
0.0
 42
0.9999999999999999
  0
VERTEX
  5
221
  8
DEFAULT
 10
4.588233054927965
 20
8.065150823631129
 30
0.0
  0
VERTEX
  5
222
  8
DEFAULT
 10
4.233902346266548
 20
8.065150823631129
 30
0.0
 42
0.9999999999999999
  0
VERTEX
  5
223
  8
DEFAULT
 10
4.233902346266547
 20
7.710820114969711
 30
0.0
  0
SEQEND
  5
224
  8
DEFAULT
  0
POLYLINE
  5
225
  8
DEFAULT
 66
     1
 10
0.0
 20
0.0
 30
0.0
 70
     1
  0
VERTEX
  5
226
  8
DEFAULT
 10
3.627559946434669
 20
7.710820114969711
 30
0.0
 42
0.9999999999999986
  0
VERTEX
  5
227
  8
DEFAULT
 10
3.627559946434669
 20
8.065150823631129
 30
0.0
  0
VERTEX
  5
228
  8
DEFAULT
 10
3.273229237773252
 20
8.065150823631129
 30
0.0
 42
0.9999999999999999
  0
VERTEX
  5
229
  8
DEFAULT
 10
3.273229237773252
 20
7.710820114969711
 30
0.0
  0
SEQEND
  5
22A
  8
DEFAULT
  0
POLYLINE
  5
22B
  8
DEFAULT
 66
     1
 10
0.0
 20
0.0
 30
0.0
 70
     1
  0
VERTEX
  5
22C
  8
DEFAULT
 10
2.666886837941373
 20
7.710820114969711
 30
0.0
 42
0.9999999999999986
  0
VERTEX
  5
22D
  8
DEFAULT
 10
2.666886837941373
 20
8.065150823631129
 30
0.0
  0
VERTEX
  5
22E
  8
DEFAULT
 10
2.312556129279956
 20
8.065150823631129
 30
0.0
 42
0.9999999999999999
  0
VERTEX
  5
22F
  8
DEFAULT
 10
2.312556129279956
 20
7.710820114969711
 30
0.0
  0
SEQEND
  5
230
  8
DEFAULT
  0
POLYLINE
  5
231
  8
DEFAULT
 66
     1
 10
0.0
 20
0.0
 30
0.0
 70
     1
  0
VERTEX
  5
232
  8
DEFAULT
 10
1.706213729448077
 20
7.710820114969711
 30
0.0
 42
0.9999999999999999
  0
VERTEX
  5
233
  8
DEFAULT
 10
1.706213729448077
 20
8.065150823631129
 30
0.0
  0
VERTEX
  5
234
  8
DEFAULT
 10
1.35188302078666
 20
8.065150823631129
 30
0.0
 42
0.9999999999999999
  0
VERTEX
  5
235
  8
DEFAULT
 10
1.35188302078666
 20
7.710820114969711
 30
0.0
  0
SEQEND
  5
236
  8
DEFAULT
  0
CIRCLE
  5
237
  8
DEFAULT
 10
9.98468411876935
 20
7.998905608003702
 30
0.0
 40
0.0625
  0
CIRCLE
  5
238
  8
DEFAULT
 10
9.98468411876935
 20
7.998905608003702
 30
0.0
 40
0.15
  0
CIRCLE
  5
239
  8
DEFAULT
 10
0.4693559104353593
 20
8.034053712791515
 30
0.0
 40
0.15
  0
CIRCLE
  5
23A
  8
DEFAULT
 10
0.4693559104353593
 20
6.904658121615344
 30
0.0
 40
0.15
  0
CIRCLE
  5
23B
  8
DEFAULT
 10
0.4693559104353593
 20
6.904658121615344
 30
0.0
 40
0.0625
  0
CIRCLE
  5
23C
  8
DEFAULT
 10
1.529048375117368
 20
8.246135935931811
 30
0.0
 40
0.0625
  0
CIRCLE
  5
23D
  8
DEFAULT
 10
2.489721483610664
 20
8.246135935931811
 30
0.0
 40
0.0625
  0
CIRCLE
  5
23E
  8
DEFAULT
 10
3.45039459210396
 20
8.246135935931811
 30
0.0
 40
0.0625
  0
CIRCLE
  5
23F
  8
DEFAULT
 10
4.411067700597256
 20
8.246135935931811
 30
0.0
 40
0.0625
  0
CIRCLE
  5
240
  8
DEFAULT
 10
5.371740809090552
 20
8.246135935931811
 30
0.0
 40
0.0625
  0
CIRCLE
  5
241
  8
DEFAULT
 10
6.332413917583848
 20
8.246135935931811
 30
0.0
 40
0.0625
  0
CIRCLE
  5
242
  8
DEFAULT
 10
7.29308702607714
 20
8.246135935931811
 30
0.0
 40
0.0625
  0
CIRCLE
  5
243
  8
DEFAULT
 10
8.25376013457044
 20
8.246135935931811
 30
0.0
 40
0.0625
  0
CIRCLE
  5
244
  8
DEFAULT
 10
9.214433243063736
 20
8.246135935931811
 30
0.0
 40
0.0625
  0
CIRCLE
  5
245
  8
DEFAULT
 10
0.4693559104353593
 20
8.034053712791515
 30
0.0
 40
0.0625
  0
CIRCLE
  5
246
  8
DEFAULT
 10
1.528966792104413
 20
6.69257587628909
 30
0.0
 40
0.0625
  0
CIRCLE
  5
247
  8
DEFAULT
 10
2.489639900597709
 20
6.69257587628909
 30
0.0
 40
0.0625
  0
CIRCLE
  5
248
  8
DEFAULT
 10
3.450313009091005
 20
6.69257587628909
 30
0.0
 40
0.0625
  0
CIRCLE
  5
249
  8
DEFAULT
 10
4.410986117584301
 20
6.69257587628909
 30
0.0
 40
0.0625
  0
CIRCLE
  5
24A
  8
DEFAULT
 10
5.371659226077597
 20
6.69257587628909
 30
0.0
 40
0.0625
  0
CIRCLE
  5
24B
  8
DEFAULT
 10
6.332332334570891
 20
6.69257587628909
 30
0.0
 40
0.0625
  0
CIRCLE
  5
24C
  8
DEFAULT
 10
7.293005443064187
 20
6.69257587628909
 30
0.0
 40
0.0625
  0
CIRCLE
  5
24D
  8
DEFAULT
 10
8.253678551557483
 20
6.69257587628909
 30
0.0
 40
0.0625
  0
CIRCLE
  5
24E
  8
DEFAULT
 10
9.214351660050779
 20
6.69257587628909
 30
0.0
 40
0.0625
  0
CIRCLE
  5
24F
  8
DEFAULT
 10
0.4693559104353593
 20
7.457268442698022
 30
0.0
 40
0.14
  0
POLYLINE
  5
250
  8
DEFAULT
 66
     1
 10
0.0
 20
0.0
 30
0.0
 70
     1
  0
VERTEX
  5
251
  8
DEFAULT
 10
9.584769797310395
 20
7.295169358621123
 30
0.0
  0
VERTEX
  5
252
  8
DEFAULT
 10
9.5847697973104
 20
6.761590786174366
 30
0.0
 42
-0.414213562373104
  0
VERTEX
  5
253
  8
DEFAULT
 10
9.3347697973104
 20
6.511590786174366
 30
0.0
  0
VERTEX
  5
254
  8
DEFAULT
 10
0.2499999999999982
 20
6.511590786174369
 30
0.0
 42
-0.4142135623730925
  0
VERTEX
  5
255
  8
DEFAULT
 10
0.0
 20
6.761590786174369
 30
0.0
  0
VERTEX
  5
256
  8
DEFAULT
 10
-0.0000000000000037
 20
8.177121048232491
 30
0.0
 42
-0.4142135623730929
  0
VERTEX
  5
257
  8
DEFAULT
 10
0.2499999999999982
 20
8.427121048232491
 30
0.0
  0
VERTEX
  5
258
  8
DEFAULT
 10
10.0113106961328
 20
8.427121048232491
 30
0.0
 42
-0.4142135623730914
  0
VERTEX
  5
259
  8
DEFAULT
 10
10.2613106961328
 20
8.177121048232493
 30
0.0
  0
VERTEX
  5
25A
  8
DEFAULT
 10
10.2613106961328
 20
7.795169358621122
 30
0.0
 42
-0.4142135623731016
  0
VERTEX
  5
25B
  8
DEFAULT
 10
10.0113106961328
 20
7.545169358621123
 30
0.0
  0
VERTEX
  5
25C
  8
DEFAULT
 10
9.834769797310393
 20
7.54516935862112
 30
0.0
 42
0.4142135623730985
  0
SEQEND
  5
25D
  8
DEFAULT
  0
POLYLINE
  5
25E
  8
DEFAULT
 66
     1
 10
0.0
 20
0.0
 30
0.0
 70
     1
  0
VERTEX
  5
25F
  8
DEFAULT
 10
1.379048375117368
 20
8.065150823631129
 30
0.0
 42
0.9999999999999999
  0
VERTEX
  5
260
  8
DEFAULT
 10
1.679048375117368
 20
8.065150823631129
 30
0.0
  0
VERTEX
  5
261
  8
DEFAULT
 10
1.679048375117368
 20
8.427121048232491
 30
0.0
 42
1.0
  0
VERTEX
  5
262
  8
DEFAULT
 10
1.379048375117368
 20
8.427121048232493
 30
0.0
  0
SEQEND
  5
263
  8
DEFAULT
  0
POLYLINE
  5
264
  8
DEFAULT
 66
     1
 10
0.0
 20
0.0
 30
0.0
 70
     1
  0
VERTEX
  5
265
  8
DEFAULT
 10
2.339639900597708
 20
8.065150823631129
 30
0.0
 42
0.9999999999999999
  0
VERTEX
  5
266
  8
DEFAULT
 10
2.639639900597709
 20
8.065150823631129
 30
0.0
  0
VERTEX
  5
267
  8
DEFAULT
 10
2.639639900597709
 20
8.427121048232491
 30
0.0
 42
0.9999999999999941
  0
VERTEX
  5
268
  8
DEFAULT
 10
2.339639900597708
 20
8.427121048232491
 30
0.0
  0
SEQEND
  5
269
  8
DEFAULT
  0
POLYLINE
  5
26A
  8
DEFAULT
 66
     1
 10
0.0
 20
0.0
 30
0.0
 70
     1
  0
VERTEX
  5
26B
  8
DEFAULT
 10
3.300231426078049
 20
8.065150823631129
 30
0.0
 42
0.9999999999999999
  0
VERTEX
  5
26C
  8
DEFAULT
 10
3.60023142607805
 20
8.065150823631129
 30
0.0
  0
VERTEX
  5
26D
  8
DEFAULT
 10
3.60023142607805
 20
8.427121048232491
 30
0.0
 42
0.9999999999999941
  0
VERTEX
  5
26E
  8
DEFAULT
 10
3.300231426078049
 20
8.427121048232491
 30
0.0
  0
SEQEND
  5
26F
  8
DEFAULT
  0
POLYLINE
  5
270
  8
DEFAULT
 66
     1
 10
0.0
 20
0.0
 30
0.0
 70
     1
  0
VERTEX
  5
271
  8
DEFAULT
 10
4.26082295155839
 20
8.065150823631129
 30
0.0
 42
0.9999999999999999
  0
VERTEX
  5
272
  8
DEFAULT
 10
4.560822951558391
 20
8.065150823631129
 30
0.0
  0
VERTEX
  5
273
  8
DEFAULT
 10
4.560822951558391
 20
8.427121048232491
 30
0.0
 42
0.9999999999999941
  0
VERTEX
  5
274
  8
DEFAULT
 10
4.26082295155839
 20
8.427121048232491
 30
0.0
  0
SEQEND
  5
275
  8
DEFAULT
  0
POLYLINE
  5
276
  8
DEFAULT
 66
     1
 10
0.0
 20
0.0
 30
0.0
 70
     1
  0
VERTEX
  5
277
  8
DEFAULT
 10
5.221414477038731
 20
8.065150823631129
 30
0.0
 42
0.9999999999999999
  0
VERTEX
  5
278
  8
DEFAULT
 10
5.521414477038732
 20
8.065150823631129
 30
0.0
  0
VERTEX
  5
279
  8
DEFAULT
 10
5.521414477038732
 20
8.427121048232491
 30
0.0
 42
0.9999999999999941
  0
VERTEX
  5
27A
  8
DEFAULT
 10
5.221414477038731
 20
8.427121048232491
 30
0.0
  0
SEQEND
  5
27B
  8
DEFAULT
  0
POLYLINE
  5
27C
  8
DEFAULT
 66
     1
 10
0.0
 20
0.0
 30
0.0
 70
     1
  0
VERTEX
  5
27D
  8
DEFAULT
 10
6.182006002519071
 20
8.065150823631129
 30
0.0
 42
0.9999999999999999
  0
VERTEX
  5
27E
  8
DEFAULT
 10
6.482006002519071
 20
8.065150823631129
 30
0.0
  0
VERTEX
  5
27F
  8
DEFAULT
 10
6.482006002519073
 20
8.427121048232491
 30
0.0
 42
0.999999999999997
  0
VERTEX
  5
280
  8
DEFAULT
 10
6.182006002519071
 20
8.427121048232491
 30
0.0
  0
SEQEND
  5
281
  8
DEFAULT
  0
POLYLINE
  5
282
  8
DEFAULT
 66
     1
 10
0.0
 20
0.0
 30
0.0
 70
     1
  0
VERTEX
  5
283
  8
DEFAULT
 10
7.142597527999413
 20
8.065150823631129
 30
0.0
 42
0.9999999999999999
  0
VERTEX
  5
284
  8
DEFAULT
 10
7.442597527999414
 20
8.065150823631129
 30
0.0
  0
VERTEX
  5
285
  8
DEFAULT
 10
7.442597527999416
 20
8.427121048232491
 30
0.0
 42
0.999999999999997
  0
VERTEX
  5
286
  8
DEFAULT
 10
7.142597527999413
 20
8.427121048232491
 30
0.0
  0
SEQEND
  5
287
  8
DEFAULT
  0
POLYLINE
  5
288
  8
DEFAULT
 66
     1
 10
0.0
 20
0.0
 30
0.0
 70
     1
  0
VERTEX
  5
289
  8
DEFAULT
 10
8.103189053479756
 20
8.065150823631127
 30
0.0
 42
0.9999999999999999
  0
VERTEX
  5
28A
  8
DEFAULT
 10
8.403189053479757
 20
8.065150823631129
 30
0.0
  0
VERTEX
  5
28B
  8
DEFAULT
 10
8.403189053479753
 20
8.427121048232491
 30
0.0
 42
0.9999999999999999
  0
VERTEX
  5
28C
  8
DEFAULT
 10
8.103189053479756
 20
8.427121048232491
 30
0.0
  0
SEQEND
  5
28D
  8
DEFAULT
  0
POLYLINE
  5
28E
  8
DEFAULT
 66
     1
 10
0.0
 20
0.0
 30
0.0
 70
     1
  0
VERTEX
  5
28F
  8
DEFAULT
 10
9.063780578960095
 20
8.065150823631127
 30
0.0
 42
0.9999999999999999
  0
VERTEX
  5
290
  8
DEFAULT
 10
9.363780578960096
 20
8.065150823631129
 30
0.0
  0
VERTEX
  5
291
  8
DEFAULT
 10
9.363780578960093
 20
8.427121048232491
 30
0.0
 42
0.9999999999999999
  0
VERTEX
  5
292
  8
DEFAULT
 10
9.063780578960095
 20
8.427121048232491
 30
0.0
  0
SEQEND
  5
293
  8
DEFAULT
  0
POLYLINE
  5
294
  8
DEFAULT
 66
     1
 10
0.0
 20
0.0
 30
0.0
 70
     1
  0
VERTEX
  5
295
  8
DEFAULT
 10
9.063698995947139
 20
6.349021826095195
 30
0.0
 42
1.000000000000003
  0
VERTEX
  5
296
  8
DEFAULT
 10
9.36369899594714
 20
6.349021826095195
 30
0.0
  0
VERTEX
  5
297
  8
DEFAULT
 10
9.363698995947136
 20
6.71099205069656
 30
0.0
 42
0.9999999999999999
  0
VERTEX
  5
298
  8
DEFAULT
 10
9.063698995947139
 20
6.71099205069656
 30
0.0
  0
SEQEND
  5
299
  8
DEFAULT
  0
POLYLINE
  5
29A
  8
DEFAULT
 66
     1
 10
0.0
 20
0.0
 30
0.0
 70
     1
  0
VERTEX
  5
29B
  8
DEFAULT
 10
8.1031074704668
 20
6.349021826095195
 30
0.0
 42
1.000000000000003
  0
VERTEX
  5
29C
  8
DEFAULT
 10
8.4031074704668
 20
6.349021826095195
 30
0.0
  0
VERTEX
  5
29D
  8
DEFAULT
 10
8.403107470466797
 20
6.71099205069656
 30
0.0
 42
0.9999999999999999
  0
VERTEX
  5
29E
  8
DEFAULT
 10
8.1031074704668
 20
6.71099205069656
 30
0.0
  0
SEQEND
  5
29F
  8
DEFAULT
  0
POLYLINE
  5
2A0
  8
DEFAULT
 66
     1
 10
0.0
 20
0.0
 30
0.0
 70
     1
  0
VERTEX
  5
2A1
  8
DEFAULT
 10
7.14251594498646
 20
6.349021826095195
 30
0.0
 42
0.9999999999999999
  0
VERTEX
  5
2A2
  8
DEFAULT
 10
7.442515944986461
 20
6.349021826095195
 30
0.0
  0
VERTEX
  5
2A3
  8
DEFAULT
 10
7.442515944986459
 20
6.71099205069656
 30
0.0
 42
0.9999999999999999
  0
VERTEX
  5
2A4
  8
DEFAULT
 10
7.14251594498646
 20
6.710992050696559
 30
0.0
  0
SEQEND
  5
2A5
  8
DEFAULT
  0
POLYLINE
  5
2A6
  8
DEFAULT
 66
     1
 10
0.0
 20
0.0
 30
0.0
 70
     1
  0
VERTEX
  5
2A7
  8
DEFAULT
 10
6.181924419506114
 20
6.349021826095195
 30
0.0
 42
0.9999999999999999
  0
VERTEX
  5
2A8
  8
DEFAULT
 10
6.481924419506115
 20
6.349021826095195
 30
0.0
  0
VERTEX
  5
2A9
  8
DEFAULT
 10
6.48192441950612
 20
6.71099205069656
 30
0.0
 42
0.9999999999999999
  0
VERTEX
  5
2AA
  8
DEFAULT
 10
6.181924419506114
 20
6.710992050696559
 30
0.0
  0
SEQEND
  5
2AB
  8
DEFAULT
  0
POLYLINE
  5
2AC
  8
DEFAULT
 66
     1
 10
0.0
 20
0.0
 30
0.0
 70
     1
  0
VERTEX
  5
2AD
  8
DEFAULT
 10
5.221332894025776
 20
6.349021826095195
 30
0.0
 42
0.9999999999999999
  0
VERTEX
  5
2AE
  8
DEFAULT
 10
5.521332894025777
 20
6.349021826095195
 30
0.0
  0
VERTEX
  5
2AF
  8
DEFAULT
 10
5.521332894025777
 20
6.71099205069656
 30
0.0
 42
0.9999999999999999
  0
VERTEX
  5
2B0
  8
DEFAULT
 10
5.221332894025776
 20
6.71099205069656
 30
0.0
  0
SEQEND
  5
2B1
  8
DEFAULT
  0
POLYLINE
  5
2B2
  8
DEFAULT
 66
     1
 10
0.0
 20
0.0
 30
0.0
 70
     1
  0
VERTEX
  5
2B3
  8
DEFAULT
 10
4.260741368545435
 20
6.349021826095195
 30
0.0
 42
0.9999999999999999
  0
VERTEX
  5
2B4
  8
DEFAULT
 10
4.560741368545436
 20
6.349021826095195
 30
0.0
  0
VERTEX
  5
2B5
  8
DEFAULT
 10
4.560741368545436
 20
6.71099205069656
 30
0.0
 42
0.9999999999999999
  0
VERTEX
  5
2B6
  8
DEFAULT
 10
4.260741368545435
 20
6.71099205069656
 30
0.0
  0
SEQEND
  5
2B7
  8
DEFAULT
  0
POLYLINE
  5
2B8
  8
DEFAULT
 66
     1
 10
0.0
 20
0.0
 30
0.0
 70
     1
  0
VERTEX
  5
2B9
  8
DEFAULT
 10
3.300149843065094
 20
6.349021826095195
 30
0.0
 42
0.9999999999999999
  0
VERTEX
  5
2BA
  8
DEFAULT
 10
3.600149843065095
 20
6.349021826095195
 30
0.0
  0
VERTEX
  5
2BB
  8
DEFAULT
 10
3.600149843065095
 20
6.71099205069656
 30
0.0
 42
0.9999999999999999
  0
VERTEX
  5
2BC
  8
DEFAULT
 10
3.300149843065094
 20
6.710992050696561
 30
0.0
  0
SEQEND
  5
2BD
  8
DEFAULT
  0
POLYLINE
  5
2BE
  8
DEFAULT
 66
     1
 10
0.0
 20
0.0
 30
0.0
 70
     1
  0
VERTEX
  5
2BF
  8
DEFAULT
 10
2.339558317584753
 20
6.349021826095195
 30
0.0
 42
0.9999999999999999
  0
VERTEX
  5
2C0
  8
DEFAULT
 10
2.639558317584754
 20
6.349021826095195
 30
0.0
  0
VERTEX
  5
2C1
  8
DEFAULT
 10
2.639558317584754
 20
6.71099205069656
 30
0.0
 42
0.9999999999999999
  0
VERTEX
  5
2C2
  8
DEFAULT
 10
2.339558317584753
 20
6.710992050696561
 30
0.0
  0
SEQEND
  5
2C3
  8
DEFAULT
  0
POLYLINE
  5
2C4
  8
DEFAULT
 66
     1
 10
0.0
 20
0.0
 30
0.0
 70
     1
  0
VERTEX
  5
2C5
  8
DEFAULT
 10
1.378966792104413
 20
6.349021826095195
 30
0.0
 42
0.999999999999997
  0
VERTEX
  5
2C6
  8
DEFAULT
 10
1.678966792104413
 20
6.349021826095195
 30
0.0
  0
VERTEX
  5
2C7
  8
DEFAULT
 10
1.678966792104413
 20
6.71099205069656
 30
0.0
 42
0.999999999999997
  0
VERTEX
  5
2C8
  8
DEFAULT
 10
1.378966792104413
 20
6.71099205069656
 30
0.0
  0
SEQEND
  5
2C9
  8
DEFAULT
  0
POLYLINE
  5
2CA
  8
DEFAULT
 66
     1
 10
0.0
 20
0.0
 30
0.0
 70
     1
  0
VERTEX
  5
2CB
  8
DEFAULT
 10
9.391598597394447
 20
5.540289852911588
 30
0.0
 42
0.9999999999999999
  0
VERTEX
  5
2CC
  8
DEFAULT
 10
9.391598597394449
 20
5.894620561573007
 30
0.0
  0
VERTEX
  5
2CD
  8
DEFAULT
 10
9.037267888733028
 20
5.894620561573005
 30
0.0
 42
1.000000000000002
  0
VERTEX
  5
2CE
  8
DEFAULT
 10
9.037267888733028
 20
5.540289852911588
 30
0.0
  0
SEQEND
  5
2CF
  8
DEFAULT
  0
POLYLINE
  5
2D0
  8
DEFAULT
 66
     1
 10
0.0
 20
0.0
 30
0.0
 70
     1
  0
VERTEX
  5
2D1
  8
DEFAULT
 10
8.430925488901151
 20
5.540289852911588
 30
0.0
 42
0.9999999999999999
  0
VERTEX
  5
2D2
  8
DEFAULT
 10
8.430925488901153
 20
5.894620561573007
 30
0.0
  0
VERTEX
  5
2D3
  8
DEFAULT
 10
8.076594780239732
 20
5.894620561573005
 30
0.0
 42
0.9999999999999999
  0
VERTEX
  5
2D4
  8
DEFAULT
 10
8.076594780239734
 20
5.540289852911588
 30
0.0
  0
SEQEND
  5
2D5
  8
DEFAULT
  0
POLYLINE
  5
2D6
  8
DEFAULT
 66
     1
 10
0.0
 20
0.0
 30
0.0
 70
     1
  0
VERTEX
  5
2D7
  8
DEFAULT
 10
7.470252380407855
 20
5.540289852911588
 30
0.0
 42
0.9999999999999999
  0
VERTEX
  5
2D8
  8
DEFAULT
 10
7.470252380407855
 20
5.894620561573007
 30
0.0
  0
VERTEX
  5
2D9
  8
DEFAULT
 10
7.115921671746436
 20
5.894620561573003
 30
0.0
 42
0.9999999999999999
  0
VERTEX
  5
2DA
  8
DEFAULT
 10
7.115921671746436
 20
5.540289852911588
 30
0.0
  0
SEQEND
  5
2DB
  8
DEFAULT
  0
POLYLINE
  5
2DC
  8
DEFAULT
 66
     1
 10
0.0
 20
0.0
 30
0.0
 70
     1
  0
VERTEX
  5
2DD
  8
DEFAULT
 10
6.509579271914559
 20
5.540289852911588
 30
0.0
 42
0.9999999999999999
  0
VERTEX
  5
2DE
  8
DEFAULT
 10
6.509579271914559
 20
5.894620561573007
 30
0.0
  0
VERTEX
  5
2DF
  8
DEFAULT
 10
6.15524856325314
 20
5.894620561573003
 30
0.0
 42
0.9999999999999999
  0
VERTEX
  5
2E0
  8
DEFAULT
 10
6.15524856325314
 20
5.540289852911588
 30
0.0
  0
SEQEND
  5
2E1
  8
DEFAULT
  0
POLYLINE
  5
2E2
  8
DEFAULT
 66
     1
 10
0.0
 20
0.0
 30
0.0
 70
     1
  0
VERTEX
  5
2E3
  8
DEFAULT
 10
5.548906163421261
 20
5.540289852911588
 30
0.0
 42
0.9999999999999999
  0
VERTEX
  5
2E4
  8
DEFAULT
 10
5.548906163421261
 20
5.894620561573007
 30
0.0
  0
VERTEX
  5
2E5
  8
DEFAULT
 10
5.194575454759844
 20
5.894620561573003
 30
0.0
 42
0.9999999999999999
  0
VERTEX
  5
2E6
  8
DEFAULT
 10
5.194575454759844
 20
5.540289852911588
 30
0.0
  0
SEQEND
  5
2E7
  8
DEFAULT
  0
POLYLINE
  5
2E8
  8
DEFAULT
 66
     1
 10
0.0
 20
0.0
 30
0.0
 70
     1
  0
VERTEX
  5
2E9
  8
DEFAULT
 10
4.588233054927965
 20
5.540289852911588
 30
0.0
 42
0.9999999999999999
  0
VERTEX
  5
2EA
  8
DEFAULT
 10
4.588233054927965
 20
5.894620561573007
 30
0.0
  0
VERTEX
  5
2EB
  8
DEFAULT
 10
4.233902346266548
 20
5.894620561573003
 30
0.0
 42
0.9999999999999999
  0
VERTEX
  5
2EC
  8
DEFAULT
 10
4.233902346266547
 20
5.540289852911588
 30
0.0
  0
SEQEND
  5
2ED
  8
DEFAULT
  0
POLYLINE
  5
2EE
  8
DEFAULT
 66
     1
 10
0.0
 20
0.0
 30
0.0
 70
     1
  0
VERTEX
  5
2EF
  8
DEFAULT
 10
3.627559946434669
 20
5.540289852911588
 30
0.0
 42
0.9999999999999959
  0
VERTEX
  5
2F0
  8
DEFAULT
 10
3.627559946434669
 20
5.894620561573007
 30
0.0
  0
VERTEX
  5
2F1
  8
DEFAULT
 10
3.273229237773252
 20
5.894620561573005
 30
0.0
 42
0.9999999999999974
  0
VERTEX
  5
2F2
  8
DEFAULT
 10
3.273229237773252
 20
5.540289852911588
 30
0.0
  0
SEQEND
  5
2F3
  8
DEFAULT
  0
POLYLINE
  5
2F4
  8
DEFAULT
 66
     1
 10
0.0
 20
0.0
 30
0.0
 70
     1
  0
VERTEX
  5
2F5
  8
DEFAULT
 10
2.666886837941373
 20
5.540289852911588
 30
0.0
 42
0.9999999999999959
  0
VERTEX
  5
2F6
  8
DEFAULT
 10
2.666886837941373
 20
5.894620561573007
 30
0.0
  0
VERTEX
  5
2F7
  8
DEFAULT
 10
2.312556129279956
 20
5.894620561573005
 30
0.0
 42
0.9999999999999974
  0
VERTEX
  5
2F8
  8
DEFAULT
 10
2.312556129279956
 20
5.540289852911588
 30
0.0
  0
SEQEND
  5
2F9
  8
DEFAULT
  0
POLYLINE
  5
2FA
  8
DEFAULT
 66
     1
 10
0.0
 20
0.0
 30
0.0
 70
     1
  0
VERTEX
  5
2FB
  8
DEFAULT
 10
1.706213729448077
 20
5.540289852911588
 30
0.0
 42
0.9999999999999999
  0
VERTEX
  5
2FC
  8
DEFAULT
 10
1.706213729448077
 20
5.894620561573007
 30
0.0
  0
VERTEX
  5
2FD
  8
DEFAULT
 10
1.35188302078666
 20
5.894620561573005
 30
0.0
 42
0.9999999999999974
  0
VERTEX
  5
2FE
  8
DEFAULT
 10
1.35188302078666
 20
5.540289852911588
 30
0.0
  0
SEQEND
  5
2FF
  8
DEFAULT
  0
CIRCLE
  5
300
  8
DEFAULT
 10
9.98468411876935
 20
5.828375345945579
 30
0.0
 40
0.0625
  0
CIRCLE
  5
301
  8
DEFAULT
 10
9.98468411876935
 20
5.828375345945579
 30
0.0
 40
0.15
  0
CIRCLE
  5
302
  8
DEFAULT
 10
0.4693559104353593
 20
5.863523450733391
 30
0.0
 40
0.15
  0
CIRCLE
  5
303
  8
DEFAULT
 10
0.4693559104353593
 20
4.734127859557221
 30
0.0
 40
0.15
  0
CIRCLE
  5
304
  8
DEFAULT
 10
0.4693559104353593
 20
4.734127859557221
 30
0.0
 40
0.0625
  0
CIRCLE
  5
305
  8
DEFAULT
 10
1.529048375117368
 20
6.075605673873687
 30
0.0
 40
0.0625
  0
CIRCLE
  5
306
  8
DEFAULT
 10
2.489721483610664
 20
6.075605673873687
 30
0.0
 40
0.0625
  0
CIRCLE
  5
307
  8
DEFAULT
 10
3.45039459210396
 20
6.075605673873687
 30
0.0
 40
0.0625
  0
CIRCLE
  5
308
  8
DEFAULT
 10
4.411067700597256
 20
6.075605673873687
 30
0.0
 40
0.0625
  0
CIRCLE
  5
309
  8
DEFAULT
 10
5.371740809090552
 20
6.075605673873687
 30
0.0
 40
0.0625
  0
CIRCLE
  5
30A
  8
DEFAULT
 10
6.332413917583848
 20
6.075605673873687
 30
0.0
 40
0.0625
  0
CIRCLE
  5
30B
  8
DEFAULT
 10
7.29308702607714
 20
6.075605673873687
 30
0.0
 40
0.0625
  0
CIRCLE
  5
30C
  8
DEFAULT
 10
8.25376013457044
 20
6.075605673873687
 30
0.0
 40
0.0625
  0
CIRCLE
  5
30D
  8
DEFAULT
 10
9.214433243063736
 20
6.075605673873687
 30
0.0
 40
0.0625
  0
CIRCLE
  5
30E
  8
DEFAULT
 10
0.4693559104353593
 20
5.863523450733391
 30
0.0
 40
0.0625
  0
CIRCLE
  5
30F
  8
DEFAULT
 10
1.528966792104413
 20
4.522045614230967
 30
0.0
 40
0.0625
  0
CIRCLE
  5
310
  8
DEFAULT
 10
2.489639900597709
 20
4.522045614230967
 30
0.0
 40
0.0625
  0
CIRCLE
  5
311
  8
DEFAULT
 10
3.450313009091005
 20
4.522045614230967
 30
0.0
 40
0.0625
  0
CIRCLE
  5
312
  8
DEFAULT
 10
4.410986117584301
 20
4.522045614230967
 30
0.0
 40
0.0625
  0
CIRCLE
  5
313
  8
DEFAULT
 10
5.371659226077597
 20
4.522045614230967
 30
0.0
 40
0.0625
  0
CIRCLE
  5
314
  8
DEFAULT
 10
6.332332334570891
 20
4.522045614230967
 30
0.0
 40
0.0625
  0
CIRCLE
  5
315
  8
DEFAULT
 10
7.293005443064187
 20
4.522045614230967
 30
0.0
 40
0.0625
  0
CIRCLE
  5
316
  8
DEFAULT
 10
8.253678551557483
 20
4.522045614230967
 30
0.0
 40
0.0625
  0
CIRCLE
  5
317
  8
DEFAULT
 10
9.214351660050779
 20
4.522045614230967
 30
0.0
 40
0.0625
  0
CIRCLE
  5
318
  8
DEFAULT
 10
0.4693559104353593
 20
5.286738180639899
 30
0.0
 40
0.14
  0
POLYLINE
  5
319
  8
DEFAULT
 66
     1
 10
0.0
 20
0.0
 30
0.0
 70
     1
  0
VERTEX
  5
31A
  8
DEFAULT
 10
9.584769797310395
 20
5.124639096563
 30
0.0
  0
VERTEX
  5
31B
  8
DEFAULT
 10
9.5847697973104
 20
4.591060524116243
 30
0.0
 42
-0.4142135623731034
  0
VERTEX
  5
31C
  8
DEFAULT
 10
9.3347697973104
 20
4.341060524116242
 30
0.0
  0
VERTEX
  5
31D
  8
DEFAULT
 10
0.2499999999999982
 20
4.341060524116246
 30
0.0
 42
-0.4142135623730925
  0
VERTEX
  5
31E
  8
DEFAULT
 10
0.0
 20
4.591060524116246
 30
0.0
  0
VERTEX
  5
31F
  8
DEFAULT
 10
-0.0000000000000019
 20
6.006590786174369
 30
0.0
 42
-0.4142135623730945
  0
VERTEX
  5
320
  8
DEFAULT
 10
0.2499999999999982
 20
6.256590786174369
 30
0.0
  0
VERTEX
  5
321
  8
DEFAULT
 10
10.0113106961328
 20
6.256590786174369
 30
0.0
 42
-0.4142135623730923
  0
VERTEX
  5
322
  8
DEFAULT
 10
10.2613106961328
 20
6.006590786174371
 30
0.0
  0
VERTEX
  5
323
  8
DEFAULT
 10
10.2613106961328
 20
5.624639096563
 30
0.0
 42
-0.4142135623731016
  0
VERTEX
  5
324
  8
DEFAULT
 10
10.0113106961328
 20
5.374639096562999
 30
0.0
  0
VERTEX
  5
325
  8
DEFAULT
 10
9.834769797310393
 20
5.374639096562999
 30
0.0
 42
0.4142135623730966
  0
SEQEND
  5
326
  8
DEFAULT
  0
POLYLINE
  5
327
  8
DEFAULT
 66
     1
 10
0.0
 20
0.0
 30
0.0
 70
     1
  0
VERTEX
  5
328
  8
DEFAULT
 10
1.379048375117368
 20
5.894620561573005
 30
0.0
 42
0.9999999999999999
  0
VERTEX
  5
329
  8
DEFAULT
 10
1.679048375117368
 20
5.894620561573005
 30
0.0
  0
VERTEX
  5
32A
  8
DEFAULT
 10
1.679048375117368
 20
6.256590786174369
 30
0.0
 42
0.9999999999999999
  0
VERTEX
  5
32B
  8
DEFAULT
 10
1.379048375117368
 20
6.256590786174369
 30
0.0
  0
SEQEND
  5
32C
  8
DEFAULT
  0
POLYLINE
  5
32D
  8
DEFAULT
 66
     1
 10
0.0
 20
0.0
 30
0.0
 70
     1
  0
VERTEX
  5
32E
  8
DEFAULT
 10
2.339639900597708
 20
5.894620561573006
 30
0.0
 42
0.9999999999999999
  0
VERTEX
  5
32F
  8
DEFAULT
 10
2.639639900597709
 20
5.894620561573006
 30
0.0
  0
VERTEX
  5
330
  8
DEFAULT
 10
2.639639900597709
 20
6.256590786174369
 30
0.0
 42
0.9999999999999999
  0
VERTEX
  5
331
  8
DEFAULT
 10
2.339639900597708
 20
6.256590786174369
 30
0.0
  0
SEQEND
  5
332
  8
DEFAULT
  0
POLYLINE
  5
333
  8
DEFAULT
 66
     1
 10
0.0
 20
0.0
 30
0.0
 70
     1
  0
VERTEX
  5
334
  8
DEFAULT
 10
3.300231426078049
 20
5.894620561573006
 30
0.0
 42
0.9999999999999999
  0
VERTEX
  5
335
  8
DEFAULT
 10
3.60023142607805
 20
5.894620561573006
 30
0.0
  0
VERTEX
  5
336
  8
DEFAULT
 10
3.60023142607805
 20
6.256590786174369
 30
0.0
 42
0.9999999999999999
  0
VERTEX
  5
337
  8
DEFAULT
 10
3.300231426078049
 20
6.256590786174369
 30
0.0
  0
SEQEND
  5
338
  8
DEFAULT
  0
POLYLINE
  5
339
  8
DEFAULT
 66
     1
 10
0.0
 20
0.0
 30
0.0
 70
     1
  0
VERTEX
  5
33A
  8
DEFAULT
 10
4.26082295155839
 20
5.894620561573005
 30
0.0
 42
0.9999999999999999
  0
VERTEX
  5
33B
  8
DEFAULT
 10
4.560822951558391
 20
5.894620561573005
 30
0.0
  0
VERTEX
  5
33C
  8
DEFAULT
 10
4.560822951558391
 20
6.256590786174369
 30
0.0
 42
0.9999999999999999
  0
VERTEX
  5
33D
  8
DEFAULT
 10
4.26082295155839
 20
6.256590786174369
 30
0.0
  0
SEQEND
  5
33E
  8
DEFAULT
  0
POLYLINE
  5
33F
  8
DEFAULT
 66
     1
 10
0.0
 20
0.0
 30
0.0
 70
     1
  0
VERTEX
  5
340
  8
DEFAULT
 10
5.221414477038731
 20
5.894620561573005
 30
0.0
 42
0.9999999999999999
  0
VERTEX
  5
341
  8
DEFAULT
 10
5.521414477038732
 20
5.894620561573005
 30
0.0
  0
VERTEX
  5
342
  8
DEFAULT
 10
5.521414477038732
 20
6.256590786174369
 30
0.0
 42
0.9999999999999999
  0
VERTEX
  5
343
  8
DEFAULT
 10
5.221414477038731
 20
6.256590786174369
 30
0.0
  0
SEQEND
  5
344
  8
DEFAULT
  0
POLYLINE
  5
345
  8
DEFAULT
 66
     1
 10
0.0
 20
0.0
 30
0.0
 70
     1
  0
VERTEX
  5
346
  8
DEFAULT
 10
6.182006002519071
 20
5.894620561573005
 30
0.0
 42
0.9999999999999999
  0
VERTEX
  5
347
  8
DEFAULT
 10
6.482006002519071
 20
5.894620561573005
 30
0.0
  0
VERTEX
  5
348
  8
DEFAULT
 10
6.482006002519073
 20
6.256590786174369
 30
0.0
 42
0.9999999999999999
  0
VERTEX
  5
349
  8
DEFAULT
 10
6.182006002519071
 20
6.256590786174369
 30
0.0
  0
SEQEND
  5
34A
  8
DEFAULT
  0
POLYLINE
  5
34B
  8
DEFAULT
 66
     1
 10
0.0
 20
0.0
 30
0.0
 70
     1
  0
VERTEX
  5
34C
  8
DEFAULT
 10
7.142597527999413
 20
5.894620561573005
 30
0.0
 42
0.9999999999999999
  0
VERTEX
  5
34D
  8
DEFAULT
 10
7.442597527999414
 20
5.894620561573005
 30
0.0
  0
VERTEX
  5
34E
  8
DEFAULT
 10
7.442597527999416
 20
6.256590786174369
 30
0.0
 42
0.9999999999999999
  0
VERTEX
  5
34F
  8
DEFAULT
 10
7.142597527999413
 20
6.256590786174369
 30
0.0
  0
SEQEND
  5
350
  8
DEFAULT
  0
POLYLINE
  5
351
  8
DEFAULT
 66
     1
 10
0.0
 20
0.0
 30
0.0
 70
     1
  0
VERTEX
  5
352
  8
DEFAULT
 10
8.103189053479756
 20
5.894620561573006
 30
0.0
 42
1.000000000000003
  0
VERTEX
  5
353
  8
DEFAULT
 10
8.403189053479757
 20
5.894620561573006
 30
0.0
  0
VERTEX
  5
354
  8
DEFAULT
 10
8.403189053479753
 20
6.256590786174369
 30
0.0
 42
0.9999999999999999
  0
VERTEX
  5
355
  8
DEFAULT
 10
8.103189053479756
 20
6.256590786174369
 30
0.0
  0
SEQEND
  5
356
  8
DEFAULT
  0
POLYLINE
  5
357
  8
DEFAULT
 66
     1
 10
0.0
 20
0.0
 30
0.0
 70
     1
  0
VERTEX
  5
358
  8
DEFAULT
 10
9.063780578960095
 20
5.894620561573006
 30
0.0
 42
1.000000000000003
  0
VERTEX
  5
359
  8
DEFAULT
 10
9.363780578960096
 20
5.894620561573006
 30
0.0
  0
VERTEX
  5
35A
  8
DEFAULT
 10
9.363780578960093
 20
6.256590786174369
 30
0.0
 42
0.9999999999999999
  0
VERTEX
  5
35B
  8
DEFAULT
 10
9.063780578960095
 20
6.256590786174369
 30
0.0
  0
SEQEND
  5
35C
  8
DEFAULT
  0
POLYLINE
  5
35D
  8
DEFAULT
 66
     1
 10
0.0
 20
0.0
 30
0.0
 70
     1
  0
VERTEX
  5
35E
  8
DEFAULT
 10
9.063698995947139
 20
4.178491564037072
 30
0.0
 42
1.000000000000009
  0
VERTEX
  5
35F
  8
DEFAULT
 10
9.36369899594714
 20
4.178491564037072
 30
0.0
  0
VERTEX
  5
360
  8
DEFAULT
 10
9.363698995947136
 20
4.540461788638437
 30
0.0
 42
0.9999999999999999
  0
VERTEX
  5
361
  8
DEFAULT
 10
9.063698995947139
 20
4.540461788638437
 30
0.0
  0
SEQEND
  5
362
  8
DEFAULT
  0
POLYLINE
  5
363
  8
DEFAULT
 66
     1
 10
0.0
 20
0.0
 30
0.0
 70
     1
  0
VERTEX
  5
364
  8
DEFAULT
 10
8.1031074704668
 20
4.178491564037072
 30
0.0
 42
1.000000000000009
  0
VERTEX
  5
365
  8
DEFAULT
 10
8.4031074704668
 20
4.178491564037072
 30
0.0
  0
VERTEX
  5
366
  8
DEFAULT
 10
8.403107470466797
 20
4.540461788638437
 30
0.0
 42
0.9999999999999999
  0
VERTEX
  5
367
  8
DEFAULT
 10
8.1031074704668
 20
4.540461788638437
 30
0.0
  0
SEQEND
  5
368
  8
DEFAULT
  0
POLYLINE
  5
369
  8
DEFAULT
 66
     1
 10
0.0
 20
0.0
 30
0.0
 70
     1
  0
VERTEX
  5
36A
  8
DEFAULT
 10
7.14251594498646
 20
4.178491564037072
 30
0.0
 42
0.9999999999999999
  0
VERTEX
  5
36B
  8
DEFAULT
 10
7.442515944986461
 20
4.178491564037072
 30
0.0
  0
VERTEX
  5
36C
  8
DEFAULT
 10
7.442515944986459
 20
4.540461788638437
 30
0.0
 42
0.9999999999999999
  0
VERTEX
  5
36D
  8
DEFAULT
 10
7.14251594498646
 20
4.540461788638437
 30
0.0
  0
SEQEND
  5
36E
  8
DEFAULT
  0
POLYLINE
  5
36F
  8
DEFAULT
 66
     1
 10
0.0
 20
0.0
 30
0.0
 70
     1
  0
VERTEX
  5
370
  8
DEFAULT
 10
6.181924419506114
 20
4.178491564037072
 30
0.0
 42
0.9999999999999999
  0
VERTEX
  5
371
  8
DEFAULT
 10
6.481924419506115
 20
4.178491564037072
 30
0.0
  0
VERTEX
  5
372
  8
DEFAULT
 10
6.48192441950612
 20
4.540461788638437
 30
0.0
 42
0.9999999999999999
  0
VERTEX
  5
373
  8
DEFAULT
 10
6.181924419506114
 20
4.540461788638437
 30
0.0
  0
SEQEND
  5
374
  8
DEFAULT
  0
POLYLINE
  5
375
  8
DEFAULT
 66
     1
 10
0.0
 20
0.0
 30
0.0
 70
     1
  0
VERTEX
  5
376
  8
DEFAULT
 10
5.221332894025776
 20
4.178491564037072
 30
0.0
 42
0.9999999999999999
  0
VERTEX
  5
377
  8
DEFAULT
 10
5.521332894025777
 20
4.178491564037072
 30
0.0
  0
VERTEX
  5
378
  8
DEFAULT
 10
5.521332894025777
 20
4.540461788638437
 30
0.0
 42
0.9999999999999999
  0
VERTEX
  5
379
  8
DEFAULT
 10
5.221332894025776
 20
4.540461788638437
 30
0.0
  0
SEQEND
  5
37A
  8
DEFAULT
  0
POLYLINE
  5
37B
  8
DEFAULT
 66
     1
 10
0.0
 20
0.0
 30
0.0
 70
     1
  0
VERTEX
  5
37C
  8
DEFAULT
 10
4.260741368545435
 20
4.178491564037072
 30
0.0
 42
0.9999999999999999
  0
VERTEX
  5
37D
  8
DEFAULT
 10
4.560741368545436
 20
4.178491564037072
 30
0.0
  0
VERTEX
  5
37E
  8
DEFAULT
 10
4.560741368545436
 20
4.540461788638437
 30
0.0
 42
0.9999999999999999
  0
VERTEX
  5
37F
  8
DEFAULT
 10
4.260741368545435
 20
4.540461788638437
 30
0.0
  0
SEQEND
  5
380
  8
DEFAULT
  0
POLYLINE
  5
381
  8
DEFAULT
 66
     1
 10
0.0
 20
0.0
 30
0.0
 70
     1
  0
VERTEX
  5
382
  8
DEFAULT
 10
3.300149843065094
 20
4.178491564037072
 30
0.0
 42
0.9999999999999999
  0
VERTEX
  5
383
  8
DEFAULT
 10
3.600149843065095
 20
4.178491564037072
 30
0.0
  0
VERTEX
  5
384
  8
DEFAULT
 10
3.600149843065095
 20
4.540461788638437
 30
0.0
 42
0.9999999999999999
  0
VERTEX
  5
385
  8
DEFAULT
 10
3.300149843065094
 20
4.540461788638438
 30
0.0
  0
SEQEND
  5
386
  8
DEFAULT
  0
POLYLINE
  5
387
  8
DEFAULT
 66
     1
 10
0.0
 20
0.0
 30
0.0
 70
     1
  0
VERTEX
  5
388
  8
DEFAULT
 10
2.339558317584753
 20
4.178491564037072
 30
0.0
 42
0.9999999999999999
  0
VERTEX
  5
389
  8
DEFAULT
 10
2.639558317584754
 20
4.178491564037072
 30
0.0
  0
VERTEX
  5
38A
  8
DEFAULT
 10
2.639558317584753
 20
4.540461788638437
 30
0.0
 42
1.000000000000001
  0
VERTEX
  5
38B
  8
DEFAULT
 10
2.339558317584753
 20
4.540461788638438
 30
0.0
  0
SEQEND
  5
38C
  8
DEFAULT
  0
POLYLINE
  5
38D
  8
DEFAULT
 66
     1
 10
0.0
 20
0.0
 30
0.0
 70
     1
  0
VERTEX
  5
38E
  8
DEFAULT
 10
1.378966792104413
 20
4.178491564037072
 30
0.0
 42
0.9999999999999999
  0
VERTEX
  5
38F
  8
DEFAULT
 10
1.678966792104413
 20
4.178491564037072
 30
0.0
  0
VERTEX
  5
390
  8
DEFAULT
 10
1.678966792104413
 20
4.540461788638437
 30
0.0
 42
0.9999999999999999
  0
VERTEX
  5
391
  8
DEFAULT
 10
1.378966792104413
 20
4.540461788638437
 30
0.0
  0
SEQEND
  5
392
  8
DEFAULT
  0
POLYLINE
  5
393
  8
DEFAULT
 66
     1
 10
0.0
 20
0.0
 30
0.0
 70
     1
  0
VERTEX
  5
394
  8
DEFAULT
 10
9.391598597394447
 20
3.369759590853465
 30
0.0
 42
0.9999999999999999
  0
VERTEX
  5
395
  8
DEFAULT
 10
9.391598597394449
 20
3.724090299514883
 30
0.0
  0
VERTEX
  5
396
  8
DEFAULT
 10
9.037267888733028
 20
3.724090299514882
 30
0.0
 42
1.000000000000005
  0
VERTEX
  5
397
  8
DEFAULT
 10
9.037267888733028
 20
3.369759590853465
 30
0.0
  0
SEQEND
  5
398
  8
DEFAULT
  0
POLYLINE
  5
399
  8
DEFAULT
 66
     1
 10
0.0
 20
0.0
 30
0.0
 70
     1
  0
VERTEX
  5
39A
  8
DEFAULT
 10
8.430925488901151
 20
3.369759590853465
 30
0.0
 42
0.9999999999999999
  0
VERTEX
  5
39B
  8
DEFAULT
 10
8.430925488901153
 20
3.724090299514883
 30
0.0
  0
VERTEX
  5
39C
  8
DEFAULT
 10
8.076594780239732
 20
3.724090299514882
 30
0.0
 42
0.9999999999999974
  0
VERTEX
  5
39D
  8
DEFAULT
 10
8.076594780239734
 20
3.369759590853465
 30
0.0
  0
SEQEND
  5
39E
  8
DEFAULT
  0
POLYLINE
  5
39F
  8
DEFAULT
 66
     1
 10
0.0
 20
0.0
 30
0.0
 70
     1
  0
VERTEX
  5
3A0
  8
DEFAULT
 10
7.470252380407855
 20
3.369759590853465
 30
0.0
 42
0.9999999999999999
  0
VERTEX
  5
3A1
  8
DEFAULT
 10
7.470252380407855
 20
3.724090299514883
 30
0.0
  0
VERTEX
  5
3A2
  8
DEFAULT
 10
7.115921671746436
 20
3.724090299514881
 30
0.0
 42
0.9999999999999988
  0
VERTEX
  5
3A3
  8
DEFAULT
 10
7.115921671746436
 20
3.369759590853465
 30
0.0
  0
SEQEND
  5
3A4
  8
DEFAULT
  0
POLYLINE
  5
3A5
  8
DEFAULT
 66
     1
 10
0.0
 20
0.0
 30
0.0
 70
     1
  0
VERTEX
  5
3A6
  8
DEFAULT
 10
6.509579271914559
 20
3.369759590853465
 30
0.0
 42
0.9999999999999999
  0
VERTEX
  5
3A7
  8
DEFAULT
 10
6.509579271914559
 20
3.724090299514883
 30
0.0
  0
VERTEX
  5
3A8
  8
DEFAULT
 10
6.15524856325314
 20
3.724090299514881
 30
0.0
 42
0.9999999999999988
  0
VERTEX
  5
3A9
  8
DEFAULT
 10
6.15524856325314
 20
3.369759590853465
 30
0.0
  0
SEQEND
  5
3AA
  8
DEFAULT
  0
POLYLINE
  5
3AB
  8
DEFAULT
 66
     1
 10
0.0
 20
0.0
 30
0.0
 70
     1
  0
VERTEX
  5
3AC
  8
DEFAULT
 10
5.548906163421261
 20
3.369759590853465
 30
0.0
 42
0.9999999999999999
  0
VERTEX
  5
3AD
  8
DEFAULT
 10
5.548906163421261
 20
3.724090299514883
 30
0.0
  0
VERTEX
  5
3AE
  8
DEFAULT
 10
5.194575454759844
 20
3.724090299514881
 30
0.0
 42
0.9999999999999988
  0
VERTEX
  5
3AF
  8
DEFAULT
 10
5.194575454759844
 20
3.369759590853465
 30
0.0
  0
SEQEND
  5
3B0
  8
DEFAULT
  0
POLYLINE
  5
3B1
  8
DEFAULT
 66
     1
 10
0.0
 20
0.0
 30
0.0
 70
     1
  0
VERTEX
  5
3B2
  8
DEFAULT
 10
4.588233054927965
 20
3.369759590853465
 30
0.0
 42
0.9999999999999999
  0
VERTEX
  5
3B3
  8
DEFAULT
 10
4.588233054927965
 20
3.724090299514883
 30
0.0
  0
VERTEX
  5
3B4
  8
DEFAULT
 10
4.233902346266548
 20
3.724090299514881
 30
0.0
 42
0.9999999999999988
  0
VERTEX
  5
3B5
  8
DEFAULT
 10
4.233902346266547
 20
3.369759590853465
 30
0.0
  0
SEQEND
  5
3B6
  8
DEFAULT
  0
POLYLINE
  5
3B7
  8
DEFAULT
 66
     1
 10
0.0
 20
0.0
 30
0.0
 70
     1
  0
VERTEX
  5
3B8
  8
DEFAULT
 10
3.627559946434669
 20
3.369759590853465
 30
0.0
 42
0.9999999999999972
  0
VERTEX
  5
3B9
  8
DEFAULT
 10
3.627559946434669
 20
3.724090299514883
 30
0.0
  0
VERTEX
  5
3BA
  8
DEFAULT
 10
3.273229237773252
 20
3.724090299514882
 30
0.0
 42
0.9999999999999999
  0
VERTEX
  5
3BB
  8
DEFAULT
 10
3.273229237773252
 20
3.369759590853465
 30
0.0
  0
SEQEND
  5
3BC
  8
DEFAULT
  0
POLYLINE
  5
3BD
  8
DEFAULT
 66
     1
 10
0.0
 20
0.0
 30
0.0
 70
     1
  0
VERTEX
  5
3BE
  8
DEFAULT
 10
2.666886837941373
 20
3.369759590853465
 30
0.0
 42
0.9999999999999972
  0
VERTEX
  5
3BF
  8
DEFAULT
 10
2.666886837941373
 20
3.724090299514883
 30
0.0
  0
VERTEX
  5
3C0
  8
DEFAULT
 10
2.312556129279956
 20
3.724090299514882
 30
0.0
 42
0.9999999999999999
  0
VERTEX
  5
3C1
  8
DEFAULT
 10
2.312556129279956
 20
3.369759590853465
 30
0.0
  0
SEQEND
  5
3C2
  8
DEFAULT
  0
POLYLINE
  5
3C3
  8
DEFAULT
 66
     1
 10
0.0
 20
0.0
 30
0.0
 70
     1
  0
VERTEX
  5
3C4
  8
DEFAULT
 10
1.706213729448077
 20
3.369759590853465
 30
0.0
 42
0.9999999999999999
  0
VERTEX
  5
3C5
  8
DEFAULT
 10
1.706213729448077
 20
3.724090299514883
 30
0.0
  0
VERTEX
  5
3C6
  8
DEFAULT
 10
1.35188302078666
 20
3.724090299514882
 30
0.0
 42
0.9999999999999999
  0
VERTEX
  5
3C7
  8
DEFAULT
 10
1.35188302078666
 20
3.369759590853465
 30
0.0
  0
SEQEND
  5
3C8
  8
DEFAULT
  0
CIRCLE
  5
3C9
  8
DEFAULT
 10
9.98468411876935
 20
3.657845083887456
 30
0.0
 40
0.0625
  0
CIRCLE
  5
3CA
  8
DEFAULT
 10
9.98468411876935
 20
3.657845083887456
 30
0.0
 40
0.15
  0
CIRCLE
  5
3CB
  8
DEFAULT
 10
0.4693559104353593
 20
3.692993188675268
 30
0.0
 40
0.15
  0
CIRCLE
  5
3CC
  8
DEFAULT
 10
0.4693559104353593
 20
2.563597597499098
 30
0.0
 40
0.15
  0
CIRCLE
  5
3CD
  8
DEFAULT
 10
0.4693559104353593
 20
2.563597597499098
 30
0.0
 40
0.0625
  0
CIRCLE
  5
3CE
  8
DEFAULT
 10
1.529048375117368
 20
3.905075411815564
 30
0.0
 40
0.0625
  0
CIRCLE
  5
3CF
  8
DEFAULT
 10
2.489721483610664
 20
3.905075411815564
 30
0.0
 40
0.0625
  0
CIRCLE
  5
3D0
  8
DEFAULT
 10
3.45039459210396
 20
3.905075411815564
 30
0.0
 40
0.0625
  0
CIRCLE
  5
3D1
  8
DEFAULT
 10
4.411067700597256
 20
3.905075411815564
 30
0.0
 40
0.0625
  0
CIRCLE
  5
3D2
  8
DEFAULT
 10
5.371740809090552
 20
3.905075411815564
 30
0.0
 40
0.0625
  0
CIRCLE
  5
3D3
  8
DEFAULT
 10
6.332413917583848
 20
3.905075411815564
 30
0.0
 40
0.0625
  0
CIRCLE
  5
3D4
  8
DEFAULT
 10
7.29308702607714
 20
3.905075411815564
 30
0.0
 40
0.0625
  0
CIRCLE
  5
3D5
  8
DEFAULT
 10
8.25376013457044
 20
3.905075411815564
 30
0.0
 40
0.0625
  0
CIRCLE
  5
3D6
  8
DEFAULT
 10
9.214433243063736
 20
3.905075411815564
 30
0.0
 40
0.0625
  0
CIRCLE
  5
3D7
  8
DEFAULT
 10
0.4693559104353593
 20
3.692993188675268
 30
0.0
 40
0.0625
  0
CIRCLE
  5
3D8
  8
DEFAULT
 10
1.528966792104413
 20
2.351515352172844
 30
0.0
 40
0.0625
  0
CIRCLE
  5
3D9
  8
DEFAULT
 10
2.489639900597709
 20
2.351515352172844
 30
0.0
 40
0.0625
  0
CIRCLE
  5
3DA
  8
DEFAULT
 10
3.450313009091005
 20
2.351515352172844
 30
0.0
 40
0.0625
  0
CIRCLE
  5
3DB
  8
DEFAULT
 10
4.410986117584301
 20
2.351515352172844
 30
0.0
 40
0.0625
  0
CIRCLE
  5
3DC
  8
DEFAULT
 10
5.371659226077597
 20
2.351515352172844
 30
0.0
 40
0.0625
  0
CIRCLE
  5
3DD
  8
DEFAULT
 10
6.332332334570891
 20
2.351515352172844
 30
0.0
 40
0.0625
  0
CIRCLE
  5
3DE
  8
DEFAULT
 10
7.293005443064187
 20
2.351515352172844
 30
0.0
 40
0.0625
  0
CIRCLE
  5
3DF
  8
DEFAULT
 10
8.253678551557483
 20
2.351515352172844
 30
0.0
 40
0.0625
  0
CIRCLE
  5
3E0
  8
DEFAULT
 10
9.214351660050779
 20
2.351515352172844
 30
0.0
 40
0.0625
  0
CIRCLE
  5
3E1
  8
DEFAULT
 10
0.4693559104353593
 20
3.116207918581776
 30
0.0
 40
0.14
  0
POLYLINE
  5
3E2
  8
DEFAULT
 66
     1
 10
0.0
 20
0.0
 30
0.0
 70
     1
  0
VERTEX
  5
3E3
  8
DEFAULT
 10
9.584769797310395
 20
2.954108834504876
 30
0.0
  0
VERTEX
  5
3E4
  8
DEFAULT
 10
9.5847697973104
 20
2.420530262058119
 30
0.0
 42
-0.4142135623731037
  0
VERTEX
  5
3E5
  8
DEFAULT
 10
9.3347697973104
 20
2.170530262058119
 30
0.0
  0
VERTEX
  5
3E6
  8
DEFAULT
 10
0.2499999999999982
 20
2.170530262058123
 30
0.0
 42
-0.4142135623730928
  0
VERTEX
  5
3E7
  8
DEFAULT
 10
0.0
 20
2.420530262058123
 30
0.0
  0
VERTEX
  5
3E8
  8
DEFAULT
 10
-0.0000000000000019
 20
3.836060524116246
 30
0.0
 42
-0.4142135623730945
  0
VERTEX
  5
3E9
  8
DEFAULT
 10
0.2499999999999982
 20
4.086060524116246
 30
0.0
  0
VERTEX
  5
3EA
  8
DEFAULT
 10
10.0113106961328
 20
4.086060524116247
 30
0.0
 42
-0.4142135623730914
  0
VERTEX
  5
3EB
  8
DEFAULT
 10
10.2613106961328
 20
3.836060524116248
 30
0.0
  0
VERTEX
  5
3EC
  8
DEFAULT
 10
10.2613106961328
 20
3.454108834504876
 30
0.0
 42
-0.4142135623731019
  0
VERTEX
  5
3ED
  8
DEFAULT
 10
10.0113106961328
 20
3.204108834504876
 30
0.0
  0
VERTEX
  5
3EE
  8
DEFAULT
 10
9.834769797310393
 20
3.204108834504876
 30
0.0
 42
0.414213562373097
  0
SEQEND
  5
3EF
  8
DEFAULT
  0
POLYLINE
  5
3F0
  8
DEFAULT
 66
     1
 10
0.0
 20
0.0
 30
0.0
 70
     1
  0
VERTEX
  5
3F1
  8
DEFAULT
 10
1.379048375117368
 20
3.724090299514882
 30
0.0
 42
1.000000000000002
  0
VERTEX
  5
3F2
  8
DEFAULT
 10
1.679048375117368
 20
3.724090299514882
 30
0.0
  0
VERTEX
  5
3F3
  8
DEFAULT
 10
1.679048375117368
 20
4.086060524116246
 30
0.0
 42
0.999999999999997
  0
VERTEX
  5
3F4
  8
DEFAULT
 10
1.379048375117368
 20
4.086060524116246
 30
0.0
  0
SEQEND
  5
3F5
  8
DEFAULT
  0
POLYLINE
  5
3F6
  8
DEFAULT
 66
     1
 10
0.0
 20
0.0
 30
0.0
 70
     1
  0
VERTEX
  5
3F7
  8
DEFAULT
 10
2.339639900597708
 20
3.724090299514882
 30
0.0
 42
0.9999999999999999
  0
VERTEX
  5
3F8
  8
DEFAULT
 10
2.639639900597709
 20
3.724090299514883
 30
0.0
  0
VERTEX
  5
3F9
  8
DEFAULT
 10
2.639639900597709
 20
4.086060524116246
 30
0.0
 42
0.999999999999997
  0
VERTEX
  5
3FA
  8
DEFAULT
 10
2.339639900597708
 20
4.086060524116245
 30
0.0
  0
SEQEND
  5
3FB
  8
DEFAULT
  0
POLYLINE
  5
3FC
  8
DEFAULT
 66
     1
 10
0.0
 20
0.0
 30
0.0
 70
     1
  0
VERTEX
  5
3FD
  8
DEFAULT
 10
3.300231426078049
 20
3.724090299514882
 30
0.0
 42
0.9999999999999999
  0
VERTEX
  5
3FE
  8
DEFAULT
 10
3.60023142607805
 20
3.724090299514883
 30
0.0
  0
VERTEX
  5
3FF
  8
DEFAULT
 10
3.60023142607805
 20
4.086060524116246
 30
0.0
 42
0.999999999999997
  0
VERTEX
  5
400
  8
DEFAULT
 10
3.300231426078049
 20
4.086060524116245
 30
0.0
  0
SEQEND
  5
401
  8
DEFAULT
  0
POLYLINE
  5
402
  8
DEFAULT
 66
     1
 10
0.0
 20
0.0
 30
0.0
 70
     1
  0
VERTEX
  5
403
  8
DEFAULT
 10
4.26082295155839
 20
3.724090299514882
 30
0.0
 42
0.9999999999999999
  0
VERTEX
  5
404
  8
DEFAULT
 10
4.560822951558391
 20
3.724090299514882
 30
0.0
  0
VERTEX
  5
405
  8
DEFAULT
 10
4.560822951558391
 20
4.086060524116246
 30
0.0
 42
0.9999999999999999
  0
VERTEX
  5
406
  8
DEFAULT
 10
4.26082295155839
 20
4.086060524116246
 30
0.0
  0
SEQEND
  5
407
  8
DEFAULT
  0
POLYLINE
  5
408
  8
DEFAULT
 66
     1
 10
0.0
 20
0.0
 30
0.0
 70
     1
  0
VERTEX
  5
409
  8
DEFAULT
 10
5.221414477038731
 20
3.724090299514882
 30
0.0
 42
0.9999999999999999
  0
VERTEX
  5
40A
  8
DEFAULT
 10
5.521414477038732
 20
3.724090299514882
 30
0.0
  0
VERTEX
  5
40B
  8
DEFAULT
 10
5.521414477038732
 20
4.086060524116246
 30
0.0
 42
0.9999999999999999
  0
VERTEX
  5
40C
  8
DEFAULT
 10
5.221414477038731
 20
4.086060524116246
 30
0.0
  0
SEQEND
  5
40D
  8
DEFAULT
  0
POLYLINE
  5
40E
  8
DEFAULT
 66
     1
 10
0.0
 20
0.0
 30
0.0
 70
     1
  0
VERTEX
  5
40F
  8
DEFAULT
 10
6.182006002519071
 20
3.724090299514882
 30
0.0
 42
0.9999999999999999
  0
VERTEX
  5
410
  8
DEFAULT
 10
6.482006002519071
 20
3.724090299514882
 30
0.0
  0
VERTEX
  5
411
  8
DEFAULT
 10
6.482006002519073
 20
4.086060524116246
 30
0.0
 42
1.000000000000006
  0
VERTEX
  5
412
  8
DEFAULT
 10
6.182006002519071
 20
4.086060524116246
 30
0.0
  0
SEQEND
  5
413
  8
DEFAULT
  0
POLYLINE
  5
414
  8
DEFAULT
 66
     1
 10
0.0
 20
0.0
 30
0.0
 70
     1
  0
VERTEX
  5
415
  8
DEFAULT
 10
7.142597527999413
 20
3.724090299514882
 30
0.0
 42
0.9999999999999999
  0
VERTEX
  5
416
  8
DEFAULT
 10
7.442597527999414
 20
3.724090299514882
 30
0.0
  0
VERTEX
  5
417
  8
DEFAULT
 10
7.442597527999416
 20
4.086060524116246
 30
0.0
 42
1.000000000000006
  0
VERTEX
  5
418
  8
DEFAULT
 10
7.142597527999413
 20
4.086060524116246
 30
0.0
  0
SEQEND
  5
419
  8
DEFAULT
  0
POLYLINE
  5
41A
  8
DEFAULT
 66
     1
 10
0.0
 20
0.0
 30
0.0
 70
     1
  0
VERTEX
  5
41B
  8
DEFAULT
 10
8.103189053479756
 20
3.724090299514882
 30
0.0
 42
1.000000000000006
  0
VERTEX
  5
41C
  8
DEFAULT
 10
8.403189053479757
 20
3.724090299514882
 30
0.0
  0
VERTEX
  5
41D
  8
DEFAULT
 10
8.403189053479753
 20
4.086060524116246
 30
0.0
 42
0.9999999999999999
  0
VERTEX
  5
41E
  8
DEFAULT
 10
8.103189053479756
 20
4.086060524116246
 30
0.0
  0
SEQEND
  5
41F
  8
DEFAULT
  0
POLYLINE
  5
420
  8
DEFAULT
 66
     1
 10
0.0
 20
0.0
 30
0.0
 70
     1
  0
VERTEX
  5
421
  8
DEFAULT
 10
9.063780578960095
 20
3.724090299514882
 30
0.0
 42
1.000000000000006
  0
VERTEX
  5
422
  8
DEFAULT
 10
9.363780578960096
 20
3.724090299514882
 30
0.0
  0
VERTEX
  5
423
  8
DEFAULT
 10
9.363780578960093
 20
4.086060524116246
 30
0.0
 42
0.9999999999999999
  0
VERTEX
  5
424
  8
DEFAULT
 10
9.063780578960095
 20
4.086060524116246
 30
0.0
  0
SEQEND
  5
425
  8
DEFAULT
  0
POLYLINE
  5
426
  8
DEFAULT
 66
     1
 10
0.0
 20
0.0
 30
0.0
 70
     1
  0
VERTEX
  5
427
  8
DEFAULT
 10
9.063698995947139
 20
2.007961301978949
 30
0.0
 42
1.000000000000006
  0
VERTEX
  5
428
  8
DEFAULT
 10
9.36369899594714
 20
2.007961301978949
 30
0.0
  0
VERTEX
  5
429
  8
DEFAULT
 10
9.363698995947136
 20
2.369931526580314
 30
0.0
 42
0.9999999999999999
  0
VERTEX
  5
42A
  8
DEFAULT
 10
9.063698995947139
 20
2.369931526580314
 30
0.0
  0
SEQEND
  5
42B
  8
DEFAULT
  0
POLYLINE
  5
42C
  8
DEFAULT
 66
     1
 10
0.0
 20
0.0
 30
0.0
 70
     1
  0
VERTEX
  5
42D
  8
DEFAULT
 10
8.1031074704668
 20
2.007961301978949
 30
0.0
 42
1.000000000000006
  0
VERTEX
  5
42E
  8
DEFAULT
 10
8.4031074704668
 20
2.007961301978949
 30
0.0
  0
VERTEX
  5
42F
  8
DEFAULT
 10
8.403107470466797
 20
2.369931526580314
 30
0.0
 42
0.9999999999999999
  0
VERTEX
  5
430
  8
DEFAULT
 10
8.1031074704668
 20
2.369931526580314
 30
0.0
  0
SEQEND
  5
431
  8
DEFAULT
  0
POLYLINE
  5
432
  8
DEFAULT
 66
     1
 10
0.0
 20
0.0
 30
0.0
 70
     1
  0
VERTEX
  5
433
  8
DEFAULT
 10
7.14251594498646
 20
2.007961301978949
 30
0.0
 42
0.9999999999999999
  0
VERTEX
  5
434
  8
DEFAULT
 10
7.442515944986461
 20
2.007961301978949
 30
0.0
  0
VERTEX
  5
435
  8
DEFAULT
 10
7.442515944986459
 20
2.369931526580314
 30
0.0
 42
1.000000000000004
  0
VERTEX
  5
436
  8
DEFAULT
 10
7.14251594498646
 20
2.369931526580314
 30
0.0
  0
SEQEND
  5
437
  8
DEFAULT
  0
POLYLINE
  5
438
  8
DEFAULT
 66
     1
 10
0.0
 20
0.0
 30
0.0
 70
     1
  0
VERTEX
  5
439
  8
DEFAULT
 10
6.181924419506114
 20
2.007961301978949
 30
0.0
 42
0.9999999999999999
  0
VERTEX
  5
43A
  8
DEFAULT
 10
6.481924419506115
 20
2.007961301978949
 30
0.0
  0
VERTEX
  5
43B
  8
DEFAULT
 10
6.48192441950612
 20
2.369931526580314
 30
0.0
 42
1.000000000000004
  0
VERTEX
  5
43C
  8
DEFAULT
 10
6.181924419506114
 20
2.369931526580314
 30
0.0
  0
SEQEND
  5
43D
  8
DEFAULT
  0
POLYLINE
  5
43E
  8
DEFAULT
 66
     1
 10
0.0
 20
0.0
 30
0.0
 70
     1
  0
VERTEX
  5
43F
  8
DEFAULT
 10
5.221332894025776
 20
2.007961301978949
 30
0.0
 42
0.9999999999999999
  0
VERTEX
  5
440
  8
DEFAULT
 10
5.521332894025777
 20
2.007961301978949
 30
0.0
  0
VERTEX
  5
441
  8
DEFAULT
 10
5.521332894025777
 20
2.369931526580314
 30
0.0
 42
0.9999999999999999
  0
VERTEX
  5
442
  8
DEFAULT
 10
5.221332894025776
 20
2.369931526580314
 30
0.0
  0
SEQEND
  5
443
  8
DEFAULT
  0
POLYLINE
  5
444
  8
DEFAULT
 66
     1
 10
0.0
 20
0.0
 30
0.0
 70
     1
  0
VERTEX
  5
445
  8
DEFAULT
 10
4.260741368545435
 20
2.007961301978949
 30
0.0
 42
0.9999999999999999
  0
VERTEX
  5
446
  8
DEFAULT
 10
4.560741368545436
 20
2.007961301978949
 30
0.0
  0
VERTEX
  5
447
  8
DEFAULT
 10
4.560741368545436
 20
2.369931526580314
 30
0.0
 42
0.9999999999999999
  0
VERTEX
  5
448
  8
DEFAULT
 10
4.260741368545435
 20
2.369931526580314
 30
0.0
  0
SEQEND
  5
449
  8
DEFAULT
  0
POLYLINE
  5
44A
  8
DEFAULT
 66
     1
 10
0.0
 20
0.0
 30
0.0
 70
     1
  0
VERTEX
  5
44B
  8
DEFAULT
 10
3.300149843065094
 20
2.00796130197895
 30
0.0
 42
0.9999999999999999
  0
VERTEX
  5
44C
  8
DEFAULT
 10
3.600149843065095
 20
2.007961301978949
 30
0.0
  0
VERTEX
  5
44D
  8
DEFAULT
 10
3.600149843065095
 20
2.369931526580314
 30
0.0
 42
0.999999999999997
  0
VERTEX
  5
44E
  8
DEFAULT
 10
3.300149843065094
 20
2.369931526580314
 30
0.0
  0
SEQEND
  5
44F
  8
DEFAULT
  0
POLYLINE
  5
450
  8
DEFAULT
 66
     1
 10
0.0
 20
0.0
 30
0.0
 70
     1
  0
VERTEX
  5
451
  8
DEFAULT
 10
2.339558317584753
 20
2.00796130197895
 30
0.0
 42
0.9999999999999999
  0
VERTEX
  5
452
  8
DEFAULT
 10
2.639558317584754
 20
2.007961301978949
 30
0.0
  0
VERTEX
  5
453
  8
DEFAULT
 10
2.639558317584754
 20
2.369931526580314
 30
0.0
 42
0.999999999999997
  0
VERTEX
  5
454
  8
DEFAULT
 10
2.339558317584753
 20
2.369931526580314
 30
0.0
  0
SEQEND
  5
455
  8
DEFAULT
  0
POLYLINE
  5
456
  8
DEFAULT
 66
     1
 10
0.0
 20
0.0
 30
0.0
 70
     1
  0
VERTEX
  5
457
  8
DEFAULT
 10
1.378966792104413
 20
2.007961301978949
 30
0.0
 42
0.9999999999999999
  0
VERTEX
  5
458
  8
DEFAULT
 10
1.678966792104413
 20
2.007961301978949
 30
0.0
  0
VERTEX
  5
459
  8
DEFAULT
 10
1.678966792104413
 20
2.369931526580314
 30
0.0
 42
0.9999999999999986
  0
VERTEX
  5
45A
  8
DEFAULT
 10
1.378966792104413
 20
2.369931526580313
 30
0.0
  0
SEQEND
  5
45B
  8
DEFAULT
  0
LINE
  5
45C
  8
DEFAULT
 10
0.2499999999999982
 20
1.915530262058123
 30
0.0
 11
0.2499999999999982
 21
2.170530262058123
 31
0.0
  0
POLYLINE
  5
45D
  8
DEFAULT
 66
     1
 10
0.0
 20
0.0
 30
0.0
 70
     1
  0
VERTEX
  5
45E
  8
DEFAULT
 10
1.378966792104413
 20
-0.1625689600791737
 30
0.0
 42
1.0
  0
VERTEX
  5
45F
  8
DEFAULT
 10
1.678966792104413
 20
-0.1625689600791738
 30
0.0
  0
VERTEX
  5
460
  8
DEFAULT
 10
1.678966792104413
 20
0.1994012645221909
 30
0.0
 42
1.0
  0
VERTEX
  5
461
  8
DEFAULT
 10
1.378966792104413
 20
0.1994012645221908
 30
0.0
  0
SEQEND
  5
462
  8
DEFAULT
  0
POLYLINE
  5
463
  8
DEFAULT
 66
     1
 10
0.0
 20
0.0
 30
0.0
 70
     1
  0
VERTEX
  5
464
  8
DEFAULT
 10
2.339558317584753
 20
-0.1625689600791737
 30
0.0
 42
0.9999999999999986
  0
VERTEX
  5
465
  8
DEFAULT
 10
2.639558317584754
 20
-0.1625689600791737
 30
0.0
  0
VERTEX
  5
466
  8
DEFAULT
 10
2.639558317584754
 20
0.1994012645221908
 30
0.0
 42
0.9999999999999999
  0
VERTEX
  5
467
  8
DEFAULT
 10
2.339558317584753
 20
0.1994012645221908
 30
0.0
  0
SEQEND
  5
468
  8
DEFAULT
  0
POLYLINE
  5
469
  8
DEFAULT
 66
     1
 10
0.0
 20
0.0
 30
0.0
 70
     1
  0
VERTEX
  5
46A
  8
DEFAULT
 10
3.300149843065094
 20
-0.1625689600791737
 30
0.0
 42
0.9999999999999986
  0
VERTEX
  5
46B
  8
DEFAULT
 10
3.600149843065095
 20
-0.1625689600791737
 30
0.0
  0
VERTEX
  5
46C
  8
DEFAULT
 10
3.600149843065095
 20
0.1994012645221908
 30
0.0
 42
0.9999999999999999
  0
VERTEX
  5
46D
  8
DEFAULT
 10
3.300149843065094
 20
0.1994012645221908
 30
0.0
  0
SEQEND
  5
46E
  8
DEFAULT
  0
POLYLINE
  5
46F
  8
DEFAULT
 66
     1
 10
0.0
 20
0.0
 30
0.0
 70
     1
  0
VERTEX
  5
470
  8
DEFAULT
 10
4.260741368545435
 20
-0.1625689600791737
 30
0.0
 42
1.0
  0
VERTEX
  5
471
  8
DEFAULT
 10
4.560741368545436
 20
-0.1625689600791738
 30
0.0
  0
VERTEX
  5
472
  8
DEFAULT
 10
4.560741368545436
 20
0.1994012645221908
 30
0.0
 42
0.9999999999999994
  0
VERTEX
  5
473
  8
DEFAULT
 10
4.260741368545435
 20
0.1994012645221908
 30
0.0
  0
SEQEND
  5
474
  8
DEFAULT
  0
POLYLINE
  5
475
  8
DEFAULT
 66
     1
 10
0.0
 20
0.0
 30
0.0
 70
     1
  0
VERTEX
  5
476
  8
DEFAULT
 10
5.221332894025776
 20
-0.1625689600791737
 30
0.0
 42
1.0
  0
VERTEX
  5
477
  8
DEFAULT
 10
5.521332894025777
 20
-0.1625689600791738
 30
0.0
  0
VERTEX
  5
478
  8
DEFAULT
 10
5.521332894025777
 20
0.1994012645221908
 30
0.0
 42
0.9999999999999994
  0
VERTEX
  5
479
  8
DEFAULT
 10
5.221332894025776
 20
0.1994012645221908
 30
0.0
  0
SEQEND
  5
47A
  8
DEFAULT
  0
POLYLINE
  5
47B
  8
DEFAULT
 66
     1
 10
0.0
 20
0.0
 30
0.0
 70
     1
  0
VERTEX
  5
47C
  8
DEFAULT
 10
6.181924419506114
 20
-0.1625689600791737
 30
0.0
 42
1.0
  0
VERTEX
  5
47D
  8
DEFAULT
 10
6.481924419506115
 20
-0.1625689600791738
 30
0.0
  0
VERTEX
  5
47E
  8
DEFAULT
 10
6.48192441950612
 20
0.1994012645221908
 30
0.0
 42
1.000000000000002
  0
VERTEX
  5
47F
  8
DEFAULT
 10
6.181924419506114
 20
0.1994012645221908
 30
0.0
  0
SEQEND
  5
480
  8
DEFAULT
  0
POLYLINE
  5
481
  8
DEFAULT
 66
     1
 10
0.0
 20
0.0
 30
0.0
 70
     1
  0
VERTEX
  5
482
  8
DEFAULT
 10
7.14251594498646
 20
-0.1625689600791737
 30
0.0
 42
1.0
  0
VERTEX
  5
483
  8
DEFAULT
 10
7.442515944986461
 20
-0.1625689600791738
 30
0.0
  0
VERTEX
  5
484
  8
DEFAULT
 10
7.442515944986459
 20
0.1994012645221908
 30
0.0
 42
1.000000000000002
  0
VERTEX
  5
485
  8
DEFAULT
 10
7.14251594498646
 20
0.1994012645221908
 30
0.0
  0
SEQEND
  5
486
  8
DEFAULT
  0
POLYLINE
  5
487
  8
DEFAULT
 66
     1
 10
0.0
 20
0.0
 30
0.0
 70
     1
  0
VERTEX
  5
488
  8
DEFAULT
 10
8.1031074704668
 20
-0.1625689600791737
 30
0.0
 42
0.9999999999999883
  0
VERTEX
  5
489
  8
DEFAULT
 10
8.4031074704668
 20
-0.1625689600791737
 30
0.0
  0
VERTEX
  5
48A
  8
DEFAULT
 10
8.403107470466797
 20
0.1994012645221908
 30
0.0
 42
0.9999999999999994
  0
VERTEX
  5
48B
  8
DEFAULT
 10
8.1031074704668
 20
0.1994012645221908
 30
0.0
  0
SEQEND
  5
48C
  8
DEFAULT
  0
POLYLINE
  5
48D
  8
DEFAULT
 66
     1
 10
0.0
 20
0.0
 30
0.0
 70
     1
  0
VERTEX
  5
48E
  8
DEFAULT
 10
9.063698995947139
 20
-0.1625689600791737
 30
0.0
 42
0.9999999999999883
  0
VERTEX
  5
48F
  8
DEFAULT
 10
9.36369899594714
 20
-0.1625689600791737
 30
0.0
  0
VERTEX
  5
490
  8
DEFAULT
 10
9.363698995947136
 20
0.1994012645221908
 30
0.0
 42
0.9999999999999994
  0
VERTEX
  5
491
  8
DEFAULT
 10
9.063698995947139
 20
0.1994012645221908
 30
0.0
  0
SEQEND
  5
492
  8
DEFAULT
  0
POLYLINE
  5
493
  8
DEFAULT
 66
     1
 10
0.0
 20
0.0
 30
0.0
 70
     1
  0
VERTEX
  5
494
  8
DEFAULT
 10
9.063780578960095
 20
1.553560037456759
 30
0.0
 42
1.000000000000006
  0
VERTEX
  5
495
  8
DEFAULT
 10
9.363780578960096
 20
1.553560037456759
 30
0.0
  0
VERTEX
  5
496
  8
DEFAULT
 10
9.363780578960093
 20
1.915530262058123
 30
0.0
 42
0.9999999999999992
  0
VERTEX
  5
497
  8
DEFAULT
 10
9.063780578960095
 20
1.915530262058123
 30
0.0
  0
SEQEND
  5
498
  8
DEFAULT
  0
POLYLINE
  5
499
  8
DEFAULT
 66
     1
 10
0.0
 20
0.0
 30
0.0
 70
     1
  0
VERTEX
  5
49A
  8
DEFAULT
 10
8.103189053479756
 20
1.553560037456759
 30
0.0
 42
1.000000000000006
  0
VERTEX
  5
49B
  8
DEFAULT
 10
8.403189053479757
 20
1.553560037456759
 30
0.0
  0
VERTEX
  5
49C
  8
DEFAULT
 10
8.403189053479753
 20
1.915530262058123
 30
0.0
 42
0.9999999999999992
  0
VERTEX
  5
49D
  8
DEFAULT
 10
8.103189053479756
 20
1.915530262058123
 30
0.0
  0
SEQEND
  5
49E
  8
DEFAULT
  0
POLYLINE
  5
49F
  8
DEFAULT
 66
     1
 10
0.0
 20
0.0
 30
0.0
 70
     1
  0
VERTEX
  5
4A0
  8
DEFAULT
 10
7.142597527999413
 20
1.553560037456759
 30
0.0
 42
0.9999999999999999
  0
VERTEX
  5
4A1
  8
DEFAULT
 10
7.442597527999414
 20
1.553560037456759
 30
0.0
  0
VERTEX
  5
4A2
  8
DEFAULT
 10
7.442597527999416
 20
1.915530262058123
 30
0.0
 42
1.000000000000002
  0
VERTEX
  5
4A3
  8
DEFAULT
 10
7.142597527999413
 20
1.915530262058123
 30
0.0
  0
SEQEND
  5
4A4
  8
DEFAULT
  0
POLYLINE
  5
4A5
  8
DEFAULT
 66
     1
 10
0.0
 20
0.0
 30
0.0
 70
     1
  0
VERTEX
  5
4A6
  8
DEFAULT
 10
6.182006002519071
 20
1.553560037456759
 30
0.0
 42
0.9999999999999999
  0
VERTEX
  5
4A7
  8
DEFAULT
 10
6.482006002519071
 20
1.553560037456759
 30
0.0
  0
VERTEX
  5
4A8
  8
DEFAULT
 10
6.482006002519073
 20
1.915530262058123
 30
0.0
 42
1.000000000000002
  0
VERTEX
  5
4A9
  8
DEFAULT
 10
6.182006002519071
 20
1.915530262058123
 30
0.0
  0
SEQEND
  5
4AA
  8
DEFAULT
  0
POLYLINE
  5
4AB
  8
DEFAULT
 66
     1
 10
0.0
 20
0.0
 30
0.0
 70
     1
  0
VERTEX
  5
4AC
  8
DEFAULT
 10
5.221414477038731
 20
1.553560037456759
 30
0.0
 42
0.9999999999999999
  0
VERTEX
  5
4AD
  8
DEFAULT
 10
5.521414477038732
 20
1.553560037456759
 30
0.0
  0
VERTEX
  5
4AE
  8
DEFAULT
 10
5.521414477038732
 20
1.915530262058123
 30
0.0
 42
0.9999999999999992
  0
VERTEX
  5
4AF
  8
DEFAULT
 10
5.221414477038731
 20
1.915530262058123
 30
0.0
  0
SEQEND
  5
4B0
  8
DEFAULT
  0
POLYLINE
  5
4B1
  8
DEFAULT
 66
     1
 10
0.0
 20
0.0
 30
0.0
 70
     1
  0
VERTEX
  5
4B2
  8
DEFAULT
 10
4.26082295155839
 20
1.553560037456759
 30
0.0
 42
0.9999999999999999
  0
VERTEX
  5
4B3
  8
DEFAULT
 10
4.560822951558391
 20
1.553560037456759
 30
0.0
  0
VERTEX
  5
4B4
  8
DEFAULT
 10
4.560822951558391
 20
1.915530262058123
 30
0.0
 42
0.9999999999999992
  0
VERTEX
  5
4B5
  8
DEFAULT
 10
4.26082295155839
 20
1.915530262058123
 30
0.0
  0
SEQEND
  5
4B6
  8
DEFAULT
  0
POLYLINE
  5
4B7
  8
DEFAULT
 66
     1
 10
0.0
 20
0.0
 30
0.0
 70
     1
  0
VERTEX
  5
4B8
  8
DEFAULT
 10
3.300231426078049
 20
1.553560037456759
 30
0.0
 42
0.9999999999999979
  0
VERTEX
  5
4B9
  8
DEFAULT
 10
3.60023142607805
 20
1.553560037456759
 30
0.0
  0
VERTEX
  5
4BA
  8
DEFAULT
 10
3.60023142607805
 20
1.915530262058123
 30
0.0
 42
0.9999999999999992
  0
VERTEX
  5
4BB
  8
DEFAULT
 10
3.300231426078049
 20
1.915530262058123
 30
0.0
  0
SEQEND
  5
4BC
  8
DEFAULT
  0
POLYLINE
  5
4BD
  8
DEFAULT
 66
     1
 10
0.0
 20
0.0
 30
0.0
 70
     1
  0
VERTEX
  5
4BE
  8
DEFAULT
 10
2.339639900597708
 20
1.553560037456759
 30
0.0
 42
0.9999999999999979
  0
VERTEX
  5
4BF
  8
DEFAULT
 10
2.639639900597709
 20
1.553560037456759
 30
0.0
  0
VERTEX
  5
4C0
  8
DEFAULT
 10
2.639639900597709
 20
1.915530262058123
 30
0.0
 42
0.9999999999999992
  0
VERTEX
  5
4C1
  8
DEFAULT
 10
2.339639900597708
 20
1.915530262058123
 30
0.0
  0
SEQEND
  5
4C2
  8
DEFAULT
  0
POLYLINE
  5
4C3
  8
DEFAULT
 66
     1
 10
0.0
 20
0.0
 30
0.0
 70
     1
  0
VERTEX
  5
4C4
  8
DEFAULT
 10
1.379048375117368
 20
1.553560037456759
 30
0.0
 42
0.9999999999999999
  0
VERTEX
  5
4C5
  8
DEFAULT
 10
1.679048375117368
 20
1.553560037456759
 30
0.0
  0
VERTEX
  5
4C6
  8
DEFAULT
 10
1.679048375117368
 20
1.915530262058123
 30
0.0
 42
0.9999999999999992
  0
VERTEX
  5
4C7
  8
DEFAULT
 10
1.379048375117368
 20
1.915530262058123
 30
0.0
  0
SEQEND
  5
4C8
  8
DEFAULT
  0
POLYLINE
  5
4C9
  8
DEFAULT
 66
     1
 10
0.0
 20
0.0
 30
0.0
 70
     1
  0
VERTEX
  5
4CA
  8
DEFAULT
 10
9.584769797310395
 20
0.7835785724467534
 30
0.0
  0
VERTEX
  5
4CB
  8
DEFAULT
 10
9.5847697973104
 20
0.2499999999999964
 30
0.0
 42
-0.4142135623731034
  0
VERTEX
  5
4CC
  8
DEFAULT
 10
9.3347697973104
 20
-0.0000000000000036
 30
0.0
  0
VERTEX
  5
4CD
  8
DEFAULT
 10
0.2499999999999982
 20
0.0
 30
0.0
 42
-0.4142135623730931
  0
VERTEX
  5
4CE
  8
DEFAULT
 10
0.0
 20
0.25
 30
0.0
  0
VERTEX
  5
4CF
  8
DEFAULT
 10
-0.0000000000000019
 20
1.665530262058123
 30
0.0
 42
-0.4142135623730953
  0
VERTEX
  5
4D0
  8
DEFAULT
 10
0.2499999999999982
 20
1.915530262058123
 30
0.0
  0
VERTEX
  5
4D1
  8
DEFAULT
 10
10.0113106961328
 20
1.915530262058124
 30
0.0
 42
-0.414213562373093
  0
VERTEX
  5
4D2
  8
DEFAULT
 10
10.2613106961328
 20
1.665530262058125
 30
0.0
  0
VERTEX
  5
4D3
  8
DEFAULT
 10
10.2613106961328
 20
1.283578572446753
 30
0.0
 42
-0.4142135623731014
  0
VERTEX
  5
4D4
  8
DEFAULT
 10
10.0113106961328
 20
1.033578572446753
 30
0.0
  0
VERTEX
  5
4D5
  8
DEFAULT
 10
9.834769797310395
 20
1.033578572446753
 30
0.0
 42
0.4142135623730978
  0
SEQEND
  5
4D6
  8
DEFAULT
  0
CIRCLE
  5
4D7
  8
DEFAULT
 10
0.4693559104353593
 20
0.9456776565236531
 30
0.0
 40
0.14
  0
CIRCLE
  5
4D8
  8
DEFAULT
 10
9.214351660050779
 20
0.1809850901147207
 30
0.0
 40
0.0625
  0
CIRCLE
  5
4D9
  8
DEFAULT
 10
8.253678551557483
 20
0.1809850901147207
 30
0.0
 40
0.0625
  0
CIRCLE
  5
4DA
  8
DEFAULT
 10
7.293005443064187
 20
0.1809850901147207
 30
0.0
 40
0.0625
  0
CIRCLE
  5
4DB
  8
DEFAULT
 10
6.332332334570891
 20
0.1809850901147207
 30
0.0
 40
0.0625
  0
CIRCLE
  5
4DC
  8
DEFAULT
 10
5.371659226077597
 20
0.1809850901147207
 30
0.0
 40
0.0625
  0
CIRCLE
  5
4DD
  8
DEFAULT
 10
4.410986117584301
 20
0.1809850901147207
 30
0.0
 40
0.0625
  0
CIRCLE
  5
4DE
  8
DEFAULT
 10
3.450313009091005
 20
0.1809850901147207
 30
0.0
 40
0.0625
  0
CIRCLE
  5
4DF
  8
DEFAULT
 10
2.489639900597709
 20
0.1809850901147207
 30
0.0
 40
0.0625
  0
CIRCLE
  5
4E0
  8
DEFAULT
 10
1.528966792104413
 20
0.1809850901147207
 30
0.0
 40
0.0625
  0
CIRCLE
  5
4E1
  8
DEFAULT
 10
0.4693559104353593
 20
1.522462926617145
 30
0.0
 40
0.0625
  0
CIRCLE
  5
4E2
  8
DEFAULT
 10
9.214433243063736
 20
1.734545149757441
 30
0.0
 40
0.0625
  0
CIRCLE
  5
4E3
  8
DEFAULT
 10
8.25376013457044
 20
1.734545149757441
 30
0.0
 40
0.0625
  0
CIRCLE
  5
4E4
  8
DEFAULT
 10
7.29308702607714
 20
1.734545149757441
 30
0.0
 40
0.0625
  0
CIRCLE
  5
4E5
  8
DEFAULT
 10
6.332413917583848
 20
1.734545149757441
 30
0.0
 40
0.0625
  0
CIRCLE
  5
4E6
  8
DEFAULT
 10
5.371740809090552
 20
1.734545149757441
 30
0.0
 40
0.0625
  0
CIRCLE
  5
4E7
  8
DEFAULT
 10
4.411067700597256
 20
1.734545149757441
 30
0.0
 40
0.0625
  0
CIRCLE
  5
4E8
  8
DEFAULT
 10
3.45039459210396
 20
1.734545149757441
 30
0.0
 40
0.0625
  0
CIRCLE
  5
4E9
  8
DEFAULT
 10
2.489721483610664
 20
1.734545149757441
 30
0.0
 40
0.0625
  0
CIRCLE
  5
4EA
  8
DEFAULT
 10
1.529048375117368
 20
1.734545149757441
 30
0.0
 40
0.0625
  0
CIRCLE
  5
4EB
  8
DEFAULT
 10
0.4693559104353593
 20
0.3930673354409748
 30
0.0
 40
0.0625
  0
CIRCLE
  5
4EC
  8
DEFAULT
 10
0.4693559104353593
 20
0.3930673354409748
 30
0.0
 40
0.15
  0
CIRCLE
  5
4ED
  8
DEFAULT
 10
0.4693559104353593
 20
1.522462926617145
 30
0.0
 40
0.15
  0
CIRCLE
  5
4EE
  8
DEFAULT
 10
9.98468411876935
 20
1.487314821829333
 30
0.0
 40
0.15
  0
CIRCLE
  5
4EF
  8
DEFAULT
 10
9.98468411876935
 20
1.487314821829333
 30
0.0
 40
0.0625
  0
POLYLINE
  5
4F0
  8
DEFAULT
 66
     1
 10
0.0
 20
0.0
 30
0.0
 70
     1
  0
VERTEX
  5
4F1
  8
DEFAULT
 10
1.706213729448077
 20
1.199229328795342
 30
0.0
 42
1.0
  0
VERTEX
  5
4F2
  8
DEFAULT
 10
1.706213729448077
 20
1.55356003745676
 30
0.0
  0
VERTEX
  5
4F3
  8
DEFAULT
 10
1.35188302078666
 20
1.553560037456759
 30
0.0
 42
0.9999999999999999
  0
VERTEX
  5
4F4
  8
DEFAULT
 10
1.35188302078666
 20
1.199229328795342
 30
0.0
  0
SEQEND
  5
4F5
  8
DEFAULT
  0
POLYLINE
  5
4F6
  8
DEFAULT
 66
     1
 10
0.0
 20
0.0
 30
0.0
 70
     1
  0
VERTEX
  5
4F7
  8
DEFAULT
 10
2.666886837941373
 20
1.199229328795342
 30
0.0
 42
0.9999999999999994
  0
VERTEX
  5
4F8
  8
DEFAULT
 10
2.666886837941373
 20
1.55356003745676
 30
0.0
  0
VERTEX
  5
4F9
  8
DEFAULT
 10
2.312556129279956
 20
1.553560037456759
 30
0.0
 42
1.000000000000001
  0
VERTEX
  5
4FA
  8
DEFAULT
 10
2.312556129279956
 20
1.199229328795342
 30
0.0
  0
SEQEND
  5
4FB
  8
DEFAULT
  0
POLYLINE
  5
4FC
  8
DEFAULT
 66
     1
 10
0.0
 20
0.0
 30
0.0
 70
     1
  0
VERTEX
  5
4FD
  8
DEFAULT
 10
3.627559946434669
 20
1.199229328795342
 30
0.0
 42
0.9999999999999994
  0
VERTEX
  5
4FE
  8
DEFAULT
 10
3.627559946434669
 20
1.55356003745676
 30
0.0
  0
VERTEX
  5
4FF
  8
DEFAULT
 10
3.273229237773252
 20
1.553560037456759
 30
0.0
 42
1.000000000000001
  0
VERTEX
  5
500
  8
DEFAULT
 10
3.273229237773252
 20
1.199229328795342
 30
0.0
  0
SEQEND
  5
501
  8
DEFAULT
  0
POLYLINE
  5
502
  8
DEFAULT
 66
     1
 10
0.0
 20
0.0
 30
0.0
 70
     1
  0
VERTEX
  5
503
  8
DEFAULT
 10
4.588233054927965
 20
1.199229328795342
 30
0.0
 42
1.000000000000001
  0
VERTEX
  5
504
  8
DEFAULT
 10
4.588233054927965
 20
1.55356003745676
 30
0.0
  0
VERTEX
  5
505
  8
DEFAULT
 10
4.233902346266548
 20
1.553560037456759
 30
0.0
 42
0.9999999999999974
  0
VERTEX
  5
506
  8
DEFAULT
 10
4.233902346266547
 20
1.199229328795342
 30
0.0
  0
SEQEND
  5
507
  8
DEFAULT
  0
POLYLINE
  5
508
  8
DEFAULT
 66
     1
 10
0.0
 20
0.0
 30
0.0
 70
     1
  0
VERTEX
  5
509
  8
DEFAULT
 10
5.548906163421261
 20
1.199229328795342
 30
0.0
 42
1.000000000000001
  0
VERTEX
  5
50A
  8
DEFAULT
 10
5.548906163421261
 20
1.55356003745676
 30
0.0
  0
VERTEX
  5
50B
  8
DEFAULT
 10
5.194575454759844
 20
1.553560037456759
 30
0.0
 42
0.9999999999999974
  0
VERTEX
  5
50C
  8
DEFAULT
 10
5.194575454759844
 20
1.199229328795342
 30
0.0
  0
SEQEND
  5
50D
  8
DEFAULT
  0
POLYLINE
  5
50E
  8
DEFAULT
 66
     1
 10
0.0
 20
0.0
 30
0.0
 70
     1
  0
VERTEX
  5
50F
  8
DEFAULT
 10
6.509579271914559
 20
1.199229328795342
 30
0.0
 42
1.000000000000001
  0
VERTEX
  5
510
  8
DEFAULT
 10
6.509579271914559
 20
1.55356003745676
 30
0.0
  0
VERTEX
  5
511
  8
DEFAULT
 10
6.15524856325314
 20
1.553560037456759
 30
0.0
 42
0.9999999999999974
  0
VERTEX
  5
512
  8
DEFAULT
 10
6.15524856325314
 20
1.199229328795342
 30
0.0
  0
SEQEND
  5
513
  8
DEFAULT
  0
POLYLINE
  5
514
  8
DEFAULT
 66
     1
 10
0.0
 20
0.0
 30
0.0
 70
     1
  0
VERTEX
  5
515
  8
DEFAULT
 10
7.470252380407855
 20
1.199229328795342
 30
0.0
 42
1.000000000000001
  0
VERTEX
  5
516
  8
DEFAULT
 10
7.470252380407855
 20
1.55356003745676
 30
0.0
  0
VERTEX
  5
517
  8
DEFAULT
 10
7.115921671746436
 20
1.553560037456759
 30
0.0
 42
0.9999999999999974
  0
VERTEX
  5
518
  8
DEFAULT
 10
7.115921671746436
 20
1.199229328795342
 30
0.0
  0
SEQEND
  5
519
  8
DEFAULT
  0
POLYLINE
  5
51A
  8
DEFAULT
 66
     1
 10
0.0
 20
0.0
 30
0.0
 70
     1
  0
VERTEX
  5
51B
  8
DEFAULT
 10
8.430925488901151
 20
1.199229328795342
 30
0.0
 42
1.0
  0
VERTEX
  5
51C
  8
DEFAULT
 10
8.430925488901153
 20
1.55356003745676
 30
0.0
  0
VERTEX
  5
51D
  8
DEFAULT
 10
8.076594780239732
 20
1.553560037456759
 30
0.0
 42
0.9999999999999968
  0
VERTEX
  5
51E
  8
DEFAULT
 10
8.076594780239734
 20
1.199229328795342
 30
0.0
  0
SEQEND
  5
51F
  8
DEFAULT
  0
POLYLINE
  5
520
  8
DEFAULT
 66
     1
 10
0.0
 20
0.0
 30
0.0
 70
     1
  0
VERTEX
  5
521
  8
DEFAULT
 10
9.391598597394447
 20
1.199229328795342
 30
0.0
 42
1.0
  0
VERTEX
  5
522
  8
DEFAULT
 10
9.391598597394449
 20
1.55356003745676
 30
0.0
  0
VERTEX
  5
523
  8
DEFAULT
 10
9.037267888733028
 20
1.553560037456759
 30
0.0
 42
1.000000000000004
  0
VERTEX
  5
524
  8
DEFAULT
 10
9.037267888733028
 20
1.199229328795342
 30
0.0
  0
SEQEND
  5
525
  8
DEFAULT
  0
ENDSEC
  0
EOF
