  0
SECTION
  2
HEADER
  9
$ACADVER
  1
AC1009
  9
$DWGCODEPAGE
  3
ansi_1252
  9
$INSBASE
 10
0.0
 20
0.0
 30
0.0
  9
$EXTMIN
 10
0.0687091029731516
 20
0.1495561118284225
 30
0.0
  9
$EXTMAX
 10
20.03807734055623
 20
11.74603788813392
 30
0.0
  9
$LIMMIN
 10
0.0
 20
0.0
  9
$LIMMAX
 10
12.0
 20
9.0
  9
$ORTHOMODE
 70
     0
  9
$REGENMODE
 70
     1
  9
$FILLMODE
 70
     1
  9
$QTEXTMODE
 70
     0
  9
$MIRRTEXT
 70
     1
  9
$DRAGMODE
 70
     2
  9
$LTSCALE
 40
1.0
  9
$OSMODE
 70
    37
  9
$ATTMODE
 70
     1
  9
$TEXTSIZE
 40
0.2
  9
$TRACEWID
 40
0.05
  9
$TEXTSTYLE
  7
STANDARD
  9
$CLAYER
  8
DEFAULT
  9
$CELTYPE
  6
BYLAYER
  9
$CECOLOR
 62
   256
  9
$DIMSCALE
 40
1.0
  9
$DIMASZ
 40
0.18
  9
$DIMEXO
 40
0.0625
  9
$DIMDLI
 40
0.38
  9
$DIMRND
 40
0.0
  9
$DIMDLE
 40
0.0
  9
$DIMEXE
 40
0.18
  9
$DIMTP
 40
0.0
  9
$DIMTM
 40
0.0
  9
$DIMTXT
 40
0.18
  9
$DIMCEN
 40
0.09
  9
$DIMTSZ
 40
0.0
  9
$DIMTOL
 70
     0
  9
$DIMLIM
 70
     0
  9
$DIMTIH
 70
     1
  9
$DIMTOH
 70
     1
  9
$DIMSE1
 70
     0
  9
$DIMSE2
 70
     0
  9
$DIMTAD
 70
     0
  9
$DIMZIN
 70
     0
  9
$DIMBLK
  1

  9
$DIMASO
 70
     1
  9
$DIMSHO
 70
     1
  9
$DIMPOST
  1

  9
$DIMAPOST
  1

  9
$DIMALT
 70
     0
  9
$DIMALTD
 70
     2
  9
$DIMALTF
 40
25.4
  9
$DIMLFAC
 40
1.0
  9
$DIMTOFL
 70
     0
  9
$DIMTVP
 40
0.0
  9
$DIMTIX
 70
     0
  9
$DIMSOXD
 70
     0
  9
$DIMSAH
 70
     0
  9
$DIMBLK1
  1

  9
$DIMBLK2
  1

  9
$DIMSTYLE
  2
STANDARD
  9
$DIMCLRD
 70
     0
  9
$DIMCLRE
 70
     0
  9
$DIMCLRT
 70
     0
  9
$DIMTFAC
 40
1.0
  9
$DIMGAP
 40
0.09
  9
$LUNITS
 70
     2
  9
$LUPREC
 70
     2
  9
$SKETCHINC
 40
0.1
  9
$FILLETRAD
 40
0.5
  9
$AUNITS
 70
     0
  9
$AUPREC
 70
     0
  9
$MENU
  1
.
  9
$ELEVATION
 40
0.0
  9
$PELEVATION
 40
0.0
  9
$THICKNESS
 40
0.0
  9
$LIMCHECK
 70
     0
  9
$CHAMFERA
 40
0.0
  9
$CHAMFERB
 40
0.0
  9
$SKPOLY
 70
     0
  9
$TDCREATE
 40
2458429.820948322
  9
$TDUPDATE
 40
2458429.820981412
  9
$TDINDWG
 40
0.0000000116
  9
$TDUSRTIMER
 40
0.0000000116
  9
$USRTIMER
 70
     1
  9
$ANGBASE
 50
0.0
  9
$ANGDIR
 70
     0
  9
$PDMODE
 70
     0
  9
$PDSIZE
 40
0.0
  9
$PLINEWID
 40
0.0
  9
$COORDS
 70
     1
  9
$SPLFRAME
 70
     0
  9
$SPLINETYPE
 70
     6
  9
$SPLINESEGS
 70
     8
  9
$ATTDIA
 70
     0
  9
$ATTREQ
 70
     1
  9
$HANDLING
 70
     1
  9
$HANDSEED
  5
3F3
  9
$SURFTAB1
 70
     6
  9
$SURFTAB2
 70
     6
  9
$SURFTYPE
 70
     6
  9
$SURFU
 70
     6
  9
$SURFV
 70
     6
  9
$UCSNAME
  2

  9
$UCSORG
 10
0.0
 20
0.0
 30
0.0
  9
$UCSXDIR
 10
1.0
 20
0.0
 30
0.0
  9
$UCSYDIR
 10
0.0
 20
1.0
 30
0.0
  9
$PUCSNAME
  2

  9
$PUCSORG
 10
0.0
 20
0.0
 30
0.0
  9
$PUCSXDIR
 10
1.0
 20
0.0
 30
0.0
  9
$PUCSYDIR
 10
0.0
 20
1.0
 30
0.0
  9
$USERI1
 70
     0
  9
$USERI2
 70
     0
  9
$USERI3
 70
     0
  9
$USERI4
 70
     0
  9
$USERI5
 70
     0
  9
$USERR1
 40
0.0
  9
$USERR2
 40
0.0
  9
$USERR3
 40
0.0
  9
$USERR4
 40
0.0
  9
$USERR5
 40
0.0
  9
$WORLDVIEW
 70
     1
  9
$SHADEDGE
 70
     3
  9
$SHADEDIF
 70
    70
  9
$TILEMODE
 70
     1
  9
$MAXACTVP
 70
    64
  9
$PLIMCHECK
 70
     0
  9
$PEXTMIN
 10
1.000000000000000E+20
 20
1.000000000000000E+20
 30
1.000000000000000E+20
  9
$PEXTMAX
 10
-1.000000000000000E+20
 20
-1.000000000000000E+20
 30
-1.000000000000000E+20
  9
$PLIMMIN
 10
0.0
 20
0.0
  9
$PLIMMAX
 10
12.0
 20
9.0
  9
$UNITMODE
 70
     0
  9
$VISRETAIN
 70
     1
  9
$PLINEGEN
 70
     0
  9
$PSLTSCALE
 70
     1
  0
ENDSEC
  0
SECTION
  2
TABLES
  0
TABLE
  2
VPORT
 70
     1
  0
VPORT
  2
*ACTIVE
 70
     0
 10
0.0
 20
0.0
 11
1.0
 21
1.0
 12
10.05339322176469
 22
5.947796999981172
 13
0.0
 23
0.0
 14
0.5
 24
0.5
 15
0.5
 25
0.5
 16
0.0
 26
0.0
 36
1.0
 17
0.0
 27
0.0
 37
0.0
 40
11.82841141183161
 41
1.722019542029158
 42
50.0
 43
0.0
 44
0.0
 50
0.0
 51
0.0
 71
     0
 72
   100
 73
     1
 74
     3
 75
     0
 76
     0
 77
     0
 78
     0
  0
ENDTAB
  0
TABLE
  2
LTYPE
 70
     1
  0
LTYPE
  2
CONTINUOUS
 70
     0
  3
Solid line
 72
    65
 73
     0
 40
0.0
  0
ENDTAB
  0
TABLE
  2
LAYER
 70
     3
  0
LAYER
  2
0
 70
     0
 62
     7
  6
CONTINUOUS
  0
LAYER
  2
DEFAULT
 70
     0
 62
     7
  6
CONTINUOUS
  0
LAYER
  2
LAYER_02
 70
     0
 62
   192
  6
CONTINUOUS
  0
ENDTAB
  0
TABLE
  2
STYLE
 70
     1
  0
STYLE
  2
STANDARD
 70
     0
 40
0.0
 41
1.0
 50
0.0
 71
     0
 42
0.2
  3
txt
  4

  0
ENDTAB
  0
TABLE
  2
VIEW
 70
     0
  0
ENDTAB
  0
TABLE
  2
UCS
 70
     0
  0
ENDTAB
  0
TABLE
  2
APPID
 70
     1
  0
APPID
  2
ACAD
 70
     0
  0
ENDTAB
  0
TABLE
  2
DIMSTYLE
 70
     1
  0
DIMSTYLE
  2
STANDARD
 70
     0
  3

  4

  5

  6

  7

 40
1.0
 41
0.18
 42
0.0625
 43
0.38
 44
0.18
 45
0.0
 46
0.0
 47
0.0
 48
0.0
140
0.18
141
0.09
142
0.0
143
25.4
144
1.0
145
0.0
146
1.0
147
0.09
 71
     0
 72
     0
 73
     1
 74
     1
 75
     0
 76
     0
 77
     0
 78
     0
170
     0
171
     2
172
     0
173
     0
174
     0
175
     0
176
     0
177
     0
178
     0
  0
ENDTAB
  0
ENDSEC
  0
SECTION
  2
BLOCKS
  0
BLOCK
  8
0
  2
$MODEL_SPACE
 70
     0
 10
0.0
 20
0.0
 30
0.0
  3
$MODEL_SPACE
  1

  0
ENDBLK
  5
21
  8
0
  0
BLOCK
 67
     1
  8
0
  2
$PAPER_SPACE
 70
     0
 10
0.0
 20
0.0
 30
0.0
  3
$PAPER_SPACE
  1

  0
ENDBLK
  5
1D
 67
     1
  8
0
  0
ENDSEC
  0
SECTION
  2
ENTITIES
  0
POLYLINE
  5
6F
  8
DEFAULT
 66
     1
 10
0.0
 20
0.0
 30
0.0
 70
     1
  0
VERTEX
  5
70
  8
DEFAULT
 10
18.02869241119222
 20
5.764562583050208
 30
0.0
  0
VERTEX
  5
71
  8
DEFAULT
 10
17.87000675128238
 20
5.856179791515689
 30
0.0
  0
VERTEX
  5
72
  8
DEFAULT
 10
17.87000675128238
 20
6.039414208446654
 30
0.0
  0
VERTEX
  5
73
  8
DEFAULT
 10
18.02869241119222
 20
6.131031416912138
 30
0.0
  0
VERTEX
  5
74
  8
DEFAULT
 10
18.18737807110207
 20
6.039414208446654
 30
0.0
  0
VERTEX
  5
75
  8
DEFAULT
 10
18.18737807110207
 20
5.856179791515689
 30
0.0
  0
SEQEND
  5
76
  8
DEFAULT
  0
POLYLINE
  5
77
  8
DEFAULT
 66
     1
 10
0.0
 20
0.0
 30
0.0
 70
     1
  0
VERTEX
  5
78
  8
DEFAULT
 10
15.14667308571534
 20
5.764562583050208
 30
0.0
  0
VERTEX
  5
79
  8
DEFAULT
 10
14.98798742580549
 20
5.856179791515689
 30
0.0
  0
VERTEX
  5
7A
  8
DEFAULT
 10
14.98798742580549
 20
6.039414208446654
 30
0.0
  0
VERTEX
  5
7B
  8
DEFAULT
 10
15.14667308571534
 20
6.131031416912138
 30
0.0
  0
VERTEX
  5
7C
  8
DEFAULT
 10
15.30535874562518
 20
6.039414208446654
 30
0.0
  0
VERTEX
  5
7D
  8
DEFAULT
 10
15.30535874562518
 20
5.856179791515689
 30
0.0
  0
SEQEND
  5
7E
  8
DEFAULT
  0
POLYLINE
  5
7F
  8
DEFAULT
 66
     1
 10
0.0
 20
0.0
 30
0.0
 70
     1
  0
VERTEX
  5
80
  8
DEFAULT
 10
12.26465376023846
 20
5.764562583050208
 30
0.0
  0
VERTEX
  5
81
  8
DEFAULT
 10
12.10596810032861
 20
5.856179791515689
 30
0.0
  0
VERTEX
  5
82
  8
DEFAULT
 10
12.10596810032861
 20
6.039414208446654
 30
0.0
  0
VERTEX
  5
83
  8
DEFAULT
 10
12.26465376023846
 20
6.131031416912138
 30
0.0
  0
VERTEX
  5
84
  8
DEFAULT
 10
12.4233394201483
 20
6.039414208446654
 30
0.0
  0
VERTEX
  5
85
  8
DEFAULT
 10
12.4233394201483
 20
5.856179791515689
 30
0.0
  0
SEQEND
  5
86
  8
DEFAULT
  0
POLYLINE
  5
87
  8
DEFAULT
 66
     1
 10
0.0
 20
0.0
 30
0.0
 70
     1
  0
VERTEX
  5
88
  8
DEFAULT
 10
7.842132683290928
 20
5.764562583050208
 30
0.0
  0
VERTEX
  5
89
  8
DEFAULT
 10
8.000818343200773
 20
5.856179791515689
 30
0.0
  0
VERTEX
  5
8A
  8
DEFAULT
 10
8.000818343200773
 20
6.039414208446654
 30
0.0
  0
VERTEX
  5
8B
  8
DEFAULT
 10
7.842132683290928
 20
6.131031416912138
 30
0.0
  0
VERTEX
  5
8C
  8
DEFAULT
 10
7.683447023381081
 20
6.039414208446654
 30
0.0
  0
VERTEX
  5
8D
  8
DEFAULT
 10
7.683447023381081
 20
5.856179791515689
 30
0.0
  0
SEQEND
  5
8E
  8
DEFAULT
  0
POLYLINE
  5
8F
  8
DEFAULT
 66
     1
 10
0.0
 20
0.0
 30
0.0
 70
     1
  0
VERTEX
  5
90
  8
DEFAULT
 10
4.960113357814045
 20
5.764562583050208
 30
0.0
  0
VERTEX
  5
91
  8
DEFAULT
 10
5.118799017723891
 20
5.856179791515689
 30
0.0
  0
VERTEX
  5
92
  8
DEFAULT
 10
5.118799017723891
 20
6.039414208446654
 30
0.0
  0
VERTEX
  5
93
  8
DEFAULT
 10
4.960113357814045
 20
6.131031416912138
 30
0.0
  0
VERTEX
  5
94
  8
DEFAULT
 10
4.801427697904199
 20
6.039414208446654
 30
0.0
  0
VERTEX
  5
95
  8
DEFAULT
 10
4.801427697904199
 20
5.856179791515689
 30
0.0
  0
SEQEND
  5
96
  8
DEFAULT
  0
POLYLINE
  5
97
  8
DEFAULT
 66
     1
 10
0.0
 20
0.0
 30
0.0
 70
     1
  0
VERTEX
  5
98
  8
DEFAULT
 10
2.078094032337163
 20
5.764562583050208
 30
0.0
  0
VERTEX
  5
99
  8
DEFAULT
 10
2.236779692247009
 20
5.856179791515689
 30
0.0
  0
VERTEX
  5
9A
  8
DEFAULT
 10
2.236779692247009
 20
6.039414208446654
 30
0.0
  0
VERTEX
  5
9B
  8
DEFAULT
 10
2.078094032337163
 20
6.131031416912138
 30
0.0
  0
VERTEX
  5
9C
  8
DEFAULT
 10
1.919408372427316
 20
6.039414208446654
 30
0.0
  0
VERTEX
  5
9D
  8
DEFAULT
 10
1.919408372427316
 20
5.856179791515689
 30
0.0
  0
SEQEND
  5
9E
  8
DEFAULT
  0
POLYLINE
  5
9F
  8
DEFAULT
 66
     1
 10
0.0
 20
0.0
 30
0.0
 70
     1
  0
VERTEX
  5
A0
  8
DEFAULT
 10
0.5380650134085119
 20
2.917213177247673
 30
0.0
  0
VERTEX
  5
A1
  8
DEFAULT
 10
0.6967506733183579
 20
2.825595968782192
 30
0.0
  0
VERTEX
  5
A2
  8
DEFAULT
 10
0.6967506733183579
 20
2.642361551851227
 30
0.0
  0
VERTEX
  5
A3
  8
DEFAULT
 10
0.5380650134085119
 20
2.550744343385743
 30
0.0
  0
VERTEX
  5
A4
  8
DEFAULT
 10
0.3793793534986649
 20
2.642361551851227
 30
0.0
  0
VERTEX
  5
A5
  8
DEFAULT
 10
0.3793793534986649
 20
2.825595968782192
 30
0.0
  0
SEQEND
  5
A6
  8
DEFAULT
  0
POLYLINE
  5
A7
  8
DEFAULT
 66
     1
 10
0.0
 20
0.0
 30
0.0
 70
     1
  0
VERTEX
  5
A8
  8
DEFAULT
 10
0.5380650134085119
 20
4.046608768423843
 30
0.0
  0
VERTEX
  5
A9
  8
DEFAULT
 10
0.6967506733183579
 20
3.954991559958362
 30
0.0
  0
VERTEX
  5
AA
  8
DEFAULT
 10
0.6967506733183579
 20
3.771757143027397
 30
0.0
  0
VERTEX
  5
AB
  8
DEFAULT
 10
0.5380650134085119
 20
3.680139934561913
 30
0.0
  0
VERTEX
  5
AC
  8
DEFAULT
 10
0.3793793534986649
 20
3.771757143027397
 30
0.0
  0
VERTEX
  5
AD
  8
DEFAULT
 10
0.3793793534986649
 20
3.954991559958362
 30
0.0
  0
SEQEND
  5
AE
  8
DEFAULT
  0
POLYLINE
  5
AF
  8
DEFAULT
 66
     1
 10
0.0
 20
0.0
 30
0.0
 70
     1
  0
VERTEX
  5
B0
  8
DEFAULT
 10
4.960113357810823
 20
0.8327905287593858
 30
0.0
  0
VERTEX
  5
B1
  8
DEFAULT
 10
5.118799017720669
 20
0.741173320293905
 30
0.0
  0
VERTEX
  5
B2
  8
DEFAULT
 10
5.118799017720669
 20
0.55793890336294
 30
0.0
  0
VERTEX
  5
B3
  8
DEFAULT
 10
4.960113357810823
 20
0.4663216948974558
 30
0.0
  0
VERTEX
  5
B4
  8
DEFAULT
 10
4.801427697900976
 20
0.55793890336294
 30
0.0
  0
VERTEX
  5
B5
  8
DEFAULT
 10
4.801427697900976
 20
0.741173320293905
 30
0.0
  0
SEQEND
  5
B6
  8
DEFAULT
  0
POLYLINE
  5
B7
  8
DEFAULT
 66
     1
 10
0.0
 20
0.0
 30
0.0
 70
     1
  0
VERTEX
  5
B8
  8
DEFAULT
 10
10.0533932217425
 20
2.952361282035486
 30
0.0
  0
VERTEX
  5
B9
  8
DEFAULT
 10
10.21207888165234
 20
2.860744073570006
 30
0.0
  0
VERTEX
  5
BA
  8
DEFAULT
 10
10.21207888165234
 20
2.677509656639041
 30
0.0
  0
VERTEX
  5
BB
  8
DEFAULT
 10
10.0533932217425
 20
2.585892448173556
 30
0.0
  0
VERTEX
  5
BC
  8
DEFAULT
 10
9.89470756183265
 20
2.677509656639041
 30
0.0
  0
VERTEX
  5
BD
  8
DEFAULT
 10
9.89470756183265
 20
2.860744073570006
 30
0.0
  0
SEQEND
  5
BE
  8
DEFAULT
  0
POLYLINE
  5
BF
  8
DEFAULT
 66
     1
 10
0.0
 20
0.0
 30
0.0
 70
     1
  0
VERTEX
  5
C0
  8
DEFAULT
 10
10.05339322178689
 20
4.035635612646844
 30
0.0
  0
VERTEX
  5
C1
  8
DEFAULT
 10
10.21207888169674
 20
3.944018404181363
 30
0.0
  0
VERTEX
  5
C2
  8
DEFAULT
 10
10.21207888169674
 20
3.760783987250397
 30
0.0
  0
VERTEX
  5
C3
  8
DEFAULT
 10
10.05339322178689
 20
3.669166778784914
 30
0.0
  0
VERTEX
  5
C4
  8
DEFAULT
 10
9.894707561877045
 20
3.760783987250397
 30
0.0
  0
VERTEX
  5
C5
  8
DEFAULT
 10
9.894707561877045
 20
3.944018404181363
 30
0.0
  0
SEQEND
  5
C6
  8
DEFAULT
  0
POLYLINE
  5
C7
  8
DEFAULT
 66
     1
 10
0.0
 20
0.0
 30
0.0
 70
     1
  0
VERTEX
  5
C8
  8
DEFAULT
 10
15.14667308571856
 20
0.8327905287593858
 30
0.0
  0
VERTEX
  5
C9
  8
DEFAULT
 10
14.98798742580871
 20
0.741173320293905
 30
0.0
  0
VERTEX
  5
CA
  8
DEFAULT
 10
14.98798742580871
 20
0.55793890336294
 30
0.0
  0
VERTEX
  5
CB
  8
DEFAULT
 10
15.14667308571856
 20
0.4663216948974558
 30
0.0
  0
VERTEX
  5
CC
  8
DEFAULT
 10
15.30535874562841
 20
0.55793890336294
 30
0.0
  0
VERTEX
  5
CD
  8
DEFAULT
 10
15.30535874562841
 20
0.741173320293905
 30
0.0
  0
SEQEND
  5
CE
  8
DEFAULT
  0
POLYLINE
  5
CF
  8
DEFAULT
 66
     1
 10
0.0
 20
0.0
 30
0.0
 70
     1
  0
VERTEX
  5
D0
  8
DEFAULT
 10
19.56872143012087
 20
4.046608768423843
 30
0.0
  0
VERTEX
  5
D1
  8
DEFAULT
 10
19.41003577021102
 20
3.954991559958362
 30
0.0
  0
VERTEX
  5
D2
  8
DEFAULT
 10
19.41003577021102
 20
3.771757143027397
 30
0.0
  0
VERTEX
  5
D3
  8
DEFAULT
 10
19.56872143012087
 20
3.680139934561913
 30
0.0
  0
VERTEX
  5
D4
  8
DEFAULT
 10
19.72740709003072
 20
3.771757143027397
 30
0.0
  0
VERTEX
  5
D5
  8
DEFAULT
 10
19.72740709003072
 20
3.954991559958362
 30
0.0
  0
SEQEND
  5
D6
  8
DEFAULT
  0
POLYLINE
  5
D7
  8
DEFAULT
 66
     1
 10
0.0
 20
0.0
 30
0.0
 70
     1
  0
VERTEX
  5
D8
  8
DEFAULT
 10
19.56872143012087
 20
2.917213177247673
 30
0.0
  0
VERTEX
  5
D9
  8
DEFAULT
 10
19.41003577021102
 20
2.825595968782192
 30
0.0
  0
VERTEX
  5
DA
  8
DEFAULT
 10
19.41003577021102
 20
2.642361551851227
 30
0.0
  0
VERTEX
  5
DB
  8
DEFAULT
 10
19.56872143012087
 20
2.550744343385743
 30
0.0
  0
VERTEX
  5
DC
  8
DEFAULT
 10
19.72740709003072
 20
2.642361551851227
 30
0.0
  0
VERTEX
  5
DD
  8
DEFAULT
 10
19.72740709003072
 20
2.825595968782192
 30
0.0
  0
SEQEND
  5
DE
  8
DEFAULT
  0
POLYLINE
  5
DF
  8
DEFAULT
 66
     1
 10
0.0
 20
0.0
 30
0.0
 70
     1
  0
VERTEX
  5
E0
  8
DEFAULT
 10
19.56872143012087
 20
8.978380822714671
 30
0.0
  0
VERTEX
  5
E1
  8
DEFAULT
 10
19.41003577021102
 20
9.069998031180152
 30
0.0
  0
VERTEX
  5
E2
  8
DEFAULT
 10
19.41003577021102
 20
9.253232448111117
 30
0.0
  0
VERTEX
  5
E3
  8
DEFAULT
 10
19.56872143012087
 20
9.344849656576601
 30
0.0
  0
VERTEX
  5
E4
  8
DEFAULT
 10
19.72740709003072
 20
9.253232448111117
 30
0.0
  0
VERTEX
  5
E5
  8
DEFAULT
 10
19.72740709003072
 20
9.069998031180152
 30
0.0
  0
SEQEND
  5
E6
  8
DEFAULT
  0
POLYLINE
  5
E7
  8
DEFAULT
 66
     1
 10
0.0
 20
0.0
 30
0.0
 70
     1
  0
VERTEX
  5
E8
  8
DEFAULT
 10
19.56872143012087
 20
7.848985231538501
 30
0.0
  0
VERTEX
  5
E9
  8
DEFAULT
 10
19.41003577021102
 20
7.940602440003982
 30
0.0
  0
VERTEX
  5
EA
  8
DEFAULT
 10
19.41003577021102
 20
8.123836856934947
 30
0.0
  0
VERTEX
  5
EB
  8
DEFAULT
 10
19.56872143012087
 20
8.215454065400431
 30
0.0
  0
VERTEX
  5
EC
  8
DEFAULT
 10
19.72740709003072
 20
8.123836856934947
 30
0.0
  0
VERTEX
  5
ED
  8
DEFAULT
 10
19.72740709003072
 20
7.940602440003982
 30
0.0
  0
SEQEND
  5
EE
  8
DEFAULT
  0
POLYLINE
  5
EF
  8
DEFAULT
 66
     1
 10
0.0
 20
0.0
 30
0.0
 70
     1
  0
VERTEX
  5
F0
  8
DEFAULT
 10
15.14667308571856
 20
11.06280347120296
 30
0.0
  0
VERTEX
  5
F1
  8
DEFAULT
 10
14.98798742580871
 20
11.15442067966844
 30
0.0
  0
VERTEX
  5
F2
  8
DEFAULT
 10
14.98798742580871
 20
11.3376550965994
 30
0.0
  0
VERTEX
  5
F3
  8
DEFAULT
 10
15.14667308571856
 20
11.42927230506489
 30
0.0
  0
VERTEX
  5
F4
  8
DEFAULT
 10
15.30535874562841
 20
11.3376550965994
 30
0.0
  0
VERTEX
  5
F5
  8
DEFAULT
 10
15.30535874562841
 20
11.15442067966844
 30
0.0
  0
SEQEND
  5
F6
  8
DEFAULT
  0
POLYLINE
  5
F7
  8
DEFAULT
 66
     1
 10
0.0
 20
0.0
 30
0.0
 70
     1
  0
VERTEX
  5
F8
  8
DEFAULT
 10
10.05339322178689
 20
7.8599583873155
 30
0.0
  0
VERTEX
  5
F9
  8
DEFAULT
 10
10.21207888169674
 20
7.951575595780981
 30
0.0
  0
VERTEX
  5
FA
  8
DEFAULT
 10
10.21207888169674
 20
8.134810012711947
 30
0.0
  0
VERTEX
  5
FB
  8
DEFAULT
 10
10.05339322178689
 20
8.22642722117743
 30
0.0
  0
VERTEX
  5
FC
  8
DEFAULT
 10
9.894707561877045
 20
8.134810012711947
 30
0.0
  0
VERTEX
  5
FD
  8
DEFAULT
 10
9.894707561877045
 20
7.951575595780981
 30
0.0
  0
SEQEND
  5
FE
  8
DEFAULT
  0
POLYLINE
  5
FF
  8
DEFAULT
 66
     1
 10
0.0
 20
0.0
 30
0.0
 70
     1
  0
VERTEX
  5
100
  8
DEFAULT
 10
10.0533932217425
 20
8.943232717926858
 30
0.0
  0
VERTEX
  5
101
  8
DEFAULT
 10
10.21207888165234
 20
9.034849926392338
 30
0.0
  0
VERTEX
  5
102
  8
DEFAULT
 10
10.21207888165234
 20
9.218084343323303
 30
0.0
  0
VERTEX
  5
103
  8
DEFAULT
 10
10.0533932217425
 20
9.309701551788788
 30
0.0
  0
VERTEX
  5
104
  8
DEFAULT
 10
9.89470756183265
 20
9.218084343323303
 30
0.0
  0
VERTEX
  5
105
  8
DEFAULT
 10
9.89470756183265
 20
9.034849926392338
 30
0.0
  0
SEQEND
  5
106
  8
DEFAULT
  0
POLYLINE
  5
107
  8
DEFAULT
 66
     1
 10
0.0
 20
0.0
 30
0.0
 70
     1
  0
VERTEX
  5
108
  8
DEFAULT
 10
4.960113357810823
 20
11.06280347120296
 30
0.0
  0
VERTEX
  5
109
  8
DEFAULT
 10
5.118799017720669
 20
11.15442067966844
 30
0.0
  0
VERTEX
  5
10A
  8
DEFAULT
 10
5.118799017720669
 20
11.3376550965994
 30
0.0
  0
VERTEX
  5
10B
  8
DEFAULT
 10
4.960113357810823
 20
11.42927230506489
 30
0.0
  0
VERTEX
  5
10C
  8
DEFAULT
 10
4.801427697900976
 20
11.3376550965994
 30
0.0
  0
VERTEX
  5
10D
  8
DEFAULT
 10
4.801427697900976
 20
11.15442067966844
 30
0.0
  0
SEQEND
  5
10E
  8
DEFAULT
  0
POLYLINE
  5
10F
  8
DEFAULT
 66
     1
 10
0.0
 20
0.0
 30
0.0
 70
     1
  0
VERTEX
  5
110
  8
DEFAULT
 10
0.5380650134085119
 20
7.848985231538501
 30
0.0
  0
VERTEX
  5
111
  8
DEFAULT
 10
0.6967506733183579
 20
7.940602440003982
 30
0.0
  0
VERTEX
  5
112
  8
DEFAULT
 10
0.6967506733183579
 20
8.123836856934947
 30
0.0
  0
VERTEX
  5
113
  8
DEFAULT
 10
0.5380650134085119
 20
8.215454065400431
 30
0.0
  0
VERTEX
  5
114
  8
DEFAULT
 10
0.3793793534986649
 20
8.123836856934947
 30
0.0
  0
VERTEX
  5
115
  8
DEFAULT
 10
0.3793793534986649
 20
7.940602440003982
 30
0.0
  0
SEQEND
  5
116
  8
DEFAULT
  0
POLYLINE
  5
117
  8
DEFAULT
 66
     1
 10
0.0
 20
0.0
 30
0.0
 70
     1
  0
VERTEX
  5
118
  8
DEFAULT
 10
0.5380650134085119
 20
8.978380822714671
 30
0.0
  0
VERTEX
  5
119
  8
DEFAULT
 10
0.6967506733183579
 20
9.069998031180152
 30
0.0
  0
VERTEX
  5
11A
  8
DEFAULT
 10
0.6967506733183579
 20
9.253232448111117
 30
0.0
  0
VERTEX
  5
11B
  8
DEFAULT
 10
0.5380650134085119
 20
9.344849656576601
 30
0.0
  0
VERTEX
  5
11C
  8
DEFAULT
 10
0.3793793534986649
 20
9.253232448111117
 30
0.0
  0
VERTEX
  5
11D
  8
DEFAULT
 10
0.3793793534986649
 20
9.069998031180152
 30
0.0
  0
SEQEND
  5
11E
  8
DEFAULT
  0
POLYLINE
  5
11F
  8
DEFAULT
 66
     1
 10
0.0
 20
0.0
 30
0.0
 70
     1
  0
VERTEX
  5
120
  8
DEFAULT
 10
3.007420923843867
 20
0.1495561118284225
 30
0.0
  0
VERTEX
  5
121
  8
DEFAULT
 10
17.09936551968552
 20
0.1495561118284225
 30
0.0
  0
VERTEX
  5
122
  8
DEFAULT
 10
17.0993655196855
 20
0.6495561118284225
 30
0.0
  0
VERTEX
  5
123
  8
DEFAULT
 10
18.59936551968552
 20
0.6495561118284225
 30
0.0
 42
0.4142135623730951
  0
VERTEX
  5
124
  8
DEFAULT
 10
19.09936551968552
 20
1.149556111828423
 30
0.0
  0
VERTEX
  5
125
  8
DEFAULT
 10
19.09936551968552
 20
2.340911424875737
 30
0.0
  0
VERTEX
  5
126
  8
DEFAULT
 10
19.78807734055622
 20
2.340911424875737
 30
0.0
 42
0.414213562373094
  0
VERTEX
  5
127
  8
DEFAULT
 10
20.03807734055623
 20
2.590911424875729
 30
0.0
  0
VERTEX
  5
128
  8
DEFAULT
 10
20.03807734055623
 20
4.00644168693383
 30
0.0
 42
0.4142135623730842
  0
VERTEX
  5
129
  8
DEFAULT
 10
19.78807734055625
 20
4.256441686933849
 30
0.0
  0
VERTEX
  5
12A
  8
DEFAULT
 10
19.09936551968552
 20
4.256441686933855
 30
0.0
  0
VERTEX
  5
12B
  8
DEFAULT
 10
19.09936551968552
 20
7.639152313028489
 30
0.0
  0
VERTEX
  5
12C
  8
DEFAULT
 10
19.78807734055626
 20
7.639152313028491
 30
0.0
 42
0.4142135623730856
  0
VERTEX
  5
12D
  8
DEFAULT
 10
20.03807734055623
 20
7.889152313028513
 30
0.0
  0
VERTEX
  5
12E
  8
DEFAULT
 10
20.03807734055623
 20
9.304682575086614
 30
0.0
 42
0.4142135623730913
  0
VERTEX
  5
12F
  8
DEFAULT
 10
19.78807734055622
 20
9.554682575086607
 30
0.0
  0
VERTEX
  5
130
  8
DEFAULT
 10
19.09936551968552
 20
9.554682575086607
 30
0.0
  0
VERTEX
  5
131
  8
DEFAULT
 10
19.09936551968551
 20
10.74603788813392
 30
0.0
 42
0.4142135623730911
  0
VERTEX
  5
132
  8
DEFAULT
 10
18.59936551968552
 20
11.24603788813392
 30
0.0
  0
VERTEX
  5
133
  8
DEFAULT
 10
17.0993655196855
 20
11.24603788813392
 30
0.0
  0
VERTEX
  5
134
  8
DEFAULT
 10
17.09936551968552
 20
11.74603788813392
 30
0.0
  0
VERTEX
  5
135
  8
DEFAULT
 10
3.007420923843867
 20
11.74603788813392
 30
0.0
  0
VERTEX
  5
136
  8
DEFAULT
 10
3.007420923843881
 20
11.24603788813392
 30
0.0
  0
VERTEX
  5
137
  8
DEFAULT
 10
1.507420923843866
 20
11.24603788813392
 30
0.0
 42
0.4142135623730944
  0
VERTEX
  5
138
  8
DEFAULT
 10
1.007420923843867
 20
10.74603788813392
 30
0.0
  0
VERTEX
  5
139
  8
DEFAULT
 10
1.007420923843867
 20
9.554682575086607
 30
0.0
  0
VERTEX
  5
13A
  8
DEFAULT
 10
0.3187091029731592
 20
9.554682575086607
 30
0.0
 42
0.4142135623730924
  0
VERTEX
  5
13B
  8
DEFAULT
 10
0.0687091029731534
 20
9.304682575086614
 30
0.0
  0
VERTEX
  5
13C
  8
DEFAULT
 10
0.0687091029731516
 20
7.889152313028513
 30
0.0
 42
0.4142135623730905
  0
VERTEX
  5
13D
  8
DEFAULT
 10
0.3187091029731285
 20
7.639152313028495
 30
0.0
  0
VERTEX
  5
13E
  8
DEFAULT
 10
1.007420923843867
 20
7.639152313028489
 30
0.0
  0
VERTEX
  5
13F
  8
DEFAULT
 10
1.007420923843867
 20
4.256441686933855
 30
0.0
  0
VERTEX
  5
140
  8
DEFAULT
 10
0.3187091029731285
 20
4.256441686933849
 30
0.0
 42
0.4142135623730889
  0
VERTEX
  5
141
  8
DEFAULT
 10
0.0687091029731516
 20
4.00644168693383
 30
0.0
  0
VERTEX
  5
142
  8
DEFAULT
 10
0.0687091029731534
 20
2.590911424875729
 30
0.0
 42
0.4142135623730934
  0
VERTEX
  5
143
  8
DEFAULT
 10
0.3187091029731592
 20
2.340911424875737
 30
0.0
  0
VERTEX
  5
144
  8
DEFAULT
 10
1.007420923843867
 20
2.340911424875737
 30
0.0
  0
VERTEX
  5
145
  8
DEFAULT
 10
1.007420923843867
 20
1.149556111828423
 30
0.0
 42
0.4142135623730946
  0
VERTEX
  5
146
  8
DEFAULT
 10
1.507420923843866
 20
0.6495561118284225
 30
0.0
  0
VERTEX
  5
147
  8
DEFAULT
 10
3.007420923843881
 20
0.6495561118284225
 30
0.0
  0
SEQEND
  5
148
  8
DEFAULT
  0
CIRCLE
  5
149
  8
DEFAULT
 10
0.5380650134085116
 20
3.310764030410201
 30
0.0
 40
0.14
  0
CIRCLE
  5
14A
  8
DEFAULT
 10
19.56872143012087
 20
3.310764030410201
 30
0.0
 40
0.14
  0
CIRCLE
  5
14B
  8
DEFAULT
 10
19.56872143012087
 20
8.584829969552143
 30
0.0
 40
0.14
  0
CIRCLE
  5
14C
  8
DEFAULT
 10
0.5380650134085116
 20
8.584829969552143
 30
0.0
 40
0.14
  0
CIRCLE
  5
14D
  8
DEFAULT
 10
10.0533932217425
 20
2.769126865104523
 30
0.0
 40
0.0625
  0
CIRCLE
  5
14E
  8
DEFAULT
 10
10.05339322178689
 20
3.852401195715879
 30
0.0
 40
0.0625
  0
CIRCLE
  5
14F
  8
DEFAULT
 10
0.5380650134085116
 20
2.73397876031671
 30
0.0
 40
0.0625000000000001
  0
CIRCLE
  5
150
  8
DEFAULT
 10
0.5380650134085116
 20
3.86337435149288
 30
0.0
 40
0.0625
  0
CIRCLE
  5
151
  8
DEFAULT
 10
19.56872143012087
 20
3.86337435149288
 30
0.0
 40
0.0625
  0
CIRCLE
  5
152
  8
DEFAULT
 10
19.56872143012087
 20
2.73397876031671
 30
0.0
 40
0.0625000000000001
  0
CIRCLE
  5
153
  8
DEFAULT
 10
19.56872143012087
 20
9.161615239645634
 30
0.0
 40
0.0625000000000001
  0
CIRCLE
  5
154
  8
DEFAULT
 10
19.56872143012087
 20
8.032219648469464
 30
0.0
 40
0.0625
  0
POLYLINE
  5
156
  8
LAYER_02
 66
     1
 10
0.0
 20
0.0
 30
0.0
 70
     1
  0
VERTEX
  5
157
  8
LAYER_02
 10
18.87936551968552
 20
1.142822626407522
 30
0.0
 42
-0.7918918918918931
  0
VERTEX
  5
158
  8
LAYER_02
 10
18.13869241119222
 20
1.142822626407527
 30
0.0
  0
VERTEX
  5
159
  8
LAYER_02
 10
18.13869241119222
 20
2.047644910296633
 30
0.0
 42
-0.7918918918918993
  0
VERTEX
  5
15A
  8
LAYER_02
 10
18.87936551968552
 20
2.047644910296633
 30
0.0
  0
SEQEND
  5
15B
  8
LAYER_02
  0
POLYLINE
  5
15C
  8
LAYER_02
 66
     1
 10
0.0
 20
0.0
 30
0.0
 70
     1
  0
VERTEX
  5
15D
  8
LAYER_02
 10
8.912805791790252
 20
9.037241111496698
 30
0.0
 42
-0.7918918918918892
  0
VERTEX
  5
15E
  8
LAYER_02
 10
9.653478900283547
 20
9.037241111496693
 30
0.0
  0
VERTEX
  5
15F
  8
LAYER_02
 10
9.653478900283549
 20
8.132418827607587
 30
0.0
 42
-0.7918918918918858
  0
VERTEX
  5
160
  8
LAYER_02
 10
8.912805791790252
 20
8.132418827607585
 30
0.0
  0
SEQEND
  5
161
  8
LAYER_02
  0
POLYLINE
  5
162
  8
LAYER_02
 66
     1
 10
0.0
 20
0.0
 30
0.0
 70
     1
  0
VERTEX
  5
163
  8
LAYER_02
 10
7.952132683296956
 20
9.037241111496698
 30
0.0
 42
-0.7918918918918892
  0
VERTEX
  5
164
  8
LAYER_02
 10
8.692805791790251
 20
9.037241111496693
 30
0.0
  0
VERTEX
  5
165
  8
LAYER_02
 10
8.692805791790255
 20
8.132418827607587
 30
0.0
 42
-0.7918918918918781
  0
VERTEX
  5
166
  8
LAYER_02
 10
7.952132683296955
 20
8.132418827607585
 30
0.0
  0
SEQEND
  5
167
  8
LAYER_02
  0
POLYLINE
  5
168
  8
LAYER_02
 66
     1
 10
0.0
 20
0.0
 30
0.0
 70
     1
  0
VERTEX
  5
169
  8
LAYER_02
 10
6.99145957480366
 20
9.037241111496698
 30
0.0
 42
-0.7918918918919002
  0
VERTEX
  5
16A
  8
LAYER_02
 10
7.732132683296952
 20
9.037241111496694
 30
0.0
  0
VERTEX
  5
16B
  8
LAYER_02
 10
7.732132683296958
 20
8.132418827607587
 30
0.0
 42
-0.7918918918918807
  0
VERTEX
  5
16C
  8
LAYER_02
 10
6.991459574803659
 20
8.132418827607585
 30
0.0
  0
SEQEND
  5
16D
  8
LAYER_02
  0
POLYLINE
  5
16E
  8
LAYER_02
 66
     1
 10
0.0
 20
0.0
 30
0.0
 70
     1
  0
VERTEX
  5
16F
  8
LAYER_02
 10
6.030786466310364
 20
9.037241111496698
 30
0.0
 42
-0.7918918918918931
  0
VERTEX
  5
170
  8
LAYER_02
 10
6.771459574803655
 20
9.037241111496694
 30
0.0
  0
VERTEX
  5
171
  8
LAYER_02
 10
6.771459574803663
 20
8.132418827607587
 30
0.0
 42
-0.7918918918918793
  0
VERTEX
  5
172
  8
LAYER_02
 10
6.030786466310356
 20
8.132418827607585
 30
0.0
  0
SEQEND
  5
173
  8
LAYER_02
  0
POLYLINE
  5
174
  8
LAYER_02
 66
     1
 10
0.0
 20
0.0
 30
0.0
 70
     1
  0
VERTEX
  5
175
  8
LAYER_02
 10
5.070113357817061
 20
9.037241111496698
 30
0.0
 42
-0.7918918918918916
  0
VERTEX
  5
176
  8
LAYER_02
 10
5.810786466310351
 20
9.037241111496694
 30
0.0
  0
VERTEX
  5
177
  8
LAYER_02
 10
5.810786466310357
 20
8.132418827607589
 30
0.0
 42
-0.7918918918918819
  0
VERTEX
  5
178
  8
LAYER_02
 10
5.07011335781706
 20
8.132418827607585
 30
0.0
  0
SEQEND
  5
179
  8
LAYER_02
  0
POLYLINE
  5
17A
  8
LAYER_02
 66
     1
 10
0.0
 20
0.0
 30
0.0
 70
     1
  0
VERTEX
  5
17B
  8
LAYER_02
 10
4.109440249323765
 20
9.037241111496698
 30
0.0
 42
-0.791891891891889
  0
VERTEX
  5
17C
  8
LAYER_02
 10
4.850113357817057
 20
9.037241111496694
 30
0.0
  0
VERTEX
  5
17D
  8
LAYER_02
 10
4.850113357817063
 20
8.132418827607587
 30
0.0
 42
-0.7918918918918807
  0
VERTEX
  5
17E
  8
LAYER_02
 10
4.109440249323764
 20
8.132418827607585
 30
0.0
  0
SEQEND
  5
17F
  8
LAYER_02
  0
POLYLINE
  5
180
  8
LAYER_02
 66
     1
 10
0.0
 20
0.0
 30
0.0
 70
     1
  0
VERTEX
  5
181
  8
LAYER_02
 10
3.148767140830462
 20
9.037241111496698
 30
0.0
 42
-0.7918918918918921
  0
VERTEX
  5
182
  8
LAYER_02
 10
3.889440249323757
 20
9.037241111496693
 30
0.0
  0
VERTEX
  5
183
  8
LAYER_02
 10
3.889440249323767
 20
8.132418827607587
 30
0.0
 42
-0.7918918918918786
  0
VERTEX
  5
184
  8
LAYER_02
 10
3.148767140830461
 20
8.132418827607585
 30
0.0
  0
SEQEND
  5
185
  8
LAYER_02
  0
POLYLINE
  5
186
  8
LAYER_02
 66
     1
 10
0.0
 20
0.0
 30
0.0
 70
     1
  0
VERTEX
  5
187
  8
LAYER_02
 10
2.188094032337166
 20
9.037241111496698
 30
0.0
 42
-0.7918918918918995
  0
VERTEX
  5
188
  8
LAYER_02
 10
2.928767140830464
 20
9.037241111496694
 30
0.0
  0
VERTEX
  5
189
  8
LAYER_02
 10
2.928767140830463
 20
8.132418827607587
 30
0.0
 42
-0.7918918918918807
  0
VERTEX
  5
18A
  8
LAYER_02
 10
2.188094032337165
 20
8.132418827607585
 30
0.0
  0
SEQEND
  5
18B
  8
LAYER_02
  0
POLYLINE
  5
18C
  8
LAYER_02
 66
     1
 10
0.0
 20
0.0
 30
0.0
 70
     1
  0
VERTEX
  5
18D
  8
LAYER_02
 10
1.22742092384387
 20
9.037241111496698
 30
0.0
 42
-0.7918918918918879
  0
VERTEX
  5
18E
  8
LAYER_02
 10
1.968094032337169
 20
9.037241111496694
 30
0.0
  0
VERTEX
  5
18F
  8
LAYER_02
 10
1.968094032337167
 20
8.132418827607587
 30
0.0
 42
-0.7918918918918805
  0
VERTEX
  5
190
  8
LAYER_02
 10
1.227420923843869
 20
8.132418827607585
 30
0.0
  0
SEQEND
  5
191
  8
LAYER_02
  0
CIRCLE
  5
192
  8
DEFAULT
 10
0.5380650134085116
 20
8.032219648469464
 30
0.0
 40
0.0625
  0
CIRCLE
  5
193
  8
DEFAULT
 10
0.5380650134085116
 20
9.161615239645634
 30
0.0
 40
0.0625000000000001
  0
CIRCLE
  5
194
  8
DEFAULT
 10
10.05339322178689
 20
8.043192804246464
 30
0.0
 40
0.0625
  0
CIRCLE
  5
195
  8
DEFAULT
 10
10.0533932217425
 20
9.12646713485782
 30
0.0
 40
0.0625
  0
CIRCLE
  5
196
  8
DEFAULT
 10
4.960113357810823
 20
0.6495561118284225
 30
0.0
 40
0.0625
  0
CIRCLE
  5
197
  8
DEFAULT
 10
15.14667308571856
 20
0.6495561118284225
 30
0.0
 40
0.0625
  0
CIRCLE
  5
198
  8
DEFAULT
 10
15.14667308571856
 20
11.24603788813392
 30
0.0
 40
0.0625
  0
CIRCLE
  5
199
  8
DEFAULT
 10
4.960113357810823
 20
11.24603788813392
 30
0.0
 40
0.0625
  0
CIRCLE
  5
19A
  8
DEFAULT
 10
12.26465376023846
 20
5.947796999981172
 30
0.0
 40
0.0625
  0
CIRCLE
  5
19B
  8
DEFAULT
 10
15.14667308571534
 20
5.947796999981172
 30
0.0
 40
0.0625
  0
CIRCLE
  5
19C
  8
DEFAULT
 10
18.02869241119222
 20
5.947796999981172
 30
0.0
 40
0.0625
  0
CIRCLE
  5
19D
  8
DEFAULT
 10
2.078094032337163
 20
5.947796999981172
 30
0.0
 40
0.0625
  0
CIRCLE
  5
19E
  8
DEFAULT
 10
4.960113357814045
 20
5.947796999981172
 30
0.0
 40
0.0625
  0
CIRCLE
  5
19F
  8
DEFAULT
 10
7.842132683290927
 20
5.947796999981172
 30
0.0
 40
0.0625
  0
POLYLINE
  5
1A0
  8
LAYER_02
 66
     1
 10
0.0
 20
0.0
 30
0.0
 70
     1
  0
VERTEX
  5
1A1
  8
LAYER_02
 10
1.227420923843864
 20
10.75277137355482
 30
0.0
 42
-0.7918918918918877
  0
VERTEX
  5
1A2
  8
LAYER_02
 10
1.968094032337161
 20
10.75277137355482
 30
0.0
  0
VERTEX
  5
1A3
  8
LAYER_02
 10
1.968094032337161
 20
9.847949089665711
 30
0.0
 42
-0.7918918918918789
  0
VERTEX
  5
1A4
  8
LAYER_02
 10
1.227420923843863
 20
9.84794908966571
 30
0.0
  0
SEQEND
  5
1A5
  8
LAYER_02
  0
POLYLINE
  5
1A6
  8
LAYER_02
 66
     1
 10
0.0
 20
0.0
 30
0.0
 70
     1
  0
VERTEX
  5
1A7
  8
LAYER_02
 10
2.18809403233716
 20
10.75277137355482
 30
0.0
 42
-0.7918918918918876
  0
VERTEX
  5
1A8
  8
LAYER_02
 10
2.928767140830458
 20
10.75277137355482
 30
0.0
  0
VERTEX
  5
1A9
  8
LAYER_02
 10
2.928767140830458
 20
9.847949089665711
 30
0.0
 42
-0.7918918918918787
  0
VERTEX
  5
1AA
  8
LAYER_02
 10
2.188094032337159
 20
9.84794908966571
 30
0.0
  0
SEQEND
  5
1AB
  8
LAYER_02
  0
POLYLINE
  5
1AC
  8
LAYER_02
 66
     1
 10
0.0
 20
0.0
 30
0.0
 70
     1
  0
VERTEX
  5
1AD
  8
LAYER_02
 10
3.148767140830456
 20
10.75277137355482
 30
0.0
 42
-0.7918918918918887
  0
VERTEX
  5
1AE
  8
LAYER_02
 10
3.889440249323751
 20
10.75277137355482
 30
0.0
  0
VERTEX
  5
1AF
  8
LAYER_02
 10
3.88944024932376
 20
9.847949089665711
 30
0.0
 42
-0.7918918918918836
  0
VERTEX
  5
1B0
  8
LAYER_02
 10
3.148767140830455
 20
9.84794908966571
 30
0.0
  0
SEQEND
  5
1B1
  8
LAYER_02
  0
POLYLINE
  5
1B2
  8
LAYER_02
 66
     1
 10
0.0
 20
0.0
 30
0.0
 70
     1
  0
VERTEX
  5
1B3
  8
LAYER_02
 10
4.109440249323759
 20
10.75277137355482
 30
0.0
 42
-0.7918918918918887
  0
VERTEX
  5
1B4
  8
LAYER_02
 10
4.850113357817054
 20
10.75277137355482
 30
0.0
  0
VERTEX
  5
1B5
  8
LAYER_02
 10
4.850113357817057
 20
9.847949089665711
 30
0.0
 42
-0.7918918918918787
  0
VERTEX
  5
1B6
  8
LAYER_02
 10
4.109440249323758
 20
9.84794908966571
 30
0.0
  0
SEQEND
  5
1B7
  8
LAYER_02
  0
POLYLINE
  5
1B8
  8
LAYER_02
 66
     1
 10
0.0
 20
0.0
 30
0.0
 70
     1
  0
VERTEX
  5
1B9
  8
LAYER_02
 10
5.070113357817055
 20
10.75277137355482
 30
0.0
 42
-0.7918918918918916
  0
VERTEX
  5
1BA
  8
LAYER_02
 10
5.810786466310346
 20
10.75277137355482
 30
0.0
  0
VERTEX
  5
1BB
  8
LAYER_02
 10
5.810786466310353
 20
9.847949089665711
 30
0.0
 42
-0.7918918918918787
  0
VERTEX
  5
1BC
  8
LAYER_02
 10
5.070113357817054
 20
9.84794908966571
 30
0.0
  0
SEQEND
  5
1BD
  8
LAYER_02
  0
POLYLINE
  5
1BE
  8
LAYER_02
 66
     1
 10
0.0
 20
0.0
 30
0.0
 70
     1
  0
VERTEX
  5
1BF
  8
LAYER_02
 10
6.030786466310358
 20
10.75277137355482
 30
0.0
 42
-0.7918918918918931
  0
VERTEX
  5
1C0
  8
LAYER_02
 10
6.771459574803649
 20
10.75277137355482
 30
0.0
  0
VERTEX
  5
1C1
  8
LAYER_02
 10
6.771459574803657
 20
9.847949089665711
 30
0.0
 42
-0.7918918918918784
  0
VERTEX
  5
1C2
  8
LAYER_02
 10
6.03078646631035
 20
9.84794908966571
 30
0.0
  0
SEQEND
  5
1C3
  8
LAYER_02
  0
POLYLINE
  5
1C4
  8
LAYER_02
 66
     1
 10
0.0
 20
0.0
 30
0.0
 70
     1
  0
VERTEX
  5
1C5
  8
LAYER_02
 10
6.991459574803654
 20
10.75277137355482
 30
0.0
 42
-0.7918918918918989
  0
VERTEX
  5
1C6
  8
LAYER_02
 10
7.732132683296945
 20
10.75277137355482
 30
0.0
  0
VERTEX
  5
1C7
  8
LAYER_02
 10
7.732132683296952
 20
9.847949089665711
 30
0.0
 42
-0.7918918918918787
  0
VERTEX
  5
1C8
  8
LAYER_02
 10
6.991459574803653
 20
9.84794908966571
 30
0.0
  0
SEQEND
  5
1C9
  8
LAYER_02
  0
POLYLINE
  5
1CA
  8
LAYER_02
 66
     1
 10
0.0
 20
0.0
 30
0.0
 70
     1
  0
VERTEX
  5
1CB
  8
LAYER_02
 10
7.95213268329695
 20
10.75277137355482
 30
0.0
 42
-0.7918918918918868
  0
VERTEX
  5
1CC
  8
LAYER_02
 10
8.692805791790246
 20
10.75277137355482
 30
0.0
  0
VERTEX
  5
1CD
  8
LAYER_02
 10
8.69280579179025
 20
9.847949089665711
 30
0.0
 42
-0.7918918918918773
  0
VERTEX
  5
1CE
  8
LAYER_02
 10
7.952132683296949
 20
9.84794908966571
 30
0.0
  0
SEQEND
  5
1CF
  8
LAYER_02
  0
POLYLINE
  5
1D0
  8
LAYER_02
 66
     1
 10
0.0
 20
0.0
 30
0.0
 70
     1
  0
VERTEX
  5
1D1
  8
LAYER_02
 10
8.912805791790246
 20
10.75277137355482
 30
0.0
 42
-0.7918918918918892
  0
VERTEX
  5
1D2
  8
LAYER_02
 10
9.653478900283545
 20
10.75277137355482
 30
0.0
  0
VERTEX
  5
1D3
  8
LAYER_02
 10
9.653478900283543
 20
9.847949089665711
 30
0.0
 42
-0.7918918918918839
  0
VERTEX
  5
1D4
  8
LAYER_02
 10
8.912805791790246
 20
9.84794908966571
 30
0.0
  0
SEQEND
  5
1D5
  8
LAYER_02
  0
POLYLINE
  5
1D6
  8
LAYER_02
 66
     1
 10
0.0
 20
0.0
 30
0.0
 70
     1
  0
VERTEX
  5
1D7
  8
LAYER_02
 10
11.19398065173914
 20
9.037241111496698
 30
0.0
 42
0.7918918918918971
  0
VERTEX
  5
1D8
  8
LAYER_02
 10
10.45330754324585
 20
9.037241111496693
 30
0.0
  0
VERTEX
  5
1D9
  8
LAYER_02
 10
10.45330754324584
 20
8.132418827607587
 30
0.0
 42
0.7918918918918858
  0
VERTEX
  5
1DA
  8
LAYER_02
 10
11.19398065173914
 20
8.132418827607585
 30
0.0
  0
SEQEND
  5
1DB
  8
LAYER_02
  0
POLYLINE
  5
1DC
  8
LAYER_02
 66
     1
 10
0.0
 20
0.0
 30
0.0
 70
     1
  0
VERTEX
  5
1DD
  8
LAYER_02
 10
11.19398065173914
 20
10.75277137355482
 30
0.0
 42
0.7918918918919015
  0
VERTEX
  5
1DE
  8
LAYER_02
 10
10.45330754324584
 20
10.75277137355482
 30
0.0
  0
VERTEX
  5
1DF
  8
LAYER_02
 10
10.45330754324584
 20
9.847949089665711
 30
0.0
 42
0.7918918918918839
  0
VERTEX
  5
1E0
  8
LAYER_02
 10
11.19398065173914
 20
9.84794908966571
 30
0.0
  0
SEQEND
  5
1E1
  8
LAYER_02
  0
POLYLINE
  5
1E2
  8
LAYER_02
 66
     1
 10
0.0
 20
0.0
 30
0.0
 70
     1
  0
VERTEX
  5
1E3
  8
LAYER_02
 10
12.15465376023243
 20
9.037241111496698
 30
0.0
 42
0.7918918918918957
  0
VERTEX
  5
1E4
  8
LAYER_02
 10
11.41398065173914
 20
9.037241111496693
 30
0.0
  0
VERTEX
  5
1E5
  8
LAYER_02
 10
11.41398065173914
 20
8.132418827607587
 30
0.0
 42
0.7918918918918858
  0
VERTEX
  5
1E6
  8
LAYER_02
 10
12.15465376023243
 20
8.132418827607585
 30
0.0
  0
SEQEND
  5
1E7
  8
LAYER_02
  0
POLYLINE
  5
1E8
  8
LAYER_02
 66
     1
 10
0.0
 20
0.0
 30
0.0
 70
     1
  0
VERTEX
  5
1E9
  8
LAYER_02
 10
12.15465376023243
 20
10.75277137355482
 30
0.0
 42
0.7918918918918887
  0
VERTEX
  5
1EA
  8
LAYER_02
 10
11.41398065173914
 20
10.75277137355482
 30
0.0
  0
VERTEX
  5
1EB
  8
LAYER_02
 10
11.41398065173914
 20
9.847949089665711
 30
0.0
 42
0.7918918918918839
  0
VERTEX
  5
1EC
  8
LAYER_02
 10
12.15465376023243
 20
9.84794908966571
 30
0.0
  0
SEQEND
  5
1ED
  8
LAYER_02
  0
POLYLINE
  5
1EE
  8
LAYER_02
 66
     1
 10
0.0
 20
0.0
 30
0.0
 70
     1
  0
VERTEX
  5
1EF
  8
LAYER_02
 10
13.11532686872573
 20
9.037241111496698
 30
0.0
 42
0.7918918918919011
  0
VERTEX
  5
1F0
  8
LAYER_02
 10
12.37465376023244
 20
9.037241111496694
 30
0.0
  0
VERTEX
  5
1F1
  8
LAYER_02
 10
12.37465376023243
 20
8.132418827607587
 30
0.0
 42
0.7918918918918858
  0
VERTEX
  5
1F2
  8
LAYER_02
 10
13.11532686872573
 20
8.132418827607585
 30
0.0
  0
SEQEND
  5
1F3
  8
LAYER_02
  0
POLYLINE
  5
1F4
  8
LAYER_02
 66
     1
 10
0.0
 20
0.0
 30
0.0
 70
     1
  0
VERTEX
  5
1F5
  8
LAYER_02
 10
13.11532686872573
 20
10.75277137355482
 30
0.0
 42
0.7918918918918917
  0
VERTEX
  5
1F6
  8
LAYER_02
 10
12.37465376023244
 20
10.75277137355482
 30
0.0
  0
VERTEX
  5
1F7
  8
LAYER_02
 10
12.37465376023243
 20
9.847949089665711
 30
0.0
 42
0.7918918918918839
  0
VERTEX
  5
1F8
  8
LAYER_02
 10
13.11532686872573
 20
9.84794908966571
 30
0.0
  0
SEQEND
  5
1F9
  8
LAYER_02
  0
POLYLINE
  5
1FA
  8
LAYER_02
 66
     1
 10
0.0
 20
0.0
 30
0.0
 70
     1
  0
VERTEX
  5
1FB
  8
LAYER_02
 10
14.07599997721903
 20
9.037241111496698
 30
0.0
 42
0.7918918918918966
  0
VERTEX
  5
1FC
  8
LAYER_02
 10
13.33532686872574
 20
9.037241111496693
 30
0.0
  0
VERTEX
  5
1FD
  8
LAYER_02
 10
13.33532686872573
 20
8.132418827607587
 30
0.0
 42
0.7918918918918847
  0
VERTEX
  5
1FE
  8
LAYER_02
 10
14.07599997721903
 20
8.132418827607585
 30
0.0
  0
SEQEND
  5
1FF
  8
LAYER_02
  0
POLYLINE
  5
200
  8
LAYER_02
 66
     1
 10
0.0
 20
0.0
 30
0.0
 70
     1
  0
VERTEX
  5
201
  8
LAYER_02
 10
14.07599997721903
 20
10.75277137355482
 30
0.0
 42
0.7918918918918926
  0
VERTEX
  5
202
  8
LAYER_02
 10
13.33532686872574
 20
10.75277137355482
 30
0.0
  0
VERTEX
  5
203
  8
LAYER_02
 10
13.33532686872573
 20
9.847949089665711
 30
0.0
 42
0.7918918918918838
  0
VERTEX
  5
204
  8
LAYER_02
 10
14.07599997721903
 20
9.84794908966571
 30
0.0
  0
SEQEND
  5
205
  8
LAYER_02
  0
POLYLINE
  5
206
  8
LAYER_02
 66
     1
 10
0.0
 20
0.0
 30
0.0
 70
     1
  0
VERTEX
  5
207
  8
LAYER_02
 10
15.03667308571233
 20
9.037241111496698
 30
0.0
 42
0.791891891891891
  0
VERTEX
  5
208
  8
LAYER_02
 10
14.29599997721903
 20
9.037241111496693
 30
0.0
  0
VERTEX
  5
209
  8
LAYER_02
 10
14.29599997721903
 20
8.132418827607587
 30
0.0
 42
0.7918918918918858
  0
VERTEX
  5
20A
  8
LAYER_02
 10
15.03667308571233
 20
8.132418827607585
 30
0.0
  0
SEQEND
  5
20B
  8
LAYER_02
  0
POLYLINE
  5
20C
  8
LAYER_02
 66
     1
 10
0.0
 20
0.0
 30
0.0
 70
     1
  0
VERTEX
  5
20D
  8
LAYER_02
 10
15.03667308571233
 20
10.75277137355482
 30
0.0
 42
0.7918918918918881
  0
VERTEX
  5
20E
  8
LAYER_02
 10
14.29599997721905
 20
10.75277137355482
 30
0.0
  0
VERTEX
  5
20F
  8
LAYER_02
 10
14.29599997721903
 20
9.847949089665711
 30
0.0
 42
0.7918918918918839
  0
VERTEX
  5
210
  8
LAYER_02
 10
15.03667308571233
 20
9.84794908966571
 30
0.0
  0
SEQEND
  5
211
  8
LAYER_02
  0
POLYLINE
  5
212
  8
LAYER_02
 66
     1
 10
0.0
 20
0.0
 30
0.0
 70
     1
  0
VERTEX
  5
213
  8
LAYER_02
 10
15.99734619420563
 20
9.037241111496698
 30
0.0
 42
0.7918918918918868
  0
VERTEX
  5
214
  8
LAYER_02
 10
15.25667308571233
 20
9.037241111496693
 30
0.0
  0
VERTEX
  5
215
  8
LAYER_02
 10
15.25667308571233
 20
8.132418827607587
 30
0.0
 42
0.7918918918918858
  0
VERTEX
  5
216
  8
LAYER_02
 10
15.99734619420563
 20
8.132418827607585
 30
0.0
  0
SEQEND
  5
217
  8
LAYER_02
  0
POLYLINE
  5
218
  8
LAYER_02
 66
     1
 10
0.0
 20
0.0
 30
0.0
 70
     1
  0
VERTEX
  5
219
  8
LAYER_02
 10
15.99734619420563
 20
10.75277137355482
 30
0.0
 42
0.7918918918918953
  0
VERTEX
  5
21A
  8
LAYER_02
 10
15.25667308571233
 20
10.75277137355482
 30
0.0
  0
VERTEX
  5
21B
  8
LAYER_02
 10
15.25667308571233
 20
9.847949089665711
 30
0.0
 42
0.7918918918918839
  0
VERTEX
  5
21C
  8
LAYER_02
 10
15.99734619420563
 20
9.84794908966571
 30
0.0
  0
SEQEND
  5
21D
  8
LAYER_02
  0
POLYLINE
  5
21E
  8
LAYER_02
 66
     1
 10
0.0
 20
0.0
 30
0.0
 70
     1
  0
VERTEX
  5
21F
  8
LAYER_02
 10
16.95801930269893
 20
9.037241111496698
 30
0.0
 42
0.7918918918918936
  0
VERTEX
  5
220
  8
LAYER_02
 10
16.21734619420564
 20
9.037241111496693
 30
0.0
  0
VERTEX
  5
221
  8
LAYER_02
 10
16.21734619420562
 20
8.132418827607587
 30
0.0
 42
0.7918918918918818
  0
VERTEX
  5
222
  8
LAYER_02
 10
16.95801930269893
 20
8.132418827607585
 30
0.0
  0
SEQEND
  5
223
  8
LAYER_02
  0
POLYLINE
  5
224
  8
LAYER_02
 66
     1
 10
0.0
 20
0.0
 30
0.0
 70
     1
  0
VERTEX
  5
225
  8
LAYER_02
 10
16.95801930269893
 20
10.75277137355482
 30
0.0
 42
0.7918918918918936
  0
VERTEX
  5
226
  8
LAYER_02
 10
16.21734619420564
 20
10.75277137355482
 30
0.0
  0
VERTEX
  5
227
  8
LAYER_02
 10
16.21734619420562
 20
9.847949089665711
 30
0.0
 42
0.7918918918918865
  0
VERTEX
  5
228
  8
LAYER_02
 10
16.95801930269893
 20
9.84794908966571
 30
0.0
  0
SEQEND
  5
229
  8
LAYER_02
  0
POLYLINE
  5
22A
  8
LAYER_02
 66
     1
 10
0.0
 20
0.0
 30
0.0
 70
     1
  0
VERTEX
  5
22B
  8
LAYER_02
 10
17.91869241119223
 20
9.037241111496698
 30
0.0
 42
0.7918918918918809
  0
VERTEX
  5
22C
  8
LAYER_02
 10
17.17801930269892
 20
9.037241111496694
 30
0.0
  0
VERTEX
  5
22D
  8
LAYER_02
 10
17.17801930269893
 20
8.132418827607587
 30
0.0
 42
0.7918918918918858
  0
VERTEX
  5
22E
  8
LAYER_02
 10
17.91869241119223
 20
8.132418827607585
 30
0.0
  0
SEQEND
  5
22F
  8
LAYER_02
  0
POLYLINE
  5
230
  8
LAYER_02
 66
     1
 10
0.0
 20
0.0
 30
0.0
 70
     1
  0
VERTEX
  5
231
  8
LAYER_02
 10
17.91869241119223
 20
10.75277137355482
 30
0.0
 42
0.7918918918918821
  0
VERTEX
  5
232
  8
LAYER_02
 10
17.17801930269893
 20
10.75277137355482
 30
0.0
  0
VERTEX
  5
233
  8
LAYER_02
 10
17.17801930269893
 20
9.847949089665711
 30
0.0
 42
0.7918918918918839
  0
VERTEX
  5
234
  8
LAYER_02
 10
17.91869241119223
 20
9.84794908966571
 30
0.0
  0
SEQEND
  5
235
  8
LAYER_02
  0
POLYLINE
  5
236
  8
LAYER_02
 66
     1
 10
0.0
 20
0.0
 30
0.0
 70
     1
  0
VERTEX
  5
237
  8
LAYER_02
 10
18.87936551968552
 20
9.037241111496698
 30
0.0
 42
0.7918918918918812
  0
VERTEX
  5
238
  8
LAYER_02
 10
18.13869241119222
 20
9.037241111496693
 30
0.0
  0
VERTEX
  5
239
  8
LAYER_02
 10
18.13869241119222
 20
8.132418827607587
 30
0.0
 42
0.7918918918918858
  0
VERTEX
  5
23A
  8
LAYER_02
 10
18.87936551968552
 20
8.132418827607585
 30
0.0
  0
SEQEND
  5
23B
  8
LAYER_02
  0
POLYLINE
  5
23C
  8
LAYER_02
 66
     1
 10
0.0
 20
0.0
 30
0.0
 70
     1
  0
VERTEX
  5
23D
  8
LAYER_02
 10
18.87936551968552
 20
10.75277137355482
 30
0.0
 42
0.791891891891883
  0
VERTEX
  5
23E
  8
LAYER_02
 10
18.13869241119222
 20
10.75277137355482
 30
0.0
  0
VERTEX
  5
23F
  8
LAYER_02
 10
18.13869241119222
 20
9.847949089665711
 30
0.0
 42
0.7918918918918839
  0
VERTEX
  5
240
  8
LAYER_02
 10
18.87936551968552
 20
9.84794908966571
 30
0.0
  0
SEQEND
  5
241
  8
LAYER_02
  0
POLYLINE
  5
242
  8
LAYER_02
 66
     1
 10
0.0
 20
0.0
 30
0.0
 70
     1
  0
VERTEX
  5
243
  8
LAYER_02
 10
18.87936551968552
 20
2.858352888465646
 30
0.0
 42
-0.7918918918918965
  0
VERTEX
  5
244
  8
LAYER_02
 10
18.13869241119221
 20
2.85835288846565
 30
0.0
  0
VERTEX
  5
245
  8
LAYER_02
 10
18.13869241119222
 20
3.763175172354757
 30
0.0
 42
-0.7918918918918988
  0
VERTEX
  5
246
  8
LAYER_02
 10
18.87936551968552
 20
3.763175172354757
 30
0.0
  0
SEQEND
  5
247
  8
LAYER_02
  0
POLYLINE
  5
248
  8
LAYER_02
 66
     1
 10
0.0
 20
0.0
 30
0.0
 70
     1
  0
VERTEX
  5
249
  8
LAYER_02
 10
17.91869241119223
 20
1.142822626407522
 30
0.0
 42
-0.7918918918918983
  0
VERTEX
  5
24A
  8
LAYER_02
 10
17.17801930269892
 20
1.142822626407526
 30
0.0
  0
VERTEX
  5
24B
  8
LAYER_02
 10
17.17801930269893
 20
2.047644910296633
 30
0.0
 42
-0.7918918918918993
  0
VERTEX
  5
24C
  8
LAYER_02
 10
17.91869241119223
 20
2.047644910296633
 30
0.0
  0
SEQEND
  5
24D
  8
LAYER_02
  0
POLYLINE
  5
24E
  8
LAYER_02
 66
     1
 10
0.0
 20
0.0
 30
0.0
 70
     1
  0
VERTEX
  5
24F
  8
LAYER_02
 10
17.91869241119223
 20
2.858352888465646
 30
0.0
 42
-0.7918918918918988
  0
VERTEX
  5
250
  8
LAYER_02
 10
17.17801930269892
 20
2.858352888465652
 30
0.0
  0
VERTEX
  5
251
  8
LAYER_02
 10
17.17801930269893
 20
3.763175172354757
 30
0.0
 42
-0.7918918918918988
  0
VERTEX
  5
252
  8
LAYER_02
 10
17.91869241119223
 20
3.763175172354757
 30
0.0
  0
SEQEND
  5
253
  8
LAYER_02
  0
POLYLINE
  5
254
  8
LAYER_02
 66
     1
 10
0.0
 20
0.0
 30
0.0
 70
     1
  0
VERTEX
  5
255
  8
LAYER_02
 10
16.95801930269893
 20
1.142822626407522
 30
0.0
 42
-0.791891891891894
  0
VERTEX
  5
256
  8
LAYER_02
 10
16.21734619420563
 20
1.142822626407527
 30
0.0
  0
VERTEX
  5
257
  8
LAYER_02
 10
16.21734619420562
 20
2.047644910296633
 30
0.0
 42
-0.791891891891896
  0
VERTEX
  5
258
  8
LAYER_02
 10
16.95801930269893
 20
2.047644910296633
 30
0.0
  0
SEQEND
  5
259
  8
LAYER_02
  0
POLYLINE
  5
25A
  8
LAYER_02
 66
     1
 10
0.0
 20
0.0
 30
0.0
 70
     1
  0
VERTEX
  5
25B
  8
LAYER_02
 10
16.95801930269893
 20
2.858352888465646
 30
0.0
 42
-0.7918918918919028
  0
VERTEX
  5
25C
  8
LAYER_02
 10
16.21734619420564
 20
2.858352888465653
 30
0.0
  0
VERTEX
  5
25D
  8
LAYER_02
 10
16.21734619420562
 20
3.763175172354757
 30
0.0
 42
-0.7918918918918959
  0
VERTEX
  5
25E
  8
LAYER_02
 10
16.95801930269893
 20
3.763175172354757
 30
0.0
  0
SEQEND
  5
25F
  8
LAYER_02
  0
POLYLINE
  5
260
  8
LAYER_02
 66
     1
 10
0.0
 20
0.0
 30
0.0
 70
     1
  0
VERTEX
  5
261
  8
LAYER_02
 10
15.99734619420563
 20
1.142822626407522
 30
0.0
 42
-0.7918918918918922
  0
VERTEX
  5
262
  8
LAYER_02
 10
15.25667308571233
 20
1.142822626407526
 30
0.0
  0
VERTEX
  5
263
  8
LAYER_02
 10
15.25667308571233
 20
2.047644910296633
 30
0.0
 42
-0.7918918918918993
  0
VERTEX
  5
264
  8
LAYER_02
 10
15.99734619420563
 20
2.047644910296633
 30
0.0
  0
SEQEND
  5
265
  8
LAYER_02
  0
POLYLINE
  5
266
  8
LAYER_02
 66
     1
 10
0.0
 20
0.0
 30
0.0
 70
     1
  0
VERTEX
  5
267
  8
LAYER_02
 10
15.99734619420563
 20
2.858352888465646
 30
0.0
 42
-0.7918918918918999
  0
VERTEX
  5
268
  8
LAYER_02
 10
15.25667308571233
 20
2.858352888465652
 30
0.0
  0
VERTEX
  5
269
  8
LAYER_02
 10
15.25667308571233
 20
3.763175172354757
 30
0.0
 42
-0.7918918918918988
  0
VERTEX
  5
26A
  8
LAYER_02
 10
15.99734619420563
 20
3.763175172354757
 30
0.0
  0
SEQEND
  5
26B
  8
LAYER_02
  0
POLYLINE
  5
26C
  8
LAYER_02
 66
     1
 10
0.0
 20
0.0
 30
0.0
 70
     1
  0
VERTEX
  5
26D
  8
LAYER_02
 10
15.03667308571233
 20
1.142822626407522
 30
0.0
 42
-0.7918918918918969
  0
VERTEX
  5
26E
  8
LAYER_02
 10
14.29599997721903
 20
1.142822626407526
 30
0.0
  0
VERTEX
  5
26F
  8
LAYER_02
 10
14.29599997721903
 20
2.047644910296633
 30
0.0
 42
-0.7918918918918993
  0
VERTEX
  5
270
  8
LAYER_02
 10
15.03667308571233
 20
2.047644910296633
 30
0.0
  0
SEQEND
  5
271
  8
LAYER_02
  0
POLYLINE
  5
272
  8
LAYER_02
 66
     1
 10
0.0
 20
0.0
 30
0.0
 70
     1
  0
VERTEX
  5
273
  8
LAYER_02
 10
15.03667308571233
 20
2.858352888465646
 30
0.0
 42
-0.7918918918918975
  0
VERTEX
  5
274
  8
LAYER_02
 10
14.29599997721903
 20
2.858352888465652
 30
0.0
  0
VERTEX
  5
275
  8
LAYER_02
 10
14.29599997721903
 20
3.763175172354757
 30
0.0
 42
-0.7918918918918988
  0
VERTEX
  5
276
  8
LAYER_02
 10
15.03667308571233
 20
3.763175172354757
 30
0.0
  0
SEQEND
  5
277
  8
LAYER_02
  0
POLYLINE
  5
278
  8
LAYER_02
 66
     1
 10
0.0
 20
0.0
 30
0.0
 70
     1
  0
VERTEX
  5
279
  8
LAYER_02
 10
14.07599997721903
 20
1.142822626407522
 30
0.0
 42
-0.7918918918919023
  0
VERTEX
  5
27A
  8
LAYER_02
 10
13.33532686872573
 20
1.142822626407527
 30
0.0
  0
VERTEX
  5
27B
  8
LAYER_02
 10
13.33532686872573
 20
2.047644910296633
 30
0.0
 42
-0.7918918918919015
  0
VERTEX
  5
27C
  8
LAYER_02
 10
14.07599997721903
 20
2.047644910296633
 30
0.0
  0
SEQEND
  5
27D
  8
LAYER_02
  0
POLYLINE
  5
27E
  8
LAYER_02
 66
     1
 10
0.0
 20
0.0
 30
0.0
 70
     1
  0
VERTEX
  5
27F
  8
LAYER_02
 10
14.07599997721903
 20
2.858352888465646
 30
0.0
 42
-0.7918918918919083
  0
VERTEX
  5
280
  8
LAYER_02
 10
13.33532686872574
 20
2.858352888465652
 30
0.0
  0
VERTEX
  5
281
  8
LAYER_02
 10
13.33532686872573
 20
3.763175172354757
 30
0.0
 42
-0.7918918918918988
  0
VERTEX
  5
282
  8
LAYER_02
 10
14.07599997721903
 20
3.763175172354757
 30
0.0
  0
SEQEND
  5
283
  8
LAYER_02
  0
POLYLINE
  5
284
  8
LAYER_02
 66
     1
 10
0.0
 20
0.0
 30
0.0
 70
     1
  0
VERTEX
  5
285
  8
LAYER_02
 10
13.11532686872573
 20
1.142822626407522
 30
0.0
 42
-0.7918918918919061
  0
VERTEX
  5
286
  8
LAYER_02
 10
12.37465376023243
 20
1.142822626407526
 30
0.0
  0
VERTEX
  5
287
  8
LAYER_02
 10
12.37465376023243
 20
2.047644910296633
 30
0.0
 42
-0.7918918918918993
  0
VERTEX
  5
288
  8
LAYER_02
 10
13.11532686872573
 20
2.047644910296633
 30
0.0
  0
SEQEND
  5
289
  8
LAYER_02
  0
POLYLINE
  5
28A
  8
LAYER_02
 66
     1
 10
0.0
 20
0.0
 30
0.0
 70
     1
  0
VERTEX
  5
28B
  8
LAYER_02
 10
13.11532686872573
 20
2.858352888465646
 30
0.0
 42
-0.7918918918919086
  0
VERTEX
  5
28C
  8
LAYER_02
 10
12.37465376023244
 20
2.85835288846565
 30
0.0
  0
VERTEX
  5
28D
  8
LAYER_02
 10
12.37465376023243
 20
3.763175172354757
 30
0.0
 42
-0.7918918918918988
  0
VERTEX
  5
28E
  8
LAYER_02
 10
13.11532686872573
 20
3.763175172354757
 30
0.0
  0
SEQEND
  5
28F
  8
LAYER_02
  0
POLYLINE
  5
290
  8
LAYER_02
 66
     1
 10
0.0
 20
0.0
 30
0.0
 70
     1
  0
VERTEX
  5
291
  8
LAYER_02
 10
12.15465376023243
 20
1.142822626407522
 30
0.0
 42
-0.7918918918918969
  0
VERTEX
  5
292
  8
LAYER_02
 10
11.41398065173913
 20
1.142822626407526
 30
0.0
  0
VERTEX
  5
293
  8
LAYER_02
 10
11.41398065173914
 20
2.047644910296633
 30
0.0
 42
-0.7918918918918993
  0
VERTEX
  5
294
  8
LAYER_02
 10
12.15465376023243
 20
2.047644910296633
 30
0.0
  0
SEQEND
  5
295
  8
LAYER_02
  0
POLYLINE
  5
296
  8
LAYER_02
 66
     1
 10
0.0
 20
0.0
 30
0.0
 70
     1
  0
VERTEX
  5
297
  8
LAYER_02
 10
12.15465376023243
 20
2.858352888465646
 30
0.0
 42
-0.7918918918918993
  0
VERTEX
  5
298
  8
LAYER_02
 10
11.41398065173913
 20
2.858352888465651
 30
0.0
  0
VERTEX
  5
299
  8
LAYER_02
 10
11.41398065173914
 20
3.763175172354757
 30
0.0
 42
-0.7918918918918988
  0
VERTEX
  5
29A
  8
LAYER_02
 10
12.15465376023243
 20
3.763175172354757
 30
0.0
  0
SEQEND
  5
29B
  8
LAYER_02
  0
POLYLINE
  5
29C
  8
LAYER_02
 66
     1
 10
0.0
 20
0.0
 30
0.0
 70
     1
  0
VERTEX
  5
29D
  8
LAYER_02
 10
11.19398065173914
 20
1.142822626407522
 30
0.0
 42
-0.7918918918919028
  0
VERTEX
  5
29E
  8
LAYER_02
 10
10.45330754324584
 20
1.142822626407527
 30
0.0
  0
VERTEX
  5
29F
  8
LAYER_02
 10
10.45330754324584
 20
2.047644910296633
 30
0.0
 42
-0.7918918918918993
  0
VERTEX
  5
2A0
  8
LAYER_02
 10
11.19398065173914
 20
2.047644910296633
 30
0.0
  0
SEQEND
  5
2A1
  8
LAYER_02
  0
POLYLINE
  5
2A2
  8
LAYER_02
 66
     1
 10
0.0
 20
0.0
 30
0.0
 70
     1
  0
VERTEX
  5
2A3
  8
LAYER_02
 10
11.19398065173914
 20
2.858352888465646
 30
0.0
 42
-0.7918918918919092
  0
VERTEX
  5
2A4
  8
LAYER_02
 10
10.45330754324584
 20
2.858352888465651
 30
0.0
  0
VERTEX
  5
2A5
  8
LAYER_02
 10
10.45330754324584
 20
3.763175172354757
 30
0.0
 42
-0.7918918918918988
  0
VERTEX
  5
2A6
  8
LAYER_02
 10
11.19398065173914
 20
3.763175172354757
 30
0.0
  0
SEQEND
  5
2A7
  8
LAYER_02
  0
POLYLINE
  5
2A8
  8
LAYER_02
 66
     1
 10
0.0
 20
0.0
 30
0.0
 70
     1
  0
VERTEX
  5
2A9
  8
LAYER_02
 10
8.912805791790246
 20
2.858352888465646
 30
0.0
 42
0.7918918918919009
  0
VERTEX
  5
2AA
  8
LAYER_02
 10
9.653478900283547
 20
2.858352888465651
 30
0.0
  0
VERTEX
  5
2AB
  8
LAYER_02
 10
9.653478900283543
 20
3.763175172354757
 30
0.0
 42
0.7918918918918988
  0
VERTEX
  5
2AC
  8
LAYER_02
 10
8.912805791790246
 20
3.763175172354757
 30
0.0
  0
SEQEND
  5
2AD
  8
LAYER_02
  0
POLYLINE
  5
2AE
  8
LAYER_02
 66
     1
 10
0.0
 20
0.0
 30
0.0
 70
     1
  0
VERTEX
  5
2AF
  8
LAYER_02
 10
8.912805791790246
 20
1.142822626407522
 30
0.0
 42
0.7918918918918957
  0
VERTEX
  5
2B0
  8
LAYER_02
 10
9.653478900283545
 20
1.142822626407527
 30
0.0
  0
VERTEX
  5
2B1
  8
LAYER_02
 10
9.653478900283543
 20
2.047644910296633
 30
0.0
 42
0.7918918918918993
  0
VERTEX
  5
2B2
  8
LAYER_02
 10
8.912805791790246
 20
2.047644910296633
 30
0.0
  0
SEQEND
  5
2B3
  8
LAYER_02
  0
POLYLINE
  5
2B4
  8
LAYER_02
 66
     1
 10
0.0
 20
0.0
 30
0.0
 70
     1
  0
VERTEX
  5
2B5
  8
LAYER_02
 10
7.95213268329695
 20
2.858352888465646
 30
0.0
 42
0.7918918918919002
  0
VERTEX
  5
2B6
  8
LAYER_02
 10
8.69280579179025
 20
2.858352888465651
 30
0.0
  0
VERTEX
  5
2B7
  8
LAYER_02
 10
8.692805791790247
 20
3.763175172354757
 30
0.0
 42
0.7918918918918939
  0
VERTEX
  5
2B8
  8
LAYER_02
 10
7.952132683296949
 20
3.763175172354757
 30
0.0
  0
SEQEND
  5
2B9
  8
LAYER_02
  0
POLYLINE
  5
2BA
  8
LAYER_02
 66
     1
 10
0.0
 20
0.0
 30
0.0
 70
     1
  0
VERTEX
  5
2BB
  8
LAYER_02
 10
7.95213268329695
 20
1.142822626407522
 30
0.0
 42
0.791891891891896
  0
VERTEX
  5
2BC
  8
LAYER_02
 10
8.692805791790247
 20
1.142822626407527
 30
0.0
  0
VERTEX
  5
2BD
  8
LAYER_02
 10
8.692805791790247
 20
2.047644910296633
 30
0.0
 42
0.791891891891894
  0
VERTEX
  5
2BE
  8
LAYER_02
 10
7.952132683296949
 20
2.047644910296633
 30
0.0
  0
SEQEND
  5
2BF
  8
LAYER_02
  0
POLYLINE
  5
2C0
  8
LAYER_02
 66
     1
 10
0.0
 20
0.0
 30
0.0
 70
     1
  0
VERTEX
  5
2C1
  8
LAYER_02
 10
6.991459574803654
 20
2.858352888465646
 30
0.0
 42
0.7918918918919058
  0
VERTEX
  5
2C2
  8
LAYER_02
 10
7.732132683296946
 20
2.858352888465652
 30
0.0
  0
VERTEX
  5
2C3
  8
LAYER_02
 10
7.732132683296952
 20
3.763175172354757
 30
0.0
 42
0.7918918918918951
  0
VERTEX
  5
2C4
  8
LAYER_02
 10
6.991459574803653
 20
3.763175172354757
 30
0.0
  0
SEQEND
  5
2C5
  8
LAYER_02
  0
POLYLINE
  5
2C6
  8
LAYER_02
 66
     1
 10
0.0
 20
0.0
 30
0.0
 70
     1
  0
VERTEX
  5
2C7
  8
LAYER_02
 10
6.991459574803654
 20
1.142822626407522
 30
0.0
 42
0.7918918918919028
  0
VERTEX
  5
2C8
  8
LAYER_02
 10
7.732132683296943
 20
1.142822626407527
 30
0.0
  0
VERTEX
  5
2C9
  8
LAYER_02
 10
7.732132683296952
 20
2.047644910296633
 30
0.0
 42
0.7918918918918945
  0
VERTEX
  5
2CA
  8
LAYER_02
 10
6.991459574803653
 20
2.047644910296633
 30
0.0
  0
SEQEND
  5
2CB
  8
LAYER_02
  0
POLYLINE
  5
2CC
  8
LAYER_02
 66
     1
 10
0.0
 20
0.0
 30
0.0
 70
     1
  0
VERTEX
  5
2CD
  8
LAYER_02
 10
6.030786466310358
 20
2.858352888465646
 30
0.0
 42
0.7918918918919061
  0
VERTEX
  5
2CE
  8
LAYER_02
 10
6.77145957480365
 20
2.858352888465652
 30
0.0
  0
VERTEX
  5
2CF
  8
LAYER_02
 10
6.771459574803656
 20
3.763175172354757
 30
0.0
 42
0.791891891891895
  0
VERTEX
  5
2D0
  8
LAYER_02
 10
6.03078646631035
 20
3.763175172354757
 30
0.0
  0
SEQEND
  5
2D1
  8
LAYER_02
  0
POLYLINE
  5
2D2
  8
LAYER_02
 66
     1
 10
0.0
 20
0.0
 30
0.0
 70
     1
  0
VERTEX
  5
2D3
  8
LAYER_02
 10
6.030786466310358
 20
1.142822626407522
 30
0.0
 42
0.7918918918919022
  0
VERTEX
  5
2D4
  8
LAYER_02
 10
6.771459574803649
 20
1.142822626407527
 30
0.0
  0
VERTEX
  5
2D5
  8
LAYER_02
 10
6.771459574803656
 20
2.047644910296633
 30
0.0
 42
0.7918918918918951
  0
VERTEX
  5
2D6
  8
LAYER_02
 10
6.03078646631035
 20
2.047644910296633
 30
0.0
  0
SEQEND
  5
2D7
  8
LAYER_02
  0
POLYLINE
  5
2D8
  8
LAYER_02
 66
     1
 10
0.0
 20
0.0
 30
0.0
 70
     1
  0
VERTEX
  5
2D9
  8
LAYER_02
 10
5.070113357817055
 20
2.858352888465646
 30
0.0
 42
0.7918918918919022
  0
VERTEX
  5
2DA
  8
LAYER_02
 10
5.81078646631035
 20
2.858352888465652
 30
0.0
  0
VERTEX
  5
2DB
  8
LAYER_02
 10
5.810786466310353
 20
3.763175172354757
 30
0.0
 42
0.7918918918918951
  0
VERTEX
  5
2DC
  8
LAYER_02
 10
5.070113357817054
 20
3.763175172354757
 30
0.0
  0
SEQEND
  5
2DD
  8
LAYER_02
  0
POLYLINE
  5
2DE
  8
LAYER_02
 66
     1
 10
0.0
 20
0.0
 30
0.0
 70
     1
  0
VERTEX
  5
2DF
  8
LAYER_02
 10
5.070113357817055
 20
1.142822626407522
 30
0.0
 42
0.7918918918918993
  0
VERTEX
  5
2E0
  8
LAYER_02
 10
5.81078646631035
 20
1.142822626407527
 30
0.0
  0
VERTEX
  5
2E1
  8
LAYER_02
 10
5.810786466310353
 20
2.047644910296633
 30
0.0
 42
0.7918918918918945
  0
VERTEX
  5
2E2
  8
LAYER_02
 10
5.070113357817054
 20
2.047644910296633
 30
0.0
  0
SEQEND
  5
2E3
  8
LAYER_02
  0
POLYLINE
  5
2E4
  8
LAYER_02
 66
     1
 10
0.0
 20
0.0
 30
0.0
 70
     1
  0
VERTEX
  5
2E5
  8
LAYER_02
 10
4.109440249323759
 20
2.858352888465646
 30
0.0
 42
0.7918918918918995
  0
VERTEX
  5
2E6
  8
LAYER_02
 10
4.850113357817055
 20
2.858352888465652
 30
0.0
  0
VERTEX
  5
2E7
  8
LAYER_02
 10
4.850113357817057
 20
3.763175172354757
 30
0.0
 42
0.7918918918918951
  0
VERTEX
  5
2E8
  8
LAYER_02
 10
4.109440249323758
 20
3.763175172354757
 30
0.0
  0
SEQEND
  5
2E9
  8
LAYER_02
  0
POLYLINE
  5
2EA
  8
LAYER_02
 66
     1
 10
0.0
 20
0.0
 30
0.0
 70
     1
  0
VERTEX
  5
2EB
  8
LAYER_02
 10
4.109440249323759
 20
1.142822626407522
 30
0.0
 42
0.7918918918918986
  0
VERTEX
  5
2EC
  8
LAYER_02
 10
4.850113357817054
 20
1.142822626407527
 30
0.0
  0
VERTEX
  5
2ED
  8
LAYER_02
 10
4.850113357817057
 20
2.047644910296633
 30
0.0
 42
0.7918918918918945
  0
VERTEX
  5
2EE
  8
LAYER_02
 10
4.109440249323758
 20
2.047644910296633
 30
0.0
  0
SEQEND
  5
2EF
  8
LAYER_02
  0
POLYLINE
  5
2F0
  8
LAYER_02
 66
     1
 10
0.0
 20
0.0
 30
0.0
 70
     1
  0
VERTEX
  5
2F1
  8
LAYER_02
 10
3.148767140830456
 20
2.858352888465646
 30
0.0
 42
0.7918918918919009
  0
VERTEX
  5
2F2
  8
LAYER_02
 10
3.889440249323753
 20
2.858352888465652
 30
0.0
  0
VERTEX
  5
2F3
  8
LAYER_02
 10
3.889440249323759
 20
3.763175172354757
 30
0.0
 42
0.791891891891896
  0
VERTEX
  5
2F4
  8
LAYER_02
 10
3.148767140830455
 20
3.763175172354757
 30
0.0
  0
SEQEND
  5
2F5
  8
LAYER_02
  0
POLYLINE
  5
2F6
  8
LAYER_02
 66
     1
 10
0.0
 20
0.0
 30
0.0
 70
     1
  0
VERTEX
  5
2F7
  8
LAYER_02
 10
3.148767140830456
 20
1.142822626407522
 30
0.0
 42
0.7918918918918975
  0
VERTEX
  5
2F8
  8
LAYER_02
 10
3.889440249323753
 20
1.142822626407527
 30
0.0
  0
VERTEX
  5
2F9
  8
LAYER_02
 10
3.889440249323759
 20
2.047644910296632
 30
0.0
 42
0.7918918918918966
  0
VERTEX
  5
2FA
  8
LAYER_02
 10
3.148767140830455
 20
2.047644910296633
 30
0.0
  0
SEQEND
  5
2FB
  8
LAYER_02
  0
POLYLINE
  5
2FC
  8
LAYER_02
 66
     1
 10
0.0
 20
0.0
 30
0.0
 70
     1
  0
VERTEX
  5
2FD
  8
LAYER_02
 10
2.18809403233716
 20
2.858352888465646
 30
0.0
 42
0.7918918918918997
  0
VERTEX
  5
2FE
  8
LAYER_02
 10
2.928767140830459
 20
2.858352888465652
 30
0.0
  0
VERTEX
  5
2FF
  8
LAYER_02
 10
2.928767140830457
 20
3.763175172354757
 30
0.0
 42
0.7918918918918971
  0
VERTEX
  5
300
  8
LAYER_02
 10
2.188094032337159
 20
3.763175172354757
 30
0.0
  0
SEQEND
  5
301
  8
LAYER_02
  0
POLYLINE
  5
302
  8
LAYER_02
 66
     1
 10
0.0
 20
0.0
 30
0.0
 70
     1
  0
VERTEX
  5
303
  8
LAYER_02
 10
2.18809403233716
 20
1.142822626407522
 30
0.0
 42
0.7918918918918946
  0
VERTEX
  5
304
  8
LAYER_02
 10
2.928767140830458
 20
1.142822626407527
 30
0.0
  0
VERTEX
  5
305
  8
LAYER_02
 10
2.928767140830457
 20
2.047644910296633
 30
0.0
 42
0.7918918918918965
  0
VERTEX
  5
306
  8
LAYER_02
 10
2.188094032337159
 20
2.047644910296633
 30
0.0
  0
SEQEND
  5
307
  8
LAYER_02
  0
POLYLINE
  5
308
  8
LAYER_02
 66
     1
 10
0.0
 20
0.0
 30
0.0
 70
     1
  0
VERTEX
  5
309
  8
LAYER_02
 10
1.227420923843864
 20
2.858352888465646
 30
0.0
 42
0.7918918918918969
  0
VERTEX
  5
30A
  8
LAYER_02
 10
1.968094032337163
 20
2.858352888465652
 30
0.0
  0
VERTEX
  5
30B
  8
LAYER_02
 10
1.968094032337161
 20
3.763175172354757
 30
0.0
 42
0.7918918918918975
  0
VERTEX
  5
30C
  8
LAYER_02
 10
1.227420923843863
 20
3.763175172354757
 30
0.0
  0
SEQEND
  5
30D
  8
LAYER_02
  0
POLYLINE
  5
30E
  8
LAYER_02
 66
     1
 10
0.0
 20
0.0
 30
0.0
 70
     1
  0
VERTEX
  5
30F
  8
LAYER_02
 10
1.227420923843864
 20
1.142822626407522
 30
0.0
 42
0.791891891891895
  0
VERTEX
  5
310
  8
LAYER_02
 10
1.968094032337164
 20
1.142822626407527
 30
0.0
  0
VERTEX
  5
311
  8
LAYER_02
 10
1.968094032337161
 20
2.047644910296633
 30
0.0
 42
0.7918918918918965
  0
VERTEX
  5
312
  8
LAYER_02
 10
1.227420923843863
 20
2.047644910296633
 30
0.0
  0
SEQEND
  5
313
  8
LAYER_02
  0
POLYLINE
  5
314
  8
LAYER_02
 66
     1
 10
0.0
 20
0.0
 30
0.0
 70
     1
  0
VERTEX
  5
315
  8
LAYER_02
 10
18.87936551968552
 20
4.549708201512956
 30
0.0
 42
-0.7918918918919046
  0
VERTEX
  5
316
  8
LAYER_02
 10
18.13869241119222
 20
4.549708201512962
 30
0.0
  0
VERTEX
  5
317
  8
LAYER_02
 10
18.13869241119222
 20
5.454530485402067
 30
0.0
 42
-0.7918918918918988
  0
VERTEX
  5
318
  8
LAYER_02
 10
18.87936551968552
 20
5.454530485402067
 30
0.0
  0
SEQEND
  5
319
  8
LAYER_02
  0
POLYLINE
  5
31A
  8
LAYER_02
 66
     1
 10
0.0
 20
0.0
 30
0.0
 70
     1
  0
VERTEX
  5
31B
  8
LAYER_02
 10
17.91869241119222
 20
4.549708201512956
 30
0.0
 42
-0.7918918918918919
  0
VERTEX
  5
31C
  8
LAYER_02
 10
17.17801930269893
 20
4.549708201512964
 30
0.0
  0
VERTEX
  5
31D
  8
LAYER_02
 10
17.17801930269892
 20
5.454530485402067
 30
0.0
 42
-0.7918918918918988
  0
VERTEX
  5
31E
  8
LAYER_02
 10
17.91869241119222
 20
5.454530485402067
 30
0.0
  0
SEQEND
  5
31F
  8
LAYER_02
  0
POLYLINE
  5
320
  8
LAYER_02
 66
     1
 10
0.0
 20
0.0
 30
0.0
 70
     1
  0
VERTEX
  5
321
  8
LAYER_02
 10
16.95801930269893
 20
4.549708201512956
 30
0.0
 42
-0.791891891891911
  0
VERTEX
  5
322
  8
LAYER_02
 10
16.21734619420563
 20
4.549708201512961
 30
0.0
  0
VERTEX
  5
323
  8
LAYER_02
 10
16.21734619420562
 20
5.454530485402067
 30
0.0
 42
-0.7918918918919006
  0
VERTEX
  5
324
  8
LAYER_02
 10
16.95801930269893
 20
5.454530485402067
 30
0.0
  0
SEQEND
  5
325
  8
LAYER_02
  0
POLYLINE
  5
326
  8
LAYER_02
 66
     1
 10
0.0
 20
0.0
 30
0.0
 70
     1
  0
VERTEX
  5
327
  8
LAYER_02
 10
15.99734619420562
 20
4.549708201512956
 30
0.0
 42
-0.7918918918919043
  0
VERTEX
  5
328
  8
LAYER_02
 10
15.25667308571233
 20
4.549708201512961
 30
0.0
  0
VERTEX
  5
329
  8
LAYER_02
 10
15.25667308571233
 20
5.454530485402067
 30
0.0
 42
-0.7918918918918988
  0
VERTEX
  5
32A
  8
LAYER_02
 10
15.99734619420562
 20
5.454530485402067
 30
0.0
  0
SEQEND
  5
32B
  8
LAYER_02
  0
POLYLINE
  5
32C
  8
LAYER_02
 66
     1
 10
0.0
 20
0.0
 30
0.0
 70
     1
  0
VERTEX
  5
32D
  8
LAYER_02
 10
15.03667308571233
 20
4.549708201512956
 30
0.0
 42
-0.7918918918919051
  0
VERTEX
  5
32E
  8
LAYER_02
 10
14.29599997721904
 20
4.549708201512962
 30
0.0
  0
VERTEX
  5
32F
  8
LAYER_02
 10
14.29599997721903
 20
5.454530485402067
 30
0.0
 42
-0.7918918918918988
  0
VERTEX
  5
330
  8
LAYER_02
 10
15.03667308571233
 20
5.454530485402067
 30
0.0
  0
SEQEND
  5
331
  8
LAYER_02
  0
POLYLINE
  5
332
  8
LAYER_02
 66
     1
 10
0.0
 20
0.0
 30
0.0
 70
     1
  0
VERTEX
  5
333
  8
LAYER_02
 10
14.07599997721902
 20
4.549708201512956
 30
0.0
 42
-0.7918918918919051
  0
VERTEX
  5
334
  8
LAYER_02
 10
13.33532686872573
 20
4.549708201512962
 30
0.0
  0
VERTEX
  5
335
  8
LAYER_02
 10
13.33532686872573
 20
5.454530485402067
 30
0.0
 42
-0.7918918918918977
  0
VERTEX
  5
336
  8
LAYER_02
 10
14.07599997721903
 20
5.454530485402067
 30
0.0
  0
SEQEND
  5
337
  8
LAYER_02
  0
POLYLINE
  5
338
  8
LAYER_02
 66
     1
 10
0.0
 20
0.0
 30
0.0
 70
     1
  0
VERTEX
  5
339
  8
LAYER_02
 10
13.11532686872573
 20
4.549708201512956
 30
0.0
 42
-0.7918918918919101
  0
VERTEX
  5
33A
  8
LAYER_02
 10
12.37465376023244
 20
4.549708201512962
 30
0.0
  0
VERTEX
  5
33B
  8
LAYER_02
 10
12.37465376023243
 20
5.454530485402067
 30
0.0
 42
-0.7918918918918988
  0
VERTEX
  5
33C
  8
LAYER_02
 10
13.11532686872573
 20
5.454530485402067
 30
0.0
  0
SEQEND
  5
33D
  8
LAYER_02
  0
POLYLINE
  5
33E
  8
LAYER_02
 66
     1
 10
0.0
 20
0.0
 30
0.0
 70
     1
  0
VERTEX
  5
33F
  8
LAYER_02
 10
12.15465376023243
 20
4.549708201512956
 30
0.0
 42
-0.7918918918919038
  0
VERTEX
  5
340
  8
LAYER_02
 10
11.41398065173914
 20
4.549708201512962
 30
0.0
  0
VERTEX
  5
341
  8
LAYER_02
 10
11.41398065173913
 20
5.454530485402067
 30
0.0
 42
-0.7918918918918988
  0
VERTEX
  5
342
  8
LAYER_02
 10
12.15465376023243
 20
5.454530485402067
 30
0.0
  0
SEQEND
  5
343
  8
LAYER_02
  0
POLYLINE
  5
344
  8
LAYER_02
 66
     1
 10
0.0
 20
0.0
 30
0.0
 70
     1
  0
VERTEX
  5
345
  8
LAYER_02
 10
11.19398065173914
 20
4.549708201512956
 30
0.0
 42
-0.7918918918919018
  0
VERTEX
  5
346
  8
LAYER_02
 10
10.45330754324584
 20
4.549708201512962
 30
0.0
  0
VERTEX
  5
347
  8
LAYER_02
 10
10.45330754324584
 20
5.454530485402067
 30
0.0
 42
-0.7918918918918988
  0
VERTEX
  5
348
  8
LAYER_02
 10
11.19398065173914
 20
5.454530485402067
 30
0.0
  0
SEQEND
  5
349
  8
LAYER_02
  0
POLYLINE
  5
34A
  8
LAYER_02
 66
     1
 10
0.0
 20
0.0
 30
0.0
 70
     1
  0
VERTEX
  5
34B
  8
LAYER_02
 10
8.912805791790248
 20
4.549708201512956
 30
0.0
 42
0.7918918918918955
  0
VERTEX
  5
34C
  8
LAYER_02
 10
9.653478900283542
 20
4.549708201512963
 30
0.0
  0
VERTEX
  5
34D
  8
LAYER_02
 10
9.653478900283545
 20
5.454530485402067
 30
0.0
 42
0.7918918918918988
  0
VERTEX
  5
34E
  8
LAYER_02
 10
8.912805791790248
 20
5.454530485402067
 30
0.0
  0
SEQEND
  5
34F
  8
LAYER_02
  0
POLYLINE
  5
350
  8
LAYER_02
 66
     1
 10
0.0
 20
0.0
 30
0.0
 70
     1
  0
VERTEX
  5
351
  8
LAYER_02
 10
7.952132683296952
 20
4.549708201512956
 30
0.0
 42
0.7918918918918946
  0
VERTEX
  5
352
  8
LAYER_02
 10
8.69280579179025
 20
4.549708201512962
 30
0.0
  0
VERTEX
  5
353
  8
LAYER_02
 10
8.69280579179025
 20
5.454530485402067
 30
0.0
 42
0.7918918918918951
  0
VERTEX
  5
354
  8
LAYER_02
 10
7.952132683296951
 20
5.454530485402067
 30
0.0
  0
SEQEND
  5
355
  8
LAYER_02
  0
POLYLINE
  5
356
  8
LAYER_02
 66
     1
 10
0.0
 20
0.0
 30
0.0
 70
     1
  0
VERTEX
  5
357
  8
LAYER_02
 10
6.991459574803656
 20
4.549708201512956
 30
0.0
 42
0.7918918918919038
  0
VERTEX
  5
358
  8
LAYER_02
 10
7.732132683296946
 20
4.549708201512963
 30
0.0
  0
VERTEX
  5
359
  8
LAYER_02
 10
7.732132683296954
 20
5.454530485402067
 30
0.0
 42
0.7918918918918951
  0
VERTEX
  5
35A
  8
LAYER_02
 10
6.991459574803655
 20
5.454530485402067
 30
0.0
  0
SEQEND
  5
35B
  8
LAYER_02
  0
POLYLINE
  5
35C
  8
LAYER_02
 66
     1
 10
0.0
 20
0.0
 30
0.0
 70
     1
  0
VERTEX
  5
35D
  8
LAYER_02
 10
6.03078646631036
 20
4.549708201512956
 30
0.0
 42
0.7918918918919061
  0
VERTEX
  5
35E
  8
LAYER_02
 10
6.771459574803652
 20
4.549708201512962
 30
0.0
  0
VERTEX
  5
35F
  8
LAYER_02
 10
6.771459574803658
 20
5.454530485402067
 30
0.0
 42
0.7918918918918959
  0
VERTEX
  5
360
  8
LAYER_02
 10
6.030786466310352
 20
5.454530485402067
 30
0.0
  0
SEQEND
  5
361
  8
LAYER_02
  0
POLYLINE
  5
362
  8
LAYER_02
 66
     1
 10
0.0
 20
0.0
 30
0.0
 70
     1
  0
VERTEX
  5
363
  8
LAYER_02
 10
5.070113357817057
 20
4.549708201512956
 30
0.0
 42
0.7918918918919046
  0
VERTEX
  5
364
  8
LAYER_02
 10
5.810786466310348
 20
4.549708201512963
 30
0.0
  0
VERTEX
  5
365
  8
LAYER_02
 10
5.810786466310355
 20
5.454530485402067
 30
0.0
 42
0.7918918918918951
  0
VERTEX
  5
366
  8
LAYER_02
 10
5.070113357817056
 20
5.454530485402067
 30
0.0
  0
SEQEND
  5
367
  8
LAYER_02
  0
POLYLINE
  5
368
  8
LAYER_02
 66
     1
 10
0.0
 20
0.0
 30
0.0
 70
     1
  0
VERTEX
  5
369
  8
LAYER_02
 10
4.109440249323761
 20
4.549708201512956
 30
0.0
 42
0.7918918918919031
  0
VERTEX
  5
36A
  8
LAYER_02
 10
4.850113357817057
 20
4.549708201512962
 30
0.0
  0
VERTEX
  5
36B
  8
LAYER_02
 10
4.850113357817059
 20
5.454530485402067
 30
0.0
 42
0.7918918918918951
  0
VERTEX
  5
36C
  8
LAYER_02
 10
4.10944024932376
 20
5.454530485402067
 30
0.0
  0
SEQEND
  5
36D
  8
LAYER_02
  0
POLYLINE
  5
36E
  8
LAYER_02
 66
     1
 10
0.0
 20
0.0
 30
0.0
 70
     1
  0
VERTEX
  5
36F
  8
LAYER_02
 10
3.148767140830458
 20
4.549708201512956
 30
0.0
 42
0.7918918918919013
  0
VERTEX
  5
370
  8
LAYER_02
 10
3.889440249323755
 20
4.549708201512962
 30
0.0
  0
VERTEX
  5
371
  8
LAYER_02
 10
3.889440249323762
 20
5.454530485402067
 30
0.0
 42
0.7918918918918966
  0
VERTEX
  5
372
  8
LAYER_02
 10
3.148767140830457
 20
5.454530485402067
 30
0.0
  0
SEQEND
  5
373
  8
LAYER_02
  0
POLYLINE
  5
374
  8
LAYER_02
 66
     1
 10
0.0
 20
0.0
 30
0.0
 70
     1
  0
VERTEX
  5
375
  8
LAYER_02
 10
2.188094032337162
 20
4.549708201512956
 30
0.0
 42
0.7918918918918979
  0
VERTEX
  5
376
  8
LAYER_02
 10
2.928767140830459
 20
4.549708201512963
 30
0.0
  0
VERTEX
  5
377
  8
LAYER_02
 10
2.928767140830459
 20
5.454530485402067
 30
0.0
 42
0.7918918918918959
  0
VERTEX
  5
378
  8
LAYER_02
 10
2.188094032337161
 20
5.454530485402067
 30
0.0
  0
SEQEND
  5
379
  8
LAYER_02
  0
POLYLINE
  5
37A
  8
LAYER_02
 66
     1
 10
0.0
 20
0.0
 30
0.0
 70
     1
  0
VERTEX
  5
37B
  8
LAYER_02
 10
1.227420923843866
 20
4.549708201512956
 30
0.0
 42
0.7918918918918975
  0
VERTEX
  5
37C
  8
LAYER_02
 10
1.968094032337166
 20
4.549708201512962
 30
0.0
  0
VERTEX
  5
37D
  8
LAYER_02
 10
1.968094032337163
 20
5.454530485402067
 30
0.0
 42
0.791891891891896
  0
VERTEX
  5
37E
  8
LAYER_02
 10
1.227420923843865
 20
5.454530485402067
 30
0.0
  0
SEQEND
  5
37F
  8
LAYER_02
  0
POLYLINE
  5
380
  8
LAYER_02
 66
     1
 10
0.0
 20
0.0
 30
0.0
 70
     1
  0
VERTEX
  5
381
  8
LAYER_02
 10
1.227420923843866
 20
7.345885798449387
 30
0.0
 42
-0.791891891891891
  0
VERTEX
  5
382
  8
LAYER_02
 10
1.968094032337166
 20
7.345885798449381
 30
0.0
  0
VERTEX
  5
383
  8
LAYER_02
 10
1.968094032337163
 20
6.441063514560277
 30
0.0
 42
-0.791891891891896
  0
VERTEX
  5
384
  8
LAYER_02
 10
1.227420923843865
 20
6.441063514560277
 30
0.0
  0
SEQEND
  5
385
  8
LAYER_02
  0
POLYLINE
  5
386
  8
LAYER_02
 66
     1
 10
0.0
 20
0.0
 30
0.0
 70
     1
  0
VERTEX
  5
387
  8
LAYER_02
 10
2.188094032337162
 20
7.345885798449387
 30
0.0
 42
-0.7918918918918874
  0
VERTEX
  5
388
  8
LAYER_02
 10
2.928767140830458
 20
7.345885798449381
 30
0.0
  0
VERTEX
  5
389
  8
LAYER_02
 10
2.928767140830459
 20
6.441063514560277
 30
0.0
 42
-0.7918918918918959
  0
VERTEX
  5
38A
  8
LAYER_02
 10
2.188094032337161
 20
6.441063514560277
 30
0.0
  0
SEQEND
  5
38B
  8
LAYER_02
  0
POLYLINE
  5
38C
  8
LAYER_02
 66
     1
 10
0.0
 20
0.0
 30
0.0
 70
     1
  0
VERTEX
  5
38D
  8
LAYER_02
 10
3.148767140830458
 20
7.345885798449387
 30
0.0
 42
-0.7918918918918937
  0
VERTEX
  5
38E
  8
LAYER_02
 10
3.889440249323756
 20
7.345885798449381
 30
0.0
  0
VERTEX
  5
38F
  8
LAYER_02
 10
3.889440249323762
 20
6.441063514560277
 30
0.0
 42
-0.791891891891895
  0
VERTEX
  5
390
  8
LAYER_02
 10
3.148767140830457
 20
6.441063514560277
 30
0.0
  0
SEQEND
  5
391
  8
LAYER_02
  0
POLYLINE
  5
392
  8
LAYER_02
 66
     1
 10
0.0
 20
0.0
 30
0.0
 70
     1
  0
VERTEX
  5
393
  8
LAYER_02
 10
4.109440249323761
 20
7.345885798449387
 30
0.0
 42
-0.7918918918918902
  0
VERTEX
  5
394
  8
LAYER_02
 10
4.850113357817055
 20
7.34588579844938
 30
0.0
  0
VERTEX
  5
395
  8
LAYER_02
 10
4.850113357817059
 20
6.441063514560276
 30
0.0
 42
-0.7918918918918925
  0
VERTEX
  5
396
  8
LAYER_02
 10
4.10944024932376
 20
6.441063514560277
 30
0.0
  0
SEQEND
  5
397
  8
LAYER_02
  0
POLYLINE
  5
398
  8
LAYER_02
 66
     1
 10
0.0
 20
0.0
 30
0.0
 70
     1
  0
VERTEX
  5
399
  8
LAYER_02
 10
5.070113357817057
 20
7.345885798449387
 30
0.0
 42
-0.7918918918918971
  0
VERTEX
  5
39A
  8
LAYER_02
 10
5.810786466310352
 20
7.345885798449381
 30
0.0
  0
VERTEX
  5
39B
  8
LAYER_02
 10
5.810786466310355
 20
6.441063514560276
 30
0.0
 42
-0.7918918918918925
  0
VERTEX
  5
39C
  8
LAYER_02
 10
5.070113357817056
 20
6.441063514560277
 30
0.0
  0
SEQEND
  5
39D
  8
LAYER_02
  0
POLYLINE
  5
39E
  8
LAYER_02
 66
     1
 10
0.0
 20
0.0
 30
0.0
 70
     1
  0
VERTEX
  5
39F
  8
LAYER_02
 10
6.03078646631036
 20
7.345885798449387
 30
0.0
 42
-0.7918918918918997
  0
VERTEX
  5
3A0
  8
LAYER_02
 10
6.771459574803654
 20
7.345885798449381
 30
0.0
  0
VERTEX
  5
3A1
  8
LAYER_02
 10
6.771459574803658
 20
6.441063514560277
 30
0.0
 42
-0.7918918918918959
  0
VERTEX
  5
3A2
  8
LAYER_02
 10
6.030786466310352
 20
6.441063514560277
 30
0.0
  0
SEQEND
  5
3A3
  8
LAYER_02
  0
POLYLINE
  5
3A4
  8
LAYER_02
 66
     1
 10
0.0
 20
0.0
 30
0.0
 70
     1
  0
VERTEX
  5
3A5
  8
LAYER_02
 10
6.991459574803656
 20
7.345885798449387
 30
0.0
 42
-0.791891891891898
  0
VERTEX
  5
3A6
  8
LAYER_02
 10
7.732132683296948
 20
7.345885798449381
 30
0.0
  0
VERTEX
  5
3A7
  8
LAYER_02
 10
7.732132683296954
 20
6.441063514560276
 30
0.0
 42
-0.7918918918918925
  0
VERTEX
  5
3A8
  8
LAYER_02
 10
6.991459574803655
 20
6.441063514560277
 30
0.0
  0
SEQEND
  5
3A9
  8
LAYER_02
  0
POLYLINE
  5
3AA
  8
LAYER_02
 66
     1
 10
0.0
 20
0.0
 30
0.0
 70
     1
  0
VERTEX
  5
3AB
  8
LAYER_02
 10
7.952132683296952
 20
7.345885798449387
 30
0.0
 42
-0.7918918918918934
  0
VERTEX
  5
3AC
  8
LAYER_02
 10
8.69280579179025
 20
7.345885798449381
 30
0.0
  0
VERTEX
  5
3AD
  8
LAYER_02
 10
8.69280579179025
 20
6.441063514560276
 30
0.0
 42
-0.7918918918918902
  0
VERTEX
  5
3AE
  8
LAYER_02
 10
7.952132683296951
 20
6.441063514560277
 30
0.0
  0
SEQEND
  5
3AF
  8
LAYER_02
  0
POLYLINE
  5
3B0
  8
LAYER_02
 66
     1
 10
0.0
 20
0.0
 30
0.0
 70
     1
  0
VERTEX
  5
3B1
  8
LAYER_02
 10
8.912805791790248
 20
7.345885798449387
 30
0.0
 42
-0.791891891891891
  0
VERTEX
  5
3B2
  8
LAYER_02
 10
9.653478900283542
 20
7.34588579844938
 30
0.0
  0
VERTEX
  5
3B3
  8
LAYER_02
 10
9.653478900283545
 20
6.441063514560277
 30
0.0
 42
-0.791891891891896
  0
VERTEX
  5
3B4
  8
LAYER_02
 10
8.912805791790248
 20
6.441063514560277
 30
0.0
  0
SEQEND
  5
3B5
  8
LAYER_02
  0
POLYLINE
  5
3B6
  8
LAYER_02
 66
     1
 10
0.0
 20
0.0
 30
0.0
 70
     1
  0
VERTEX
  5
3B7
  8
LAYER_02
 10
11.19398065173914
 20
7.345885798449387
 30
0.0
 42
0.7918918918918937
  0
VERTEX
  5
3B8
  8
LAYER_02
 10
10.45330754324584
 20
7.345885798449381
 30
0.0
  0
VERTEX
  5
3B9
  8
LAYER_02
 10
10.45330754324584
 20
6.441063514560277
 30
0.0
 42
0.791891891891896
  0
VERTEX
  5
3BA
  8
LAYER_02
 10
11.19398065173914
 20
6.441063514560277
 30
0.0
  0
SEQEND
  5
3BB
  8
LAYER_02
  0
POLYLINE
  5
3BC
  8
LAYER_02
 66
     1
 10
0.0
 20
0.0
 30
0.0
 70
     1
  0
VERTEX
  5
3BD
  8
LAYER_02
 10
12.15465376023243
 20
7.345885798449387
 30
0.0
 42
0.791891891891891
  0
VERTEX
  5
3BE
  8
LAYER_02
 10
11.41398065173914
 20
7.345885798449381
 30
0.0
  0
VERTEX
  5
3BF
  8
LAYER_02
 10
11.41398065173913
 20
6.441063514560277
 30
0.0
 42
0.791891891891896
  0
VERTEX
  5
3C0
  8
LAYER_02
 10
12.15465376023243
 20
6.441063514560277
 30
0.0
  0
SEQEND
  5
3C1
  8
LAYER_02
  0
POLYLINE
  5
3C2
  8
LAYER_02
 66
     1
 10
0.0
 20
0.0
 30
0.0
 70
     1
  0
VERTEX
  5
3C3
  8
LAYER_02
 10
13.11532686872573
 20
7.345885798449387
 30
0.0
 42
0.7918918918919009
  0
VERTEX
  5
3C4
  8
LAYER_02
 10
12.37465376023244
 20
7.345885798449382
 30
0.0
  0
VERTEX
  5
3C5
  8
LAYER_02
 10
12.37465376023243
 20
6.441063514560277
 30
0.0
 42
0.791891891891896
  0
VERTEX
  5
3C6
  8
LAYER_02
 10
13.11532686872573
 20
6.441063514560277
 30
0.0
  0
SEQEND
  5
3C7
  8
LAYER_02
  0
POLYLINE
  5
3C8
  8
LAYER_02
 66
     1
 10
0.0
 20
0.0
 30
0.0
 70
     1
  0
VERTEX
  5
3C9
  8
LAYER_02
 10
14.07599997721902
 20
7.345885798449387
 30
0.0
 42
0.7918918918919018
  0
VERTEX
  5
3CA
  8
LAYER_02
 10
13.33532686872573
 20
7.345885798449382
 30
0.0
  0
VERTEX
  5
3CB
  8
LAYER_02
 10
13.33532686872573
 20
6.441063514560277
 30
0.0
 42
0.7918918918918966
  0
VERTEX
  5
3CC
  8
LAYER_02
 10
14.07599997721903
 20
6.441063514560277
 30
0.0
  0
SEQEND
  5
3CD
  8
LAYER_02
  0
POLYLINE
  5
3CE
  8
LAYER_02
 66
     1
 10
0.0
 20
0.0
 30
0.0
 70
     1
  0
VERTEX
  5
3CF
  8
LAYER_02
 10
15.03667308571233
 20
7.345885798449387
 30
0.0
 42
0.7918918918919092
  0
VERTEX
  5
3D0
  8
LAYER_02
 10
14.29599997721903
 20
7.345885798449381
 30
0.0
  0
VERTEX
  5
3D1
  8
LAYER_02
 10
14.29599997721903
 20
6.441063514560277
 30
0.0
 42
0.791891891891896
  0
VERTEX
  5
3D2
  8
LAYER_02
 10
15.03667308571233
 20
6.441063514560277
 30
0.0
  0
SEQEND
  5
3D3
  8
LAYER_02
  0
POLYLINE
  5
3D4
  8
LAYER_02
 66
     1
 10
0.0
 20
0.0
 30
0.0
 70
     1
  0
VERTEX
  5
3D5
  8
LAYER_02
 10
15.99734619420562
 20
7.345885798449387
 30
0.0
 42
0.7918918918918953
  0
VERTEX
  5
3D6
  8
LAYER_02
 10
15.25667308571233
 20
7.345885798449381
 30
0.0
  0
VERTEX
  5
3D7
  8
LAYER_02
 10
15.25667308571233
 20
6.441063514560277
 30
0.0
 42
0.791891891891896
  0
VERTEX
  5
3D8
  8
LAYER_02
 10
15.99734619420562
 20
6.441063514560277
 30
0.0
  0
SEQEND
  5
3D9
  8
LAYER_02
  0
POLYLINE
  5
3DA
  8
LAYER_02
 66
     1
 10
0.0
 20
0.0
 30
0.0
 70
     1
  0
VERTEX
  5
3DB
  8
LAYER_02
 10
16.95801930269893
 20
7.345885798449387
 30
0.0
 42
0.7918918918919046
  0
VERTEX
  5
3DC
  8
LAYER_02
 10
16.21734619420563
 20
7.345885798449382
 30
0.0
  0
VERTEX
  5
3DD
  8
LAYER_02
 10
16.21734619420562
 20
6.441063514560277
 30
0.0
 42
0.7918918918918995
  0
VERTEX
  5
3DE
  8
LAYER_02
 10
16.95801930269893
 20
6.441063514560277
 30
0.0
  0
SEQEND
  5
3DF
  8
LAYER_02
  0
POLYLINE
  5
3E0
  8
LAYER_02
 66
     1
 10
0.0
 20
0.0
 30
0.0
 70
     1
  0
VERTEX
  5
3E1
  8
LAYER_02
 10
17.91869241119222
 20
7.345885798449387
 30
0.0
 42
0.7918918918918971
  0
VERTEX
  5
3E2
  8
LAYER_02
 10
17.17801930269892
 20
7.345885798449381
 30
0.0
  0
VERTEX
  5
3E3
  8
LAYER_02
 10
17.17801930269892
 20
6.441063514560277
 30
0.0
 42
0.791891891891896
  0
VERTEX
  5
3E4
  8
LAYER_02
 10
17.91869241119222
 20
6.441063514560277
 30
0.0
  0
SEQEND
  5
3E5
  8
LAYER_02
  0
POLYLINE
  5
3E6
  8
LAYER_02
 66
     1
 10
0.0
 20
0.0
 30
0.0
 70
     1
  0
VERTEX
  5
3E7
  8
LAYER_02
 10
18.87936551968552
 20
7.345885798449387
 30
0.0
 42
0.7918918918918936
  0
VERTEX
  5
3E8
  8
LAYER_02
 10
18.13869241119222
 20
7.345885798449381
 30
0.0
  0
VERTEX
  5
3E9
  8
LAYER_02
 10
18.13869241119222
 20
6.441063514560277
 30
0.0
 42
0.791891891891896
  0
VERTEX
  5
3EA
  8
LAYER_02
 10
18.87936551968552
 20
6.441063514560277
 30
0.0
  0
SEQEND
  5
3EB
  8
LAYER_02
  0
ENDSEC
  0
EOF
