  0
SECTION
  2
HEADER
  9
$ACADVER
  1
AC1009
  9
$DWGCODEPAGE
  3
ansi_1252
  9
$INSBASE
 10
0.0
 20
0.0
 30
0.0
  9
$EXTMIN
 10
0.0687091029731516
 20
0.1495561118284225
 30
0.0
  9
$EXTMAX
 10
20.03807734055623
 20
11.74603788813392
 30
0.0
  9
$LIMMIN
 10
0.0
 20
0.0
  9
$LIMMAX
 10
12.0
 20
9.0
  9
$ORTHOMODE
 70
     0
  9
$REGENMODE
 70
     1
  9
$FILLMODE
 70
     1
  9
$QTEXTMODE
 70
     0
  9
$MIRRTEXT
 70
     1
  9
$DRAGMODE
 70
     2
  9
$LTSCALE
 40
1.0
  9
$OSMODE
 70
    37
  9
$ATTMODE
 70
     1
  9
$TEXTSIZE
 40
0.2
  9
$TRACEWID
 40
0.05
  9
$TEXTSTYLE
  7
STANDARD
  9
$CLAYER
  8
DEFAULT
  9
$CELTYPE
  6
BYLAYER
  9
$CECOLOR
 62
   256
  9
$DIMSCALE
 40
1.0
  9
$DIMASZ
 40
0.18
  9
$DIMEXO
 40
0.0625
  9
$DIMDLI
 40
0.38
  9
$DIMRND
 40
0.0
  9
$DIMDLE
 40
0.0
  9
$DIMEXE
 40
0.18
  9
$DIMTP
 40
0.0
  9
$DIMTM
 40
0.0
  9
$DIMTXT
 40
0.18
  9
$DIMCEN
 40
0.09
  9
$DIMTSZ
 40
0.0
  9
$DIMTOL
 70
     0
  9
$DIMLIM
 70
     0
  9
$DIMTIH
 70
     1
  9
$DIMTOH
 70
     1
  9
$DIMSE1
 70
     0
  9
$DIMSE2
 70
     0
  9
$DIMTAD
 70
     0
  9
$DIMZIN
 70
     0
  9
$DIMBLK
  1

  9
$DIMASO
 70
     1
  9
$DIMSHO
 70
     1
  9
$DIMPOST
  1

  9
$DIMAPOST
  1

  9
$DIMALT
 70
     0
  9
$DIMALTD
 70
     2
  9
$DIMALTF
 40
25.4
  9
$DIMLFAC
 40
1.0
  9
$DIMTOFL
 70
     0
  9
$DIMTVP
 40
0.0
  9
$DIMTIX
 70
     0
  9
$DIMSOXD
 70
     0
  9
$DIMSAH
 70
     0
  9
$DIMBLK1
  1

  9
$DIMBLK2
  1

  9
$DIMSTYLE
  2
STANDARD
  9
$DIMCLRD
 70
     0
  9
$DIMCLRE
 70
     0
  9
$DIMCLRT
 70
     0
  9
$DIMTFAC
 40
1.0
  9
$DIMGAP
 40
0.09
  9
$LUNITS
 70
     2
  9
$LUPREC
 70
     2
  9
$SKETCHINC
 40
0.1
  9
$FILLETRAD
 40
0.5
  9
$AUNITS
 70
     0
  9
$AUPREC
 70
     0
  9
$MENU
  1
.
  9
$ELEVATION
 40
0.0
  9
$PELEVATION
 40
0.0
  9
$THICKNESS
 40
0.0
  9
$LIMCHECK
 70
     0
  9
$CHAMFERA
 40
0.0
  9
$CHAMFERB
 40
0.0
  9
$SKPOLY
 70
     0
  9
$TDCREATE
 40
2458429.836955197
  9
$TDUPDATE
 40
2458429.836984873
  9
$TDINDWG
 40
0.0000000116
  9
$TDUSRTIMER
 40
0.0000000116
  9
$USRTIMER
 70
     1
  9
$ANGBASE
 50
0.0
  9
$ANGDIR
 70
     0
  9
$PDMODE
 70
     0
  9
$PDSIZE
 40
0.0
  9
$PLINEWID
 40
0.0
  9
$COORDS
 70
     1
  9
$SPLFRAME
 70
     0
  9
$SPLINETYPE
 70
     6
  9
$SPLINESEGS
 70
     8
  9
$ATTDIA
 70
     0
  9
$ATTREQ
 70
     1
  9
$HANDLING
 70
     1
  9
$HANDSEED
  5
166
  9
$SURFTAB1
 70
     6
  9
$SURFTAB2
 70
     6
  9
$SURFTYPE
 70
     6
  9
$SURFU
 70
     6
  9
$SURFV
 70
     6
  9
$UCSNAME
  2

  9
$UCSORG
 10
0.0
 20
0.0
 30
0.0
  9
$UCSXDIR
 10
1.0
 20
0.0
 30
0.0
  9
$UCSYDIR
 10
0.0
 20
1.0
 30
0.0
  9
$PUCSNAME
  2

  9
$PUCSORG
 10
0.0
 20
0.0
 30
0.0
  9
$PUCSXDIR
 10
1.0
 20
0.0
 30
0.0
  9
$PUCSYDIR
 10
0.0
 20
1.0
 30
0.0
  9
$USERI1
 70
     0
  9
$USERI2
 70
     0
  9
$USERI3
 70
     0
  9
$USERI4
 70
     0
  9
$USERI5
 70
     0
  9
$USERR1
 40
0.0
  9
$USERR2
 40
0.0
  9
$USERR3
 40
0.0
  9
$USERR4
 40
0.0
  9
$USERR5
 40
0.0
  9
$WORLDVIEW
 70
     1
  9
$SHADEDGE
 70
     3
  9
$SHADEDIF
 70
    70
  9
$TILEMODE
 70
     1
  9
$MAXACTVP
 70
    64
  9
$PLIMCHECK
 70
     0
  9
$PEXTMIN
 10
1.000000000000000E+20
 20
1.000000000000000E+20
 30
1.000000000000000E+20
  9
$PEXTMAX
 10
-1.000000000000000E+20
 20
-1.000000000000000E+20
 30
-1.000000000000000E+20
  9
$PLIMMIN
 10
0.0
 20
0.0
  9
$PLIMMAX
 10
12.0
 20
9.0
  9
$UNITMODE
 70
     0
  9
$VISRETAIN
 70
     1
  9
$PLINEGEN
 70
     0
  9
$PSLTSCALE
 70
     1
  0
ENDSEC
  0
SECTION
  2
TABLES
  0
TABLE
  2
VPORT
 70
     1
  0
VPORT
  2
*ACTIVE
 70
     0
 10
0.0
 20
0.0
 11
1.0
 21
1.0
 12
10.05339322176469
 22
5.947796999981172
 13
0.0
 23
0.0
 14
0.5
 24
0.5
 15
0.5
 25
0.5
 16
0.0
 26
0.0
 36
1.0
 17
0.0
 27
0.0
 37
0.0
 40
11.82841141183161
 41
1.722019542029158
 42
50.0
 43
0.0
 44
0.0
 50
0.0
 51
0.0
 71
     0
 72
   100
 73
     1
 74
     3
 75
     0
 76
     0
 77
     0
 78
     0
  0
ENDTAB
  0
TABLE
  2
LTYPE
 70
     1
  0
LTYPE
  2
CONTINUOUS
 70
     0
  3
Solid line
 72
    65
 73
     0
 40
0.0
  0
ENDTAB
  0
TABLE
  2
LAYER
 70
     2
  0
LAYER
  2
0
 70
     0
 62
     7
  6
CONTINUOUS
  0
LAYER
  2
DEFAULT
 70
     0
 62
     7
  6
CONTINUOUS
  0
ENDTAB
  0
TABLE
  2
STYLE
 70
     1
  0
STYLE
  2
STANDARD
 70
     0
 40
0.0
 41
1.0
 50
0.0
 71
     0
 42
0.2
  3
txt
  4

  0
ENDTAB
  0
TABLE
  2
VIEW
 70
     0
  0
ENDTAB
  0
TABLE
  2
UCS
 70
     0
  0
ENDTAB
  0
TABLE
  2
APPID
 70
     1
  0
APPID
  2
ACAD
 70
     0
  0
ENDTAB
  0
TABLE
  2
DIMSTYLE
 70
     1
  0
DIMSTYLE
  2
STANDARD
 70
     0
  3

  4

  5

  6

  7

 40
1.0
 41
0.18
 42
0.0625
 43
0.38
 44
0.18
 45
0.0
 46
0.0
 47
0.0
 48
0.0
140
0.18
141
0.09
142
0.0
143
25.4
144
1.0
145
0.0
146
1.0
147
0.09
 71
     0
 72
     0
 73
     1
 74
     1
 75
     0
 76
     0
 77
     0
 78
     0
170
     0
171
     2
172
     0
173
     0
174
     0
175
     0
176
     0
177
     0
178
     0
  0
ENDTAB
  0
ENDSEC
  0
SECTION
  2
BLOCKS
  0
BLOCK
  8
0
  2
$MODEL_SPACE
 70
     0
 10
0.0
 20
0.0
 30
0.0
  3
$MODEL_SPACE
  1

  0
ENDBLK
  5
21
  8
0
  0
BLOCK
 67
     1
  8
0
  2
$PAPER_SPACE
 70
     0
 10
0.0
 20
0.0
 30
0.0
  3
$PAPER_SPACE
  1

  0
ENDBLK
  5
1D
 67
     1
  8
0
  0
ENDSEC
  0
SECTION
  2
ENTITIES
  0
POLYLINE
  5
6F
  8
DEFAULT
 66
     1
 10
0.0
 20
0.0
 30
0.0
 70
     1
  0
VERTEX
  5
70
  8
DEFAULT
 10
18.02869241119222
 20
5.764562583050208
 30
0.0
  0
VERTEX
  5
71
  8
DEFAULT
 10
17.87000675128238
 20
5.856179791515689
 30
0.0
  0
VERTEX
  5
72
  8
DEFAULT
 10
17.87000675128238
 20
6.039414208446654
 30
0.0
  0
VERTEX
  5
73
  8
DEFAULT
 10
18.02869241119222
 20
6.131031416912138
 30
0.0
  0
VERTEX
  5
74
  8
DEFAULT
 10
18.18737807110207
 20
6.039414208446654
 30
0.0
  0
VERTEX
  5
75
  8
DEFAULT
 10
18.18737807110207
 20
5.856179791515689
 30
0.0
  0
SEQEND
  5
76
  8
DEFAULT
  0
POLYLINE
  5
77
  8
DEFAULT
 66
     1
 10
0.0
 20
0.0
 30
0.0
 70
     1
  0
VERTEX
  5
78
  8
DEFAULT
 10
15.14667308571534
 20
5.764562583050208
 30
0.0
  0
VERTEX
  5
79
  8
DEFAULT
 10
14.98798742580549
 20
5.856179791515689
 30
0.0
  0
VERTEX
  5
7A
  8
DEFAULT
 10
14.98798742580549
 20
6.039414208446654
 30
0.0
  0
VERTEX
  5
7B
  8
DEFAULT
 10
15.14667308571534
 20
6.131031416912138
 30
0.0
  0
VERTEX
  5
7C
  8
DEFAULT
 10
15.30535874562518
 20
6.039414208446654
 30
0.0
  0
VERTEX
  5
7D
  8
DEFAULT
 10
15.30535874562518
 20
5.856179791515689
 30
0.0
  0
SEQEND
  5
7E
  8
DEFAULT
  0
POLYLINE
  5
7F
  8
DEFAULT
 66
     1
 10
0.0
 20
0.0
 30
0.0
 70
     1
  0
VERTEX
  5
80
  8
DEFAULT
 10
12.26465376023846
 20
5.764562583050208
 30
0.0
  0
VERTEX
  5
81
  8
DEFAULT
 10
12.10596810032861
 20
5.856179791515689
 30
0.0
  0
VERTEX
  5
82
  8
DEFAULT
 10
12.10596810032861
 20
6.039414208446654
 30
0.0
  0
VERTEX
  5
83
  8
DEFAULT
 10
12.26465376023846
 20
6.131031416912138
 30
0.0
  0
VERTEX
  5
84
  8
DEFAULT
 10
12.4233394201483
 20
6.039414208446654
 30
0.0
  0
VERTEX
  5
85
  8
DEFAULT
 10
12.4233394201483
 20
5.856179791515689
 30
0.0
  0
SEQEND
  5
86
  8
DEFAULT
  0
POLYLINE
  5
87
  8
DEFAULT
 66
     1
 10
0.0
 20
0.0
 30
0.0
 70
     1
  0
VERTEX
  5
88
  8
DEFAULT
 10
7.842132683290928
 20
5.764562583050208
 30
0.0
  0
VERTEX
  5
89
  8
DEFAULT
 10
8.000818343200773
 20
5.856179791515689
 30
0.0
  0
VERTEX
  5
8A
  8
DEFAULT
 10
8.000818343200773
 20
6.039414208446654
 30
0.0
  0
VERTEX
  5
8B
  8
DEFAULT
 10
7.842132683290928
 20
6.131031416912138
 30
0.0
  0
VERTEX
  5
8C
  8
DEFAULT
 10
7.683447023381081
 20
6.039414208446654
 30
0.0
  0
VERTEX
  5
8D
  8
DEFAULT
 10
7.683447023381081
 20
5.856179791515689
 30
0.0
  0
SEQEND
  5
8E
  8
DEFAULT
  0
POLYLINE
  5
8F
  8
DEFAULT
 66
     1
 10
0.0
 20
0.0
 30
0.0
 70
     1
  0
VERTEX
  5
90
  8
DEFAULT
 10
4.960113357814045
 20
5.764562583050208
 30
0.0
  0
VERTEX
  5
91
  8
DEFAULT
 10
5.118799017723891
 20
5.856179791515689
 30
0.0
  0
VERTEX
  5
92
  8
DEFAULT
 10
5.118799017723891
 20
6.039414208446654
 30
0.0
  0
VERTEX
  5
93
  8
DEFAULT
 10
4.960113357814045
 20
6.131031416912138
 30
0.0
  0
VERTEX
  5
94
  8
DEFAULT
 10
4.801427697904199
 20
6.039414208446654
 30
0.0
  0
VERTEX
  5
95
  8
DEFAULT
 10
4.801427697904199
 20
5.856179791515689
 30
0.0
  0
SEQEND
  5
96
  8
DEFAULT
  0
POLYLINE
  5
97
  8
DEFAULT
 66
     1
 10
0.0
 20
0.0
 30
0.0
 70
     1
  0
VERTEX
  5
98
  8
DEFAULT
 10
2.078094032337163
 20
5.764562583050208
 30
0.0
  0
VERTEX
  5
99
  8
DEFAULT
 10
2.236779692247009
 20
5.856179791515689
 30
0.0
  0
VERTEX
  5
9A
  8
DEFAULT
 10
2.236779692247009
 20
6.039414208446654
 30
0.0
  0
VERTEX
  5
9B
  8
DEFAULT
 10
2.078094032337163
 20
6.131031416912138
 30
0.0
  0
VERTEX
  5
9C
  8
DEFAULT
 10
1.919408372427316
 20
6.039414208446654
 30
0.0
  0
VERTEX
  5
9D
  8
DEFAULT
 10
1.919408372427316
 20
5.856179791515689
 30
0.0
  0
SEQEND
  5
9E
  8
DEFAULT
  0
POLYLINE
  5
9F
  8
DEFAULT
 66
     1
 10
0.0
 20
0.0
 30
0.0
 70
     1
  0
VERTEX
  5
A0
  8
DEFAULT
 10
0.5380650134085119
 20
2.917213177247673
 30
0.0
  0
VERTEX
  5
A1
  8
DEFAULT
 10
0.6967506733183579
 20
2.825595968782192
 30
0.0
  0
VERTEX
  5
A2
  8
DEFAULT
 10
0.6967506733183579
 20
2.642361551851227
 30
0.0
  0
VERTEX
  5
A3
  8
DEFAULT
 10
0.5380650134085119
 20
2.550744343385743
 30
0.0
  0
VERTEX
  5
A4
  8
DEFAULT
 10
0.3793793534986649
 20
2.642361551851227
 30
0.0
  0
VERTEX
  5
A5
  8
DEFAULT
 10
0.3793793534986649
 20
2.825595968782192
 30
0.0
  0
SEQEND
  5
A6
  8
DEFAULT
  0
POLYLINE
  5
A7
  8
DEFAULT
 66
     1
 10
0.0
 20
0.0
 30
0.0
 70
     1
  0
VERTEX
  5
A8
  8
DEFAULT
 10
0.5380650134085119
 20
4.046608768423843
 30
0.0
  0
VERTEX
  5
A9
  8
DEFAULT
 10
0.6967506733183579
 20
3.954991559958362
 30
0.0
  0
VERTEX
  5
AA
  8
DEFAULT
 10
0.6967506733183579
 20
3.771757143027397
 30
0.0
  0
VERTEX
  5
AB
  8
DEFAULT
 10
0.5380650134085119
 20
3.680139934561913
 30
0.0
  0
VERTEX
  5
AC
  8
DEFAULT
 10
0.3793793534986649
 20
3.771757143027397
 30
0.0
  0
VERTEX
  5
AD
  8
DEFAULT
 10
0.3793793534986649
 20
3.954991559958362
 30
0.0
  0
SEQEND
  5
AE
  8
DEFAULT
  0
POLYLINE
  5
AF
  8
DEFAULT
 66
     1
 10
0.0
 20
0.0
 30
0.0
 70
     1
  0
VERTEX
  5
B0
  8
DEFAULT
 10
4.960113357810823
 20
0.8327905287593858
 30
0.0
  0
VERTEX
  5
B1
  8
DEFAULT
 10
5.118799017720669
 20
0.741173320293905
 30
0.0
  0
VERTEX
  5
B2
  8
DEFAULT
 10
5.118799017720669
 20
0.55793890336294
 30
0.0
  0
VERTEX
  5
B3
  8
DEFAULT
 10
4.960113357810823
 20
0.4663216948974558
 30
0.0
  0
VERTEX
  5
B4
  8
DEFAULT
 10
4.801427697900976
 20
0.55793890336294
 30
0.0
  0
VERTEX
  5
B5
  8
DEFAULT
 10
4.801427697900976
 20
0.741173320293905
 30
0.0
  0
SEQEND
  5
B6
  8
DEFAULT
  0
POLYLINE
  5
B7
  8
DEFAULT
 66
     1
 10
0.0
 20
0.0
 30
0.0
 70
     1
  0
VERTEX
  5
B8
  8
DEFAULT
 10
10.0533932217425
 20
2.952361282035486
 30
0.0
  0
VERTEX
  5
B9
  8
DEFAULT
 10
10.21207888165234
 20
2.860744073570006
 30
0.0
  0
VERTEX
  5
BA
  8
DEFAULT
 10
10.21207888165234
 20
2.677509656639041
 30
0.0
  0
VERTEX
  5
BB
  8
DEFAULT
 10
10.0533932217425
 20
2.585892448173556
 30
0.0
  0
VERTEX
  5
BC
  8
DEFAULT
 10
9.89470756183265
 20
2.677509656639041
 30
0.0
  0
VERTEX
  5
BD
  8
DEFAULT
 10
9.89470756183265
 20
2.860744073570006
 30
0.0
  0
SEQEND
  5
BE
  8
DEFAULT
  0
POLYLINE
  5
BF
  8
DEFAULT
 66
     1
 10
0.0
 20
0.0
 30
0.0
 70
     1
  0
VERTEX
  5
C0
  8
DEFAULT
 10
10.05339322178689
 20
4.035635612646844
 30
0.0
  0
VERTEX
  5
C1
  8
DEFAULT
 10
10.21207888169674
 20
3.944018404181363
 30
0.0
  0
VERTEX
  5
C2
  8
DEFAULT
 10
10.21207888169674
 20
3.760783987250397
 30
0.0
  0
VERTEX
  5
C3
  8
DEFAULT
 10
10.05339322178689
 20
3.669166778784914
 30
0.0
  0
VERTEX
  5
C4
  8
DEFAULT
 10
9.894707561877045
 20
3.760783987250397
 30
0.0
  0
VERTEX
  5
C5
  8
DEFAULT
 10
9.894707561877045
 20
3.944018404181363
 30
0.0
  0
SEQEND
  5
C6
  8
DEFAULT
  0
POLYLINE
  5
C7
  8
DEFAULT
 66
     1
 10
0.0
 20
0.0
 30
0.0
 70
     1
  0
VERTEX
  5
C8
  8
DEFAULT
 10
15.14667308571856
 20
0.8327905287593858
 30
0.0
  0
VERTEX
  5
C9
  8
DEFAULT
 10
14.98798742580871
 20
0.741173320293905
 30
0.0
  0
VERTEX
  5
CA
  8
DEFAULT
 10
14.98798742580871
 20
0.55793890336294
 30
0.0
  0
VERTEX
  5
CB
  8
DEFAULT
 10
15.14667308571856
 20
0.4663216948974558
 30
0.0
  0
VERTEX
  5
CC
  8
DEFAULT
 10
15.30535874562841
 20
0.55793890336294
 30
0.0
  0
VERTEX
  5
CD
  8
DEFAULT
 10
15.30535874562841
 20
0.741173320293905
 30
0.0
  0
SEQEND
  5
CE
  8
DEFAULT
  0
POLYLINE
  5
CF
  8
DEFAULT
 66
     1
 10
0.0
 20
0.0
 30
0.0
 70
     1
  0
VERTEX
  5
D0
  8
DEFAULT
 10
19.56872143012087
 20
4.046608768423843
 30
0.0
  0
VERTEX
  5
D1
  8
DEFAULT
 10
19.41003577021102
 20
3.954991559958362
 30
0.0
  0
VERTEX
  5
D2
  8
DEFAULT
 10
19.41003577021102
 20
3.771757143027397
 30
0.0
  0
VERTEX
  5
D3
  8
DEFAULT
 10
19.56872143012087
 20
3.680139934561913
 30
0.0
  0
VERTEX
  5
D4
  8
DEFAULT
 10
19.72740709003072
 20
3.771757143027397
 30
0.0
  0
VERTEX
  5
D5
  8
DEFAULT
 10
19.72740709003072
 20
3.954991559958362
 30
0.0
  0
SEQEND
  5
D6
  8
DEFAULT
  0
POLYLINE
  5
D7
  8
DEFAULT
 66
     1
 10
0.0
 20
0.0
 30
0.0
 70
     1
  0
VERTEX
  5
D8
  8
DEFAULT
 10
19.56872143012087
 20
2.917213177247673
 30
0.0
  0
VERTEX
  5
D9
  8
DEFAULT
 10
19.41003577021102
 20
2.825595968782192
 30
0.0
  0
VERTEX
  5
DA
  8
DEFAULT
 10
19.41003577021102
 20
2.642361551851227
 30
0.0
  0
VERTEX
  5
DB
  8
DEFAULT
 10
19.56872143012087
 20
2.550744343385743
 30
0.0
  0
VERTEX
  5
DC
  8
DEFAULT
 10
19.72740709003072
 20
2.642361551851227
 30
0.0
  0
VERTEX
  5
DD
  8
DEFAULT
 10
19.72740709003072
 20
2.825595968782192
 30
0.0
  0
SEQEND
  5
DE
  8
DEFAULT
  0
POLYLINE
  5
DF
  8
DEFAULT
 66
     1
 10
0.0
 20
0.0
 30
0.0
 70
     1
  0
VERTEX
  5
E0
  8
DEFAULT
 10
19.56872143012087
 20
8.978380822714671
 30
0.0
  0
VERTEX
  5
E1
  8
DEFAULT
 10
19.41003577021102
 20
9.069998031180152
 30
0.0
  0
VERTEX
  5
E2
  8
DEFAULT
 10
19.41003577021102
 20
9.253232448111117
 30
0.0
  0
VERTEX
  5
E3
  8
DEFAULT
 10
19.56872143012087
 20
9.344849656576601
 30
0.0
  0
VERTEX
  5
E4
  8
DEFAULT
 10
19.72740709003072
 20
9.253232448111117
 30
0.0
  0
VERTEX
  5
E5
  8
DEFAULT
 10
19.72740709003072
 20
9.069998031180152
 30
0.0
  0
SEQEND
  5
E6
  8
DEFAULT
  0
POLYLINE
  5
E7
  8
DEFAULT
 66
     1
 10
0.0
 20
0.0
 30
0.0
 70
     1
  0
VERTEX
  5
E8
  8
DEFAULT
 10
19.56872143012087
 20
7.848985231538501
 30
0.0
  0
VERTEX
  5
E9
  8
DEFAULT
 10
19.41003577021102
 20
7.940602440003982
 30
0.0
  0
VERTEX
  5
EA
  8
DEFAULT
 10
19.41003577021102
 20
8.123836856934947
 30
0.0
  0
VERTEX
  5
EB
  8
DEFAULT
 10
19.56872143012087
 20
8.215454065400431
 30
0.0
  0
VERTEX
  5
EC
  8
DEFAULT
 10
19.72740709003072
 20
8.123836856934947
 30
0.0
  0
VERTEX
  5
ED
  8
DEFAULT
 10
19.72740709003072
 20
7.940602440003982
 30
0.0
  0
SEQEND
  5
EE
  8
DEFAULT
  0
POLYLINE
  5
EF
  8
DEFAULT
 66
     1
 10
0.0
 20
0.0
 30
0.0
 70
     1
  0
VERTEX
  5
F0
  8
DEFAULT
 10
15.14667308571856
 20
11.06280347120296
 30
0.0
  0
VERTEX
  5
F1
  8
DEFAULT
 10
14.98798742580871
 20
11.15442067966844
 30
0.0
  0
VERTEX
  5
F2
  8
DEFAULT
 10
14.98798742580871
 20
11.3376550965994
 30
0.0
  0
VERTEX
  5
F3
  8
DEFAULT
 10
15.14667308571856
 20
11.42927230506489
 30
0.0
  0
VERTEX
  5
F4
  8
DEFAULT
 10
15.30535874562841
 20
11.3376550965994
 30
0.0
  0
VERTEX
  5
F5
  8
DEFAULT
 10
15.30535874562841
 20
11.15442067966844
 30
0.0
  0
SEQEND
  5
F6
  8
DEFAULT
  0
POLYLINE
  5
F7
  8
DEFAULT
 66
     1
 10
0.0
 20
0.0
 30
0.0
 70
     1
  0
VERTEX
  5
F8
  8
DEFAULT
 10
10.05339322178689
 20
7.8599583873155
 30
0.0
  0
VERTEX
  5
F9
  8
DEFAULT
 10
10.21207888169674
 20
7.951575595780981
 30
0.0
  0
VERTEX
  5
FA
  8
DEFAULT
 10
10.21207888169674
 20
8.134810012711947
 30
0.0
  0
VERTEX
  5
FB
  8
DEFAULT
 10
10.05339322178689
 20
8.22642722117743
 30
0.0
  0
VERTEX
  5
FC
  8
DEFAULT
 10
9.894707561877045
 20
8.134810012711947
 30
0.0
  0
VERTEX
  5
FD
  8
DEFAULT
 10
9.894707561877045
 20
7.951575595780981
 30
0.0
  0
SEQEND
  5
FE
  8
DEFAULT
  0
POLYLINE
  5
FF
  8
DEFAULT
 66
     1
 10
0.0
 20
0.0
 30
0.0
 70
     1
  0
VERTEX
  5
100
  8
DEFAULT
 10
10.0533932217425
 20
8.943232717926858
 30
0.0
  0
VERTEX
  5
101
  8
DEFAULT
 10
10.21207888165234
 20
9.034849926392338
 30
0.0
  0
VERTEX
  5
102
  8
DEFAULT
 10
10.21207888165234
 20
9.218084343323303
 30
0.0
  0
VERTEX
  5
103
  8
DEFAULT
 10
10.0533932217425
 20
9.309701551788788
 30
0.0
  0
VERTEX
  5
104
  8
DEFAULT
 10
9.89470756183265
 20
9.218084343323303
 30
0.0
  0
VERTEX
  5
105
  8
DEFAULT
 10
9.89470756183265
 20
9.034849926392338
 30
0.0
  0
SEQEND
  5
106
  8
DEFAULT
  0
POLYLINE
  5
107
  8
DEFAULT
 66
     1
 10
0.0
 20
0.0
 30
0.0
 70
     1
  0
VERTEX
  5
108
  8
DEFAULT
 10
4.960113357810823
 20
11.06280347120296
 30
0.0
  0
VERTEX
  5
109
  8
DEFAULT
 10
5.118799017720669
 20
11.15442067966844
 30
0.0
  0
VERTEX
  5
10A
  8
DEFAULT
 10
5.118799017720669
 20
11.3376550965994
 30
0.0
  0
VERTEX
  5
10B
  8
DEFAULT
 10
4.960113357810823
 20
11.42927230506489
 30
0.0
  0
VERTEX
  5
10C
  8
DEFAULT
 10
4.801427697900976
 20
11.3376550965994
 30
0.0
  0
VERTEX
  5
10D
  8
DEFAULT
 10
4.801427697900976
 20
11.15442067966844
 30
0.0
  0
SEQEND
  5
10E
  8
DEFAULT
  0
POLYLINE
  5
10F
  8
DEFAULT
 66
     1
 10
0.0
 20
0.0
 30
0.0
 70
     1
  0
VERTEX
  5
110
  8
DEFAULT
 10
0.5380650134085119
 20
7.848985231538501
 30
0.0
  0
VERTEX
  5
111
  8
DEFAULT
 10
0.6967506733183579
 20
7.940602440003982
 30
0.0
  0
VERTEX
  5
112
  8
DEFAULT
 10
0.6967506733183579
 20
8.123836856934947
 30
0.0
  0
VERTEX
  5
113
  8
DEFAULT
 10
0.5380650134085119
 20
8.215454065400431
 30
0.0
  0
VERTEX
  5
114
  8
DEFAULT
 10
0.3793793534986649
 20
8.123836856934947
 30
0.0
  0
VERTEX
  5
115
  8
DEFAULT
 10
0.3793793534986649
 20
7.940602440003982
 30
0.0
  0
SEQEND
  5
116
  8
DEFAULT
  0
POLYLINE
  5
117
  8
DEFAULT
 66
     1
 10
0.0
 20
0.0
 30
0.0
 70
     1
  0
VERTEX
  5
118
  8
DEFAULT
 10
0.5380650134085119
 20
8.978380822714671
 30
0.0
  0
VERTEX
  5
119
  8
DEFAULT
 10
0.6967506733183579
 20
9.069998031180152
 30
0.0
  0
VERTEX
  5
11A
  8
DEFAULT
 10
0.6967506733183579
 20
9.253232448111117
 30
0.0
  0
VERTEX
  5
11B
  8
DEFAULT
 10
0.5380650134085119
 20
9.344849656576601
 30
0.0
  0
VERTEX
  5
11C
  8
DEFAULT
 10
0.3793793534986649
 20
9.253232448111117
 30
0.0
  0
VERTEX
  5
11D
  8
DEFAULT
 10
0.3793793534986649
 20
9.069998031180152
 30
0.0
  0
SEQEND
  5
11E
  8
DEFAULT
  0
POLYLINE
  5
11F
  8
DEFAULT
 66
     1
 10
0.0
 20
0.0
 30
0.0
 70
     1
  0
VERTEX
  5
120
  8
DEFAULT
 10
3.007420923843867
 20
0.1495561118284225
 30
0.0
  0
VERTEX
  5
121
  8
DEFAULT
 10
17.09936551968552
 20
0.1495561118284225
 30
0.0
  0
VERTEX
  5
122
  8
DEFAULT
 10
17.0993655196855
 20
0.6495561118284225
 30
0.0
  0
VERTEX
  5
123
  8
DEFAULT
 10
18.59936551968552
 20
0.6495561118284225
 30
0.0
 42
0.4142135623730951
  0
VERTEX
  5
124
  8
DEFAULT
 10
19.09936551968552
 20
1.149556111828423
 30
0.0
  0
VERTEX
  5
125
  8
DEFAULT
 10
19.09936551968552
 20
2.340911424875737
 30
0.0
  0
VERTEX
  5
126
  8
DEFAULT
 10
19.78807734055622
 20
2.340911424875737
 30
0.0
 42
0.414213562373094
  0
VERTEX
  5
127
  8
DEFAULT
 10
20.03807734055623
 20
2.590911424875729
 30
0.0
  0
VERTEX
  5
128
  8
DEFAULT
 10
20.03807734055623
 20
4.00644168693383
 30
0.0
 42
0.4142135623730842
  0
VERTEX
  5
129
  8
DEFAULT
 10
19.78807734055625
 20
4.256441686933849
 30
0.0
  0
VERTEX
  5
12A
  8
DEFAULT
 10
19.09936551968552
 20
4.256441686933855
 30
0.0
  0
VERTEX
  5
12B
  8
DEFAULT
 10
19.09936551968552
 20
7.639152313028489
 30
0.0
  0
VERTEX
  5
12C
  8
DEFAULT
 10
19.78807734055626
 20
7.639152313028491
 30
0.0
 42
0.4142135623730856
  0
VERTEX
  5
12D
  8
DEFAULT
 10
20.03807734055623
 20
7.889152313028513
 30
0.0
  0
VERTEX
  5
12E
  8
DEFAULT
 10
20.03807734055623
 20
9.304682575086614
 30
0.0
 42
0.4142135623730913
  0
VERTEX
  5
12F
  8
DEFAULT
 10
19.78807734055622
 20
9.554682575086607
 30
0.0
  0
VERTEX
  5
130
  8
DEFAULT
 10
19.09936551968552
 20
9.554682575086607
 30
0.0
  0
VERTEX
  5
131
  8
DEFAULT
 10
19.09936551968551
 20
10.74603788813392
 30
0.0
 42
0.4142135623730911
  0
VERTEX
  5
132
  8
DEFAULT
 10
18.59936551968552
 20
11.24603788813392
 30
0.0
  0
VERTEX
  5
133
  8
DEFAULT
 10
17.0993655196855
 20
11.24603788813392
 30
0.0
  0
VERTEX
  5
134
  8
DEFAULT
 10
17.09936551968552
 20
11.74603788813392
 30
0.0
  0
VERTEX
  5
135
  8
DEFAULT
 10
3.007420923843867
 20
11.74603788813392
 30
0.0
  0
VERTEX
  5
136
  8
DEFAULT
 10
3.007420923843881
 20
11.24603788813392
 30
0.0
  0
VERTEX
  5
137
  8
DEFAULT
 10
1.507420923843866
 20
11.24603788813392
 30
0.0
 42
0.4142135623730944
  0
VERTEX
  5
138
  8
DEFAULT
 10
1.007420923843867
 20
10.74603788813392
 30
0.0
  0
VERTEX
  5
139
  8
DEFAULT
 10
1.007420923843867
 20
9.554682575086607
 30
0.0
  0
VERTEX
  5
13A
  8
DEFAULT
 10
0.3187091029731592
 20
9.554682575086607
 30
0.0
 42
0.4142135623730924
  0
VERTEX
  5
13B
  8
DEFAULT
 10
0.0687091029731534
 20
9.304682575086614
 30
0.0
  0
VERTEX
  5
13C
  8
DEFAULT
 10
0.0687091029731516
 20
7.889152313028513
 30
0.0
 42
0.4142135623730905
  0
VERTEX
  5
13D
  8
DEFAULT
 10
0.3187091029731285
 20
7.639152313028495
 30
0.0
  0
VERTEX
  5
13E
  8
DEFAULT
 10
1.007420923843867
 20
7.639152313028489
 30
0.0
  0
VERTEX
  5
13F
  8
DEFAULT
 10
1.007420923843867
 20
4.256441686933855
 30
0.0
  0
VERTEX
  5
140
  8
DEFAULT
 10
0.3187091029731285
 20
4.256441686933849
 30
0.0
 42
0.4142135623730889
  0
VERTEX
  5
141
  8
DEFAULT
 10
0.0687091029731516
 20
4.00644168693383
 30
0.0
  0
VERTEX
  5
142
  8
DEFAULT
 10
0.0687091029731534
 20
2.590911424875729
 30
0.0
 42
0.4142135623730934
  0
VERTEX
  5
143
  8
DEFAULT
 10
0.3187091029731592
 20
2.340911424875737
 30
0.0
  0
VERTEX
  5
144
  8
DEFAULT
 10
1.007420923843867
 20
2.340911424875737
 30
0.0
  0
VERTEX
  5
145
  8
DEFAULT
 10
1.007420923843867
 20
1.149556111828423
 30
0.0
 42
0.4142135623730946
  0
VERTEX
  5
146
  8
DEFAULT
 10
1.507420923843866
 20
0.6495561118284225
 30
0.0
  0
VERTEX
  5
147
  8
DEFAULT
 10
3.007420923843881
 20
0.6495561118284225
 30
0.0
  0
SEQEND
  5
148
  8
DEFAULT
  0
CIRCLE
  5
149
  8
DEFAULT
 10
10.0533932217425
 20
2.769126865104523
 30
0.0
 40
0.0625
  0
CIRCLE
  5
14A
  8
DEFAULT
 10
10.05339322178689
 20
3.852401195715879
 30
0.0
 40
0.0625
  0
CIRCLE
  5
14B
  8
DEFAULT
 10
0.5380650134085116
 20
2.73397876031671
 30
0.0
 40
0.0625000000000001
  0
CIRCLE
  5
14C
  8
DEFAULT
 10
0.5380650134085116
 20
3.86337435149288
 30
0.0
 40
0.0625
  0
CIRCLE
  5
14D
  8
DEFAULT
 10
19.56872143012087
 20
3.86337435149288
 30
0.0
 40
0.0625
  0
CIRCLE
  5
14E
  8
DEFAULT
 10
19.56872143012087
 20
2.73397876031671
 30
0.0
 40
0.0625000000000001
  0
CIRCLE
  5
14F
  8
DEFAULT
 10
19.56872143012087
 20
9.161615239645634
 30
0.0
 40
0.0625000000000001
  0
CIRCLE
  5
150
  8
DEFAULT
 10
19.56872143012087
 20
8.032219648469464
 30
0.0
 40
0.0625
  0
CIRCLE
  5
151
  8
DEFAULT
 10
0.5380650134085116
 20
8.032219648469464
 30
0.0
 40
0.0625
  0
CIRCLE
  5
152
  8
DEFAULT
 10
0.5380650134085116
 20
9.161615239645634
 30
0.0
 40
0.0625000000000001
  0
CIRCLE
  5
153
  8
DEFAULT
 10
10.05339322178689
 20
8.043192804246464
 30
0.0
 40
0.0625
  0
CIRCLE
  5
154
  8
DEFAULT
 10
10.0533932217425
 20
9.12646713485782
 30
0.0
 40
0.0625
  0
CIRCLE
  5
155
  8
DEFAULT
 10
4.960113357810823
 20
0.6495561118284225
 30
0.0
 40
0.0625
  0
CIRCLE
  5
156
  8
DEFAULT
 10
15.14667308571856
 20
0.6495561118284225
 30
0.0
 40
0.0625
  0
CIRCLE
  5
157
  8
DEFAULT
 10
15.14667308571856
 20
11.24603788813392
 30
0.0
 40
0.0625
  0
CIRCLE
  5
158
  8
DEFAULT
 10
4.960113357810823
 20
11.24603788813392
 30
0.0
 40
0.0625
  0
CIRCLE
  5
159
  8
DEFAULT
 10
12.26465376023846
 20
5.947796999981172
 30
0.0
 40
0.0625
  0
CIRCLE
  5
15A
  8
DEFAULT
 10
15.14667308571534
 20
5.947796999981172
 30
0.0
 40
0.0625
  0
CIRCLE
  5
15B
  8
DEFAULT
 10
18.02869241119222
 20
5.947796999981172
 30
0.0
 40
0.0625
  0
CIRCLE
  5
15C
  8
DEFAULT
 10
2.078094032337163
 20
5.947796999981172
 30
0.0
 40
0.0625
  0
CIRCLE
  5
15D
  8
DEFAULT
 10
4.960113357814045
 20
5.947796999981172
 30
0.0
 40
0.0625
  0
CIRCLE
  5
15E
  8
DEFAULT
 10
7.842132683290927
 20
5.947796999981172
 30
0.0
 40
0.0625
  0
ENDSEC
  0
EOF
