  0
SECTION
  2
HEADER
  9
$ACADVER
  1
AC1009
  9
$DWGCODEPAGE
  3
ansi_1252
  9
$INSBASE
 10
0.0
 20
0.0
 30
0.0
  9
$EXTMIN
 10
-0.285136655537314
 20
0.3113164646287716
 30
0.0
  9
$EXTMAX
 10
16.1239851128881
 20
11.3433155642603
 30
0.0
  9
$LIMMIN
 10
0.0
 20
0.0
  9
$LIMMAX
 10
12.0
 20
9.0
  9
$ORTHOMODE
 70
     0
  9
$REGENMODE
 70
     1
  9
$FILLMODE
 70
     1
  9
$QTEXTMODE
 70
     0
  9
$MIRRTEXT
 70
     1
  9
$DRAGMODE
 70
     2
  9
$LTSCALE
 40
1.0
  9
$OSMODE
 70
    37
  9
$ATTMODE
 70
     1
  9
$TEXTSIZE
 40
0.2
  9
$TRACEWID
 40
0.05
  9
$TEXTSTYLE
  7
STANDARD
  9
$CLAYER
  8
LAYER_02
  9
$CELTYPE
  6
BYLAYER
  9
$CECOLOR
 62
   256
  9
$DIMSCALE
 40
1.0
  9
$DIMASZ
 40
0.18
  9
$DIMEXO
 40
0.0625
  9
$DIMDLI
 40
0.38
  9
$DIMRND
 40
0.0
  9
$DIMDLE
 40
0.0
  9
$DIMEXE
 40
0.18
  9
$DIMTP
 40
0.0
  9
$DIMTM
 40
0.0
  9
$DIMTXT
 40
0.18
  9
$DIMCEN
 40
0.09
  9
$DIMTSZ
 40
0.0
  9
$DIMTOL
 70
     0
  9
$DIMLIM
 70
     0
  9
$DIMTIH
 70
     1
  9
$DIMTOH
 70
     1
  9
$DIMSE1
 70
     0
  9
$DIMSE2
 70
     0
  9
$DIMTAD
 70
     0
  9
$DIMZIN
 70
     0
  9
$DIMBLK
  1

  9
$DIMASO
 70
     1
  9
$DIMSHO
 70
     1
  9
$DIMPOST
  1

  9
$DIMAPOST
  1

  9
$DIMALT
 70
     0
  9
$DIMALTD
 70
     2
  9
$DIMALTF
 40
25.4
  9
$DIMLFAC
 40
1.0
  9
$DIMTOFL
 70
     0
  9
$DIMTVP
 40
0.0
  9
$DIMTIX
 70
     0
  9
$DIMSOXD
 70
     0
  9
$DIMSAH
 70
     0
  9
$DIMBLK1
  1

  9
$DIMBLK2
  1

  9
$DIMSTYLE
  2
STANDARD
  9
$DIMCLRD
 70
     0
  9
$DIMCLRE
 70
     0
  9
$DIMCLRT
 70
     0
  9
$DIMTFAC
 40
1.0
  9
$DIMGAP
 40
0.09
  9
$LUNITS
 70
     2
  9
$LUPREC
 70
     2
  9
$SKETCHINC
 40
0.1
  9
$FILLETRAD
 40
0.5
  9
$AUNITS
 70
     0
  9
$AUPREC
 70
     0
  9
$MENU
  1
.
  9
$ELEVATION
 40
0.0
  9
$PELEVATION
 40
0.0
  9
$THICKNESS
 40
0.0
  9
$LIMCHECK
 70
     0
  9
$CHAMFERA
 40
0.0
  9
$CHAMFERB
 40
0.0
  9
$SKPOLY
 70
     0
  9
$TDCREATE
 40
2458507.566348866
  9
$TDUPDATE
 40
2458507.56636316
  9
$TDINDWG
 40
0.0000000116
  9
$TDUSRTIMER
 40
0.0000000116
  9
$USRTIMER
 70
     1
  9
$ANGBASE
 50
0.0
  9
$ANGDIR
 70
     0
  9
$PDMODE
 70
     0
  9
$PDSIZE
 40
0.0
  9
$PLINEWID
 40
0.0
  9
$COORDS
 70
     1
  9
$SPLFRAME
 70
     0
  9
$SPLINETYPE
 70
     6
  9
$SPLINESEGS
 70
     8
  9
$ATTDIA
 70
     0
  9
$ATTREQ
 70
     1
  9
$HANDLING
 70
     1
  9
$HANDSEED
  5
B9
  9
$SURFTAB1
 70
     6
  9
$SURFTAB2
 70
     6
  9
$SURFTYPE
 70
     6
  9
$SURFU
 70
     6
  9
$SURFV
 70
     6
  9
$UCSNAME
  2

  9
$UCSORG
 10
0.0
 20
0.0
 30
0.0
  9
$UCSXDIR
 10
1.0
 20
0.0
 30
0.0
  9
$UCSYDIR
 10
0.0
 20
1.0
 30
0.0
  9
$PUCSNAME
  2

  9
$PUCSORG
 10
0.0
 20
0.0
 30
0.0
  9
$PUCSXDIR
 10
1.0
 20
0.0
 30
0.0
  9
$PUCSYDIR
 10
0.0
 20
1.0
 30
0.0
  9
$USERI1
 70
     0
  9
$USERI2
 70
     0
  9
$USERI3
 70
     0
  9
$USERI4
 70
     0
  9
$USERI5
 70
     0
  9
$USERR1
 40
0.0
  9
$USERR2
 40
0.0
  9
$USERR3
 40
0.0
  9
$USERR4
 40
0.0
  9
$USERR5
 40
0.0
  9
$WORLDVIEW
 70
     1
  9
$SHADEDGE
 70
     3
  9
$SHADEDIF
 70
    70
  9
$TILEMODE
 70
     1
  9
$MAXACTVP
 70
    64
  9
$PLIMCHECK
 70
     0
  9
$PEXTMIN
 10
1.000000000000000E+20
 20
1.000000000000000E+20
 30
1.000000000000000E+20
  9
$PEXTMAX
 10
-1.000000000000000E+20
 20
-1.000000000000000E+20
 30
-1.000000000000000E+20
  9
$PLIMMIN
 10
0.0
 20
0.0
  9
$PLIMMAX
 10
12.0
 20
9.0
  9
$UNITMODE
 70
     0
  9
$VISRETAIN
 70
     1
  9
$PLINEGEN
 70
     0
  9
$PSLTSCALE
 70
     1
  0
ENDSEC
  0
SECTION
  2
TABLES
  0
TABLE
  2
VPORT
 70
     1
  0
VPORT
  2
*ACTIVE
 70
     0
 10
0.0
 20
0.0
 11
1.0
 21
1.0
 12
7.919424228675394
 22
5.827316014444539
 13
0.0
 23
0.0
 14
0.5
 24
0.5
 15
0.5
 25
0.5
 16
0.0
 26
0.0
 36
1.0
 17
0.0
 27
0.0
 37
0.0
 40
11.25263908162417
 41
1.487411449206289
 42
50.0
 43
0.0
 44
0.0
 50
0.0
 51
0.0
 71
     0
 72
   100
 73
     1
 74
     3
 75
     0
 76
     0
 77
     0
 78
     0
  0
ENDTAB
  0
TABLE
  2
LTYPE
 70
     1
  0
LTYPE
  2
CONTINUOUS
 70
     0
  3
Solid line
 72
    65
 73
     0
 40
0.0
  0
ENDTAB
  0
TABLE
  2
LAYER
 70
     3
  0
LAYER
  2
0
 70
     0
 62
     7
  6
CONTINUOUS
  0
LAYER
  2
ZIPTIES
 70
     0
 62
     7
  6
CONTINUOUS
  0
LAYER
  2
LAYER_02
 70
     0
 62
   192
  6
CONTINUOUS
  0
ENDTAB
  0
TABLE
  2
STYLE
 70
     1
  0
STYLE
  2
STANDARD
 70
     0
 40
0.0
 41
1.0
 50
0.0
 71
     0
 42
0.2
  3
txt
  4

  0
ENDTAB
  0
TABLE
  2
VIEW
 70
     0
  0
ENDTAB
  0
TABLE
  2
UCS
 70
     0
  0
ENDTAB
  0
TABLE
  2
APPID
 70
     1
  0
APPID
  2
ACAD
 70
     0
  0
ENDTAB
  0
TABLE
  2
DIMSTYLE
 70
     1
  0
DIMSTYLE
  2
STANDARD
 70
     0
  3

  4

  5

  6

  7

 40
1.0
 41
0.18
 42
0.0625
 43
0.38
 44
0.18
 45
0.0
 46
0.0
 47
0.0
 48
0.0
140
0.18
141
0.09
142
0.0
143
25.4
144
1.0
145
0.0
146
1.0
147
0.09
 71
     0
 72
     0
 73
     1
 74
     1
 75
     0
 76
     0
 77
     0
 78
     0
170
     0
171
     2
172
     0
173
     0
174
     0
175
     0
176
     0
177
     0
178
     0
  0
ENDTAB
  0
ENDSEC
  0
SECTION
  2
BLOCKS
  0
BLOCK
  8
0
  2
$MODEL_SPACE
 70
     0
 10
0.0
 20
0.0
 30
0.0
  3
$MODEL_SPACE
  1

  0
ENDBLK
  5
21
  8
0
  0
BLOCK
 67
     1
  8
0
  2
$PAPER_SPACE
 70
     0
 10
0.0
 20
0.0
 30
0.0
  3
$PAPER_SPACE
  1

  0
ENDBLK
  5
1D
 67
     1
  8
0
  0
ENDSEC
  0
SECTION
  2
ENTITIES
  0
CIRCLE
  5
6F
  8
ZIPTIES
 10
15.73612126288637
 20
6.547072505197659
 30
0.0
 40
0.133
  0
POLYLINE
  5
71
  8
LAYER_02
 66
     1
 10
0.0
 20
0.0
 30
0.0
 70
     1
  0
VERTEX
  5
72
  8
LAYER_02
 10
15.11119088364356
 20
5.117967058769806
 30
0.0
  0
VERTEX
  5
73
  8
LAYER_02
 10
14.0924929722941
 20
5.117967058769808
 30
0.0
  0
VERTEX
  5
74
  8
LAYER_02
 10
14.0924929722941
 20
6.536664970119269
 30
0.0
  0
VERTEX
  5
75
  8
LAYER_02
 10
15.11119088364356
 20
6.536664970119268
 30
0.0
 42
-0.4142135623730959
  0
VERTEX
  5
76
  8
LAYER_02
 10
15.51119088364356
 20
6.136664970119269
 30
0.0
  0
VERTEX
  5
77
  8
LAYER_02
 10
15.51119088364356
 20
5.517967058769808
 30
0.0
 42
-0.4142135623730954
  0
SEQEND
  5
78
  8
LAYER_02
  0
POLYLINE
  5
79
  8
ZIPTIES
 66
     1
 10
0.0
 20
0.0
 30
0.0
 70
     1
  0
VERTEX
  5
7A
  8
ZIPTIES
 10
16.1239851128881
 20
5.787034624927611
 30
0.0
  0
VERTEX
  5
7B
  8
ZIPTIES
 10
15.8275083534193
 20
5.787034624927611
 30
0.0
  0
VERTEX
  5
7C
  8
ZIPTIES
 10
15.8275083534193
 20
5.887034624927613
 30
0.0
  0
VERTEX
  5
7D
  8
ZIPTIES
 10
16.1239851128881
 20
5.887034624927613
 30
0.0
  0
SEQEND
  5
7E
  8
ZIPTIES
  0
CIRCLE
  5
7F
  8
LAYER_02
 10
15.51119088364357
 20
5.827316014444539
 30
0.0
 40
0.375
  0
CIRCLE
  5
80
  8
LAYER_02
 10
0.3276575737084124
 20
2.28022657618193
 30
0.0
 40
0.375
  0
POLYLINE
  5
81
  8
ZIPTIES
 66
     1
 10
0.0
 20
0.0
 30
0.0
 70
     1
  0
VERTEX
  5
82
  8
ZIPTIES
 10
-0.2851366555361259
 20
2.239945186665003
 30
0.0
  0
VERTEX
  5
83
  8
ZIPTIES
 10
0.0113401039326783
 20
2.239945186665003
 30
0.0
  0
VERTEX
  5
84
  8
ZIPTIES
 10
0.0113401039326783
 20
2.339945186665005
 30
0.0
  0
VERTEX
  5
85
  8
ZIPTIES
 10
-0.2851366555361259
 20
2.339945186665005
 30
0.0
  0
SEQEND
  5
86
  8
ZIPTIES
  0
POLYLINE
  5
87
  8
LAYER_02
 66
     1
 10
0.0
 20
0.0
 30
0.0
 70
     1
  0
VERTEX
  5
88
  8
LAYER_02
 10
0.7276575737084131
 20
1.570877620507198
 30
0.0
  0
VERTEX
  5
89
  8
LAYER_02
 10
1.746355485057874
 20
1.5708776205072
 30
0.0
  0
VERTEX
  5
8A
  8
LAYER_02
 10
1.746355485057874
 20
2.989575531856661
 30
0.0
  0
VERTEX
  5
8B
  8
LAYER_02
 10
0.7276575737084127
 20
2.989575531856661
 30
0.0
 42
0.4142135623730946
  0
VERTEX
  5
8C
  8
LAYER_02
 10
0.3276575737084126
 20
2.589575531856661
 30
0.0
  0
VERTEX
  5
8D
  8
LAYER_02
 10
0.3276575737084125
 20
1.9708776205072
 30
0.0
 42
0.4142135623730966
  0
SEQEND
  5
8E
  8
LAYER_02
  0
CIRCLE
  5
8F
  8
ZIPTIES
 10
0.1027271944656044
 20
2.999983066935051
 30
0.0
 40
0.133
  0
CIRCLE
  5
90
  8
ZIPTIES
 10
0.1027271944656044
 20
2.999983066935051
 30
0.0
 40
0.133
  0
POLYLINE
  5
91
  8
LAYER_02
 66
     1
 10
0.0
 20
0.0
 30
0.0
 70
     1
  0
VERTEX
  5
92
  8
LAYER_02
 10
0.7276575737084131
 20
1.570877620507198
 30
0.0
  0
VERTEX
  5
93
  8
LAYER_02
 10
1.746355485057874
 20
1.5708776205072
 30
0.0
  0
VERTEX
  5
94
  8
LAYER_02
 10
1.746355485057874
 20
2.989575531856661
 30
0.0
  0
VERTEX
  5
95
  8
LAYER_02
 10
0.7276575737084127
 20
2.989575531856661
 30
0.0
 42
0.4142135623730946
  0
VERTEX
  5
96
  8
LAYER_02
 10
0.3276575737084126
 20
2.589575531856661
 30
0.0
  0
VERTEX
  5
97
  8
LAYER_02
 10
0.3276575737084125
 20
1.9708776205072
 30
0.0
 42
0.4142135623730966
  0
SEQEND
  5
98
  8
LAYER_02
  0
POLYLINE
  5
99
  8
ZIPTIES
 66
     1
 10
0.0
 20
0.0
 30
0.0
 70
     1
  0
VERTEX
  5
9A
  8
ZIPTIES
 10
-0.2851366555361259
 20
2.239945186665003
 30
0.0
  0
VERTEX
  5
9B
  8
ZIPTIES
 10
0.0113401039326783
 20
2.239945186665003
 30
0.0
  0
VERTEX
  5
9C
  8
ZIPTIES
 10
0.0113401039326783
 20
2.339945186665005
 30
0.0
  0
VERTEX
  5
9D
  8
ZIPTIES
 10
-0.2851366555361259
 20
2.339945186665005
 30
0.0
  0
SEQEND
  5
9E
  8
ZIPTIES
  0
CIRCLE
  5
9F
  8
LAYER_02
 10
0.3276575737084124
 20
2.28022657618193
 30
0.0
 40
0.375
  0
CIRCLE
  5
A0
  8
ZIPTIES
 10
0.1027271944644164
 20
10.08444333297719
 30
0.0
 40
0.133
  0
CIRCLE
  5
A1
  8
ZIPTIES
 10
7.919424228675086
 20
0.4443164646287716
 30
0.0
 40
0.133
  0
CIRCLE
  5
A2
  8
ZIPTIES
 10
7.919424228675086
 20
11.21031556426031
 30
0.0
 40
0.133
  0
POLYLINE
  5
A3
  8
LAYER_02
 66
     1
 10
0.0
 20
0.0
 30
0.0
 70
     1
  0
VERTEX
  5
A4
  8
LAYER_02
 10
0.7276575737072251
 20
8.655337886549342
 30
0.0
  0
VERTEX
  5
A5
  8
LAYER_02
 10
1.746355485056686
 20
8.655337886549344
 30
0.0
  0
VERTEX
  5
A6
  8
LAYER_02
 10
1.746355485056686
 20
10.07403579789881
 30
0.0
  0
VERTEX
  5
A7
  8
LAYER_02
 10
0.7276575737072246
 20
10.07403579789881
 30
0.0
 42
0.4142135623730938
  0
VERTEX
  5
A8
  8
LAYER_02
 10
0.3276575737072246
 20
9.674035797898805
 30
0.0
  0
VERTEX
  5
A9
  8
LAYER_02
 10
0.3276575737072245
 20
9.055337886549344
 30
0.0
 42
0.4142135623730959
  0
SEQEND
  5
AA
  8
LAYER_02
  0
POLYLINE
  5
AB
  8
ZIPTIES
 66
     1
 10
0.0
 20
0.0
 30
0.0
 70
     1
  0
VERTEX
  5
AC
  8
ZIPTIES
 10
-0.285136655537314
 20
9.324405452707147
 30
0.0
  0
VERTEX
  5
AD
  8
ZIPTIES
 10
0.0113401039314902
 20
9.324405452707147
 30
0.0
  0
VERTEX
  5
AE
  8
ZIPTIES
 10
0.0113401039314902
 20
9.424405452707148
 30
0.0
  0
VERTEX
  5
AF
  8
ZIPTIES
 10
-0.285136655537314
 20
9.424405452707148
 30
0.0
  0
SEQEND
  5
B0
  8
ZIPTIES
  0
CIRCLE
  5
B1
  8
LAYER_02
 10
0.3276575737072243
 20
9.364686842224074
 30
0.0
 40
0.375
  0
ENDSEC
  0
EOF
