  0
SECTION
  2
HEADER
  9
$ACADVER
  1
AC1009
  9
$DWGCODEPAGE
  3
ansi_1252
  9
$INSBASE
 10
0.0
 20
0.0
 30
0.0
  9
$EXTMIN
 10
-0.1368982758029119
 20
0.0
 30
0.0
  9
$EXTMAX
 10
15.9757467331537
 20
11.65463202888911
 30
0.0
  9
$LIMMIN
 10
0.0
 20
0.0
  9
$LIMMAX
 10
12.0
 20
9.0
  9
$ORTHOMODE
 70
     0
  9
$REGENMODE
 70
     1
  9
$FILLMODE
 70
     1
  9
$QTEXTMODE
 70
     0
  9
$MIRRTEXT
 70
     1
  9
$DRAGMODE
 70
     2
  9
$LTSCALE
 40
1.0
  9
$OSMODE
 70
    37
  9
$ATTMODE
 70
     1
  9
$TEXTSIZE
 40
0.2
  9
$TRACEWID
 40
0.05
  9
$TEXTSTYLE
  7
STANDARD
  9
$CLAYER
  8
LAYER_02
  9
$CELTYPE
  6
BYLAYER
  9
$CECOLOR
 62
   256
  9
$DIMSCALE
 40
1.0
  9
$DIMASZ
 40
0.18
  9
$DIMEXO
 40
0.0625
  9
$DIMDLI
 40
0.38
  9
$DIMRND
 40
0.0
  9
$DIMDLE
 40
0.0
  9
$DIMEXE
 40
0.18
  9
$DIMTP
 40
0.0
  9
$DIMTM
 40
0.0
  9
$DIMTXT
 40
0.18
  9
$DIMCEN
 40
0.09
  9
$DIMTSZ
 40
0.0
  9
$DIMTOL
 70
     0
  9
$DIMLIM
 70
     0
  9
$DIMTIH
 70
     1
  9
$DIMTOH
 70
     1
  9
$DIMSE1
 70
     0
  9
$DIMSE2
 70
     0
  9
$DIMTAD
 70
     0
  9
$DIMZIN
 70
     0
  9
$DIMBLK
  1

  9
$DIMASO
 70
     1
  9
$DIMSHO
 70
     1
  9
$DIMPOST
  1

  9
$DIMAPOST
  1

  9
$DIMALT
 70
     0
  9
$DIMALTD
 70
     2
  9
$DIMALTF
 40
25.4
  9
$DIMLFAC
 40
1.0
  9
$DIMTOFL
 70
     0
  9
$DIMTVP
 40
0.0
  9
$DIMTIX
 70
     0
  9
$DIMSOXD
 70
     0
  9
$DIMSAH
 70
     0
  9
$DIMBLK1
  1

  9
$DIMBLK2
  1

  9
$DIMSTYLE
  2
STANDARD
  9
$DIMCLRD
 70
     0
  9
$DIMCLRE
 70
     0
  9
$DIMCLRT
 70
     0
  9
$DIMTFAC
 40
1.0
  9
$DIMGAP
 40
0.09
  9
$LUNITS
 70
     2
  9
$LUPREC
 70
     2
  9
$SKETCHINC
 40
0.1
  9
$FILLETRAD
 40
0.5
  9
$AUNITS
 70
     0
  9
$AUPREC
 70
     0
  9
$MENU
  1
.
  9
$ELEVATION
 40
0.0
  9
$PELEVATION
 40
0.0
  9
$THICKNESS
 40
0.0
  9
$LIMCHECK
 70
     0
  9
$CHAMFERA
 40
0.0
  9
$CHAMFERB
 40
0.0
  9
$SKPOLY
 70
     0
  9
$TDCREATE
 40
2458500.652038611
  9
$TDUPDATE
 40
2458500.652059525
  9
$TDINDWG
 40
0.0000000116
  9
$TDUSRTIMER
 40
0.0000000116
  9
$USRTIMER
 70
     1
  9
$ANGBASE
 50
0.0
  9
$ANGDIR
 70
     0
  9
$PDMODE
 70
     0
  9
$PDSIZE
 40
0.0
  9
$PLINEWID
 40
0.0
  9
$COORDS
 70
     1
  9
$SPLFRAME
 70
     0
  9
$SPLINETYPE
 70
     6
  9
$SPLINESEGS
 70
     8
  9
$ATTDIA
 70
     0
  9
$ATTREQ
 70
     1
  9
$HANDLING
 70
     1
  9
$HANDSEED
  5
382
  9
$SURFTAB1
 70
     6
  9
$SURFTAB2
 70
     6
  9
$SURFTYPE
 70
     6
  9
$SURFU
 70
     6
  9
$SURFV
 70
     6
  9
$UCSNAME
  2

  9
$UCSORG
 10
0.0
 20
0.0
 30
0.0
  9
$UCSXDIR
 10
1.0
 20
0.0
 30
0.0
  9
$UCSYDIR
 10
0.0
 20
1.0
 30
0.0
  9
$PUCSNAME
  2

  9
$PUCSORG
 10
0.0
 20
0.0
 30
0.0
  9
$PUCSXDIR
 10
1.0
 20
0.0
 30
0.0
  9
$PUCSYDIR
 10
0.0
 20
1.0
 30
0.0
  9
$USERI1
 70
     0
  9
$USERI2
 70
     0
  9
$USERI3
 70
     0
  9
$USERI4
 70
     0
  9
$USERI5
 70
     0
  9
$USERR1
 40
0.0
  9
$USERR2
 40
0.0
  9
$USERR3
 40
0.0
  9
$USERR4
 40
0.0
  9
$USERR5
 40
0.0
  9
$WORLDVIEW
 70
     1
  9
$SHADEDGE
 70
     3
  9
$SHADEDIF
 70
    70
  9
$TILEMODE
 70
     1
  9
$MAXACTVP
 70
    64
  9
$PLIMCHECK
 70
     0
  9
$PEXTMIN
 10
1.000000000000000E+20
 20
1.000000000000000E+20
 30
1.000000000000000E+20
  9
$PEXTMAX
 10
-1.000000000000000E+20
 20
-1.000000000000000E+20
 30
-1.000000000000000E+20
  9
$PLIMMIN
 10
0.0
 20
0.0
  9
$PLIMMAX
 10
12.0
 20
9.0
  9
$UNITMODE
 70
     0
  9
$VISRETAIN
 70
     1
  9
$PLINEGEN
 70
     0
  9
$PSLTSCALE
 70
     1
  0
ENDSEC
  0
SECTION
  2
TABLES
  0
TABLE
  2
VPORT
 70
     1
  0
VPORT
  2
*ACTIVE
 70
     0
 10
0.0
 20
0.0
 11
1.0
 21
1.0
 12
7.919424228675394
 22
5.827316014444554
 13
0.0
 23
0.0
 14
0.5
 24
0.5
 15
0.5
 25
0.5
 16
0.0
 26
0.0
 36
1.0
 17
0.0
 27
0.0
 37
0.0
 40
11.88772466946689
 41
1.382509972774527
 42
50.0
 43
0.0
 44
0.0
 50
0.0
 51
0.0
 71
     0
 72
   100
 73
     1
 74
     3
 75
     0
 76
     0
 77
     0
 78
     0
  0
ENDTAB
  0
TABLE
  2
LTYPE
 70
     1
  0
LTYPE
  2
CONTINUOUS
 70
     0
  3
Solid line
 72
    65
 73
     0
 40
0.0
  0
ENDTAB
  0
TABLE
  2
LAYER
 70
     4
  0
LAYER
  2
0
 70
     0
 62
     7
  6
CONTINUOUS
  0
LAYER
  2
LAYER_02
 70
     0
 62
   192
  6
CONTINUOUS
  0
LAYER
  2
CELLS
 70
     0
 62
   192
  6
CONTINUOUS
  0
LAYER
  2
ZIPTIES
 70
     0
 62
     7
  6
CONTINUOUS
  0
ENDTAB
  0
TABLE
  2
STYLE
 70
     1
  0
STYLE
  2
STANDARD
 70
     0
 40
0.0
 41
1.0
 50
0.0
 71
     0
 42
0.2
  3
txt
  4

  0
ENDTAB
  0
TABLE
  2
VIEW
 70
     0
  0
ENDTAB
  0
TABLE
  2
UCS
 70
     0
  0
ENDTAB
  0
TABLE
  2
APPID
 70
     1
  0
APPID
  2
ACAD
 70
     0
  0
ENDTAB
  0
TABLE
  2
DIMSTYLE
 70
     1
  0
DIMSTYLE
  2
STANDARD
 70
     0
  3

  4

  5

  6

  7

 40
1.0
 41
0.18
 42
0.0625
 43
0.38
 44
0.18
 45
0.0
 46
0.0
 47
0.0
 48
0.0
140
0.18
141
0.09
142
0.0
143
25.4
144
1.0
145
0.0
146
1.0
147
0.09
 71
     0
 72
     0
 73
     1
 74
     1
 75
     0
 76
     0
 77
     0
 78
     0
170
     0
171
     2
172
     0
173
     0
174
     0
175
     0
176
     0
177
     0
178
     0
  0
ENDTAB
  0
ENDSEC
  0
SECTION
  2
BLOCKS
  0
BLOCK
  8
0
  2
$MODEL_SPACE
 70
     0
 10
0.0
 20
0.0
 30
0.0
  3
$MODEL_SPACE
  1

  0
ENDBLK
  5
21
  8
0
  0
BLOCK
 67
     1
  8
0
  2
$PAPER_SPACE
 70
     0
 10
0.0
 20
0.0
 30
0.0
  3
$PAPER_SPACE
  1

  0
ENDBLK
  5
1D
 67
     1
  8
0
  0
ENDSEC
  0
SECTION
  2
ENTITIES
  0
POLYLINE
  5
6F
  8
LAYER_02
 66
     1
 10
0.0
 20
0.0
 30
0.0
 70
     1
  0
VERTEX
  5
70
  8
LAYER_02
 10
7.883698309908942
 20
0.0
 30
0.0
  0
VERTEX
  5
71
  8
LAYER_02
 10
12.95981689957284
 20
0.0
 30
0.0
  0
VERTEX
  5
72
  8
LAYER_02
 10
12.95981689957284
 20
0.4235898736177113
 30
0.0
  0
VERTEX
  5
73
  8
LAYER_02
 10
14.47430621598934
 20
0.4235898736177131
 30
0.0
 42
0.4142135623731045
  0
VERTEX
  5
74
  8
LAYER_02
 10
14.97913598812817
 20
0.9284196457565397
 30
0.0
  0
VERTEX
  5
75
  8
LAYER_02
 10
14.97913598812941
 20
1.962287612956191
 30
0.0
  0
VERTEX
  5
76
  8
LAYER_02
 10
15.51119088364419
 20
1.962287612956191
 30
0.0
 42
0.9999999999999992
  0
VERTEX
  5
77
  8
LAYER_02
 10
15.51119088364419
 20
2.617602760373815
 30
0.0
  0
VERTEX
  5
78
  8
LAYER_02
 10
14.97913598812941
 20
2.617602760373815
 30
0.0
  0
VERTEX
  5
79
  8
LAYER_02
 10
14.97913598812878
 20
4.956638357920881
 30
0.0
  0
VERTEX
  5
7A
  8
LAYER_02
 10
15.62778763423394
 20
4.956638357920881
 30
0.0
 42
0.414213562373098
  0
VERTEX
  5
7B
  8
LAYER_02
 10
15.87778763423394
 20
5.206638357920883
 30
0.0
  0
VERTEX
  5
7C
  8
LAYER_02
 10
15.87778763423395
 20
6.447993670968196
 30
0.0
 42
0.4142135623730846
  0
VERTEX
  5
7D
  8
LAYER_02
 10
15.62778763423394
 20
6.697993670968196
 30
0.0
  0
VERTEX
  5
7E
  8
LAYER_02
 10
14.97913598812878
 20
6.697993670968196
 30
0.0
  0
VERTEX
  5
7F
  8
LAYER_02
 10
14.97913598812817
 20
9.037029268515262
 30
0.0
  0
VERTEX
  5
80
  8
LAYER_02
 10
15.51119088364295
 20
9.037029268515262
 30
0.0
 42
0.9999999999999999
  0
VERTEX
  5
81
  8
LAYER_02
 10
15.51119088364295
 20
9.692344415932887
 30
0.0
  0
VERTEX
  5
82
  8
LAYER_02
 10
14.97913598812817
 20
9.692344415932887
 30
0.0
  0
VERTEX
  5
83
  8
LAYER_02
 10
14.97913598812817
 20
10.72621238313257
 30
0.0
 42
0.4142135623731058
  0
VERTEX
  5
84
  8
LAYER_02
 10
14.47430621598934
 20
11.2310421552714
 30
0.0
  0
VERTEX
  5
85
  8
LAYER_02
 10
12.95981689957284
 20
11.2310421552714
 30
0.0
  0
VERTEX
  5
86
  8
LAYER_02
 10
12.95981689957285
 20
11.65463202888911
 30
0.0
  0
VERTEX
  5
87
  8
LAYER_02
 10
2.879031557777319
 20
11.65463202888911
 30
0.0
  0
VERTEX
  5
88
  8
LAYER_02
 10
2.87903155777733
 20
11.2310421552714
 30
0.0
  0
VERTEX
  5
89
  8
LAYER_02
 10
1.36454224136083
 20
11.2310421552714
 30
0.0
 42
0.4142135623731044
  0
VERTEX
  5
8A
  8
LAYER_02
 10
0.859712469222004
 20
10.72621238313257
 30
0.0
  0
VERTEX
  5
8B
  8
LAYER_02
 10
0.859712469222004
 20
10.23536449874773
 30
0.0
  0
VERTEX
  5
8C
  8
LAYER_02
 10
0.2110608231168477
 20
10.23536449874773
 30
0.0
 42
0.4142135623730942
  0
VERTEX
  5
8D
  8
LAYER_02
 10
-0.0389391768831524
 20
9.985364498747732
 30
0.0
  0
VERTEX
  5
8E
  8
LAYER_02
 10
-0.0389391768831524
 20
8.744009185700419
 30
0.0
 42
0.4142135623730976
  0
VERTEX
  5
8F
  8
LAYER_02
 10
0.2110608231168477
 20
8.494009185700417
 30
0.0
  0
VERTEX
  5
90
  8
LAYER_02
 10
0.859712469222004
 20
8.494009185700417
 30
0.0
  0
VERTEX
  5
91
  8
LAYER_02
 10
0.8597124692226239
 20
6.154973588153351
 30
0.0
  0
VERTEX
  5
92
  8
LAYER_02
 10
0.327657573707841
 20
6.15497358815335
 30
0.0
 42
1.000000000000001
  0
VERTEX
  5
93
  8
LAYER_02
 10
0.3276575737078411
 20
5.499658440735727
 30
0.0
  0
VERTEX
  5
94
  8
LAYER_02
 10
0.8597124692226239
 20
5.499658440735726
 30
0.0
  0
VERTEX
  5
95
  8
LAYER_02
 10
0.8597124692232438
 20
3.16062284318866
 30
0.0
  0
VERTEX
  5
96
  8
LAYER_02
 10
0.2110608231180875
 20
3.16062284318866
 30
0.0
 42
0.4142135623730951
  0
VERTEX
  5
97
  8
LAYER_02
 10
-0.0389391768819125
 20
2.91062284318866
 30
0.0
  0
VERTEX
  5
98
  8
LAYER_02
 10
-0.0389391768819125
 20
1.669267530141347
 30
0.0
 42
0.4142135623730973
  0
VERTEX
  5
99
  8
LAYER_02
 10
0.2110608231180876
 20
1.419267530141346
 30
0.0
  0
VERTEX
  5
9A
  8
LAYER_02
 10
0.8597124692232438
 20
1.419267530141346
 30
0.0
  0
VERTEX
  5
9B
  8
LAYER_02
 10
0.859712469222004
 20
0.9284196457565397
 30
0.0
 42
0.4142135623731045
  0
VERTEX
  5
9C
  8
LAYER_02
 10
1.36454224136083
 20
0.4235898736177122
 30
0.0
  0
VERTEX
  5
9D
  8
LAYER_02
 10
2.87903155777733
 20
0.4235898736177113
 30
0.0
  0
VERTEX
  5
9E
  8
LAYER_02
 10
2.879031557777319
 20
0.0
 30
0.0
  0
SEQEND
  5
9F
  8
LAYER_02
  0
POLYLINE
  5
A1
  8
CELLS
 66
     1
 10
0.0
 20
0.0
 30
0.0
 70
     1
  0
VERTEX
  5
A2
  8
CELLS
 10
14.72913598812818
 20
4.449567014291453
 30
0.0
 42
-0.7918918918918942
  0
VERTEX
  5
A3
  8
CELLS
 10
13.98846287963488
 20
4.449567014291459
 30
0.0
  0
VERTEX
  5
A4
  8
CELLS
 10
13.98846287963487
 20
5.354389298180565
 30
0.0
 42
-0.7918918918918995
  0
VERTEX
  5
A5
  8
CELLS
 10
14.72913598812818
 20
5.354389298180565
 30
0.0
  0
SEQEND
  5
A6
  8
CELLS
  0
POLYLINE
  5
A7
  8
CELLS
 66
     1
 10
0.0
 20
0.0
 30
0.0
 70
     1
  0
VERTEX
  5
A8
  8
CELLS
 10
13.73846287963488
 20
4.449567014291453
 30
0.0
 42
-0.7918918918919035
  0
VERTEX
  5
A9
  8
CELLS
 10
12.99778977114158
 20
4.449567014291458
 30
0.0
  0
VERTEX
  5
AA
  8
CELLS
 10
12.99778977114158
 20
5.354389298180561
 30
0.0
 42
-0.791891891891898
  0
VERTEX
  5
AB
  8
CELLS
 10
13.73846287963488
 20
5.354389298180561
 30
0.0
  0
SEQEND
  5
AC
  8
CELLS
  0
POLYLINE
  5
AD
  8
CELLS
 66
     1
 10
0.0
 20
0.0
 30
0.0
 70
     1
  0
VERTEX
  5
AE
  8
CELLS
 10
12.74778977114158
 20
4.44956701429145
 30
0.0
 42
-0.7918918918919061
  0
VERTEX
  5
AF
  8
CELLS
 10
12.00711666264828
 20
4.449567014291458
 30
0.0
  0
VERTEX
  5
B0
  8
CELLS
 10
12.00711666264828
 20
5.354389298180558
 30
0.0
 42
-0.7918918918918995
  0
VERTEX
  5
B1
  8
CELLS
 10
12.74778977114158
 20
5.354389298180558
 30
0.0
  0
SEQEND
  5
B2
  8
CELLS
  0
POLYLINE
  5
B3
  8
CELLS
 66
     1
 10
0.0
 20
0.0
 30
0.0
 70
     1
  0
VERTEX
  5
B4
  8
CELLS
 10
11.75711666264828
 20
4.449567014291446
 30
0.0
 42
-0.7918918918918946
  0
VERTEX
  5
B5
  8
CELLS
 10
11.01644355415499
 20
4.449567014291452
 30
0.0
  0
VERTEX
  5
B6
  8
CELLS
 10
11.01644355415498
 20
5.354389298180557
 30
0.0
 42
-0.7918918918919013
  0
VERTEX
  5
B7
  8
CELLS
 10
11.75711666264828
 20
5.354389298180558
 30
0.0
  0
SEQEND
  5
B8
  8
CELLS
  0
POLYLINE
  5
B9
  8
CELLS
 66
     1
 10
0.0
 20
0.0
 30
0.0
 70
     1
  0
VERTEX
  5
BA
  8
CELLS
 10
10.76644355415499
 20
4.449567014291443
 30
0.0
 42
-0.791891891891894
  0
VERTEX
  5
BB
  8
CELLS
 10
10.02577044566168
 20
4.449567014291451
 30
0.0
  0
VERTEX
  5
BC
  8
CELLS
 10
10.02577044566168
 20
5.354389298180553
 30
0.0
 42
-0.791891891891898
  0
VERTEX
  5
BD
  8
CELLS
 10
10.76644355415499
 20
5.354389298180554
 30
0.0
  0
SEQEND
  5
BE
  8
CELLS
  0
POLYLINE
  5
BF
  8
CELLS
 66
     1
 10
0.0
 20
0.0
 30
0.0
 70
     1
  0
VERTEX
  5
C0
  8
CELLS
 10
9.775770445661687
 20
4.449567014291439
 30
0.0
 42
-0.7918918918918955
  0
VERTEX
  5
C1
  8
CELLS
 10
9.035097337168384
 20
4.449567014291446
 30
0.0
  0
VERTEX
  5
C2
  8
CELLS
 10
9.035097337168388
 20
5.35438929818055
 30
0.0
 42
-0.791891891891898
  0
VERTEX
  5
C3
  8
CELLS
 10
9.775770445661689
 20
5.354389298180551
 30
0.0
  0
SEQEND
  5
C4
  8
CELLS
  0
POLYLINE
  5
C5
  8
CELLS
 66
     1
 10
0.0
 20
0.0
 30
0.0
 70
     1
  0
VERTEX
  5
C6
  8
CELLS
 10
8.785097337168388
 20
4.449567014291439
 30
0.0
 42
-0.7918918918919026
  0
VERTEX
  5
C7
  8
CELLS
 10
8.044424228675085
 20
4.449567014291444
 30
0.0
  0
VERTEX
  5
C8
  8
CELLS
 10
8.04442422867509
 20
5.354389298180546
 30
0.0
 42
-0.791891891891898
  0
VERTEX
  5
C9
  8
CELLS
 10
8.785097337168391
 20
5.354389298180547
 30
0.0
  0
SEQEND
  5
CA
  8
CELLS
  0
POLYLINE
  5
CB
  8
CELLS
 66
     1
 10
0.0
 20
0.0
 30
0.0
 70
     1
  0
VERTEX
  5
CC
  8
CELLS
 10
14.72913598812817
 20
2.708211701244139
 30
0.0
 42
-0.7918918918919092
  0
VERTEX
  5
CD
  8
CELLS
 10
13.98846287963488
 20
2.708211701244144
 30
0.0
  0
VERTEX
  5
CE
  8
CELLS
 10
13.98846287963487
 20
3.613033985133246
 30
0.0
 42
-0.7918918918918911
  0
VERTEX
  5
CF
  8
CELLS
 10
14.72913598812817
 20
3.613033985133247
 30
0.0
  0
SEQEND
  5
D0
  8
CELLS
  0
POLYLINE
  5
D1
  8
CELLS
 66
     1
 10
0.0
 20
0.0
 30
0.0
 70
     1
  0
VERTEX
  5
D2
  8
CELLS
 10
13.73846287963487
 20
2.708211701244132
 30
0.0
 42
-0.7918918918919043
  0
VERTEX
  5
D3
  8
CELLS
 10
12.99778977114157
 20
2.70821170124414
 30
0.0
  0
VERTEX
  5
D4
  8
CELLS
 10
12.99778977114158
 20
3.613033985133242
 30
0.0
 42
-0.7918918918918911
  0
VERTEX
  5
D5
  8
CELLS
 10
13.73846287963488
 20
3.613033985133244
 30
0.0
  0
SEQEND
  5
D6
  8
CELLS
  0
POLYLINE
  5
D7
  8
CELLS
 66
     1
 10
0.0
 20
0.0
 30
0.0
 70
     1
  0
VERTEX
  5
D8
  8
CELLS
 10
12.74778977114158
 20
2.708211701244132
 30
0.0
 42
-0.7918918918918962
  0
VERTEX
  5
D9
  8
CELLS
 10
12.00711666264828
 20
2.708211701244136
 30
0.0
  0
VERTEX
  5
DA
  8
CELLS
 10
12.00711666264828
 20
3.613033985133242
 30
0.0
 42
-0.7918918918918942
  0
VERTEX
  5
DB
  8
CELLS
 10
12.74778977114158
 20
3.613033985133244
 30
0.0
  0
SEQEND
  5
DC
  8
CELLS
  0
POLYLINE
  5
DD
  8
CELLS
 66
     1
 10
0.0
 20
0.0
 30
0.0
 70
     1
  0
VERTEX
  5
DE
  8
CELLS
 10
11.75711666264828
 20
2.708211701244128
 30
0.0
 42
-0.791891891891904
  0
VERTEX
  5
DF
  8
CELLS
 10
11.01644355415498
 20
2.708211701244136
 30
0.0
  0
VERTEX
  5
E0
  8
CELLS
 10
11.01644355415498
 20
3.613033985133234
 30
0.0
 42
-0.7918918918918907
  0
VERTEX
  5
E1
  8
CELLS
 10
11.75711666264828
 20
3.613033985133236
 30
0.0
  0
SEQEND
  5
E2
  8
CELLS
  0
POLYLINE
  5
E3
  8
CELLS
 66
     1
 10
0.0
 20
0.0
 30
0.0
 70
     1
  0
VERTEX
  5
E4
  8
CELLS
 10
10.76644355415498
 20
2.708211701244124
 30
0.0
 42
-0.7918918918918934
  0
VERTEX
  5
E5
  8
CELLS
 10
10.02577044566168
 20
2.70821170124413
 30
0.0
  0
VERTEX
  5
E6
  8
CELLS
 10
10.02577044566168
 20
3.613033985133234
 30
0.0
 42
-0.7918918918918907
  0
VERTEX
  5
E7
  8
CELLS
 10
10.76644355415498
 20
3.613033985133236
 30
0.0
  0
SEQEND
  5
E8
  8
CELLS
  0
POLYLINE
  5
E9
  8
CELLS
 66
     1
 10
0.0
 20
0.0
 30
0.0
 70
     1
  0
VERTEX
  5
EA
  8
CELLS
 10
9.775770445661681
 20
2.708211701244124
 30
0.0
 42
-0.7918918918919022
  0
VERTEX
  5
EB
  8
CELLS
 10
9.035097337168384
 20
2.708211701244129
 30
0.0
  0
VERTEX
  5
EC
  8
CELLS
 10
9.035097337168384
 20
3.613033985133232
 30
0.0
 42
-0.7918918918918911
  0
VERTEX
  5
ED
  8
CELLS
 10
9.775770445661685
 20
3.613033985133233
 30
0.0
  0
SEQEND
  5
EE
  8
CELLS
  0
POLYLINE
  5
EF
  8
CELLS
 66
     1
 10
0.0
 20
0.0
 30
0.0
 70
     1
  0
VERTEX
  5
F0
  8
CELLS
 10
8.785097337168384
 20
2.708211701244121
 30
0.0
 42
-0.7918918918919067
  0
VERTEX
  5
F1
  8
CELLS
 10
8.044424228675082
 20
2.708211701244129
 30
0.0
  0
VERTEX
  5
F2
  8
CELLS
 10
8.044424228675085
 20
3.613033985133228
 30
0.0
 42
-0.7918918918918942
  0
VERTEX
  5
F3
  8
CELLS
 10
8.785097337168386
 20
3.613033985133229
 30
0.0
  0
SEQEND
  5
F4
  8
CELLS
  0
POLYLINE
  5
F5
  8
CELLS
 66
     1
 10
0.0
 20
0.0
 30
0.0
 70
     1
  0
VERTEX
  5
F6
  8
CELLS
 10
8.78509733716838
 20
0.9668563881968026
 30
0.0
 42
-0.791891891891898
  0
VERTEX
  5
F7
  8
CELLS
 10
8.044424228675078
 20
0.9668563881968077
 30
0.0
  0
VERTEX
  5
F8
  8
CELLS
 10
8.04442422867508
 20
1.871678672085914
 30
0.0
 42
-0.7918918918918946
  0
VERTEX
  5
F9
  8
CELLS
 10
8.78509733716838
 20
1.871678672085915
 30
0.0
  0
SEQEND
  5
FA
  8
CELLS
  0
POLYLINE
  5
FB
  8
CELLS
 66
     1
 10
0.0
 20
0.0
 30
0.0
 70
     1
  0
VERTEX
  5
FC
  8
CELLS
 10
9.775770445661678
 20
0.9668563881968062
 30
0.0
 42
-0.7918918918919081
  0
VERTEX
  5
FD
  8
CELLS
 10
9.035097337168375
 20
0.9668563881968113
 30
0.0
  0
VERTEX
  5
FE
  8
CELLS
 10
9.035097337168379
 20
1.871678672085914
 30
0.0
 42
-0.7918918918918979
  0
VERTEX
  5
FF
  8
CELLS
 10
9.77577044566168
 20
1.871678672085915
 30
0.0
  0
SEQEND
  5
100
  8
CELLS
  0
POLYLINE
  5
101
  8
CELLS
 66
     1
 10
0.0
 20
0.0
 30
0.0
 70
     1
  0
VERTEX
  5
102
  8
CELLS
 10
10.76644355415498
 20
0.9668563881968097
 30
0.0
 42
-0.7918918918919035
  0
VERTEX
  5
103
  8
CELLS
 10
10.02577044566168
 20
0.9668563881968152
 30
0.0
  0
VERTEX
  5
104
  8
CELLS
 10
10.02577044566168
 20
1.871678672085917
 30
0.0
 42
-0.7918918918918946
  0
VERTEX
  5
105
  8
CELLS
 10
10.76644355415498
 20
1.871678672085918
 30
0.0
  0
SEQEND
  5
106
  8
CELLS
  0
POLYLINE
  5
107
  8
CELLS
 66
     1
 10
0.0
 20
0.0
 30
0.0
 70
     1
  0
VERTEX
  5
108
  8
CELLS
 10
12.74778977114157
 20
0.9668563881968133
 30
0.0
 42
-0.791891891891908
  0
VERTEX
  5
109
  8
CELLS
 10
12.00711666264827
 20
0.9668563881968218
 30
0.0
  0
VERTEX
  5
10A
  8
CELLS
 10
12.00711666264827
 20
1.871678672085921
 30
0.0
 42
-0.7918918918918953
  0
VERTEX
  5
10B
  8
CELLS
 10
12.74778977114157
 20
1.871678672085922
 30
0.0
  0
SEQEND
  5
10C
  8
CELLS
  0
POLYLINE
  5
10D
  8
CELLS
 66
     1
 10
0.0
 20
0.0
 30
0.0
 70
     1
  0
VERTEX
  5
10E
  8
CELLS
 10
13.73846287963487
 20
0.9668563881968169
 30
0.0
 42
-0.7918918918919013
  0
VERTEX
  5
10F
  8
CELLS
 10
12.99778977114157
 20
0.9668563881968226
 30
0.0
  0
VERTEX
  5
110
  8
CELLS
 10
12.99778977114157
 20
1.871678672085924
 30
0.0
 42
-0.7918918918918979
  0
VERTEX
  5
111
  8
CELLS
 10
13.73846287963487
 20
1.871678672085925
 30
0.0
  0
SEQEND
  5
112
  8
CELLS
  0
POLYLINE
  5
113
  8
CELLS
 66
     1
 10
0.0
 20
0.0
 30
0.0
 70
     1
  0
VERTEX
  5
114
  8
CELLS
 10
14.72913598812817
 20
0.9668563881968169
 30
0.0
 42
-0.7918918918918892
  0
VERTEX
  5
115
  8
CELLS
 10
13.98846287963487
 20
0.9668563881968222
 30
0.0
  0
VERTEX
  5
116
  8
CELLS
 10
13.98846287963487
 20
1.871678672085928
 30
0.0
 42
-0.7918918918918983
  0
VERTEX
  5
117
  8
CELLS
 10
14.72913598812817
 20
1.871678672085929
 30
0.0
  0
SEQEND
  5
118
  8
CELLS
  0
POLYLINE
  5
119
  8
CELLS
 66
     1
 10
0.0
 20
0.0
 30
0.0
 70
     1
  0
VERTEX
  5
11A
  8
CELLS
 10
8.785097337168388
 20
7.205065014597668
 30
0.0
 42
0.7918918918918911
  0
VERTEX
  5
11B
  8
CELLS
 10
8.044424228675084
 20
7.205065014597667
 30
0.0
  0
VERTEX
  5
11C
  8
CELLS
 10
8.04442422867509
 20
6.300242730708561
 30
0.0
 42
0.7918918918919
  0
VERTEX
  5
11D
  8
CELLS
 10
8.785097337168391
 20
6.30024273070856
 30
0.0
  0
SEQEND
  5
11E
  8
CELLS
  0
POLYLINE
  5
11F
  8
CELLS
 66
     1
 10
0.0
 20
0.0
 30
0.0
 70
     1
  0
VERTEX
  5
120
  8
CELLS
 10
9.775770445661687
 20
7.205065014597665
 30
0.0
 42
0.7918918918919013
  0
VERTEX
  5
121
  8
CELLS
 10
9.03509733716839
 20
7.205065014597663
 30
0.0
  0
VERTEX
  5
122
  8
CELLS
 10
9.035097337168388
 20
6.300242730708558
 30
0.0
 42
0.791891891891898
  0
VERTEX
  5
123
  8
CELLS
 10
9.775770445661689
 20
6.300242730708557
 30
0.0
  0
SEQEND
  5
124
  8
CELLS
  0
POLYLINE
  5
125
  8
CELLS
 66
     1
 10
0.0
 20
0.0
 30
0.0
 70
     1
  0
VERTEX
  5
126
  8
CELLS
 10
10.76644355415499
 20
7.205065014597665
 30
0.0
 42
0.7918918918918901
  0
VERTEX
  5
127
  8
CELLS
 10
10.02577044566168
 20
7.20506501459766
 30
0.0
  0
VERTEX
  5
128
  8
CELLS
 10
10.02577044566168
 20
6.300242730708554
 30
0.0
 42
0.7918918918919
  0
VERTEX
  5
129
  8
CELLS
 10
10.76644355415499
 20
6.300242730708553
 30
0.0
  0
SEQEND
  5
12A
  8
CELLS
  0
POLYLINE
  5
12B
  8
CELLS
 66
     1
 10
0.0
 20
0.0
 30
0.0
 70
     1
  0
VERTEX
  5
12C
  8
CELLS
 10
11.75711666264828
 20
7.205065014597661
 30
0.0
 42
0.791891891891896
  0
VERTEX
  5
12D
  8
CELLS
 10
11.01644355415499
 20
7.205065014597659
 30
0.0
  0
VERTEX
  5
12E
  8
CELLS
 10
11.01644355415498
 20
6.300242730708554
 30
0.0
 42
0.7918918918919013
  0
VERTEX
  5
12F
  8
CELLS
 10
11.75711666264828
 20
6.300242730708553
 30
0.0
  0
SEQEND
  5
130
  8
CELLS
  0
POLYLINE
  5
131
  8
CELLS
 66
     1
 10
0.0
 20
0.0
 30
0.0
 70
     1
  0
VERTEX
  5
132
  8
CELLS
 10
12.74778977114158
 20
7.205065014597658
 30
0.0
 42
0.7918918918918896
  0
VERTEX
  5
133
  8
CELLS
 10
12.00711666264828
 20
7.205065014597656
 30
0.0
  0
VERTEX
  5
134
  8
CELLS
 10
12.00711666264828
 20
6.30024273070855
 30
0.0
 42
0.7918918918918995
  0
VERTEX
  5
135
  8
CELLS
 10
12.74778977114158
 20
6.30024273070855
 30
0.0
  0
SEQEND
  5
136
  8
CELLS
  0
POLYLINE
  5
137
  8
CELLS
 66
     1
 10
0.0
 20
0.0
 30
0.0
 70
     1
  0
VERTEX
  5
138
  8
CELLS
 10
13.73846287963488
 20
7.205065014597658
 30
0.0
 42
0.7918918918918934
  0
VERTEX
  5
139
  8
CELLS
 10
12.99778977114158
 20
7.205065014597651
 30
0.0
  0
VERTEX
  5
13A
  8
CELLS
 10
12.99778977114158
 20
6.300242730708547
 30
0.0
 42
0.7918918918919
  0
VERTEX
  5
13B
  8
CELLS
 10
13.73846287963488
 20
6.300242730708546
 30
0.0
  0
SEQEND
  5
13C
  8
CELLS
  0
POLYLINE
  5
13D
  8
CELLS
 66
     1
 10
0.0
 20
0.0
 30
0.0
 70
     1
  0
VERTEX
  5
13E
  8
CELLS
 10
14.72913598812818
 20
7.205065014597654
 30
0.0
 42
0.791891891891881
  0
VERTEX
  5
13F
  8
CELLS
 10
13.98846287963488
 20
7.20506501459765
 30
0.0
  0
VERTEX
  5
140
  8
CELLS
 10
13.98846287963487
 20
6.300242730708542
 30
0.0
 42
0.7918918918918995
  0
VERTEX
  5
141
  8
CELLS
 10
14.72913598812818
 20
6.300242730708542
 30
0.0
  0
SEQEND
  5
142
  8
CELLS
  0
POLYLINE
  5
143
  8
CELLS
 66
     1
 10
0.0
 20
0.0
 30
0.0
 70
     1
  0
VERTEX
  5
144
  8
CELLS
 10
11.75711666264827
 20
0.9668563881968097
 30
0.0
 42
-0.791891891891891
  0
VERTEX
  5
145
  8
CELLS
 10
11.01644355415497
 20
0.9668563881968146
 30
0.0
  0
VERTEX
  5
146
  8
CELLS
 10
11.01644355415498
 20
1.871678672085921
 30
0.0
 42
-0.7918918918918946
  0
VERTEX
  5
147
  8
CELLS
 10
11.75711666264828
 20
1.871678672085922
 30
0.0
  0
SEQEND
  5
148
  8
CELLS
  0
CIRCLE
  5
14A
  8
ZIPTIES
 10
0.3276575737078411
 20
5.827316014444539
 30
0.0
 40
0.133
  0
CIRCLE
  5
14B
  8
ZIPTIES
 10
0.3276575737078411
 20
5.827316014444539
 30
0.0
 40
0.133
  0
CIRCLE
  5
14C
  8
ZIPTIES
 10
14.97913598812878
 20
5.827316014444539
 30
0.0
 40
0.133
  0
CIRCLE
  5
14D
  8
ZIPTIES
 10
15.51119088364357
 20
6.332779519295969
 30
0.0
 40
0.2795604416727139
  0
CIRCLE
  5
14E
  8
ZIPTIES
 10
15.51119088364357
 20
5.321852509593108
 30
0.0
 40
0.2795604416727139
  0
CIRCLE
  5
14F
  8
ZIPTIES
 10
15.51119088364357
 20
6.332779519295969
 30
0.0
 40
0.2795604416727139
  0
CIRCLE
  5
150
  8
ZIPTIES
 10
12.87278977114219
 20
5.180467058769808
 30
0.0
 40
0.0625
  0
CIRCLE
  5
151
  8
ZIPTIES
 10
12.87278977114219
 20
5.463237960416408
 30
0.0
 40
0.0625
  0
CIRCLE
  5
152
  8
ZIPTIES
 10
12.87278977114219
 20
6.191394068472669
 30
0.0
 40
0.0625
  0
CIRCLE
  5
153
  8
ZIPTIES
 10
12.87278977114219
 20
6.474164970119269
 30
0.0
 40
0.0625
  0
CIRCLE
  5
154
  8
ZIPTIES
 10
10.89144355414015
 20
6.474164970119276
 30
0.0
 40
0.0625
  0
CIRCLE
  5
155
  8
ZIPTIES
 10
10.89144355414015
 20
6.191394068472676
 30
0.0
 40
0.0625
  0
CIRCLE
  5
156
  8
ZIPTIES
 10
10.89144355414015
 20
5.463237960416415
 30
0.0
 40
0.0625
  0
CIRCLE
  5
157
  8
ZIPTIES
 10
10.89144355414015
 20
5.180467058769815
 30
0.0
 40
0.0625
  0
CIRCLE
  5
158
  8
ZIPTIES
 10
8.91009733713812
 20
6.474164970119284
 30
0.0
 40
0.0625
  0
CIRCLE
  5
159
  8
ZIPTIES
 10
8.91009733713812
 20
6.191394068472683
 30
0.0
 40
0.0625
  0
CIRCLE
  5
15A
  8
ZIPTIES
 10
8.91009733713812
 20
5.463237960416422
 30
0.0
 40
0.0625
  0
CIRCLE
  5
15B
  8
ZIPTIES
 10
8.91009733713812
 20
5.180467058769822
 30
0.0
 40
0.0625
  0
CIRCLE
  5
15C
  8
ZIPTIES
 10
6.928751120213287
 20
5.180467058769822
 30
0.0
 40
0.0625
  0
CIRCLE
  5
15D
  8
ZIPTIES
 10
6.928751120213287
 20
5.463237960416422
 30
0.0
 40
0.0625
  0
CIRCLE
  5
15E
  8
ZIPTIES
 10
6.928751120213287
 20
6.191394068472683
 30
0.0
 40
0.0625
  0
CIRCLE
  5
15F
  8
ZIPTIES
 10
6.928751120213287
 20
6.474164970119284
 30
0.0
 40
0.0625
  0
CIRCLE
  5
160
  8
ZIPTIES
 10
4.947404903211252
 20
5.180467058769815
 30
0.0
 40
0.0625
  0
CIRCLE
  5
161
  8
ZIPTIES
 10
4.947404903211252
 20
5.463237960416415
 30
0.0
 40
0.0625
  0
CIRCLE
  5
162
  8
ZIPTIES
 10
4.947404903211252
 20
6.191394068472676
 30
0.0
 40
0.0625
  0
CIRCLE
  5
163
  8
ZIPTIES
 10
4.947404903211252
 20
6.474164970119276
 30
0.0
 40
0.0625
  0
CIRCLE
  5
164
  8
ZIPTIES
 10
2.966058686209218
 20
6.474164970119269
 30
0.0
 40
0.0625
  0
CIRCLE
  5
165
  8
ZIPTIES
 10
2.966058686209218
 20
6.191394068472669
 30
0.0
 40
0.0625
  0
CIRCLE
  5
166
  8
ZIPTIES
 10
2.966058686209218
 20
5.463237960416408
 30
0.0
 40
0.0625
  0
CIRCLE
  5
167
  8
ZIPTIES
 10
2.966058686209218
 20
5.180467058769808
 30
0.0
 40
0.0625
  0
LINE
  5
168
  8
ZIPTIES
 10
15.51119088364357
 20
6.457779519295969
 30
0.0
 11
15.51119088364357
 21
6.38277951929597
 31
0.0
  0
CIRCLE
  5
169
  8
ZIPTIES
 10
1.621434474292644
 20
5.827316014444549
 30
0.0
 40
0.0625
  0
CIRCLE
  5
16A
  8
ZIPTIES
 10
1.338663572646043
 20
5.827316014444549
 30
0.0
 40
0.0625
  0
POLYLINE
  5
16B
  8
ZIPTIES
 66
     1
 10
0.0
 20
0.0
 30
0.0
 70
     1
  0
VERTEX
  5
16C
  8
ZIPTIES
 10
15.9757467331537
 20
6.282779519295969
 30
0.0
  0
VERTEX
  5
16D
  8
ZIPTIES
 10
15.6792699736849
 20
6.282779519295969
 30
0.0
  0
VERTEX
  5
16E
  8
ZIPTIES
 10
15.6792699736849
 20
6.38277951929597
 30
0.0
  0
VERTEX
  5
16F
  8
ZIPTIES
 10
15.9757467331537
 20
6.38277951929597
 30
0.0
  0
SEQEND
  5
170
  8
ZIPTIES
  0
CIRCLE
  5
171
  8
ZIPTIES
 10
15.16604273141702
 20
6.128894068472669
 30
0.0
 40
0.0625
  0
CIRCLE
  5
172
  8
ZIPTIES
 10
15.16604273141702
 20
6.536664970119269
 30
0.0
 40
0.0625
  0
POLYLINE
  5
173
  8
ZIPTIES
 66
     1
 10
0.0
 20
0.0
 30
0.0
 70
     1
  0
VERTEX
  5
174
  8
ZIPTIES
 10
15.51119088364357
 20
6.128894068472669
 30
0.0
  0
VERTEX
  5
175
  8
ZIPTIES
 10
14.40214765747037
 20
6.128894068472669
 30
0.0
  0
VERTEX
  5
176
  8
ZIPTIES
 10
14.40214765747037
 20
6.536664970119269
 30
0.0
  0
VERTEX
  5
177
  8
ZIPTIES
 10
15.51119088364357
 20
6.536664970119269
 30
0.0
  0
SEQEND
  5
178
  8
ZIPTIES
  0
POLYLINE
  5
179
  8
ZIPTIES
 66
     1
 10
0.0
 20
0.0
 30
0.0
 70
     1
  0
VERTEX
  5
17A
  8
ZIPTIES
 10
1.605049023469326
 20
5.721852509593137
 30
0.0
 42
0.4142135623730226
  0
VERTEX
  5
17B
  8
ZIPTIES
 10
1.88004902346923
 20
5.446852509593119
 30
0.0
  0
VERTEX
  5
17C
  8
ZIPTIES
 10
15.51119088364357
 20
5.446852509593108
 30
0.0
  0
VERTEX
  5
17D
  8
ZIPTIES
 10
15.51119088364357
 20
5.196852509593108
 30
0.0
  0
VERTEX
  5
17E
  8
ZIPTIES
 10
1.8800490234692
 20
5.19685250959312
 30
0.0
 42
-0.4142135623730307
  0
VERTEX
  5
17F
  8
ZIPTIES
 10
1.355049023469328
 20
5.721852509593162
 30
0.0
  0
VERTEX
  5
180
  8
ZIPTIES
 10
1.355049023469359
 20
5.932779519295948
 30
0.0
 42
-0.4142135623731742
  0
VERTEX
  5
181
  8
ZIPTIES
 10
1.880049023469403
 20
6.457779519296005
 30
0.0
  0
VERTEX
  5
182
  8
ZIPTIES
 10
15.51119088364357
 20
6.457779519295969
 30
0.0
  0
VERTEX
  5
183
  8
ZIPTIES
 10
15.51119088364357
 20
6.207779519295969
 30
0.0
  0
VERTEX
  5
184
  8
ZIPTIES
 10
1.880049023469388
 20
6.207779519296004
 30
0.0
 42
0.4142135623731665
  0
VERTEX
  5
185
  8
ZIPTIES
 10
1.605049023469358
 20
5.932779519295948
 30
0.0
  0
SEQEND
  5
186
  8
ZIPTIES
  0
POLYLINE
  5
187
  8
ZIPTIES
 66
     1
 10
0.0
 20
0.0
 30
0.0
 70
     1
  0
VERTEX
  5
188
  8
ZIPTIES
 10
15.51119088364357
 20
5.525737960416408
 30
0.0
  0
VERTEX
  5
189
  8
ZIPTIES
 10
14.40214765747037
 20
5.525737960416408
 30
0.0
  0
VERTEX
  5
18A
  8
ZIPTIES
 10
14.40214765747037
 20
5.117967058769808
 30
0.0
  0
VERTEX
  5
18B
  8
ZIPTIES
 10
15.51119088364357
 20
5.117967058769808
 30
0.0
  0
SEQEND
  5
18C
  8
ZIPTIES
  0
CIRCLE
  5
18D
  8
ZIPTIES
 10
15.16604273141702
 20
5.117967058769808
 30
0.0
 40
0.0625
  0
CIRCLE
  5
18E
  8
ZIPTIES
 10
15.16604273141702
 20
5.525737960416408
 30
0.0
 40
0.0625
  0
POLYLINE
  5
18F
  8
ZIPTIES
 66
     1
 10
0.0
 20
0.0
 30
0.0
 70
     1
  0
VERTEX
  5
190
  8
ZIPTIES
 10
15.9757467331537
 20
5.371852509593109
 30
0.0
  0
VERTEX
  5
191
  8
ZIPTIES
 10
15.6792699736849
 20
5.371852509593109
 30
0.0
  0
VERTEX
  5
192
  8
ZIPTIES
 10
15.6792699736849
 20
5.271852509593107
 30
0.0
  0
VERTEX
  5
193
  8
ZIPTIES
 10
15.9757467331537
 20
5.271852509593107
 30
0.0
  0
SEQEND
  5
194
  8
ZIPTIES
  0
POLYLINE
  5
195
  8
ZIPTIES
 66
     1
 10
0.0
 20
0.0
 30
0.0
 70
     1
  0
VERTEX
  5
196
  8
ZIPTIES
 10
-0.136898275801672
 20
1.834481681813573
 30
0.0
  0
VERTEX
  5
197
  8
ZIPTIES
 10
0.1595784836671321
 20
1.834481681813573
 30
0.0
  0
VERTEX
  5
198
  8
ZIPTIES
 10
0.1595784836671321
 20
1.734481681813572
 30
0.0
  0
VERTEX
  5
199
  8
ZIPTIES
 10
-0.136898275801672
 20
1.734481681813572
 30
0.0
  0
SEQEND
  5
19A
  8
ZIPTIES
  0
CIRCLE
  5
19B
  8
ZIPTIES
 10
0.6728057259350111
 20
1.988367132636872
 30
0.0
 40
0.0625
  0
CIRCLE
  5
19C
  8
ZIPTIES
 10
0.6728057259350111
 20
1.580596230990272
 30
0.0
 40
0.0625
  0
POLYLINE
  5
19D
  8
ZIPTIES
 66
     1
 10
0.0
 20
0.0
 30
0.0
 70
     1
  0
VERTEX
  5
19E
  8
ZIPTIES
 10
0.3276575737084645
 20
1.988367132636872
 30
0.0
  0
VERTEX
  5
19F
  8
ZIPTIES
 10
1.43670079988166
 20
1.988367132636872
 30
0.0
  0
VERTEX
  5
1A0
  8
ZIPTIES
 10
1.43670079988166
 20
1.580596230990272
 30
0.0
  0
VERTEX
  5
1A1
  8
ZIPTIES
 10
0.3276575737084645
 20
1.580596230990272
 30
0.0
  0
SEQEND
  5
1A2
  8
ZIPTIES
  0
POLYLINE
  5
1A3
  8
ZIPTIES
 66
     1
 10
0.0
 20
0.0
 30
0.0
 70
     1
  0
VERTEX
  5
1A4
  8
ZIPTIES
 10
14.2337994338827
 20
2.184481681813601
 30
0.0
 42
-0.4142135623730257
  0
VERTEX
  5
1A5
  8
ZIPTIES
 10
13.9587994338828
 20
1.909481681813583
 30
0.0
  0
VERTEX
  5
1A6
  8
ZIPTIES
 10
0.3276575737084642
 20
1.909481681813572
 30
0.0
  0
VERTEX
  5
1A7
  8
ZIPTIES
 10
0.3276575737084644
 20
1.659481681813572
 30
0.0
  0
VERTEX
  5
1A8
  8
ZIPTIES
 10
13.95879943388283
 20
1.659481681813585
 30
0.0
 42
0.41421356237303
  0
VERTEX
  5
1A9
  8
ZIPTIES
 10
14.4837994338827
 20
2.184481681813626
 30
0.0
  0
VERTEX
  5
1AA
  8
ZIPTIES
 10
14.48379943388267
 20
2.395408691516412
 30
0.0
 42
0.4142135623731735
  0
VERTEX
  5
1AB
  8
ZIPTIES
 10
13.95879943388263
 20
2.920408691516469
 30
0.0
  0
VERTEX
  5
1AC
  8
ZIPTIES
 10
0.3276575737084638
 20
2.920408691516434
 30
0.0
  0
VERTEX
  5
1AD
  8
ZIPTIES
 10
0.3276575737084645
 20
2.670408691516434
 30
0.0
  0
VERTEX
  5
1AE
  8
ZIPTIES
 10
13.95879943388264
 20
2.670408691516469
 30
0.0
 42
-0.4142135623731699
  0
VERTEX
  5
1AF
  8
ZIPTIES
 10
14.23379943388267
 20
2.395408691516412
 30
0.0
  0
SEQEND
  5
1B0
  8
ZIPTIES
  0
POLYLINE
  5
1B1
  8
ZIPTIES
 66
     1
 10
0.0
 20
0.0
 30
0.0
 70
     1
  0
VERTEX
  5
1B2
  8
ZIPTIES
 10
0.3276575737084645
 20
2.591523240693133
 30
0.0
  0
VERTEX
  5
1B3
  8
ZIPTIES
 10
1.43670079988166
 20
2.591523240693133
 30
0.0
  0
VERTEX
  5
1B4
  8
ZIPTIES
 10
1.43670079988166
 20
2.999294142339734
 30
0.0
  0
VERTEX
  5
1B5
  8
ZIPTIES
 10
0.3276575737084645
 20
2.999294142339734
 30
0.0
  0
SEQEND
  5
1B6
  8
ZIPTIES
  0
CIRCLE
  5
1B7
  8
ZIPTIES
 10
0.6728057259350111
 20
2.999294142339734
 30
0.0
 40
0.0625
  0
CIRCLE
  5
1B8
  8
ZIPTIES
 10
0.6728057259350111
 20
2.591523240693133
 30
0.0
 40
0.0625
  0
POLYLINE
  5
1B9
  8
ZIPTIES
 66
     1
 10
0.0
 20
0.0
 30
0.0
 70
     1
  0
VERTEX
  5
1BA
  8
ZIPTIES
 10
-0.136898275801672
 20
2.745408691516433
 30
0.0
  0
VERTEX
  5
1BB
  8
ZIPTIES
 10
0.1595784836671321
 20
2.745408691516433
 30
0.0
  0
VERTEX
  5
1BC
  8
ZIPTIES
 10
0.1595784836671321
 20
2.845408691516434
 30
0.0
  0
VERTEX
  5
1BD
  8
ZIPTIES
 10
-0.136898275801672
 20
2.845408691516434
 30
0.0
  0
SEQEND
  5
1BE
  8
ZIPTIES
  0
CIRCLE
  5
1BF
  8
ZIPTIES
 10
14.50018488470599
 20
2.289945186665014
 30
0.0
 40
0.0625
  0
CIRCLE
  5
1C0
  8
ZIPTIES
 10
14.21741398305939
 20
2.289945186665014
 30
0.0
 40
0.0625
  0
LINE
  5
1C1
  8
ZIPTIES
 10
0.3276575737084638
 20
2.920408691516434
 30
0.0
 11
0.3276575737084642
 21
2.845408691516434
 31
0.0
  0
CIRCLE
  5
1C2
  8
ZIPTIES
 10
12.87278977114281
 20
1.643096230990272
 30
0.0
 40
0.0625
  0
CIRCLE
  5
1C3
  8
ZIPTIES
 10
12.87278977114281
 20
1.925867132636872
 30
0.0
 40
0.0625
  0
CIRCLE
  5
1C4
  8
ZIPTIES
 10
12.87278977114281
 20
2.654023240693133
 30
0.0
 40
0.0625
  0
CIRCLE
  5
1C5
  8
ZIPTIES
 10
12.87278977114281
 20
2.936794142339734
 30
0.0
 40
0.0625
  0
CIRCLE
  5
1C6
  8
ZIPTIES
 10
10.89144355414078
 20
2.936794142339741
 30
0.0
 40
0.0625
  0
CIRCLE
  5
1C7
  8
ZIPTIES
 10
10.89144355414078
 20
2.654023240693141
 30
0.0
 40
0.0625
  0
CIRCLE
  5
1C8
  8
ZIPTIES
 10
10.89144355414078
 20
1.925867132636879
 30
0.0
 40
0.0625
  0
CIRCLE
  5
1C9
  8
ZIPTIES
 10
10.89144355414078
 20
1.643096230990279
 30
0.0
 40
0.0625
  0
CIRCLE
  5
1CA
  8
ZIPTIES
 10
8.910097337138744
 20
2.936794142339748
 30
0.0
 40
0.0625
  0
CIRCLE
  5
1CB
  8
ZIPTIES
 10
8.910097337138744
 20
2.654023240693148
 30
0.0
 40
0.0625
  0
CIRCLE
  5
1CC
  8
ZIPTIES
 10
8.910097337138744
 20
1.925867132636887
 30
0.0
 40
0.0625
  0
CIRCLE
  5
1CD
  8
ZIPTIES
 10
8.910097337138744
 20
1.643096230990286
 30
0.0
 40
0.0625
  0
CIRCLE
  5
1CE
  8
ZIPTIES
 10
6.928751120213909
 20
1.643096230990286
 30
0.0
 40
0.0625
  0
CIRCLE
  5
1CF
  8
ZIPTIES
 10
6.928751120213909
 20
1.925867132636887
 30
0.0
 40
0.0625
  0
CIRCLE
  5
1D0
  8
ZIPTIES
 10
6.928751120213909
 20
2.654023240693148
 30
0.0
 40
0.0625
  0
CIRCLE
  5
1D1
  8
ZIPTIES
 10
6.928751120213909
 20
2.936794142339748
 30
0.0
 40
0.0625
  0
CIRCLE
  5
1D2
  8
ZIPTIES
 10
4.947404903211874
 20
1.643096230990279
 30
0.0
 40
0.0625
  0
CIRCLE
  5
1D3
  8
ZIPTIES
 10
4.947404903211874
 20
1.925867132636879
 30
0.0
 40
0.0625
  0
CIRCLE
  5
1D4
  8
ZIPTIES
 10
4.947404903211874
 20
2.654023240693141
 30
0.0
 40
0.0625
  0
CIRCLE
  5
1D5
  8
ZIPTIES
 10
4.947404903211874
 20
2.936794142339741
 30
0.0
 40
0.0625
  0
CIRCLE
  5
1D6
  8
ZIPTIES
 10
2.966058686209839
 20
2.936794142339734
 30
0.0
 40
0.0625
  0
CIRCLE
  5
1D7
  8
ZIPTIES
 10
2.966058686209839
 20
2.654023240693133
 30
0.0
 40
0.0625
  0
CIRCLE
  5
1D8
  8
ZIPTIES
 10
2.966058686209839
 20
1.925867132636872
 30
0.0
 40
0.0625
  0
CIRCLE
  5
1D9
  8
ZIPTIES
 10
2.966058686209839
 20
1.643096230990272
 30
0.0
 40
0.0625
  0
CIRCLE
  5
1DA
  8
ZIPTIES
 10
0.3276575737084642
 20
2.795408691516434
 30
0.0
 40
0.2795604416727139
  0
CIRCLE
  5
1DB
  8
ZIPTIES
 10
0.3276575737084643
 20
1.784481681813572
 30
0.0
 40
0.2795604416727139
  0
CIRCLE
  5
1DC
  8
ZIPTIES
 10
0.3276575737084642
 20
2.795408691516434
 30
0.0
 40
0.2795604416727139
  0
CIRCLE
  5
1DD
  8
ZIPTIES
 10
0.8597124692232438
 20
2.289945186665003
 30
0.0
 40
0.133
  0
CIRCLE
  5
1DE
  8
ZIPTIES
 10
15.51119088364419
 20
2.289945186665003
 30
0.0
 40
0.133
  0
CIRCLE
  5
1DF
  8
ZIPTIES
 10
15.51119088364419
 20
2.289945186665003
 30
0.0
 40
0.133
  0
POLYLINE
  5
1E0
  8
ZIPTIES
 66
     1
 10
0.0
 20
0.0
 30
0.0
 70
     1
  0
VERTEX
  5
1E1
  8
ZIPTIES
 10
-0.1368982758029119
 20
8.909223337372644
 30
0.0
  0
VERTEX
  5
1E2
  8
ZIPTIES
 10
0.1595784836658923
 20
8.909223337372644
 30
0.0
  0
VERTEX
  5
1E3
  8
ZIPTIES
 10
0.1595784836658923
 20
8.809223337372643
 30
0.0
  0
VERTEX
  5
1E4
  8
ZIPTIES
 10
-0.1368982758029119
 20
8.809223337372643
 30
0.0
  0
SEQEND
  5
1E5
  8
ZIPTIES
  0
CIRCLE
  5
1E6
  8
ZIPTIES
 10
0.6728057259337712
 20
9.063108788195944
 30
0.0
 40
0.0625
  0
CIRCLE
  5
1E7
  8
ZIPTIES
 10
0.6728057259337712
 20
8.655337886549344
 30
0.0
 40
0.0625
  0
POLYLINE
  5
1E8
  8
ZIPTIES
 66
     1
 10
0.0
 20
0.0
 30
0.0
 70
     1
  0
VERTEX
  5
1E9
  8
ZIPTIES
 10
0.3276575737072246
 20
9.063108788195944
 30
0.0
  0
VERTEX
  5
1EA
  8
ZIPTIES
 10
1.43670079988042
 20
9.063108788195944
 30
0.0
  0
VERTEX
  5
1EB
  8
ZIPTIES
 10
1.43670079988042
 20
8.655337886549344
 30
0.0
  0
VERTEX
  5
1EC
  8
ZIPTIES
 10
0.3276575737072246
 20
8.655337886549344
 30
0.0
  0
SEQEND
  5
1ED
  8
ZIPTIES
  0
POLYLINE
  5
1EE
  8
ZIPTIES
 66
     1
 10
0.0
 20
0.0
 30
0.0
 70
     1
  0
VERTEX
  5
1EF
  8
ZIPTIES
 10
14.23379943388146
 20
9.259223337372672
 30
0.0
 42
-0.4142135623730246
  0
VERTEX
  5
1F0
  8
ZIPTIES
 10
13.95879943388156
 20
8.984223337372654
 30
0.0
  0
VERTEX
  5
1F1
  8
ZIPTIES
 10
0.3276575737072243
 20
8.984223337372644
 30
0.0
  0
VERTEX
  5
1F2
  8
ZIPTIES
 10
0.3276575737072245
 20
8.734223337372644
 30
0.0
  0
VERTEX
  5
1F3
  8
ZIPTIES
 10
13.95879943388159
 20
8.734223337372656
 30
0.0
 42
0.4142135623730308
  0
VERTEX
  5
1F4
  8
ZIPTIES
 10
14.48379943388146
 20
9.259223337372697
 30
0.0
  0
VERTEX
  5
1F5
  8
ZIPTIES
 10
14.48379943388143
 20
9.470150347075483
 30
0.0
 42
0.4142135623731737
  0
VERTEX
  5
1F6
  8
ZIPTIES
 10
13.95879943388139
 20
9.99515034707554
 30
0.0
  0
VERTEX
  5
1F7
  8
ZIPTIES
 10
0.3276575737072239
 20
9.995150347075505
 30
0.0
  0
VERTEX
  5
1F8
  8
ZIPTIES
 10
0.3276575737072246
 20
9.745150347075505
 30
0.0
  0
VERTEX
  5
1F9
  8
ZIPTIES
 10
13.9587994338814
 20
9.74515034707554
 30
0.0
 42
-0.4142135623731713
  0
VERTEX
  5
1FA
  8
ZIPTIES
 10
14.23379943388143
 20
9.470150347075483
 30
0.0
  0
SEQEND
  5
1FB
  8
ZIPTIES
  0
POLYLINE
  5
1FC
  8
ZIPTIES
 66
     1
 10
0.0
 20
0.0
 30
0.0
 70
     1
  0
VERTEX
  5
1FD
  8
ZIPTIES
 10
0.3276575737072246
 20
9.666264896252205
 30
0.0
  0
VERTEX
  5
1FE
  8
ZIPTIES
 10
1.43670079988042
 20
9.666264896252205
 30
0.0
  0
VERTEX
  5
1FF
  8
ZIPTIES
 10
1.43670079988042
 20
10.07403579789881
 30
0.0
  0
VERTEX
  5
200
  8
ZIPTIES
 10
0.3276575737072246
 20
10.07403579789881
 30
0.0
  0
SEQEND
  5
201
  8
ZIPTIES
  0
CIRCLE
  5
202
  8
ZIPTIES
 10
0.6728057259337712
 20
10.07403579789881
 30
0.0
 40
0.0625
  0
CIRCLE
  5
203
  8
ZIPTIES
 10
0.6728057259337712
 20
9.666264896252205
 30
0.0
 40
0.0625
  0
POLYLINE
  5
204
  8
ZIPTIES
 66
     1
 10
0.0
 20
0.0
 30
0.0
 70
     1
  0
VERTEX
  5
205
  8
ZIPTIES
 10
-0.1368982758029119
 20
9.820150347075504
 30
0.0
  0
VERTEX
  5
206
  8
ZIPTIES
 10
0.1595784836658923
 20
9.820150347075504
 30
0.0
  0
VERTEX
  5
207
  8
ZIPTIES
 10
0.1595784836658923
 20
9.920150347075506
 30
0.0
  0
VERTEX
  5
208
  8
ZIPTIES
 10
-0.1368982758029119
 20
9.920150347075506
 30
0.0
  0
SEQEND
  5
209
  8
ZIPTIES
  0
CIRCLE
  5
20A
  8
ZIPTIES
 10
14.50018488470475
 20
9.364686842224085
 30
0.0
 40
0.0625
  0
CIRCLE
  5
20B
  8
ZIPTIES
 10
14.21741398305815
 20
9.364686842224085
 30
0.0
 40
0.0625
  0
LINE
  5
20C
  8
ZIPTIES
 10
0.3276575737072239
 20
9.995150347075505
 30
0.0
 11
0.3276575737072243
 21
9.920150347075506
 31
0.0
  0
CIRCLE
  5
20D
  8
ZIPTIES
 10
12.87278977114157
 20
8.717837886549344
 30
0.0
 40
0.0625
  0
CIRCLE
  5
20E
  8
ZIPTIES
 10
12.87278977114157
 20
9.000608788195944
 30
0.0
 40
0.0625
  0
CIRCLE
  5
20F
  8
ZIPTIES
 10
12.87278977114157
 20
9.728764896252205
 30
0.0
 40
0.0625
  0
CIRCLE
  5
210
  8
ZIPTIES
 10
12.87278977114157
 20
10.01153579789881
 30
0.0
 40
0.0625
  0
CIRCLE
  5
211
  8
ZIPTIES
 10
10.89144355413954
 20
10.01153579789881
 30
0.0
 40
0.0625
  0
CIRCLE
  5
212
  8
ZIPTIES
 10
10.89144355413954
 20
9.728764896252212
 30
0.0
 40
0.0625
  0
CIRCLE
  5
213
  8
ZIPTIES
 10
10.89144355413954
 20
9.000608788195951
 30
0.0
 40
0.0625
  0
CIRCLE
  5
214
  8
ZIPTIES
 10
10.89144355413954
 20
8.71783788654935
 30
0.0
 40
0.0625
  0
CIRCLE
  5
215
  8
ZIPTIES
 10
8.910097337137504
 20
10.01153579789882
 30
0.0
 40
0.0625
  0
CIRCLE
  5
216
  8
ZIPTIES
 10
8.910097337137504
 20
9.728764896252219
 30
0.0
 40
0.0625
  0
CIRCLE
  5
217
  8
ZIPTIES
 10
8.910097337137504
 20
9.000608788195958
 30
0.0
 40
0.0625
  0
CIRCLE
  5
218
  8
ZIPTIES
 10
8.910097337137504
 20
8.717837886549358
 30
0.0
 40
0.0625
  0
CIRCLE
  5
219
  8
ZIPTIES
 10
6.928751120212669
 20
8.717837886549358
 30
0.0
 40
0.0625
  0
CIRCLE
  5
21A
  8
ZIPTIES
 10
6.928751120212669
 20
9.000608788195958
 30
0.0
 40
0.0625
  0
CIRCLE
  5
21B
  8
ZIPTIES
 10
6.928751120212669
 20
9.728764896252219
 30
0.0
 40
0.0625
  0
CIRCLE
  5
21C
  8
ZIPTIES
 10
6.928751120212669
 20
10.01153579789882
 30
0.0
 40
0.0625
  0
CIRCLE
  5
21D
  8
ZIPTIES
 10
4.947404903210634
 20
8.71783788654935
 30
0.0
 40
0.0625
  0
CIRCLE
  5
21E
  8
ZIPTIES
 10
4.947404903210634
 20
9.000608788195951
 30
0.0
 40
0.0625
  0
CIRCLE
  5
21F
  8
ZIPTIES
 10
4.947404903210634
 20
9.728764896252212
 30
0.0
 40
0.0625
  0
CIRCLE
  5
220
  8
ZIPTIES
 10
4.947404903210634
 20
10.01153579789881
 30
0.0
 40
0.0625
  0
CIRCLE
  5
221
  8
ZIPTIES
 10
2.966058686208599
 20
10.01153579789881
 30
0.0
 40
0.0625
  0
CIRCLE
  5
222
  8
ZIPTIES
 10
2.966058686208599
 20
9.728764896252205
 30
0.0
 40
0.0625
  0
CIRCLE
  5
223
  8
ZIPTIES
 10
2.966058686208599
 20
9.000608788195944
 30
0.0
 40
0.0625
  0
CIRCLE
  5
224
  8
ZIPTIES
 10
2.966058686208599
 20
8.717837886549344
 30
0.0
 40
0.0625
  0
CIRCLE
  5
225
  8
ZIPTIES
 10
0.3276575737072243
 20
9.870150347075505
 30
0.0
 40
0.2795604416727139
  0
CIRCLE
  5
226
  8
ZIPTIES
 10
0.3276575737072244
 20
8.859223337372644
 30
0.0
 40
0.2795604416727139
  0
CIRCLE
  5
227
  8
ZIPTIES
 10
0.3276575737072243
 20
9.870150347075505
 30
0.0
 40
0.2795604416727139
  0
CIRCLE
  5
228
  8
ZIPTIES
 10
0.859712469222004
 20
9.364686842224074
 30
0.0
 40
0.133
  0
POLYLINE
  5
229
  8
CELLS
 66
     1
 10
0.0
 20
0.0
 30
0.0
 70
     1
  0
VERTEX
  5
22A
  8
CELLS
 10
14.72913598812817
 20
10.68777564069229
 30
0.0
 42
0.7918918918919078
  0
VERTEX
  5
22B
  8
CELLS
 10
13.98846287963486
 20
10.68777564069229
 30
0.0
  0
VERTEX
  5
22C
  8
CELLS
 10
13.98846287963487
 20
9.78295335680318
 30
0.0
 42
0.7918918918918816
  0
VERTEX
  5
22D
  8
CELLS
 10
14.72913598812817
 20
9.782953356803178
 30
0.0
  0
SEQEND
  5
22E
  8
CELLS
  0
CIRCLE
  5
22F
  8
ZIPTIES
 10
15.51119088364295
 20
9.364686842224074
 30
0.0
 40
0.133
  0
CIRCLE
  5
230
  8
ZIPTIES
 10
15.51119088364295
 20
9.364686842224074
 30
0.0
 40
0.133
  0
POLYLINE
  5
231
  8
CELLS
 66
     1
 10
0.0
 20
0.0
 30
0.0
 70
     1
  0
VERTEX
  5
232
  8
CELLS
 10
13.73846287963487
 20
10.68777564069229
 30
0.0
 42
0.7918918918918966
  0
VERTEX
  5
233
  8
CELLS
 10
12.99778977114157
 20
10.68777564069229
 30
0.0
  0
VERTEX
  5
234
  8
CELLS
 10
12.99778977114157
 20
9.782953356803183
 30
0.0
 42
0.7918918918918816
  0
VERTEX
  5
235
  8
CELLS
 10
13.73846287963487
 20
9.782953356803182
 30
0.0
  0
SEQEND
  5
236
  8
CELLS
  0
POLYLINE
  5
237
  8
CELLS
 66
     1
 10
0.0
 20
0.0
 30
0.0
 70
     1
  0
VERTEX
  5
238
  8
CELLS
 10
12.74778977114157
 20
10.68777564069229
 30
0.0
 42
0.7918918918918975
  0
VERTEX
  5
239
  8
CELLS
 10
12.00711666264828
 20
10.68777564069229
 30
0.0
  0
VERTEX
  5
23A
  8
CELLS
 10
12.00711666264827
 20
9.782953356803183
 30
0.0
 42
0.7918918918918816
  0
VERTEX
  5
23B
  8
CELLS
 10
12.74778977114158
 20
9.782953356803182
 30
0.0
  0
SEQEND
  5
23C
  8
CELLS
  0
POLYLINE
  5
23D
  8
CELLS
 66
     1
 10
0.0
 20
0.0
 30
0.0
 70
     1
  0
VERTEX
  5
23E
  8
CELLS
 10
11.75711666264828
 20
10.6877756406923
 30
0.0
 42
0.7918918918919009
  0
VERTEX
  5
23F
  8
CELLS
 10
11.01644355415498
 20
10.68777564069229
 30
0.0
  0
VERTEX
  5
240
  8
CELLS
 10
11.01644355415498
 20
9.782953356803189
 30
0.0
 42
0.7918918918918847
  0
VERTEX
  5
241
  8
CELLS
 10
11.75711666264828
 20
9.782953356803185
 30
0.0
  0
SEQEND
  5
242
  8
CELLS
  0
POLYLINE
  5
243
  8
CELLS
 66
     1
 10
0.0
 20
0.0
 30
0.0
 70
     1
  0
VERTEX
  5
244
  8
CELLS
 10
10.76644355415498
 20
10.6877756406923
 30
0.0
 42
0.7918918918918959
  0
VERTEX
  5
245
  8
CELLS
 10
10.02577044566168
 20
10.6877756406923
 30
0.0
  0
VERTEX
  5
246
  8
CELLS
 10
10.02577044566168
 20
9.78295335680319
 30
0.0
 42
0.7918918918918816
  0
VERTEX
  5
247
  8
CELLS
 10
10.76644355415498
 20
9.782953356803189
 30
0.0
  0
SEQEND
  5
248
  8
CELLS
  0
POLYLINE
  5
249
  8
CELLS
 66
     1
 10
0.0
 20
0.0
 30
0.0
 70
     1
  0
VERTEX
  5
24A
  8
CELLS
 10
9.77577044566168
 20
10.6877756406923
 30
0.0
 42
0.7918918918919002
  0
VERTEX
  5
24B
  8
CELLS
 10
9.035097337168382
 20
10.6877756406923
 30
0.0
  0
VERTEX
  5
24C
  8
CELLS
 10
9.035097337168379
 20
9.782953356803194
 30
0.0
 42
0.7918918918918816
  0
VERTEX
  5
24D
  8
CELLS
 10
9.775770445661681
 20
9.782953356803192
 30
0.0
  0
SEQEND
  5
24E
  8
CELLS
  0
POLYLINE
  5
24F
  8
CELLS
 66
     1
 10
0.0
 20
0.0
 30
0.0
 70
     1
  0
VERTEX
  5
250
  8
CELLS
 10
8.78509733716838
 20
10.6877756406923
 30
0.0
 42
0.7918918918919017
  0
VERTEX
  5
251
  8
CELLS
 10
8.04442422867508
 20
10.6877756406923
 30
0.0
  0
VERTEX
  5
252
  8
CELLS
 10
8.044424228675085
 20
9.7829533568032
 30
0.0
 42
0.7918918918918829
  0
VERTEX
  5
253
  8
CELLS
 10
8.785097337168384
 20
9.782953356803196
 30
0.0
  0
SEQEND
  5
254
  8
CELLS
  0
POLYLINE
  5
255
  8
CELLS
 66
     1
 10
0.0
 20
0.0
 30
0.0
 70
     1
  0
VERTEX
  5
256
  8
CELLS
 10
8.785097337168386
 20
8.946420327644987
 30
0.0
 42
0.7918918918918911
  0
VERTEX
  5
257
  8
CELLS
 10
8.044424228675082
 20
8.946420327644987
 30
0.0
  0
VERTEX
  5
258
  8
CELLS
 10
8.044424228675085
 20
8.041598043755876
 30
0.0
 42
0.7918918918918825
  0
VERTEX
  5
259
  8
CELLS
 10
8.785097337168388
 20
8.041598043755874
 30
0.0
  0
SEQEND
  5
25A
  8
CELLS
  0
POLYLINE
  5
25B
  8
CELLS
 66
     1
 10
0.0
 20
0.0
 30
0.0
 70
     1
  0
VERTEX
  5
25C
  8
CELLS
 10
9.775770445661685
 20
8.946420327644987
 30
0.0
 42
0.7918918918918969
  0
VERTEX
  5
25D
  8
CELLS
 10
9.035097337168386
 20
8.94642032764498
 30
0.0
  0
VERTEX
  5
25E
  8
CELLS
 10
9.035097337168386
 20
8.041598043755878
 30
0.0
 42
0.7918918918918829
  0
VERTEX
  5
25F
  8
CELLS
 10
9.775770445661685
 20
8.041598043755874
 30
0.0
  0
SEQEND
  5
260
  8
CELLS
  0
POLYLINE
  5
261
  8
CELLS
 66
     1
 10
0.0
 20
0.0
 30
0.0
 70
     1
  0
VERTEX
  5
262
  8
CELLS
 10
10.76644355415498
 20
8.94642032764498
 30
0.0
 42
0.7918918918919015
  0
VERTEX
  5
263
  8
CELLS
 10
10.02577044566169
 20
8.946420327644976
 30
0.0
  0
VERTEX
  5
264
  8
CELLS
 10
10.02577044566168
 20
8.041598043755874
 30
0.0
 42
0.7918918918918865
  0
VERTEX
  5
265
  8
CELLS
 10
10.76644355415498
 20
8.04159804375587
 30
0.0
  0
SEQEND
  5
266
  8
CELLS
  0
POLYLINE
  5
267
  8
CELLS
 66
     1
 10
0.0
 20
0.0
 30
0.0
 70
     1
  0
VERTEX
  5
268
  8
CELLS
 10
11.75711666264828
 20
8.94642032764498
 30
0.0
 42
0.7918918918918953
  0
VERTEX
  5
269
  8
CELLS
 10
11.01644355415499
 20
8.946420327644972
 30
0.0
  0
VERTEX
  5
26A
  8
CELLS
 10
11.01644355415498
 20
8.041598043755869
 30
0.0
 42
0.7918918918918825
  0
VERTEX
  5
26B
  8
CELLS
 10
11.75711666264828
 20
8.041598043755867
 30
0.0
  0
SEQEND
  5
26C
  8
CELLS
  0
POLYLINE
  5
26D
  8
CELLS
 66
     1
 10
0.0
 20
0.0
 30
0.0
 70
     1
  0
VERTEX
  5
26E
  8
CELLS
 10
12.74778977114158
 20
8.946420327644976
 30
0.0
 42
0.7918918918919038
  0
VERTEX
  5
26F
  8
CELLS
 10
12.00711666264828
 20
8.946420327644974
 30
0.0
  0
VERTEX
  5
270
  8
CELLS
 10
12.00711666264828
 20
8.041598043755869
 30
0.0
 42
0.7918918918918825
  0
VERTEX
  5
271
  8
CELLS
 10
12.74778977114158
 20
8.041598043755867
 30
0.0
  0
SEQEND
  5
272
  8
CELLS
  0
POLYLINE
  5
273
  8
CELLS
 66
     1
 10
0.0
 20
0.0
 30
0.0
 70
     1
  0
VERTEX
  5
274
  8
CELLS
 10
13.73846287963488
 20
8.946420327644972
 30
0.0
 42
0.7918918918918988
  0
VERTEX
  5
275
  8
CELLS
 10
12.99778977114158
 20
8.94642032764497
 30
0.0
  0
VERTEX
  5
276
  8
CELLS
 10
12.99778977114157
 20
8.041598043755865
 30
0.0
 42
0.7918918918918825
  0
VERTEX
  5
277
  8
CELLS
 10
13.73846287963488
 20
8.041598043755863
 30
0.0
  0
SEQEND
  5
278
  8
CELLS
  0
POLYLINE
  5
279
  8
CELLS
 66
     1
 10
0.0
 20
0.0
 30
0.0
 70
     1
  0
VERTEX
  5
27A
  8
CELLS
 10
14.72913598812817
 20
8.946420327644972
 30
0.0
 42
0.7918918918918862
  0
VERTEX
  5
27B
  8
CELLS
 10
13.98846287963488
 20
8.946420327644967
 30
0.0
  0
VERTEX
  5
27C
  8
CELLS
 10
13.98846287963488
 20
8.041598043755863
 30
0.0
 42
0.7918918918918829
  0
VERTEX
  5
27D
  8
CELLS
 10
14.72913598812818
 20
8.04159804375586
 30
0.0
  0
SEQEND
  5
27E
  8
CELLS
  0
POLYLINE
  5
27F
  8
CELLS
 66
     1
 10
0.0
 20
0.0
 30
0.0
 70
     1
  0
VERTEX
  5
280
  8
CELLS
 10
4.081731794701897
 20
0.9668563881968097
 30
0.0
 42
0.7918918918918926
  0
VERTEX
  5
281
  8
CELLS
 10
4.822404903195199
 20
0.9668563881968149
 30
0.0
  0
VERTEX
  5
282
  8
CELLS
 10
4.822404903195197
 20
1.871678672085921
 30
0.0
 42
0.7918918918918907
  0
VERTEX
  5
283
  8
CELLS
 10
4.081731794701894
 20
1.871678672085922
 30
0.0
  0
SEQEND
  5
284
  8
CELLS
  0
POLYLINE
  5
285
  8
CELLS
 66
     1
 10
0.0
 20
0.0
 30
0.0
 70
     1
  0
VERTEX
  5
286
  8
CELLS
 10
1.109712469221994
 20
7.205065014597654
 30
0.0
 42
-0.7918918918918901
  0
VERTEX
  5
287
  8
CELLS
 10
1.850385577715294
 20
7.205065014597649
 30
0.0
  0
VERTEX
  5
288
  8
CELLS
 10
1.850385577715293
 20
6.300242730708543
 30
0.0
 42
-0.7918918918918979
  0
VERTEX
  5
289
  8
CELLS
 10
1.109712469221991
 20
6.300242730708542
 30
0.0
  0
SEQEND
  5
28A
  8
CELLS
  0
POLYLINE
  5
28B
  8
CELLS
 66
     1
 10
0.0
 20
0.0
 30
0.0
 70
     1
  0
VERTEX
  5
28C
  8
CELLS
 10
2.100385577715292
 20
7.205065014597658
 30
0.0
 42
-0.7918918918918917
  0
VERTEX
  5
28D
  8
CELLS
 10
2.841058686208593
 20
7.205065014597652
 30
0.0
  0
VERTEX
  5
28E
  8
CELLS
 10
2.841058686208591
 20
6.300242730708547
 30
0.0
 42
-0.7918918918918979
  0
VERTEX
  5
28F
  8
CELLS
 10
2.10038557771529
 20
6.300242730708546
 30
0.0
  0
SEQEND
  5
290
  8
CELLS
  0
POLYLINE
  5
291
  8
CELLS
 66
     1
 10
0.0
 20
0.0
 30
0.0
 70
     1
  0
VERTEX
  5
292
  8
CELLS
 10
3.09105868620859
 20
7.205065014597658
 30
0.0
 42
-0.7918918918918993
  0
VERTEX
  5
293
  8
CELLS
 10
3.831731794701892
 20
7.205065014597656
 30
0.0
  0
VERTEX
  5
294
  8
CELLS
 10
3.831731794701889
 20
6.30024273070855
 30
0.0
 42
-0.7918918918918979
  0
VERTEX
  5
295
  8
CELLS
 10
3.091058686208588
 20
6.30024273070855
 30
0.0
  0
SEQEND
  5
296
  8
CELLS
  0
POLYLINE
  5
297
  8
CELLS
 66
     1
 10
0.0
 20
0.0
 30
0.0
 70
     1
  0
VERTEX
  5
298
  8
CELLS
 10
4.081731794701888
 20
7.205065014597661
 30
0.0
 42
-0.7918918918918988
  0
VERTEX
  5
299
  8
CELLS
 10
4.822404903195189
 20
7.205065014597659
 30
0.0
  0
VERTEX
  5
29A
  8
CELLS
 10
4.822404903195189
 20
6.300242730708554
 30
0.0
 42
-0.7918918918918955
  0
VERTEX
  5
29B
  8
CELLS
 10
4.081731794701885
 20
6.300242730708553
 30
0.0
  0
SEQEND
  5
29C
  8
CELLS
  0
POLYLINE
  5
29D
  8
CELLS
 66
     1
 10
0.0
 20
0.0
 30
0.0
 70
     1
  0
VERTEX
  5
29E
  8
CELLS
 10
5.072404903195186
 20
7.205065014597665
 30
0.0
 42
-0.791891891891893
  0
VERTEX
  5
29F
  8
CELLS
 10
5.813078011688487
 20
7.205065014597659
 30
0.0
  0
VERTEX
  5
2A0
  8
CELLS
 10
5.813078011688485
 20
6.300242730708554
 30
0.0
 42
-0.7918918918918951
  0
VERTEX
  5
2A1
  8
CELLS
 10
5.072404903195183
 20
6.300242730708553
 30
0.0
  0
SEQEND
  5
2A2
  8
CELLS
  0
POLYLINE
  5
2A3
  8
CELLS
 66
     1
 10
0.0
 20
0.0
 30
0.0
 70
     1
  0
VERTEX
  5
2A4
  8
CELLS
 10
6.063078011688484
 20
7.205065014597665
 30
0.0
 42
-0.7918918918918955
  0
VERTEX
  5
2A5
  8
CELLS
 10
6.803751120181783
 20
7.205065014597662
 30
0.0
  0
VERTEX
  5
2A6
  8
CELLS
 10
6.803751120181785
 20
6.300242730708558
 30
0.0
 42
-0.7918918918918955
  0
VERTEX
  5
2A7
  8
CELLS
 10
6.063078011688481
 20
6.300242730708557
 30
0.0
  0
SEQEND
  5
2A8
  8
CELLS
  0
POLYLINE
  5
2A9
  8
CELLS
 66
     1
 10
0.0
 20
0.0
 30
0.0
 70
     1
  0
VERTEX
  5
2AA
  8
CELLS
 10
7.053751120181782
 20
7.205065014597668
 30
0.0
 42
-0.7918918918918926
  0
VERTEX
  5
2AB
  8
CELLS
 10
7.794424228675083
 20
7.205065014597666
 30
0.0
  0
VERTEX
  5
2AC
  8
CELLS
 10
7.794424228675081
 20
6.300242730708561
 30
0.0
 42
-0.791891891891896
  0
VERTEX
  5
2AD
  8
CELLS
 10
7.053751120181779
 20
6.30024273070856
 30
0.0
  0
SEQEND
  5
2AE
  8
CELLS
  0
POLYLINE
  5
2AF
  8
CELLS
 66
     1
 10
0.0
 20
0.0
 30
0.0
 70
     1
  0
VERTEX
  5
2B0
  8
CELLS
 10
1.109712469221998
 20
8.946420327644972
 30
0.0
 42
-0.7918918918918899
  0
VERTEX
  5
2B1
  8
CELLS
 10
1.850385577715297
 20
8.946420327644967
 30
0.0
  0
VERTEX
  5
2B2
  8
CELLS
 10
1.850385577715297
 20
8.041598043755862
 30
0.0
 42
-0.7918918918918804
  0
VERTEX
  5
2B3
  8
CELLS
 10
1.109712469221996
 20
8.04159804375586
 30
0.0
  0
SEQEND
  5
2B4
  8
CELLS
  0
POLYLINE
  5
2B5
  8
CELLS
 66
     1
 10
0.0
 20
0.0
 30
0.0
 70
     1
  0
VERTEX
  5
2B6
  8
CELLS
 10
2.100385577715296
 20
8.946420327644972
 30
0.0
 42
-0.7918918918919018
  0
VERTEX
  5
2B7
  8
CELLS
 10
2.841058686208599
 20
8.946420327644972
 30
0.0
  0
VERTEX
  5
2B8
  8
CELLS
 10
2.841058686208595
 20
8.041598043755865
 30
0.0
 42
-0.7918918918918807
  0
VERTEX
  5
2B9
  8
CELLS
 10
2.100385577715294
 20
8.041598043755863
 30
0.0
  0
SEQEND
  5
2BA
  8
CELLS
  0
POLYLINE
  5
2BB
  8
CELLS
 66
     1
 10
0.0
 20
0.0
 30
0.0
 70
     1
  0
VERTEX
  5
2BC
  8
CELLS
 10
3.091058686208594
 20
8.946420327644976
 30
0.0
 42
-0.7918918918919013
  0
VERTEX
  5
2BD
  8
CELLS
 10
3.831731794701896
 20
8.946420327644976
 30
0.0
  0
VERTEX
  5
2BE
  8
CELLS
 10
3.831731794701893
 20
8.041598043755869
 30
0.0
 42
-0.7918918918918807
  0
VERTEX
  5
2BF
  8
CELLS
 10
3.091058686208592
 20
8.041598043755867
 30
0.0
  0
SEQEND
  5
2C0
  8
CELLS
  0
POLYLINE
  5
2C1
  8
CELLS
 66
     1
 10
0.0
 20
0.0
 30
0.0
 70
     1
  0
VERTEX
  5
2C2
  8
CELLS
 10
4.081731794701892
 20
8.94642032764498
 30
0.0
 42
-0.7918918918918955
  0
VERTEX
  5
2C3
  8
CELLS
 10
4.822404903195192
 20
8.946420327644974
 30
0.0
  0
VERTEX
  5
2C4
  8
CELLS
 10
4.822404903195191
 20
8.041598043755869
 30
0.0
 42
-0.7918918918918776
  0
VERTEX
  5
2C5
  8
CELLS
 10
4.08173179470189
 20
8.041598043755867
 30
0.0
  0
SEQEND
  5
2C6
  8
CELLS
  0
POLYLINE
  5
2C7
  8
CELLS
 66
     1
 10
0.0
 20
0.0
 30
0.0
 70
     1
  0
VERTEX
  5
2C8
  8
CELLS
 10
5.07240490319519
 20
8.94642032764498
 30
0.0
 42
-0.7918918918918995
  0
VERTEX
  5
2C9
  8
CELLS
 10
5.81307801168849
 20
8.946420327644978
 30
0.0
  0
VERTEX
  5
2CA
  8
CELLS
 10
5.813078011688489
 20
8.041598043755872
 30
0.0
 42
-0.7918918918918776
  0
VERTEX
  5
2CB
  8
CELLS
 10
5.072404903195188
 20
8.04159804375587
 30
0.0
  0
SEQEND
  5
2CC
  8
CELLS
  0
POLYLINE
  5
2CD
  8
CELLS
 66
     1
 10
0.0
 20
0.0
 30
0.0
 70
     1
  0
VERTEX
  5
2CE
  8
CELLS
 10
6.063078011688488
 20
8.946420327644987
 30
0.0
 42
-0.7918918918918955
  0
VERTEX
  5
2CF
  8
CELLS
 10
6.803751120181788
 20
8.946420327644981
 30
0.0
  0
VERTEX
  5
2D0
  8
CELLS
 10
6.803751120181786
 20
8.041598043755876
 30
0.0
 42
-0.791891891891879
  0
VERTEX
  5
2D1
  8
CELLS
 10
6.063078011688486
 20
8.041598043755874
 30
0.0
  0
SEQEND
  5
2D2
  8
CELLS
  0
POLYLINE
  5
2D3
  8
CELLS
 66
     1
 10
0.0
 20
0.0
 30
0.0
 70
     1
  0
VERTEX
  5
2D4
  8
CELLS
 10
7.053751120181786
 20
8.946420327644987
 30
0.0
 42
-0.7918918918918881
  0
VERTEX
  5
2D5
  8
CELLS
 10
7.794424228675086
 20
8.946420327644985
 30
0.0
  0
VERTEX
  5
2D6
  8
CELLS
 10
7.794424228675087
 20
8.041598043755876
 30
0.0
 42
-0.791891891891878
  0
VERTEX
  5
2D7
  8
CELLS
 10
7.053751120181784
 20
8.041598043755874
 30
0.0
  0
SEQEND
  5
2D8
  8
CELLS
  0
POLYLINE
  5
2D9
  8
CELLS
 66
     1
 10
0.0
 20
0.0
 30
0.0
 70
     1
  0
VERTEX
  5
2DA
  8
CELLS
 10
7.053751120181791
 20
10.6877756406923
 30
0.0
 42
-0.7918918918919066
  0
VERTEX
  5
2DB
  8
CELLS
 10
7.794424228675094
 20
10.6877756406923
 30
0.0
  0
VERTEX
  5
2DC
  8
CELLS
 10
7.794424228675088
 20
9.7829533568032
 30
0.0
 42
-0.7918918918918829
  0
VERTEX
  5
2DD
  8
CELLS
 10
7.053751120181788
 20
9.782953356803196
 30
0.0
  0
SEQEND
  5
2DE
  8
CELLS
  0
POLYLINE
  5
2DF
  8
CELLS
 66
     1
 10
0.0
 20
0.0
 30
0.0
 70
     1
  0
VERTEX
  5
2E0
  8
CELLS
 10
6.063078011688493
 20
10.6877756406923
 30
0.0
 42
-0.791891891891902
  0
VERTEX
  5
2E1
  8
CELLS
 10
6.803751120181793
 20
10.6877756406923
 30
0.0
  0
VERTEX
  5
2E2
  8
CELLS
 10
6.803751120181793
 20
9.782953356803194
 30
0.0
 42
-0.7918918918918816
  0
VERTEX
  5
2E3
  8
CELLS
 10
6.06307801168849
 20
9.782953356803192
 30
0.0
  0
SEQEND
  5
2E4
  8
CELLS
  0
POLYLINE
  5
2E5
  8
CELLS
 66
     1
 10
0.0
 20
0.0
 30
0.0
 70
     1
  0
VERTEX
  5
2E6
  8
CELLS
 10
5.072404903195195
 20
10.6877756406923
 30
0.0
 42
-0.7918918918918995
  0
VERTEX
  5
2E7
  8
CELLS
 10
5.813078011688499
 20
10.68777564069229
 30
0.0
  0
VERTEX
  5
2E8
  8
CELLS
 10
5.813078011688492
 20
9.78295335680319
 30
0.0
 42
-0.7918918918918761
  0
VERTEX
  5
2E9
  8
CELLS
 10
5.072404903195192
 20
9.782953356803189
 30
0.0
  0
SEQEND
  5
2EA
  8
CELLS
  0
POLYLINE
  5
2EB
  8
CELLS
 66
     1
 10
0.0
 20
0.0
 30
0.0
 70
     1
  0
VERTEX
  5
2EC
  8
CELLS
 10
4.081731794701897
 20
10.6877756406923
 30
0.0
 42
-0.7918918918918876
  0
VERTEX
  5
2ED
  8
CELLS
 10
4.822404903195195
 20
10.68777564069229
 30
0.0
  0
VERTEX
  5
2EE
  8
CELLS
 10
4.822404903195197
 20
9.782953356803187
 30
0.0
 42
-0.7918918918918789
  0
VERTEX
  5
2EF
  8
CELLS
 10
4.081731794701894
 20
9.782953356803185
 30
0.0
  0
SEQEND
  5
2F0
  8
CELLS
  0
POLYLINE
  5
2F1
  8
CELLS
 66
     1
 10
0.0
 20
0.0
 30
0.0
 70
     1
  0
VERTEX
  5
2F2
  8
CELLS
 10
3.091058686208599
 20
10.68777564069229
 30
0.0
 42
-0.7918918918918876
  0
VERTEX
  5
2F3
  8
CELLS
 10
3.831731794701897
 20
10.68777564069229
 30
0.0
  0
VERTEX
  5
2F4
  8
CELLS
 10
3.831731794701898
 20
9.782953356803183
 30
0.0
 42
-0.7918918918918816
  0
VERTEX
  5
2F5
  8
CELLS
 10
3.091058686208596
 20
9.782953356803182
 30
0.0
  0
SEQEND
  5
2F6
  8
CELLS
  0
POLYLINE
  5
2F7
  8
CELLS
 66
     1
 10
0.0
 20
0.0
 30
0.0
 70
     1
  0
VERTEX
  5
2F8
  8
CELLS
 10
2.100385577715301
 20
10.68777564069229
 30
0.0
 42
-0.7918918918919023
  0
VERTEX
  5
2F9
  8
CELLS
 10
2.841058686208599
 20
10.68777564069229
 30
0.0
  0
VERTEX
  5
2FA
  8
CELLS
 10
2.8410586862086
 20
9.782953356803183
 30
0.0
 42
-0.7918918918918816
  0
VERTEX
  5
2FB
  8
CELLS
 10
2.100385577715298
 20
9.782953356803182
 30
0.0
  0
SEQEND
  5
2FC
  8
CELLS
  0
POLYLINE
  5
2FD
  8
CELLS
 66
     1
 10
0.0
 20
0.0
 30
0.0
 70
     1
  0
VERTEX
  5
2FE
  8
CELLS
 10
1.109712469222003
 20
10.68777564069229
 30
0.0
 42
-0.7918918918919009
  0
VERTEX
  5
2FF
  8
CELLS
 10
1.850385577715302
 20
10.68777564069228
 30
0.0
  0
VERTEX
  5
300
  8
CELLS
 10
1.850385577715302
 20
9.78295335680318
 30
0.0
 42
-0.791891891891881
  0
VERTEX
  5
301
  8
CELLS
 10
1.109712469222
 20
9.782953356803178
 30
0.0
  0
SEQEND
  5
302
  8
CELLS
  0
POLYLINE
  5
303
  8
CELLS
 66
     1
 10
0.0
 20
0.0
 30
0.0
 70
     1
  0
VERTEX
  5
304
  8
CELLS
 10
1.109712469222003
 20
0.9668563881968169
 30
0.0
 42
0.7918918918918937
  0
VERTEX
  5
305
  8
CELLS
 10
1.850385577715303
 20
0.9668563881968221
 30
0.0
  0
VERTEX
  5
306
  8
CELLS
 10
1.850385577715302
 20
1.871678672085928
 30
0.0
 42
0.7918918918918937
  0
VERTEX
  5
307
  8
CELLS
 10
1.109712469222
 20
1.871678672085929
 30
0.0
  0
SEQEND
  5
308
  8
CELLS
  0
POLYLINE
  5
309
  8
CELLS
 66
     1
 10
0.0
 20
0.0
 30
0.0
 70
     1
  0
VERTEX
  5
30A
  8
CELLS
 10
2.100385577715301
 20
0.9668563881968169
 30
0.0
 42
0.7918918918919035
  0
VERTEX
  5
30B
  8
CELLS
 10
2.841058686208601
 20
0.9668563881968223
 30
0.0
  0
VERTEX
  5
30C
  8
CELLS
 10
2.8410586862086
 20
1.871678672085924
 30
0.0
 42
0.7918918918918936
  0
VERTEX
  5
30D
  8
CELLS
 10
2.100385577715298
 20
1.871678672085925
 30
0.0
  0
SEQEND
  5
30E
  8
CELLS
  0
POLYLINE
  5
30F
  8
CELLS
 66
     1
 10
0.0
 20
0.0
 30
0.0
 70
     1
  0
VERTEX
  5
310
  8
CELLS
 10
3.091058686208599
 20
0.9668563881968133
 30
0.0
 42
0.7918918918919081
  0
VERTEX
  5
311
  8
CELLS
 10
3.831731794701898
 20
0.9668563881968225
 30
0.0
  0
VERTEX
  5
312
  8
CELLS
 10
3.831731794701899
 20
1.871678672085921
 30
0.0
 42
0.7918918918918937
  0
VERTEX
  5
313
  8
CELLS
 10
3.091058686208596
 20
1.871678672085922
 30
0.0
  0
SEQEND
  5
314
  8
CELLS
  0
POLYLINE
  5
315
  8
CELLS
 66
     1
 10
0.0
 20
0.0
 30
0.0
 70
     1
  0
VERTEX
  5
316
  8
CELLS
 10
5.072404903195195
 20
0.9668563881968097
 30
0.0
 42
0.7918918918919031
  0
VERTEX
  5
317
  8
CELLS
 10
5.813078011688495
 20
0.9668563881968151
 30
0.0
  0
VERTEX
  5
318
  8
CELLS
 10
5.813078011688494
 20
1.871678672085917
 30
0.0
 42
0.7918918918918901
  0
VERTEX
  5
319
  8
CELLS
 10
5.072404903195192
 20
1.871678672085918
 30
0.0
  0
SEQEND
  5
31A
  8
CELLS
  0
POLYLINE
  5
31B
  8
CELLS
 66
     1
 10
0.0
 20
0.0
 30
0.0
 70
     1
  0
VERTEX
  5
31C
  8
CELLS
 10
6.063078011688493
 20
0.9668563881968062
 30
0.0
 42
0.7918918918919043
  0
VERTEX
  5
31D
  8
CELLS
 10
6.803751120181793
 20
0.9668563881968116
 30
0.0
  0
VERTEX
  5
31E
  8
CELLS
 10
6.803751120181794
 20
1.871678672085914
 30
0.0
 42
0.7918918918918907
  0
VERTEX
  5
31F
  8
CELLS
 10
6.06307801168849
 20
1.871678672085915
 30
0.0
  0
SEQEND
  5
320
  8
CELLS
  0
POLYLINE
  5
321
  8
CELLS
 66
     1
 10
0.0
 20
0.0
 30
0.0
 70
     1
  0
VERTEX
  5
322
  8
CELLS
 10
7.053751120181791
 20
0.9668563881968026
 30
0.0
 42
0.7918918918918946
  0
VERTEX
  5
323
  8
CELLS
 10
7.794424228675092
 20
0.9668563881968081
 30
0.0
  0
VERTEX
  5
324
  8
CELLS
 10
7.79442422867509
 20
1.871678672085913
 30
0.0
 42
0.7918918918918901
  0
VERTEX
  5
325
  8
CELLS
 10
7.053751120181788
 20
1.871678672085915
 30
0.0
  0
SEQEND
  5
326
  8
CELLS
  0
POLYLINE
  5
327
  8
CELLS
 66
     1
 10
0.0
 20
0.0
 30
0.0
 70
     1
  0
VERTEX
  5
328
  8
CELLS
 10
7.053751120181786
 20
2.708211701244121
 30
0.0
 42
0.7918918918919051
  0
VERTEX
  5
329
  8
CELLS
 10
7.794424228675086
 20
2.70821170124413
 30
0.0
  0
VERTEX
  5
32A
  8
CELLS
 10
7.794424228675087
 20
3.613033985133228
 30
0.0
 42
0.7918918918918858
  0
VERTEX
  5
32B
  8
CELLS
 10
7.053751120181784
 20
3.613033985133229
 30
0.0
  0
SEQEND
  5
32C
  8
CELLS
  0
POLYLINE
  5
32D
  8
CELLS
 66
     1
 10
0.0
 20
0.0
 30
0.0
 70
     1
  0
VERTEX
  5
32E
  8
CELLS
 10
6.063078011688488
 20
2.708211701244124
 30
0.0
 42
0.7918918918919042
  0
VERTEX
  5
32F
  8
CELLS
 10
6.80375112018179
 20
2.708211701244129
 30
0.0
  0
VERTEX
  5
330
  8
CELLS
 10
6.803751120181786
 20
3.613033985133232
 30
0.0
 42
0.7918918918918858
  0
VERTEX
  5
331
  8
CELLS
 10
6.063078011688486
 20
3.613033985133233
 30
0.0
  0
SEQEND
  5
332
  8
CELLS
  0
POLYLINE
  5
333
  8
CELLS
 66
     1
 10
0.0
 20
0.0
 30
0.0
 70
     1
  0
VERTEX
  5
334
  8
CELLS
 10
5.07240490319519
 20
2.708211701244124
 30
0.0
 42
0.7918918918918936
  0
VERTEX
  5
335
  8
CELLS
 10
5.813078011688492
 20
2.708211701244129
 30
0.0
  0
VERTEX
  5
336
  8
CELLS
 10
5.813078011688491
 20
3.613033985133236
 30
0.0
 42
0.7918918918918858
  0
VERTEX
  5
337
  8
CELLS
 10
5.072404903195188
 20
3.613033985133236
 30
0.0
  0
SEQEND
  5
338
  8
CELLS
  0
POLYLINE
  5
339
  8
CELLS
 66
     1
 10
0.0
 20
0.0
 30
0.0
 70
     1
  0
VERTEX
  5
33A
  8
CELLS
 10
4.081731794701892
 20
2.708211701244128
 30
0.0
 42
0.7918918918919081
  0
VERTEX
  5
33B
  8
CELLS
 10
4.822404903195193
 20
2.708211701244136
 30
0.0
  0
VERTEX
  5
33C
  8
CELLS
 10
4.822404903195191
 20
3.613033985133235
 30
0.0
 42
0.7918918918918858
  0
VERTEX
  5
33D
  8
CELLS
 10
4.08173179470189
 20
3.613033985133236
 30
0.0
  0
SEQEND
  5
33E
  8
CELLS
  0
POLYLINE
  5
33F
  8
CELLS
 66
     1
 10
0.0
 20
0.0
 30
0.0
 70
     1
  0
VERTEX
  5
340
  8
CELLS
 10
3.091058686208594
 20
2.708211701244132
 30
0.0
 42
0.7918918918918926
  0
VERTEX
  5
341
  8
CELLS
 10
3.831731794701894
 20
2.708211701244137
 30
0.0
  0
VERTEX
  5
342
  8
CELLS
 10
3.831731794701894
 20
3.613033985133242
 30
0.0
 42
0.7918918918918885
  0
VERTEX
  5
343
  8
CELLS
 10
3.091058686208592
 20
3.613033985133244
 30
0.0
  0
SEQEND
  5
344
  8
CELLS
  0
POLYLINE
  5
345
  8
CELLS
 66
     1
 10
0.0
 20
0.0
 30
0.0
 70
     1
  0
VERTEX
  5
346
  8
CELLS
 10
2.100385577715296
 20
2.708211701244132
 30
0.0
 42
0.7918918918918989
  0
VERTEX
  5
347
  8
CELLS
 10
2.841058686208597
 20
2.70821170124414
 30
0.0
  0
VERTEX
  5
348
  8
CELLS
 10
2.841058686208595
 20
3.613033985133242
 30
0.0
 42
0.7918918918918881
  0
VERTEX
  5
349
  8
CELLS
 10
2.100385577715294
 20
3.613033985133244
 30
0.0
  0
SEQEND
  5
34A
  8
CELLS
  0
POLYLINE
  5
34B
  8
CELLS
 66
     1
 10
0.0
 20
0.0
 30
0.0
 70
     1
  0
VERTEX
  5
34C
  8
CELLS
 10
1.109712469221998
 20
2.708211701244139
 30
0.0
 42
0.7918918918919026
  0
VERTEX
  5
34D
  8
CELLS
 10
1.850385577715298
 20
2.708211701244144
 30
0.0
  0
VERTEX
  5
34E
  8
CELLS
 10
1.850385577715297
 20
3.613033985133246
 30
0.0
 42
0.7918918918918897
  0
VERTEX
  5
34F
  8
CELLS
 10
1.109712469221996
 20
3.613033985133247
 30
0.0
  0
SEQEND
  5
350
  8
CELLS
  0
POLYLINE
  5
351
  8
CELLS
 66
     1
 10
0.0
 20
0.0
 30
0.0
 70
     1
  0
VERTEX
  5
352
  8
CELLS
 10
7.053751120181782
 20
4.449567014291439
 30
0.0
 42
0.7918918918919002
  0
VERTEX
  5
353
  8
CELLS
 10
7.794424228675082
 20
4.449567014291444
 30
0.0
  0
VERTEX
  5
354
  8
CELLS
 10
7.79442422867508
 20
5.354389298180546
 30
0.0
 42
0.7918918918918931
  0
VERTEX
  5
355
  8
CELLS
 10
7.053751120181779
 20
5.354389298180547
 30
0.0
  0
SEQEND
  5
356
  8
CELLS
  0
POLYLINE
  5
357
  8
CELLS
 66
     1
 10
0.0
 20
0.0
 30
0.0
 70
     1
  0
VERTEX
  5
358
  8
CELLS
 10
6.063078011688484
 20
4.449567014291439
 30
0.0
 42
0.7918918918918946
  0
VERTEX
  5
359
  8
CELLS
 10
6.803751120181783
 20
4.449567014291447
 30
0.0
  0
VERTEX
  5
35A
  8
CELLS
 10
6.803751120181784
 20
5.35438929818055
 30
0.0
 42
0.7918918918918937
  0
VERTEX
  5
35B
  8
CELLS
 10
6.063078011688481
 20
5.354389298180551
 30
0.0
  0
SEQEND
  5
35C
  8
CELLS
  0
POLYLINE
  5
35D
  8
CELLS
 66
     1
 10
0.0
 20
0.0
 30
0.0
 70
     1
  0
VERTEX
  5
35E
  8
CELLS
 10
5.072404903195186
 20
4.449567014291443
 30
0.0
 42
0.7918918918919002
  0
VERTEX
  5
35F
  8
CELLS
 10
5.813078011688487
 20
4.449567014291451
 30
0.0
  0
VERTEX
  5
360
  8
CELLS
 10
5.813078011688484
 20
5.354389298180553
 30
0.0
 42
0.7918918918918931
  0
VERTEX
  5
361
  8
CELLS
 10
5.072404903195183
 20
5.354389298180554
 30
0.0
  0
SEQEND
  5
362
  8
CELLS
  0
POLYLINE
  5
363
  8
CELLS
 66
     1
 10
0.0
 20
0.0
 30
0.0
 70
     1
  0
VERTEX
  5
364
  8
CELLS
 10
4.081731794701888
 20
4.449567014291446
 30
0.0
 42
0.791891891891895
  0
VERTEX
  5
365
  8
CELLS
 10
4.822404903195192
 20
4.44956701429145
 30
0.0
  0
VERTEX
  5
366
  8
CELLS
 10
4.822404903195189
 20
5.354389298180557
 30
0.0
 42
0.7918918918918955
  0
VERTEX
  5
367
  8
CELLS
 10
4.081731794701885
 20
5.354389298180558
 30
0.0
  0
SEQEND
  5
368
  8
CELLS
  0
POLYLINE
  5
369
  8
CELLS
 66
     1
 10
0.0
 20
0.0
 30
0.0
 70
     1
  0
VERTEX
  5
36A
  8
CELLS
 10
3.09105868620859
 20
4.44956701429145
 30
0.0
 42
0.7918918918919047
  0
VERTEX
  5
36B
  8
CELLS
 10
3.83173179470189
 20
4.449567014291458
 30
0.0
  0
VERTEX
  5
36C
  8
CELLS
 10
3.83173179470189
 20
5.354389298180557
 30
0.0
 42
0.7918918918918988
  0
VERTEX
  5
36D
  8
CELLS
 10
3.091058686208588
 20
5.354389298180558
 30
0.0
  0
SEQEND
  5
36E
  8
CELLS
  0
POLYLINE
  5
36F
  8
CELLS
 66
     1
 10
0.0
 20
0.0
 30
0.0
 70
     1
  0
VERTEX
  5
370
  8
CELLS
 10
2.100385577715292
 20
4.449567014291453
 30
0.0
 42
0.7918918918919003
  0
VERTEX
  5
371
  8
CELLS
 10
2.841058686208592
 20
4.449567014291458
 30
0.0
  0
VERTEX
  5
372
  8
CELLS
 10
2.841058686208591
 20
5.354389298180561
 30
0.0
 42
0.7918918918918979
  0
VERTEX
  5
373
  8
CELLS
 10
2.10038557771529
 20
5.354389298180561
 30
0.0
  0
SEQEND
  5
374
  8
CELLS
  0
POLYLINE
  5
375
  8
CELLS
 66
     1
 10
0.0
 20
0.0
 30
0.0
 70
     1
  0
VERTEX
  5
376
  8
CELLS
 10
1.109712469221994
 20
4.449567014291453
 30
0.0
 42
0.791891891891894
  0
VERTEX
  5
377
  8
CELLS
 10
1.850385577715295
 20
4.449567014291458
 30
0.0
  0
VERTEX
  5
378
  8
CELLS
 10
1.850385577715293
 20
5.354389298180564
 30
0.0
 42
0.7918918918918979
  0
VERTEX
  5
379
  8
CELLS
 10
1.109712469221991
 20
5.354389298180565
 30
0.0
  0
SEQEND
  5
37A
  8
CELLS
  0
ENDSEC
  0
EOF
